<svg width="28" height="28" viewBox="0 0 28 28" fill="none" xmlns="http://www.w3.org/2000/svg">
    <g clip-path="url(#clip0)">
        <path
            d="M23.625 26.8333H4.37496C2.60513 26.8333 1.16663 25.3948 1.16663 23.625V4.375C1.16663 2.60516 2.60513 1.16666 4.37496 1.16666H23.625C25.3948 1.16666 26.8333 2.60516 26.8333 4.375V23.625C26.8333 25.3948 25.3948 26.8333 23.625 26.8333Z"
            fill="#2196F3" />
        <path
            d="M13.4166 17.5H12.5416C12.0586 17.5 11.6666 17.108 11.6666 16.625V11.375C11.6666 10.892 12.0586 10.5 12.5416 10.5H13.4166C15.3463 10.5 16.9166 12.0703 16.9166 14C16.9166 15.9297 15.3463 17.5 13.4166 17.5ZM13.4166 12.25V15.75C14.3815 15.75 15.1666 14.9648 15.1666 14C15.1666 13.0352 14.3815 12.25 13.4166 12.25Z"
            fill="white" />
        <path
            d="M8.45854 17.5C7.97554 17.5 7.58354 17.108 7.58354 16.625V12.8333C7.58354 12.5113 7.3222 12.25 7.0002 12.25C6.6782 12.25 6.41687 12.5113 6.41687 12.8333V16.625C6.41687 17.108 6.02487 17.5 5.54187 17.5C5.05887 17.5 4.66687 17.108 4.66687 16.625V12.8333C4.66687 11.5465 5.71337 10.5 7.0002 10.5C8.28704 10.5 9.33354 11.5465 9.33354 12.8333V16.625C9.33354 17.108 8.94154 17.5 8.45854 17.5Z"
            fill="white" />
        <path
            d="M8.45829 15.75H5.54163C5.05863 15.75 4.66663 15.358 4.66663 14.875C4.66663 14.392 5.05863 14 5.54163 14H8.45829C8.94129 14 9.33329 14.392 9.33329 14.875C9.33329 15.358 8.94129 15.75 8.45829 15.75Z"
            fill="white" />
        <path
            d="M21.2426 17.5H19.5416C19.0586 17.5 18.6666 17.108 18.6666 16.625C18.6666 16.142 19.0586 15.75 19.5416 15.75H21.2426C21.4269 15.75 21.5832 15.5493 21.5832 15.3125C21.5832 15.0757 21.4281 14.875 21.2426 14.875H20.7561C19.6034 14.875 18.6654 13.8938 18.6654 12.6875C18.6654 11.4812 19.6046 10.5 20.7572 10.5H22.4582C22.9412 10.5 23.3332 10.892 23.3332 11.375C23.3332 11.858 22.9412 12.25 22.4582 12.25H20.7572C20.5729 12.25 20.4166 12.4507 20.4166 12.6875C20.4166 12.9243 20.5717 13.125 20.7572 13.125H21.2437C22.3964 13.125 23.3344 14.1062 23.3344 15.3125C23.3344 16.5188 22.3952 17.5 21.2426 17.5Z"
            fill="white" />
        <path
            d="M1.16586 26.8325C0.867193 26.8325 0.568526 26.7182 0.341026 26.4907C-0.11514 26.0345 -0.11514 25.2972 0.341026 24.841L24.841 0.341049C25.2972 -0.115117 26.0345 -0.115117 26.4907 0.341049C26.9469 0.797216 26.9469 1.53455 26.4907 1.99072L1.99069 26.4907C1.76319 26.7182 1.46453 26.8325 1.16586 26.8325Z"
            fill="#FFC107" />
    </g>
    <defs>
        <clipPath id="clip0">
            <rect width="28" height="28" fill="white" />
        </clipPath>
    </defs>
</svg>
