<svg width="28" height="28" viewBox="0 0 28 28" fill="none" xmlns="http://www.w3.org/2000/svg">
    <path
        d="M22.9277 20.2331H5.07223C4.79944 20.2331 4.54459 20.0983 4.39099 19.8729C2.03516 16.4182 1.85443 9.77261 1.84076 8.7861C1.8399 8.74744 1.83948 8.70834 1.83948 8.66946C1.83948 8.21466 2.20776 7.84573 2.66257 7.84488H2.66428C3.11823 7.84488 3.48715 8.2121 3.48886 8.66626C3.48886 8.67181 3.48907 8.72052 3.491 8.80682C3.56363 11.153 5.49499 13.0391 7.85852 13.0391C10.268 13.0391 12.2282 11.0789 12.2282 8.66946C12.2282 8.21402 12.5975 7.84488 13.0528 7.84488H14.947C15.4024 7.84488 15.7715 8.21402 15.7715 8.66946C15.7715 11.0789 17.732 13.0391 20.1414 13.0391C22.5071 13.0391 24.4397 11.1496 24.5092 8.80042C24.5106 8.71796 24.5111 8.67181 24.5111 8.66647C24.5128 8.2121 24.8815 7.84488 25.3357 7.84488H25.3372C25.792 7.84573 26.1602 8.21466 26.1602 8.66946C26.1602 8.70856 26.1598 8.74744 26.1592 8.78632C26.1453 9.77261 25.9646 16.4184 23.6089 19.8731C23.4554 20.0983 23.2003 20.2331 22.9277 20.2331Z"
        fill="#FFF780" />
    <path
        d="M25.337 7.84488C25.3365 7.84488 25.3361 7.84488 25.3355 7.84488C24.8815 7.84488 24.5126 8.2121 24.5109 8.66626C24.5109 8.67181 24.5107 8.71796 24.509 8.80042C24.4395 11.1494 22.5069 13.0391 20.1412 13.0391C17.7318 13.0391 15.7716 11.0789 15.7716 8.66946C15.7716 8.21402 15.4022 7.84488 14.947 7.84488H14V20.2329H22.9275C23.2003 20.2329 23.4552 20.0981 23.6088 19.8729C25.9646 16.4182 26.1453 9.7724 26.159 8.7861C26.1598 8.74744 26.1603 8.70834 26.1603 8.66946C26.1601 8.21466 25.7918 7.84573 25.337 7.84488V7.84488Z"
        fill="#FFC02E" />
    <path
        d="M14 5.03125C12.5309 5.03125 11.3357 6.22647 11.3357 7.69556C11.3357 9.16464 12.5309 10.3596 14 10.3596C15.4691 10.3596 16.6643 9.16464 16.6643 7.69556C16.6643 6.22647 15.4691 5.03125 14 5.03125Z"
        fill="#FFC02E" />
    <path
        d="M14 5.03125V10.3599C15.4691 10.3596 16.6641 9.16464 16.6641 7.69556C16.6641 6.22647 15.4689 5.03146 14 5.03125V5.03125Z"
        fill="#FFA73B" />
    <path
        d="M2.66431 7.08737C1.19522 7.08737 0 8.28259 0 9.75168C0 11.2208 1.19522 12.416 2.66431 12.416C4.13339 12.416 5.3284 11.2208 5.3284 9.75168C5.3284 8.28259 4.13339 7.08737 2.66431 7.08737Z"
        fill="#FFC02E" />
    <path
        d="M25.3355 7.08737C23.8664 7.08737 22.6714 8.28259 22.6714 9.75168C22.6714 11.2205 23.8664 12.4158 25.3355 12.4158C26.8046 12.4158 27.9998 11.2205 27.9998 9.75168C27.9998 8.28259 26.8046 7.08737 25.3355 7.08737Z"
        fill="#FFA73B" />
    <path
        d="M22.9277 22.9382H5.07227C4.61682 22.9382 4.24768 22.5691 4.24768 22.1136V19.6546H23.7523V22.1136C23.7523 22.5691 23.3832 22.9382 22.9277 22.9382V22.9382Z"
        fill="#FFC02E" />
    <path d="M14 22.9382H22.9275C23.383 22.9382 23.7521 22.5691 23.7521 22.1136V19.6546H14V22.9382Z"
        fill="#FFA73B" />
</svg>
