<svg width="44" height="40" viewBox="0 0 44 40" fill="none" xmlns="http://www.w3.org/2000/svg">
    <path
        d="M31.0766 39.9999C26.2944 39.9999 24.6964 34.0248 23.0047 27.6985C21.416 21.7601 19.7749 15.624 15.8932 15.4645V15.4768L15.4315 15.463C11.533 15.6839 9.90124 21.7893 8.32003 27.6985C6.62987 34.0248 5.03181 39.9999 0.25 39.9999V36.9326C2.67629 36.9326 4.03958 31.8348 5.35868 26.904C7.17765 20.104 9.23887 12.3942 15.5865 12.3942H15.7401C22.0877 12.3942 24.1489 20.104 25.9679 26.904C27.2866 31.8348 28.6503 36.9326 31.0766 36.9326V39.9999Z"
        fill="#31A7FB" />
    <path
        d="M24.022 20.3998C23.8838 21.1666 23.7461 21.8874 23.6386 22.5165C23.3626 24.0501 23.1017 25.5531 22.8257 27.01C21.2921 21.3048 19.6202 15.6304 15.8936 15.4615V15.4769L15.5869 15.4615C15.7861 14.4341 16.001 13.4063 16.2309 12.4095C20.2493 12.6701 22.4577 16.1362 24.022 20.3998V20.3998Z"
        fill="#0080DC" />
    <path
        d="M43.1926 40C38.3048 40 36.8172 31.6555 35.0964 21.9919C33.6028 13.6167 31.7452 3.19231 27.8561 3.19231C23.9669 3.19231 22.1094 13.6167 20.6158 21.9919C18.8949 31.6555 17.4073 40 12.5195 40V36.9327C14.8384 36.9327 16.4978 27.6173 17.5975 21.4535C19.4655 10.968 21.3979 0.125 27.8561 0.125C34.3142 0.125 36.2466 10.968 38.1146 21.4535C39.2143 27.6173 40.8738 36.9327 43.1926 36.9327V40Z"
        fill="#47B3FF" />
</svg>
