<svg width="43" height="40" viewBox="0 0 43 40" fill="none" xmlns="http://www.w3.org/2000/svg">
    <path
        d="M30.8266 39.8749C26.0444 39.8749 24.4464 33.8998 22.7547 27.5735C21.166 21.6351 19.5249 15.499 15.6432 15.3395V15.3518L15.1815 15.338C11.283 15.5589 9.65124 21.6643 8.07003 27.5735C6.37987 33.8998 4.78181 39.8749 0 39.8749V36.8076C2.42629 36.8076 3.78958 31.7098 5.10868 26.779C6.92765 19.979 8.98887 12.2692 15.3365 12.2692H15.4901C21.8377 12.2692 23.8989 19.979 25.7179 26.779C27.0366 31.7098 28.4003 36.8076 30.8266 36.8076V39.8749Z"
        fill="#6C7AFF" />
    <path
        d="M23.772 20.2748C23.6338 21.0416 23.4961 21.7624 23.3886 22.3915C23.1126 23.9251 22.8517 25.4281 22.5757 26.885C21.0421 21.1798 19.3702 15.5054 15.6436 15.3365V15.3519L15.3369 15.3365C15.5361 14.3091 15.751 13.2813 15.9809 12.2845C19.9993 12.5451 22.2077 16.0112 23.772 20.2748V20.2748Z"
        fill="#0018FF" />
    <path
        d="M42.9426 39.875C38.0548 39.875 36.5672 31.5305 34.8464 21.8669C33.3528 13.4917 31.4952 3.06731 27.6061 3.06731C23.7169 3.06731 21.8594 13.4917 20.3658 21.8669C18.6449 31.5305 17.1573 39.875 12.2695 39.875V36.8077C14.5884 36.8077 16.2478 27.4923 17.3475 21.3285C19.2155 10.843 21.1479 0 27.6061 0C34.0642 0 35.9966 10.843 37.8646 21.3285C38.9643 27.4923 40.6238 36.8077 42.9426 36.8077V39.875Z"
        fill="#6C7AFF" />
</svg>
