<?xml version="1.0"?>
<svg xmlns="http://www.w3.org/2000/svg" version="1.1" width="512" height="512" x="0" y="0"
    viewBox="0 0 24 24" style="enable-background:new 0 0 512 512" xml:space="preserve" class=""><g><path xmlns="http://www.w3.org/2000/svg" d="m13.5 11c-.276 0-.5-.224-.5-.5v-3c0-.276.224-.5.5-.5s.5.224.5.5v3c0 .276-.224.5-.5.5z" fill="#ffffff" data-original="#000000" style="" class=""/><path
    xmlns="http://www.w3.org/2000/svg"
    d="m13.5 24c-.276 0-.5-.224-.5-.5v-9c0-.276.224-.5.5-.5s.5.224.5.5v9c0 .276-.224.5-.5.5z"
    fill="#ffffff" data-original="#000000" style="" class="" /><path
    xmlns="http://www.w3.org/2000/svg"
    d="m10.5 11c-.276 0-.5-.224-.5-.5v-3c0-.276.224-.5.5-.5s.5.224.5.5v3c0 .276-.224.5-.5.5z"
    fill="#ffffff" data-original="#000000" style="" class="" /><path
    xmlns="http://www.w3.org/2000/svg"
    d="m10.5 24c-.276 0-.5-.224-.5-.5v-9c0-.276.224-.5.5-.5s.5.224.5.5v9c0 .276-.224.5-.5.5z"
    fill="#ffffff" data-original="#000000" style="" class="" /><path
    xmlns="http://www.w3.org/2000/svg"
    d="m13.5 4c-.276 0-.5-.224-.5-.5v-2c0-.276-.225-.5-.5-.5h-1c-.275 0-.5.224-.5.5v2c0 .276-.224.5-.5.5s-.5-.224-.5-.5v-2c0-.827.673-1.5 1.5-1.5h1c.827 0 1.5.673 1.5 1.5v2c0 .276-.224.5-.5.5z"
    fill="#ffffff" data-original="#000000" style="" class="" /><path
    xmlns="http://www.w3.org/2000/svg"
    d="m19.5 24h-15c-.276 0-.5-.224-.5-.5s.224-.5.5-.5h15c.276 0 .5.224.5.5s-.224.5-.5.5z"
    fill="#ffffff" data-original="#000000" style="" class="" /><path
    xmlns="http://www.w3.org/2000/svg"
    d="m17.5 8h-11.5c-.113 0-.224-.039-.313-.109l-2.5-2c-.118-.096-.187-.239-.187-.391s.069-.295.187-.391l2.5-2c.089-.07.2-.109.313-.109h11.5c.827 0 1.5.673 1.5 1.5v2c0 .827-.673 1.5-1.5 1.5zm-11.324-1h11.324c.275 0 .5-.224.5-.5v-2c0-.276-.225-.5-.5-.5h-11.324l-1.875 1.5z"
    fill="#ffffff" data-original="#000000" style="" class="" /><path
    xmlns="http://www.w3.org/2000/svg"
    d="m17.5 15h-11.5c-.113 0-.224-.039-.313-.109l-2.5-2c-.118-.096-.187-.239-.187-.391s.069-.295.187-.391l2.5-2c.089-.07.2-.109.313-.109h11.5c.827 0 1.5.673 1.5 1.5v2c0 .827-.673 1.5-1.5 1.5zm-11.324-1h11.324c.275 0 .5-.224.5-.5v-2c0-.276-.225-.5-.5-.5h-11.324l-1.875 1.5z"
    fill="#ffffff" data-original="#000000" style="" class="" /></g></svg>
