<?xml version="1.0"?>
<svg xmlns="http://www.w3.org/2000/svg" version="1.1" id="Capa_1" x="0px" y="0px" viewBox="0 0 512 512" style="enable-background:new 0 0 512 512;"
	xml:space="preserve" width="512px" height="512px" class=""><g><path style="fill:#875722" d="M280.496,473.44V24.496C280.496,10.976,269.536,0,256,0c-13.536,0-24.496,10.976-24.496,24.496  V473.44H280.496z" data-original="#3E4347" class="" data-old_color="#3E4347"/><path
    style="fill:#54E360"
    d="M317.76,219.68v103.2c0,8.32-6.72,14.88-14.88,14.88H72.64c-3.84,0-7.84-1.6-10.56-4.32l-51.52-51.52  c-5.76-5.76-5.76-15.36,0-21.12c10.08-9.92,13.28-13.28,51.52-51.52c2.88-2.88,6.72-4.48,10.56-4.48h230.24  C311.04,204.8,317.76,211.52,317.76,219.68z"
    data-original="#E24B4B" class="active-path" data-old_color="#E24B4B" /><path
    style="fill:#00AB5E"
    d="M317.76,219.68v103.2c0,8.32-6.72,14.88-14.88,14.88H72.64c-3.84,0-7.84-1.6-10.56-4.32l-0.8-0.8  c133.76-7.04,237.6-60.64,237.6-125.6c0-0.8,0-1.44-0.16-2.24h4.16C311.04,204.8,317.76,211.52,317.76,219.68z"
    data-original="#D03F3F" class="" data-old_color="#D03F3F" /><path style="fill:#C3825B"
    d="M378.912,512c-23.328-62.928-56.624-72-122.896-72s-99.6,9.072-122.912,72H378.912z"
    data-original="#5A5F63" class="" data-old_color="#5A5F63" /><path style="fill:#FFD93B;"
    d="M501.44,119.36c-10.08,9.92-13.28,13.12-51.52,51.52c-2.88,2.72-6.72,4.48-10.56,4.48H209.12  c-8.32,0-14.88-6.72-14.88-14.88V57.12c0-8.16,6.56-14.88,14.88-14.88h230.24c3.84,0,7.84,1.6,10.56,4.48  c19.68,19.68,32.96,32.96,51.52,51.36C507.2,104,507.2,113.44,501.44,119.36z"
    data-original="#FFD93B" class="" /><path style="fill:#F4C534"
    d="M501.44,119.36c-10.08,9.92-13.28,13.12-51.52,51.52c-2.88,2.72-6.72,4.48-10.56,4.48H226.08  c128.48-12.8,225.28-62.24,230.4-122.08c16.32,16.32,28.64,28.48,44.96,44.8C507.2,104,507.2,113.44,501.44,119.36z"
    data-original="#F4C534" class="" data-old_color="#F4C534" /><g>
	<path style="opacity:0.2;fill:#FFFFFF;enable-background:new    ;"
        d="M415.84,42.24c-23.36,53.12-112.32,93.6-221.6,98.08v-83.2   c0-8.16,6.56-14.88,14.88-14.88C209.12,42.24,415.84,42.24,415.84,42.24z" />
    <path style="opacity:0.1;fill:#FFFFFF;enable-background:new    ;"
        d="M256,208.8c0,46.56-103.52,84.32-232.8,85.76l-12.64-12.64   c-5.76-5.76-5.76-15.36,0-21.12c10.08-9.92,13.28-13.28,51.52-51.52c2.88-2.88,6.72-4.48,10.56-4.48h183.04   C255.84,206.24,256,207.52,256,208.8z" />
</g><path style="fill:#875722"
    d="M333.616,452.432c0.048,0.08,34.912,56.128-200.528,59.568h245.808  C367.264,480.56,353.12,462.576,333.616,452.432z"
    data-original="#3E4347" class="" data-old_color="#3E4347" /></g> </svg>
