<svg width="90" height="77" viewBox="0 0 90 77" fill="none" xmlns="http://www.w3.org/2000/svg">
<path d="M21.4567 82.2828C21.4567 82.2828 24.6117 75.7159 17.6046 69.3325C11.4413 63.7195 0.435412 61.5917 0.435412 61.5917C0.435412 61.5917 -0.921989 72.4142 7.51588 79.8982C15.22 86.7585 21.4567 82.2828 21.4567 82.2828Z" fill="#054F50"/>
<path d="M5.02128 67.7549C4.4343 67.4615 2.37986 66.3609 0.435486 65.1135C0.435486 65.1869 0.435488 65.2603 0.472174 65.3336C2.67336 66.7644 4.94791 67.9017 5.13134 68.0117L5.27809 68.0851L4.58104 62.6922C4.50767 62.6555 4.4343 62.6555 4.39761 62.6189L5.02128 67.7549Z" fill="#0B3530"/>
<path d="M7.25901 70.6164H7.33238V70.543C7.33238 70.5064 7.99274 67.4247 7.80931 63.7561C7.73593 63.7194 7.69925 63.7194 7.62587 63.6827C7.84599 67.0578 7.29569 69.9561 7.18563 70.433C5.35131 70.4697 3.11345 69.9561 1.16907 69.3691C1.16907 69.4425 1.20576 69.5158 1.24244 69.5892C3.11345 70.1395 5.24126 70.6164 7.03889 70.6164C7.07558 70.6164 7.14895 70.6164 7.25901 70.6164Z" fill="#0B3530"/>
<path d="M2.78326 73.7714C2.81995 73.8448 2.85664 73.8815 2.85664 73.9549C4.80102 73.8815 7.07557 73.6247 9.38681 72.9643H9.4235V72.9277C9.46019 72.891 11.0377 69.0756 11.5513 65.4436C11.4779 65.4069 11.4412 65.3703 11.3679 65.3703C10.891 68.7821 9.4235 72.414 9.24007 72.8176C7.03889 73.4413 4.72764 73.6981 2.78326 73.7714Z" fill="#0B3530"/>
<path d="M4.69104 76.8165C4.72773 76.8899 4.76441 76.9266 4.83778 76.9999C7.07565 76.8899 9.97387 76.5964 12.4685 75.826H12.5052V75.7893C12.5052 75.7159 13.8993 70.9834 14.3029 66.9479C14.2295 66.9112 14.1928 66.8745 14.1194 66.8378C13.7159 70.6899 12.4686 75.2023 12.3218 75.6792C9.82713 76.4497 6.92891 76.7431 4.69104 76.8165Z" fill="#0B3530"/>
<path d="M17.3845 79.7513L17.4579 79.7146V79.6413C17.4579 79.5679 17.5313 73.8081 17.1277 68.8921C17.0543 68.8188 16.981 68.7821 16.9443 68.7087C17.3478 73.3679 17.3111 78.9075 17.3111 79.5679C14.8898 80.5584 11.1111 80.5217 8.02948 80.2282C8.10285 80.3016 8.17622 80.375 8.28628 80.4484C9.3135 80.5217 10.4141 80.5951 11.5514 80.5951C13.6425 80.6318 15.807 80.4117 17.3845 79.7513Z" fill="#0B3530"/>
<path d="M19.7324 81.2922C18.2283 82.1726 15.807 82.8697 13.7159 83.3833C13.8626 83.42 13.9727 83.4567 14.1194 83.4934C16.1739 82.9797 18.4117 82.3194 19.8792 81.4756L19.9159 81.4389V81.4022C19.9159 81.3655 20.6496 77.22 20.6129 73.0377C20.5395 72.9277 20.5029 72.8176 20.4295 72.7076C20.5029 76.7431 19.8425 80.8519 19.7324 81.2922Z" fill="#0B3530"/>
<path d="M26.4461 56.2354C26.4461 56.2354 31.1786 51.4295 26.923 43.7253C23.181 36.9383 14.1928 31.7655 14.1928 31.7655C14.1928 31.7655 9.75378 40.8638 14.9266 49.962C19.6591 58.3265 26.4461 56.2354 26.4461 56.2354Z" fill="#0B5F55"/>
<path d="M13.2389 34.4436C13.2022 34.517 13.2022 34.5904 13.1655 34.6637C14.1927 36.2413 15.6602 38.2223 17.3478 39.7265L17.4945 39.8732V39.6531C17.4945 39.6164 17.4211 36.9016 17.0543 33.6365C16.9809 33.5998 16.9075 33.5265 16.8708 33.4898C17.201 36.2779 17.3111 38.7359 17.3111 39.4697C15.6602 37.9288 14.2661 36.0211 13.2389 34.4436Z" fill="#0B3530"/>
<path d="M18.4485 42.4413L18.4851 42.3679C18.5218 42.3313 19.9526 39.7265 20.6496 36.3881C20.613 36.3514 20.5396 36.3147 20.5029 36.2413C19.8792 39.323 18.5952 41.8177 18.3751 42.2212C16.3573 41.8177 14.1928 40.9005 12.4686 40.02C12.4686 40.0934 12.4686 40.1668 12.4686 40.2401C14.2295 41.1206 16.394 42.0378 18.4118 42.4046L18.4485 42.4413Z" fill="#0B3530"/>
<path d="M19.6224 45.2662H19.6591L19.6957 45.2295C19.7324 45.1928 22.007 42.0011 23.5478 39.1396C23.5111 39.1029 23.4744 39.0295 23.4011 38.9928C21.9703 41.671 19.8425 44.7159 19.5857 45.0828C19.549 45.0828 19.549 45.0828 19.5123 45.0828C17.5313 45.0828 14.8165 44.4591 12.762 43.9088C12.762 43.9822 12.7987 44.0556 12.7987 44.0922C14.8532 44.6425 17.5313 45.2662 19.5123 45.2662C19.5123 45.2662 19.549 45.2662 19.6224 45.2662Z" fill="#0B3530"/>
<path d="M22.1537 50.0721H22.1904L22.2271 50.0354C22.2638 49.9987 24.6117 46.0733 26.0791 42.2946C26.0425 42.2212 26.0058 42.1845 25.9691 42.1112C24.6117 45.6698 22.3738 49.4485 22.117 49.8887C18.9987 49.9254 16.504 49.6686 14.5963 49.3384C14.633 49.4118 14.6697 49.4851 14.7064 49.5585C16.4673 49.852 18.7419 50.1088 21.5667 50.1088C21.7502 50.0721 21.9336 50.0721 22.1537 50.0721Z" fill="#0B3530"/>
<path d="M28.0235 46.1099C27.1064 50.1087 25.4922 54.1442 25.2721 54.6945C22.2638 54.3643 19.2555 53.6673 17.2377 53.117C17.3111 53.1904 17.4212 53.3004 17.4945 53.3738C19.549 53.9241 22.4472 54.5845 25.3087 54.8779H25.3821L25.4188 54.8046C25.4555 54.7312 27.1431 50.5856 28.1336 46.4034C28.0969 46.33 28.0602 46.22 28.0235 46.1099Z" fill="#0B3530"/>
<path d="M34.3336 38.6993C34.3336 38.6993 27.9135 36.6081 28.1336 27.8034C28.3171 20.0626 33.9301 11.3312 33.9301 11.3312C33.9301 11.3312 42.0378 17.3478 41.7076 27.8034C41.3041 37.3785 34.3336 38.6993 34.3336 38.6993Z" fill="#105A5D"/>
<path d="M41.6709 27.3632C41.6709 27.2165 41.6709 27.1064 41.6709 26.9597C37.7455 34.1135 34.3337 36.278 33.8934 36.5348C31.1419 34.9206 29.3076 32.0957 28.1703 29.7845C28.1703 29.9679 28.207 30.1514 28.2437 30.2981C29.4177 32.536 31.2153 35.1774 33.8567 36.7182L33.8934 36.7549L33.9301 36.7182C33.9668 36.7182 37.5254 34.7739 41.6709 27.3632Z" fill="#0B3530"/>
<path d="M34.1135 32.6094L34.1869 32.6461L34.2236 32.5727C34.2603 32.536 38.4792 27.8402 41.194 22.8508C41.1573 22.7775 41.1573 22.6674 41.1206 22.594C38.5893 27.3266 34.6638 31.839 34.1502 32.426C31.6189 30.5917 29.6378 27.6201 28.3538 25.3088C28.3538 25.4189 28.3171 25.4923 28.3171 25.6023C29.6011 27.8769 31.5822 30.8118 34.1135 32.6094Z" fill="#0B3530"/>
<path d="M34.297 28.4638L34.3337 28.5005L34.3704 28.4638C34.4071 28.4271 37.0485 26.6295 40.3136 20.0259C40.2769 19.9526 40.2402 19.8792 40.2035 19.8058C37.1952 25.9691 34.7006 27.9869 34.3337 28.2804C32.4627 27.1431 30.4082 24.3549 29.0142 22.2271C28.9775 22.3005 28.9775 22.3739 28.9408 22.4472C30.3716 24.6117 32.426 27.3632 34.297 28.4638Z" fill="#0B3530"/>
<path d="M34.3703 24.2448L34.4437 24.3182L34.4803 24.2448C34.517 24.2081 36.865 19.8791 38.2957 16.3205C38.259 16.2472 38.2223 16.2105 38.1857 16.1371C36.8649 19.4389 34.7371 23.4377 34.3703 24.0614C32.6093 22.704 31.2886 20.0625 30.4815 17.9347C30.4448 18.0081 30.4081 18.1182 30.3715 18.1915C31.2519 20.3193 32.5726 22.9241 34.3703 24.2448Z" fill="#0B3530"/>
<path d="M34.5904 19.4389C34.5904 19.4022 35.6543 16.7975 36.3514 13.6791C36.3147 13.6058 36.2413 13.5691 36.2046 13.4957C35.6176 16.2105 34.7372 18.5584 34.4803 19.1821L31.9123 14.9265C31.8756 14.9998 31.8389 15.0732 31.8022 15.1099L34.517 19.5856L34.5904 19.4389Z" fill="#0B3530"/>
<path d="M38.2591 47.6508C38.2591 47.6508 35.0674 41.7076 41.3041 35.5076C46.7703 30.0414 56.8591 27.5834 56.8591 27.5834C56.8591 27.5834 58.5834 37.5621 51.0993 44.8627C44.239 51.5396 38.2591 47.6508 38.2591 47.6508Z" fill="#106C6A"/>
<path d="M40.5337 46.8804C40.2769 44.1289 40.9006 38.7727 41.3408 35.4709C41.3408 35.4709 41.3408 35.4709 41.3041 35.5076C41.2308 35.581 41.1941 35.6544 41.1207 35.7277C40.6805 39.1029 40.0935 44.3124 40.3503 46.9905V47.0638H40.4237C40.4603 47.0638 43.1384 47.4674 46.7704 47.4674C47.0272 47.4674 47.3207 47.4674 47.6142 47.4674C47.7243 47.394 47.8343 47.3573 47.9811 47.2839C44.0923 47.3573 41.0106 46.9538 40.5337 46.8804Z" fill="#0B3530"/>
<path d="M44.0189 43.9455C43.542 40.3135 43.6887 36.0579 43.8355 33.3431C43.7621 33.3798 43.7254 33.4165 43.6521 33.4899C43.5053 36.2413 43.3953 40.4603 43.8722 44.0555V44.1289H43.9456C43.9822 44.1289 45.0828 44.2023 46.7704 44.2023C48.1645 44.2023 49.9988 44.1289 51.9432 43.9088C52.0166 43.8354 52.0532 43.762 52.1266 43.6887C48.1278 44.2023 44.5692 43.9822 44.0189 43.9455Z" fill="#0B3530"/>
<path d="M46.6235 41.4875C46.8804 37.5253 47.394 33.4898 47.7975 30.9952C47.7241 31.0318 47.6508 31.0685 47.6141 31.1052C47.2472 33.6366 46.6969 37.6354 46.4768 41.5608V41.6342H46.5502C46.5869 41.6342 49.1549 42.0011 52.3099 42.0011C52.7135 42.0011 53.117 42.0011 53.5206 41.9644C53.5573 41.891 53.594 41.8543 53.6307 41.781C50.2555 41.9644 47.1738 41.5608 46.6235 41.4875Z" fill="#0B3530"/>
<path d="M50.3289 37.2686C50.1455 35.2142 50.3289 31.9858 50.5124 29.7112C50.439 29.7479 50.4023 29.7479 50.3289 29.7846C50.1455 32.0958 49.9621 35.3242 50.1822 37.342V37.4153H50.2556C50.2923 37.4153 52.7869 37.3787 56.0887 36.6449C56.1254 36.5716 56.1254 36.4982 56.1621 36.4615C53.1171 37.1585 50.8059 37.2686 50.3289 37.2686Z" fill="#0B3530"/>
<path d="M52.3101 34.7372C52.3468 34.7372 54.658 33.5632 57.0059 31.3987C57.0059 31.3254 57.0059 31.2153 57.0059 31.1419C54.9882 33.0496 52.9338 34.1869 52.3468 34.5171C52.787 32.2792 53.2272 30.1514 53.5941 28.5739C53.5207 28.6106 53.4474 28.6106 53.374 28.6473C53.0071 30.2248 52.5302 32.3893 52.09 34.6638L52.0533 34.8473L52.3101 34.7372Z" fill="#0B3530"/>
<path d="M34.8839 69.8461C34.8839 69.8461 34.2969 62.7289 42.9549 59.3538C50.549 56.3822 61.3715 58.2899 61.3715 58.2899C61.3715 58.2899 58.8034 68.6354 48.4946 72.5242C38.9928 76.1195 34.8839 69.8461 34.8839 69.8461Z" fill="#1F706D"/>
<path d="M37.0116 69.5525C37.2684 67.4247 37.9288 64.4531 38.5158 62.0318C38.4424 62.1052 38.369 62.1786 38.259 62.2519C37.7087 64.6365 37.085 67.4981 36.8282 69.5892V69.6259L36.8649 69.6626C36.9015 69.6993 39.3595 71.607 42.8814 73.6614C42.9915 73.6614 43.1382 73.6614 43.2483 73.6614C39.7998 71.717 37.3418 69.8093 37.0116 69.5525Z" fill="#0B3530"/>
<path d="M39.6897 69.0022C40.8637 65.4803 42.698 61.7016 44.1288 58.9868C44.0554 59.0235 43.9454 59.0235 43.872 59.0602C42.4412 61.775 40.6069 65.5537 39.4696 69.0389L39.4329 69.1123L39.5063 69.1489C39.5797 69.1856 44.2388 71.2401 49.2282 72.2673C49.3383 72.2306 49.4116 72.1939 49.5217 72.1572C44.8625 71.2034 40.3134 69.259 39.6897 69.0022Z" fill="#0B3530"/>
<path d="M43.4684 68.0118C44.5323 64.7834 46.6601 60.5644 47.9441 58.1064C47.8708 58.1064 47.7974 58.1431 47.724 58.1431C46.4033 60.6378 44.3122 64.8567 43.285 68.0118L43.2483 68.0851L43.3217 68.1218C43.395 68.1585 47.5773 69.626 52.1264 70.7266C52.1998 70.6899 52.2731 70.6165 52.3465 70.5798C48.0542 69.5893 44.0921 68.2319 43.4684 68.0118Z" fill="#0B3530"/>
<path d="M48.2377 66.3975C48.6779 64.343 50.3288 60.1608 51.3194 57.7762C51.246 57.7762 51.1726 57.7762 51.0992 57.7762C50.1087 60.1975 48.4578 64.4164 48.0543 66.4342V66.5075L48.1276 66.5442C48.1643 66.5442 51.0626 67.7182 54.988 68.5987C55.0614 68.562 55.0981 68.4886 55.1347 68.4519C51.4661 67.6448 48.7146 66.5809 48.2377 66.3975Z" fill="#0B3530"/>
<path d="M52.1264 64.7099L55.1347 57.7395C55.0613 57.7395 54.988 57.7395 54.9513 57.7395L51.8696 64.8567H51.9797C52.0164 64.8567 54.7678 65.1868 57.7761 65.4436C57.8128 65.3703 57.8495 65.3336 57.8862 65.2602C55.2081 65.0401 52.6767 64.7466 52.1264 64.7099Z" fill="#0B3530"/>
<path d="M56.1253 62.5088L58.033 57.923C57.9596 57.923 57.9229 57.923 57.8495 57.923L55.8318 62.7656L55.9785 62.7289C56.0152 62.7289 57.9229 62.3987 60.3075 61.1514C60.3442 61.0413 60.3809 60.9679 60.4176 60.8946C58.3998 61.9585 56.6389 62.3987 56.1253 62.5088Z" fill="#0B3530"/>
<path d="M21.4935 96.9939C21.4935 96.9939 21.6035 96.7005 21.787 96.1135C21.9704 95.5265 22.2639 94.6827 22.5941 93.5821C22.9242 92.4815 23.3278 91.1608 23.768 89.62C24.2083 88.0792 24.7219 86.3549 25.1988 84.4839C25.7124 82.5762 26.226 80.5218 26.7763 78.3573C27.0698 77.2567 27.2899 76.1561 27.5834 74.9821C27.8402 73.8448 28.1337 72.6709 28.3905 71.4602C28.6473 70.2496 28.9041 69.0389 29.1609 67.7916C29.271 67.1679 29.4177 66.5443 29.5645 65.9206C29.6745 65.2969 29.7846 64.6732 29.9313 64.0129C30.1515 62.7289 30.4083 61.4815 30.6284 60.1975C30.8485 58.9135 31.0319 57.6295 31.2521 56.3454C31.4722 55.0614 31.6923 53.7774 31.8757 52.4567C32.0592 51.1727 32.2059 49.8886 32.3893 48.6046C32.4627 47.9809 32.5728 47.3206 32.6461 46.6969C32.7195 46.0732 32.8296 45.4496 32.8663 44.7892C33.013 43.5419 33.1231 42.2945 33.2698 41.0839C33.3432 40.4602 33.3799 39.8732 33.4532 39.2496C33.5266 38.6626 33.5633 38.0389 33.6 37.452C33.6734 36.278 33.7834 35.104 33.8568 34.0034C33.9302 32.8661 34.0035 31.8022 34.0769 30.7383C34.1503 29.6744 34.1503 28.6472 34.187 27.6934C34.2603 25.7123 34.3337 23.9147 34.3704 22.3372C34.3704 20.723 34.3704 19.3656 34.3704 18.1916C34.3704 15.8804 34.3704 14.5963 34.3704 14.5963C34.3704 14.5963 34.4071 15.917 34.4438 18.1916C34.4805 19.3289 34.5171 20.723 34.5538 22.3372C34.5538 23.9514 34.5171 25.749 34.4804 27.6934C34.4438 28.6839 34.4438 29.7111 34.4438 30.775C34.4071 31.8389 34.3337 32.9395 34.297 34.0401C34.2236 35.1774 34.187 36.3147 34.1136 37.4886C34.0769 38.0756 34.0402 38.6626 34.0035 39.2863C33.9668 39.8733 33.8935 40.4969 33.8568 41.1206C33.7467 42.3312 33.6367 43.5786 33.5633 44.8626C33.5266 45.4863 33.4532 46.1099 33.3799 46.7703C33.3065 47.394 33.2331 48.0543 33.1597 48.678C33.013 49.962 32.8663 51.246 32.7195 52.5667C32.5728 53.8508 32.3526 55.1715 32.2059 56.4555C32.0225 57.7395 31.8757 59.0602 31.6556 60.3443C31.4355 61.6283 31.252 62.9123 31.0319 64.1963C30.9219 64.82 30.8118 65.4803 30.7384 66.104C30.6284 66.7277 30.5183 67.3514 30.4083 67.975C30.1882 69.2224 29.9313 70.4697 29.7112 71.6803C29.4911 72.891 29.2343 74.065 28.9775 75.2389C28.7207 76.4129 28.5006 77.5502 28.2438 78.6508C27.7302 80.8519 27.2899 82.9431 26.813 84.8508C26.3728 86.7584 25.8958 88.5194 25.4923 90.0602C25.0887 91.6011 24.6852 92.9585 24.3917 94.059C24.0615 95.1596 23.8047 96.0401 23.6213 96.6271C23.4379 97.2141 23.3278 97.5443 23.3278 97.5443L21.4935 96.9939Z" fill="#0D3932"/>
<path d="M32.0958 51.5762C32.0958 51.5762 32.2059 51.5395 32.3893 51.4294C32.5728 51.356 32.8296 51.2093 33.1964 51.0259C33.5266 50.8424 33.9668 50.6223 34.4071 50.3655C34.884 50.1087 35.3976 49.8152 35.9479 49.4484C36.5349 49.1182 37.1219 48.7146 37.7455 48.3111C38.3692 47.8708 39.0296 47.4306 39.7266 46.9537C40.387 46.4768 41.084 45.9632 41.781 45.4129C42.1112 45.156 42.4781 44.8626 42.8083 44.6058C43.1384 44.3123 43.4686 44.0188 43.7988 43.762C44.4958 43.2117 45.1195 42.588 45.7432 42.001C46.4035 41.414 46.9538 40.7904 47.5408 40.2034C48.1278 39.6164 48.6414 38.9927 49.155 38.4424C49.4118 38.1489 49.6686 37.8921 49.8887 37.5987C50.1088 37.3052 50.329 37.0484 50.5491 36.7916C50.9526 36.2779 51.3562 35.801 51.6864 35.3608C52.0165 34.9205 52.2733 34.5537 52.4935 34.2235C52.9337 33.5998 53.1905 33.233 53.1905 33.233C53.1905 33.233 52.9337 33.5998 52.5301 34.2602C52.31 34.5904 52.0532 34.9939 51.7597 35.4342C51.4662 35.8744 51.0994 36.3513 50.6958 36.9016C50.5124 37.1584 50.2923 37.4519 50.0722 37.7454C49.852 38.0389 49.5952 38.2957 49.3751 38.6259C48.8982 39.2129 48.3846 39.8732 47.8343 40.4602C47.284 41.0839 46.697 41.7442 46.0733 42.3312C45.4497 42.9549 44.826 43.6152 44.1657 44.2022C43.8355 44.4957 43.5053 44.8259 43.1751 45.1194C42.8449 45.4129 42.5148 45.7063 42.1846 45.9998C41.5242 46.5868 40.8272 47.1004 40.1668 47.6507C39.5065 48.1643 38.8461 48.6413 38.2225 49.0815C37.5988 49.5217 37.0118 49.962 36.4248 50.2921C35.8745 50.659 35.3242 50.9892 34.884 51.2827C34.4071 51.5762 34.0035 51.7963 33.6733 52.0164C33.3432 52.1998 33.0497 52.3466 32.8662 52.4566C32.6828 52.5667 32.5728 52.6034 32.5728 52.6034L32.0958 51.5762Z" fill="#0D3932"/>
<path d="M30.555 61.665C30.555 61.665 30.4816 61.5917 30.3349 61.4449C30.1882 61.2982 29.968 61.0781 29.6746 60.7846C29.4177 60.4911 29.0876 60.1609 28.7207 59.7207C28.3538 59.3171 27.9503 58.8402 27.5467 58.3266C27.1065 57.813 26.6663 57.226 26.1893 56.639C25.7491 56.0153 25.2355 55.355 24.7586 54.6946C24.2816 53.9976 23.8047 53.3005 23.3278 52.5301C23.1077 52.1633 22.8509 51.7964 22.6308 51.3929C22.4106 50.9893 22.1905 50.6224 21.9704 50.2189C21.5302 49.4485 21.1266 48.6414 20.7231 47.871C20.3195 47.1005 19.9893 46.2934 19.6225 45.5597C19.2556 44.826 18.9988 44.0556 18.7053 43.3585C18.5586 42.9917 18.4118 42.6615 18.3018 42.3313C18.1917 42.0011 18.0816 41.671 17.9716 41.3408C17.7515 40.7171 17.5314 40.1301 17.3846 39.6165C17.2379 39.1029 17.0911 38.626 17.0177 38.2591C16.7976 37.5254 16.6876 37.0852 16.6876 37.0852C16.6876 37.0852 16.8343 37.5254 17.0544 38.2591C17.1645 38.626 17.3112 39.0662 17.4947 39.5798C17.6781 40.0934 17.8982 40.6437 18.155 41.2674C18.2651 41.5609 18.4118 41.8911 18.5219 42.2213C18.6686 42.5514 18.8154 42.8816 18.9621 43.2485C19.2923 43.9455 19.5858 44.6792 19.9893 45.413C20.3929 46.1467 20.7231 46.9171 21.1633 47.6875C21.6035 48.4579 22.0071 49.2284 22.484 49.9621C22.7041 50.3289 22.9609 50.6958 23.1811 51.0994C23.4379 51.4662 23.658 51.8331 23.9148 52.2C24.3917 52.9337 24.9053 53.594 25.3822 54.2911C25.8592 54.9514 26.3728 55.5751 26.8497 56.1621C27.3266 56.7491 27.8035 57.2994 28.2438 57.7763C28.684 58.2899 29.0876 58.7301 29.4544 59.097C29.8213 59.5005 30.1515 59.8307 30.4083 60.0875C30.6651 60.3443 30.8852 60.5644 31.0319 60.7112C31.1787 60.8579 31.2521 60.9313 31.2521 60.9313L30.555 61.665Z" fill="#0D3932"/>
<path d="M29.1976 69.9561C29.1976 69.9561 29.3076 69.9561 29.5277 69.9561C29.7479 69.9561 30.078 69.9194 30.5183 69.9194C30.9585 69.8827 31.4721 69.846 32.0591 69.8093C32.6461 69.7359 33.3065 69.6993 34.0402 69.5892C34.7739 69.5158 35.5443 69.4058 36.3881 69.259C37.2319 69.149 38.0757 68.9655 38.9928 68.7821C39.8733 68.562 40.8272 68.4152 41.7443 68.1584C42.6615 67.9016 43.6153 67.6815 44.5692 67.388C45.0461 67.2413 45.4863 67.0945 45.9633 66.9478C46.4402 66.801 46.8804 66.6176 47.3206 66.4709C47.7609 66.3241 48.2378 66.1774 48.678 65.9939C49.1183 65.8105 49.5585 65.6271 49.9621 65.4803C50.4023 65.2969 50.8059 65.1501 51.2094 64.9667C51.613 64.7833 52.0165 64.5999 52.3834 64.4164C52.7502 64.233 53.1171 64.0496 53.484 63.9028C53.8508 63.7194 54.181 63.5359 54.5112 63.3525C55.1715 62.9856 55.7585 62.6922 56.2721 62.3987C56.7857 62.0685 57.226 61.8117 57.5928 61.5549C58.3266 61.078 58.7301 60.8212 58.7301 60.8212C58.7301 60.8212 58.3266 61.1146 57.6295 61.5916C57.2627 61.8484 56.8591 62.1419 56.3455 62.472C55.8319 62.7655 55.2449 63.1324 54.6212 63.4993C54.2911 63.6827 53.9609 63.9028 53.6307 64.0862C53.2638 64.2697 52.897 64.4531 52.5301 64.6365C52.1633 64.82 51.7597 65.0401 51.3561 65.2235C50.9526 65.4069 50.5491 65.5904 50.1088 65.7738C49.7053 65.9572 49.265 66.1407 48.8248 66.3608C48.3846 66.5442 47.9443 66.7277 47.5041 66.8744C47.0638 67.0578 46.5869 67.2413 46.1467 67.388C45.6698 67.5348 45.2295 67.7182 44.7526 67.8649C43.8354 68.1951 42.8816 68.4519 41.9278 68.7454C41.0106 69.0389 40.0567 69.2223 39.1763 69.4791C38.2591 69.6626 37.4153 69.8827 36.5715 70.0294C35.7278 70.1762 34.9573 70.3229 34.2236 70.433C33.4899 70.543 32.8295 70.6531 32.2059 70.7265C31.6189 70.7998 31.0686 70.8732 30.665 70.9099C30.2248 70.9466 29.8946 70.9833 29.6378 70.9833C29.4177 70.9833 29.2709 71.02 29.2709 71.02L29.1976 69.9561Z" fill="#0D3932"/>
<path d="M25.7491 85.401C25.7491 85.401 25.6391 85.3277 25.419 85.2543C25.1988 85.1442 24.9054 84.9975 24.5385 84.7774C24.1716 84.5572 23.6947 84.3004 23.1811 84.0069C22.6675 83.6768 22.0805 83.3466 21.4568 82.943C20.8332 82.5395 20.1728 82.0993 19.4758 81.6223C18.7787 81.1454 18.045 80.5951 17.3113 80.0815C16.5775 79.4945 15.8071 78.9442 15.0734 78.3206C14.3397 77.6969 13.5693 77.0732 12.8355 76.4129C12.4687 76.0827 12.1018 75.7525 11.7349 75.4223C11.3681 75.0922 11.0379 74.7253 10.7077 74.3951C10.3775 74.0649 10.0107 73.7348 9.6805 73.3679C9.35032 73.001 9.05683 72.6708 8.72665 72.3407C8.43316 72.0105 8.10298 71.6803 7.80949 71.3501C7.516 71.02 7.25919 70.6898 6.9657 70.3596C6.7089 70.0294 6.4521 69.6992 6.19529 69.4058C5.93849 69.1123 5.71836 68.7821 5.49824 68.4886C5.05801 67.9016 4.65446 67.3513 4.32429 66.8744C3.99411 66.3608 3.7373 65.9206 3.48049 65.5537C3.00357 64.82 2.74677 64.4164 2.74677 64.4164C2.74677 64.4164 3.04026 64.82 3.51718 65.517C3.77399 65.8839 4.06748 66.2874 4.39765 66.801C4.76452 67.278 5.16808 67.7916 5.645 68.3785C5.86512 68.672 6.08523 68.9655 6.34204 69.259C6.59884 69.5525 6.89233 69.846 7.14913 70.1762C7.44262 70.5064 7.69943 70.7998 7.99293 71.13C8.28642 71.4602 8.6166 71.7537 8.94677 72.0839C9.27695 72.414 9.60712 72.7442 9.9373 73.0744C10.2675 73.4046 10.6343 73.7348 11.0012 74.0649C11.3681 74.3951 11.6983 74.7253 12.0651 75.0555C12.432 75.3856 12.7988 75.6791 13.2024 76.0093C13.9361 76.633 14.7065 77.22 15.4769 77.8069C16.2474 78.3939 17.0178 78.9442 17.7515 79.4578C18.5219 79.9714 19.219 80.4851 19.9527 80.9253C20.6497 81.3655 21.3468 81.8058 21.9704 82.1359C22.5941 82.5028 23.1811 82.833 23.6947 83.1265C24.2083 83.42 24.6852 83.6401 25.0521 83.8235C25.419 84.0069 25.7125 84.1537 25.9326 84.2638C26.1527 84.3738 26.2627 84.4105 26.2627 84.4105L25.7491 85.401Z" fill="#0D3932"/>
<path d="M86.8719 53.7634H63.413V49.6433H86.8719V53.7634Z" fill="#E3684E"/>
<path d="M68.8648 69.9448H64.2964V42.3829H68.8648V69.9448Z" fill="#E7AE60"/>
<path d="M65.8123 42.3829H64.2964V69.9448H65.8123V42.3829Z" fill="#ECAD5A"/>
<path d="M68.8648 45.3908V42.3829H64.2964V45.3908H68.8648Z" fill="#D17E1D"/>
<path d="M75.1211 71.9241H58.04L60.0834 68.2694H73.0776L75.1211 71.9241Z" fill="#E7AE60"/>
<path d="M58.8911 70.402L58.04 71.9241H75.1211L74.2701 70.402H58.8911Z" fill="#ECAD5A"/>
<path d="M77.4053 76.7974H55.7559V71.9241H77.4053V76.7974Z" fill="#E7AE60"/>
<path d="M55.7559 74.3612V76.7974H77.4053V74.3612H55.7559Z" fill="#ECAD5A"/>
<path d="M70.5968 68.1174C70.5968 68.8738 69.9831 69.4879 69.2263 69.4879H63.935C63.1781 69.4879 62.5644 68.8738 62.5644 68.1174V67.6986C62.5644 66.9413 63.1781 66.328 63.935 66.328H69.2263C69.9831 66.328 70.5968 66.9413 70.5968 67.6986V68.1174Z" fill="#E7AE60"/>
<path d="M50.7762 32.0179C39.4236 27.9031 37.1495 20.3051 36.8043 16.142C36.3001 10.0583 39.1241 4.66225 42.1457 2.95926C43.6191 2.12959 45.1088 2.16376 46.3404 3.05706C51.9331 7.11132 54.7648 6.44411 54.7927 6.43675L55.2374 7.97254C54.887 8.07769 51.6334 8.86899 45.402 4.35151C44.6853 3.83205 43.8539 3.83257 42.9305 4.35257C40.4038 5.77637 37.9525 10.6382 38.3977 16.0096C38.7112 19.7909 40.8069 26.7044 51.3209 30.5147L50.7762 32.0179Z" fill="#E7AE60"/>
<path d="M83.5775 32.0179L83.0323 30.5147C93.5468 26.7044 95.6425 19.7909 95.9559 16.0096C96.4007 10.6382 93.9495 5.77637 91.4227 4.35257C90.4999 3.83257 89.6681 3.83205 88.9515 4.35151C82.72 8.86899 79.4665 8.07769 79.1163 7.97254L79.5753 6.44095L79.3461 7.20648L79.5606 6.43675C79.5885 6.44411 82.4208 7.11132 88.0135 3.05706C89.2449 2.16376 90.7344 2.12959 92.2082 2.95926C95.2293 4.66225 98.0532 10.0583 97.549 16.142C97.2041 20.3051 94.9301 27.9031 83.5775 32.0179Z" fill="#E7AE60"/>
<path d="M71.9355 42.3828C71.9355 43.1397 71.3223 43.7534 70.5654 43.7534H62.596C61.8392 43.7534 61.2255 43.1397 61.2255 42.3828V40.7074C61.2255 39.9506 61.8392 39.3373 62.596 39.3373H70.5654C71.3223 39.3373 71.9355 39.9506 71.9355 40.7074V42.3828Z" fill="#E7AE60"/>
<path d="M71.9355 42.0784V40.7074C71.9355 39.9505 71.3223 39.3373 70.5654 39.3373H62.596C61.8392 39.3373 61.2255 39.9505 61.2255 40.7074V42.0784H71.9355Z" fill="#D17E1D"/>
<path d="M83.8446 21.8254C79.9806 11.4712 80.1332 2.63884 80.1332 2.63884H66.5805H53.0281C53.0281 2.63884 53.1802 11.4712 49.3161 21.8254C46.6172 29.0579 49.9825 39.3376 61.3018 41.0125H66.5805H71.8589C83.1787 39.3376 86.5441 29.0579 83.8446 21.8254Z" fill="#E7AE60"/>
<path d="M75.4947 36.3769H70.2162H64.9373C53.6181 34.7015 50.2528 24.422 52.9518 17.19C55.0905 11.4586 55.9977 6.19811 56.3827 2.63884H53.0281C53.0281 2.63884 53.1802 11.4712 49.3161 21.8254C46.6172 29.0579 49.9825 39.3376 61.3018 41.0125H66.5805H71.8589C77.73 40.1435 81.456 36.9583 83.3114 33.086C81.3295 34.7067 78.7403 35.8964 75.4947 36.3769Z" fill="#ECAD5A"/>
<path d="M80.3302 6.44632C80.1086 4.06773 80.1332 2.63879 80.1332 2.63879H66.5804H53.028C53.028 2.63879 53.0522 4.06773 52.8306 6.44632H80.3302Z" fill="#D17E1D"/>
<path d="M81.9606 2.33412C81.9606 3.09061 81.3472 3.70456 80.5902 3.70456H52.419C51.6622 3.70456 51.0486 3.09061 51.0486 2.33412V2.18144C51.0486 1.42495 51.6622 0.811005 52.419 0.811005H80.5902C81.3472 0.811005 81.9606 1.42495 81.9606 2.18144V2.33412Z" fill="#E7AE60"/>
<path d="M73.508 70.072L69.3013 71.6171L59.2063 52.9813L63.413 49.6433L73.508 70.072Z" fill="#A13F30"/>
<path d="M76.7338 70.072L80.9404 71.6171L91.0356 52.9813L86.829 49.6433L76.7338 70.072Z" fill="#A13F30"/>
<path d="M82.8884 73.5217C82.8884 77.6881 79.5111 81.0655 75.3446 81.0655C71.1778 81.0655 67.8005 77.6881 67.8005 73.5217C67.8005 69.3553 71.1778 65.978 75.3446 65.978C79.5111 65.978 82.8884 69.3553 82.8884 73.5217Z" fill="#F8A337"/>
<path d="M80.4981 73.5217C80.4981 76.368 78.1909 78.6752 75.3447 78.6752C72.498 78.6752 70.1908 76.368 70.1908 73.5217C70.1908 70.6755 72.498 68.3683 75.3447 68.3683C78.1909 68.3683 80.4981 70.6755 80.4981 73.5217Z" fill="#D17F25"/>
</svg>
