<svg width="123" height="65" viewBox="0 0 123 65" fill="none" xmlns="http://www.w3.org/2000/svg">
<path d="M102.248 56.4745C109.035 59.8129 114.172 66.9301 125.875 63.7017C138.788 60.1431 158.232 7.42476 127.856 0.967951C98.1029 -5.34211 78.439 29.8768 82.768 44.2212C86.3633 56.1443 95.3514 53.0626 102.248 56.4745Z" fill="#307B6E"/>
<path d="M132.772 2.58211C112.447 16.8531 103.826 42.3868 100.524 55.7774C101.111 55.9975 101.698 56.2176 102.248 56.4744C109.035 59.8129 114.172 66.93 125.874 63.7016C138.054 60.3632 155.957 13.478 132.772 2.58211Z" fill="#249588"/>
<path d="M123.343 10.323H123.49C123.563 10.323 129.837 10.0662 139.008 7.4248C138.935 7.31474 138.825 7.20468 138.751 7.13131C130.534 9.47924 124.664 9.91947 123.637 9.95615C123.49 9.14905 122.756 5.15024 122.94 0.307639C122.83 0.307639 122.683 0.27095 122.573 0.27095C122.353 5.70054 123.306 10.1029 123.306 10.1763L123.343 10.323Z" fill="#0C2F2D"/>
<path d="M119.968 14.2116L120.005 14.2483H120.078C120.151 14.2483 122.059 14.3217 125.031 14.3217C129.396 14.3217 136 14.2116 142.42 13.6247C142.383 13.5146 142.347 13.3679 142.31 13.2578C131.965 14.175 121.105 13.9182 120.188 13.8815C119.638 13.4412 114.135 8.85543 111.42 1.70158C111.31 1.73827 111.2 1.77496 111.09 1.81165C113.915 9.40573 119.895 14.1383 119.968 14.2116Z" fill="#0C2F2D"/>
<path d="M114.869 21.2188C114.392 20.9986 105.183 17.0365 98.2863 9.07556C98.1762 9.14893 98.1029 9.22231 97.9928 9.33237C105.11 17.5501 114.612 21.5489 114.758 21.5856H114.795C114.979 21.6223 129.983 24.0436 143.447 24.0436C143.631 24.0436 143.851 24.0436 144.034 24.0436C144.034 23.9335 144.034 23.7868 144.034 23.6767C130.68 23.7134 115.529 21.3288 114.869 21.2188Z" fill="#0C2F2D"/>
<path d="M110.173 29.6567C110.393 29.6934 130.13 33.362 143.007 34.0224C143.044 33.9123 143.044 33.7656 143.08 33.6555C130.24 32.9952 110.466 29.3265 110.246 29.2898C110.099 29.2531 97.3325 27.1253 88.1976 21.0721C88.1242 21.1821 88.0875 21.2922 88.0142 21.4023C97.1858 27.4922 110.026 29.6567 110.173 29.6567Z" fill="#0C2F2D"/>
<path d="M106.981 36.407H106.908C106.541 36.407 94.5077 36.3703 83.1716 32.775C83.1349 32.8851 83.0982 32.9951 83.0982 33.1419C94.2876 36.7005 106.174 36.7738 106.871 36.8105C107.715 37.1407 124.554 43.3407 139.595 45.6519C139.632 45.5419 139.705 45.4318 139.742 45.2851C124.407 42.9372 107.164 36.4803 106.981 36.407Z" fill="#0C2F2D"/>
<path d="M104.046 44.2212L104.009 44.1845H103.973C103.826 44.2212 92.7466 45.8354 83.2449 45.4318C83.2816 45.5419 83.3182 45.6886 83.3916 45.7987C92.5999 46.1656 103.129 44.6614 103.973 44.5514C104.963 44.9916 120.592 51.7052 136.073 53.0626C136.147 52.9525 136.22 52.8425 136.257 52.6957C120.335 51.4117 104.193 44.3312 104.046 44.2212Z" fill="#0C2F2D"/>
<path d="M121.032 64.5088C121.289 64.5088 121.509 64.4721 121.766 64.4721C110.173 58.9692 102.322 50.2745 102.248 50.1644L102.175 50.0544L102.065 50.091C101.992 50.1277 96.5254 51.9987 89.7751 52.9526C89.9952 53.0626 90.2153 53.136 90.4354 53.2094C96.452 52.2922 101.295 50.7147 102.102 50.4579C102.909 51.4118 110.283 59.2626 121.032 64.5088Z" fill="#0C2F2D"/>
<path d="M96.2686 76.3952C96.2686 76.3952 96.3052 76.065 96.3419 75.4413C96.4153 74.8176 96.4887 73.9372 96.6354 72.7999C96.7822 71.6626 96.9656 70.3052 97.2224 68.7644C97.4792 67.1869 97.7727 65.4626 98.1763 63.5549C98.5431 61.6472 99.02 59.5928 99.5336 57.4283C100.084 55.2638 100.671 52.9892 101.368 50.678C101.551 50.091 101.735 49.504 101.882 48.9171C102.065 48.3301 102.248 47.7431 102.469 47.1561C102.835 45.9821 103.276 44.7715 103.679 43.5608C104.119 42.3502 104.56 41.1762 105.037 39.9656C105.55 38.7916 105.99 37.581 106.541 36.3703C107.054 35.1963 107.568 33.9857 108.155 32.8484C108.448 32.2614 108.705 31.6744 108.999 31.1242C109.292 30.5372 109.586 29.9869 109.879 29.4366C110.173 28.8863 110.466 28.2993 110.76 27.749C111.053 27.1987 111.383 26.6484 111.677 26.0981C112.264 24.9975 112.924 23.9703 113.585 22.9431C114.208 21.9159 114.905 20.9253 115.529 19.9715C116.153 18.981 116.85 18.1005 117.51 17.1833C118.134 16.2662 118.831 15.4591 119.491 14.6153C119.821 14.2117 120.151 13.8082 120.445 13.4046C120.775 13.0378 121.105 12.6709 121.435 12.304C121.766 11.9372 122.059 11.5703 122.389 11.2401C122.536 11.0567 122.683 10.9099 122.83 10.7265C122.976 10.5798 123.16 10.3963 123.306 10.2496C123.93 9.62593 124.517 9.03894 125.067 8.45196C125.618 7.90166 126.168 7.42475 126.682 6.94782C127.195 6.50759 127.635 6.06734 128.076 5.70048C129.837 4.26971 130.827 3.46262 130.827 3.46262C130.827 3.46262 129.837 4.3064 128.149 5.77385C127.745 6.14072 127.305 6.58095 126.792 7.05788C126.315 7.5348 125.764 8.01173 125.214 8.59871C124.664 9.18569 124.114 9.77268 123.49 10.433C123.343 10.5798 123.196 10.7632 123.05 10.9099C122.903 11.0934 122.756 11.2401 122.609 11.4236C122.316 11.7904 122.022 12.1206 121.692 12.4875C121.399 12.8543 121.069 13.2212 120.738 13.6247C120.445 14.0283 120.115 14.4318 119.821 14.8354C119.198 15.6425 118.537 16.4863 117.914 17.4034C117.29 18.3206 116.593 19.2378 116.006 20.2283C115.382 21.2188 114.722 22.1727 114.135 23.2366C113.511 24.2638 112.887 25.3277 112.337 26.4283C112.044 26.9786 111.75 27.5289 111.457 28.0792C111.163 28.6295 110.906 29.2165 110.613 29.7668C110.319 30.317 110.063 30.904 109.769 31.491C109.512 32.078 109.256 32.665 108.962 33.252C108.412 34.4259 107.935 35.5999 107.458 36.7739C106.944 37.9478 106.541 39.1585 106.064 40.3691C105.624 41.5798 105.183 42.7537 104.816 43.9644C104.413 45.175 104.009 46.349 103.679 47.5597C103.496 48.1466 103.312 48.7336 103.166 49.3206C103.019 49.9076 102.835 50.4946 102.689 51.0815C102.065 53.3928 101.515 55.6673 101.038 57.7952C100.561 59.9596 100.157 61.9774 99.8271 63.8851C99.497 65.7928 99.2402 67.5171 99.02 69.0579C98.7999 70.5987 98.6532 71.9561 98.5431 73.0567C98.4331 74.1573 98.3597 75.0378 98.323 75.6247C98.2863 76.2117 98.2496 76.5419 98.2496 76.5419L96.2686 76.3952Z" fill="#0A262F"/>
<path d="M63.3126 36.4691C69.2136 36.4691 73.9953 33.9182 73.9953 30.7714H52.6298C52.6298 33.9182 57.414 36.4691 63.3126 36.4691Z" fill="#F4A357"/>
<path d="M63.3123 14.473L71.7164 30.7713H74.1646L63.3123 9.72492L52.4625 30.7713H54.9107L63.3123 14.473Z" fill="#B14A31"/>
<path d="M11.3646 38.5468C5.46351 38.5468 0.681824 35.9956 0.681824 32.8491H22.0473C22.0473 35.9956 17.2656 38.5468 11.3646 38.5468Z" fill="#F4A357"/>
<path d="M11.3645 16.5507L2.96293 32.849H0.514771L11.3645 11.8024L22.2168 32.849H19.7686L11.3645 16.5507Z" fill="#B14A31"/>
<path d="M38.5987 14.1995C38.2147 14.3246 37.8059 14.3947 37.3796 14.3947C36.9557 14.3947 36.5469 14.3246 36.1629 14.1995C36.0782 14.1716 35.9934 14.1406 35.9112 14.1075C35.779 14.0541 35.6519 13.9928 35.5297 13.9265V52.1052L39.1771 52.1017C39.1771 52.1017 39.1995 52.1057 39.2319 52.1119V13.9265C39.1073 13.9928 38.9801 14.0541 38.8505 14.1072C38.7682 14.1406 38.6834 14.1716 38.5987 14.1995Z" fill="#B14A31"/>
<path d="M34.2708 8.10197V8.10148C34.2708 8.10148 34.6896 7.06685 37.2101 6.3506C35.0461 5.94074 31.4212 5.88814 25.4104 7.08456C12.8454 9.58585 12.444 9.05008 10.1853 8.17028C7.9291 7.29048 7.246 11.0283 9.39501 11.7296C15.1664 13.6126 25.565 5.56653 34.4702 13.0853C33.8893 12.4352 33.5203 11.588 33.4779 10.6484C33.4331 9.69503 33.7347 8.80651 34.2708 8.10197Z" fill="#E7AE5C"/>
<path d="M64.2873 5.7413C62.1184 6.8198 61.7669 7.38946 49.0273 6.02426C42.9343 5.37133 39.3293 5.74828 37.2102 6.3506C34.6898 7.06686 34.2709 8.10149 34.2709 8.10149V8.10197C34.9515 7.20697 36.0086 6.60889 37.2202 6.55454C39.3842 6.45731 41.2166 8.13264 41.3138 10.2964C41.3562 11.2362 41.062 12.1131 40.541 12.8129C48.7381 4.52619 59.8148 11.608 65.3943 9.21538C67.4735 8.32411 66.4588 4.66255 64.2873 5.7413Z" fill="#E7AE5C"/>
<path d="M37.2202 6.55459C36.0086 6.60893 34.9516 7.20701 34.271 8.10202C33.7349 8.80656 33.4333 9.69509 33.4781 10.6484C33.5205 11.5881 33.8895 12.4352 34.4704 13.0854C34.8144 13.4691 35.2333 13.7815 35.6995 14.0058C35.8266 14.0667 35.9563 14.122 36.0909 14.1694C36.1732 14.199 36.2604 14.226 36.3452 14.2502C36.7341 14.3581 37.1454 14.4095 37.5717 14.3905C37.9956 14.3713 38.4019 14.2833 38.7784 14.1407C38.8632 14.109 38.9454 14.0746 39.0252 14.0375C39.1548 13.9784 39.2795 13.9113 39.3992 13.8395C39.8454 13.5743 40.2343 13.2258 40.541 12.8129C41.062 12.1131 41.3562 11.2363 41.3138 10.2964C41.2166 8.13269 39.3842 6.45736 37.2202 6.55459Z" fill="#C27D4F"/>
<path d="M35.53 52.1051C35.53 52.1051 28.4647 53.3936 28.4647 54.6398C28.4647 56.0709 32.456 56.0003 37.3798 56.0003C42.3061 56.0003 46.2975 56.0709 46.2975 54.6398C46.2975 53.4497 39.8654 52.2293 39.2322 52.1119C39.1998 52.1056 39.1773 52.1017 39.1773 52.1017L35.53 52.1051Z" fill="#F4A357"/>
</svg>
