<svg width="147" height="57" viewBox="0 0 147 57" fill="none" xmlns="http://www.w3.org/2000/svg">
<path d="M142.858 56.9371C141.948 51.0947 139.309 36.539 133.572 20.5909C132.212 16.83 127.569 15.3084 122.937 26.3472C122.18 28.1559 120.472 29.4191 119.132 28.5147C118.652 28.1989 118.284 27.6248 117.967 27.0506C115.594 22.7585 112.066 0.436935 106.707 0.436935C101.134 0.436935 96.3785 31.5149 94.7218 35.7208C94.4252 36.4673 94.0775 37.2137 93.5662 37.6874C92.1959 38.9937 90.2221 37.874 89.2608 35.9792C88.3098 34.0844 80.5274 0.436932 71.4565 0.594834C63.0503 0.752735 60.913 19.7584 50.032 37.4434C49.7456 37.9027 49.2446 38.0606 48.815 37.9888C48.3548 37.9171 47.9969 37.429 47.6799 36.9697C45.113 33.2231 42.4746 28.687 38.7828 28.2707C35.5819 27.9118 32.6469 30.8976 30.663 34.4432C28.6791 37.9888 27.3394 42.1661 25.3452 45.6973C24.8953 46.5012 24.3839 47.2907 23.7192 47.707C21.7557 48.9558 16.4584 38.2185 14.5154 36.8979C12.5621 35.5773 10.1077 36.6969 8.58399 38.8501C7.32613 40.6301 5.39332 50.8794 4.75928 56.9514H142.858V56.9371Z" fill="#85A2FB"/>
<path d="M147 56.9372C146.335 52.559 145.415 48.2526 144.495 43.9606C143.932 41.3193 143.329 38.6063 142.05 36.5105C140.772 34.4147 138.624 33.1084 136.804 34.142C134.432 35.4769 133.665 39.9269 131.405 41.6064C130.177 42.5107 128.715 42.4533 127.334 42.2667C126.557 42.1662 125.77 42.0227 125.054 41.5633C124.082 40.9317 123.489 39.1087 123.05 37.745C121.424 32.7783 119.808 27.8115 118.182 22.8448C117.384 20.3901 116.341 17.6484 114.469 17.0599C111.964 16.256 109.898 19.7155 108.507 22.7587C105.664 28.9886 102.822 35.2185 99.9786 41.4485C99.5388 42.4246 99.0173 43.4725 98.2298 43.774C96.6345 44.3912 95.438 41.793 93.9858 40.7021C91.9098 39.1661 89.3634 40.8743 87.5124 42.9127C85.6512 44.9367 83.7798 47.4344 81.4277 47.5923C78.4927 47.7789 76.1815 44.262 74.4532 40.9317C72.7249 37.6014 70.8228 33.8405 67.9389 33.1084C65.1573 32.4194 62.4677 34.8597 60.4838 37.6589C58.4896 40.458 56.792 43.817 54.3377 45.7693C53.3355 46.5588 52.1901 47.1042 51.055 46.8889C48.0791 46.3434 46.678 41.2475 43.9885 39.3671C40.8796 37.1851 37.1572 39.8551 33.7108 39.3097C29.4464 38.635 26.3682 33.1658 24.6911 27.6249C23.0139 22.0696 17.3791 4.14061 12.1636 4.75786C7.75597 5.27463 4.0233 37.8885 0.965576 56.9229H147V56.9372Z" fill="#3459CB"/>
</svg>
