<svg width="169" height="99" viewBox="0 0 169 99" fill="none" xmlns="http://www.w3.org/2000/svg">
<ellipse cx="84.633" cy="62.355" rx="84.3195" ry="35.9467" fill="#0D6C69"/>
<ellipse cx="81" cy="61" rx="68" ry="27" fill="#387E7B"/>
<path d="M24.5543 11.141C24.5543 11.141 21.8392 41.0056 25.3301 44.8841C28.8209 48.7625 87.3857 58.4577 87.3857 58.4577L86.222 22.3887L24.5543 11.141Z" fill="#FFC173"/>
<path d="M24.5542 11.1411L62.1736 0.668555L86.221 22.3887L24.5542 11.1411Z" fill="#8BB3DC"/>
<path d="M86.7069 39.5501C82.4947 39.3374 79.191 38.3046 75.1017 36.9272C72.5053 36.0528 70.7942 35.2314 68.0284 35.3773C63.795 35.5988 59.9005 35.7936 55.9573 33.8288C52.0712 31.8915 48.8565 30.9126 44.5384 30.9215C41.5333 30.9266 38.2572 31.2599 35.3622 30.3478C32.6113 29.4823 31.0039 26.8256 28.2403 26.0255C26.7197 25.585 25.1886 25.6846 23.5854 25.6846L23.3906 35.5749C23.4224 35.9535 23.38 36.024 23.6299 36.307C25.0912 37.9789 30.9594 37.1246 33.0962 37.6555C35.3855 38.2241 37.768 38.8266 40.1081 39.4118C42.1453 39.9198 44.1509 40.3626 46.0949 41.2282C48.3122 42.2182 50.4257 43.7178 52.8866 44.0738C56.0314 44.5291 59.297 43.8739 62.3931 43.5643C66.1161 43.1932 69.3753 43.9027 72.7828 45.3141C75.3431 46.3747 77.7213 45.8313 80.4426 46.0426C82.6027 46.2099 84.9788 48.0013 87.0945 47.7923C86.9017 44.689 86.834 42.3328 86.7069 39.5501" fill="#759ED4"/>
<path d="M24.5555 11.141C24.5555 11.4316 24.2322 15.1917 24.2322 15.1917L86.3849 27.4306L86.2222 22.3887L24.5555 11.141Z" fill="#759ED4"/>
<path d="M76.8425 39.232C74.4418 39.0508 72.3937 38.6872 70.0669 38.1628C67.5775 37.6015 65.2993 37.6053 62.755 37.4054C58.2809 37.0519 53.4098 37.3513 49.9365 34.6303C47.7554 32.922 43.4924 31.4854 40.5956 33.1257C39.1366 33.0501 37.5762 33.1686 36.3579 33.176C35.6992 35.8089 39.8312 36.3436 41.9701 36.5034C45.8467 36.7952 48.0911 37.5789 51.6109 38.8659C55.2045 40.1817 59.2944 40.4245 63.2364 40.5654C67.0855 40.7026 70.903 40.7138 74.7395 40.9769C76.9607 41.1291 78.3099 41.207 80.3221 41.9619C82.4969 42.7781 84.1206 43.3683 86.0652 41.87C84.9926 40.1112 79.0236 39.3967 76.8425 39.232" fill="#8BB3DC"/>
<path d="M36.6243 10.9259C36.6553 10.8807 36.7317 10.7863 36.8351 10.6705C36.9384 10.5524 37.05 10.4391 37.1616 10.3284C37.4013 10.092 37.6802 9.85413 37.9344 9.66299C38.5956 9.16232 39.3147 8.73582 40.0441 8.34197C41.7592 7.41872 43.5838 6.71162 45.427 6.09522C48.9481 4.91657 52.6882 3.96295 56.4097 3.74289C57.2445 3.69247 58.0855 3.71271 58.9161 3.82719C59.3459 3.88505 59.7716 3.97308 60.1787 4.11896C60.2489 4.14417 60.3316 4.18694 60.4576 4.26877C60.3233 4.18323 60.4556 4.27125 60.4845 4.2977C60.5258 4.33779 60.4762 4.27497 60.4494 4.20823C60.4742 4.26485 60.4762 4.3944 60.4576 4.17806C60.4638 4.23984 60.4287 4.36052 60.468 4.15554C60.4576 4.20079 60.3977 4.33923 60.4783 4.15801C60.4576 4.20575 60.4308 4.24976 60.4039 4.29377C60.3874 4.31898 60.2737 4.45991 60.3812 4.33035C60.3419 4.37932 60.2965 4.42478 60.2531 4.47004C60.1394 4.58947 60.0113 4.69651 59.8832 4.79962C59.4141 5.17445 58.6206 5.57822 57.9883 5.87267C54.364 7.55841 49.2497 7.81112 47.14 11.7159C46.7246 12.4871 46.6812 13.3878 47.4665 13.9226C48.1422 14.383 49.1877 14.2232 49.9378 14.1187C52.3968 13.7765 54.6471 12.8431 56.8808 11.8029C59.2364 10.7046 61.6644 9.48301 64.3073 9.34725C65.0925 9.30696 65.8364 9.2894 66.5451 9.51711C66.5741 9.52579 66.76 9.60514 66.5927 9.52951C66.6402 9.551 66.6856 9.57744 66.7332 9.60389C66.8964 9.69564 66.6794 9.52455 66.8406 9.6882C66.9481 9.79627 66.7456 9.54728 66.8282 9.67043C66.8571 9.71444 66.9109 9.84545 66.8241 9.63654C66.8406 9.67312 66.8489 9.71072 66.8592 9.74854C66.8902 9.87045 66.8489 9.55347 66.8571 9.7535C66.8633 9.99505 66.8881 9.67436 66.8489 9.86177C66.8303 9.95476 66.7993 10.0467 66.7662 10.1372C66.7063 10.3031 66.8344 9.98865 66.76 10.156C66.7373 10.2064 66.7125 10.2542 66.6898 10.3032C66.6278 10.4265 66.5575 10.5435 66.4873 10.6606C66.1628 11.1927 65.919 11.4795 65.5553 11.9236C64.8693 12.7665 64.0552 13.5866 63.5572 14.5615C63.3547 14.964 63.1935 15.456 63.3464 15.9038C63.5634 16.5328 64.1957 16.8436 64.8383 16.7894C66.6546 16.6386 67.9957 15.032 69.7252 14.6067C69.9071 14.5615 70.3307 14.5704 70.6159 14.5615C71.1345 14.5476 71.494 14.6824 71.8515 15.0673C72.2338 15.4785 71.5994 16.2195 71.5044 16.6371C71.1986 17.9557 72.5417 17.9846 73.4261 17.9908C73.9158 17.9945 74.4035 17.9921 74.8932 18.0059C75.166 18.0121 75.4387 18.0262 75.7094 18.0462C76.009 18.0687 76.1268 18.0828 76.352 18.1229C76.5483 18.157 76.7426 18.2047 76.9306 18.2687C77.0091 18.2991 77.005 18.2964 76.9203 18.2601C76.9699 18.2813 77.0195 18.3066 77.067 18.333C77.2488 18.4324 77.0112 18.2588 77.1496 18.3921C77.2013 18.45 77.193 18.4349 77.1187 18.3469C77.1558 18.3983 77.1827 18.5155 77.1187 18.3266C77.1352 18.4022 77.1352 18.3807 77.1145 18.2613C77.1187 18.3142 77.0918 18.4537 77.1249 18.2561C77.1187 18.2915 77.1104 18.3266 77.098 18.3595C77.0463 18.538 77.1703 18.226 77.0753 18.4097C77.0174 18.5217 76.941 18.6248 76.8666 18.7242C76.6289 19.0424 76.8149 19.5356 77.1269 19.7193C77.4989 19.9369 77.8874 19.7759 78.1229 19.459C78.5238 18.9229 78.718 18.2727 78.3977 17.6499C78.127 17.1279 77.4782 16.8864 76.9451 16.7618C75.6743 16.4648 74.3353 16.558 73.0417 16.5316C72.9322 16.5291 72.8248 16.5254 72.7153 16.519C72.6719 16.5165 72.6264 16.5127 72.5809 16.5088C72.428 16.495 72.7607 16.5378 72.6264 16.5152C72.5975 16.5103 72.5685 16.5026 72.5396 16.495C72.6099 16.514 72.8516 16.6661 72.9074 16.8372C72.9281 16.899 72.8992 17.026 72.9467 16.8775C72.9405 16.8965 73.0314 16.6962 73.0542 16.6473C73.5914 15.5453 73.5149 14.491 72.5004 13.6872C71.6325 13.0004 70.2976 12.969 69.2521 13.2256C68.3491 13.4469 67.5101 13.9968 66.7104 14.4534C66.0926 14.8068 65.2454 15.3603 64.6213 15.3415C64.7949 15.3465 64.5139 15.2899 64.6751 15.3603C64.6255 15.3391 64.5222 15.2471 64.7061 15.3942C64.6606 15.3591 64.5883 15.2597 64.7329 15.4484C64.6978 15.4031 64.6544 15.2899 64.7495 15.5164C64.6689 15.324 64.7412 15.6622 64.7412 15.4963C64.7412 15.4372 64.7722 15.3176 64.7309 15.5515C64.7412 15.5013 64.7536 15.4523 64.7701 15.4031C64.8404 15.1779 64.7288 15.4699 64.8156 15.2963C64.8569 15.2056 64.9086 15.1188 64.9602 15.0332C65.0904 14.8181 65.2392 14.6132 65.39 14.4119C65.5161 14.2433 65.3012 14.5251 65.4334 14.3553C65.4747 14.3036 65.5161 14.2522 65.5574 14.2005C65.6421 14.0937 65.7289 13.9879 65.8157 13.8823C66.0099 13.6457 66.2083 13.4105 66.4025 13.1739C67.103 12.3286 67.9213 11.4165 68.2292 10.3385C68.5764 9.12822 67.725 8.27792 66.603 8.02499C64.4354 7.53568 62.0425 8.09421 60.0113 8.85029C57.5069 9.78243 55.1864 11.1537 52.651 12.0042C51.6446 12.34 50.5763 12.5941 49.5246 12.7173C49.2063 12.7551 48.6918 12.7815 48.4811 12.7489C48.4067 12.7388 48.3364 12.7185 48.2641 12.6985C48.0657 12.6418 48.3653 12.76 48.2021 12.6671C48.3385 12.745 48.167 12.589 48.262 12.7311C48.293 12.7778 48.2827 12.8406 48.2827 12.7526C48.2827 12.8243 48.3509 12.5387 48.3963 12.4507C48.5141 12.2092 48.6732 11.9876 48.8303 11.7713C49.1423 11.3411 49.5473 10.9776 49.9771 10.6693C50.9111 10.0013 51.9877 9.54087 53.058 9.14082C54.8744 8.46037 56.763 7.99999 58.5401 7.21105C59.7365 6.68145 61.3421 5.93797 61.8442 4.62976C62.0921 3.98444 61.7016 3.37425 61.1912 3.01325C60.4638 2.49749 59.3935 2.41814 58.5401 2.33012C56.9035 2.1615 55.2628 2.35285 53.6449 2.5942C50.0804 3.12649 46.5428 4.07743 43.1747 5.35691C41.5629 5.96938 39.9739 6.67008 38.4881 7.54952C37.3124 8.24775 36.1862 9.0842 35.368 10.1914C35.1303 10.5108 35.3142 11.0026 35.6283 11.1863C35.9982 11.4039 36.3887 11.2442 36.6243 10.9259" fill="#9B5358"/>
<path d="M36.6881 10.3433C36.7212 10.2993 36.7976 10.205 36.901 10.088C37.0043 9.96981 37.1139 9.85779 37.2255 9.74702C37.4673 9.50934 37.7463 9.2729 37.9984 9.08173C38.6618 8.58095 39.379 8.15313 40.1086 7.75942C41.8219 6.8362 43.6489 6.13039 45.4904 5.51264C49.0122 4.33521 52.7551 3.38037 56.4732 3.16026C57.3102 3.11128 58.1493 3.13132 58.9822 3.24458C59.41 3.30369 59.8358 3.39174 60.2429 3.53765C60.3132 3.56163 60.3959 3.60565 60.522 3.68728C60.3897 3.60048 60.522 3.68873 60.5488 3.71622C60.5902 3.75652 60.5426 3.69369 60.5137 3.62569C60.5385 3.68232 60.5426 3.81191 60.522 3.59676C60.5282 3.65711 60.493 3.77926 60.5323 3.57423C60.524 3.61949 60.4641 3.75776 60.5447 3.57671C60.5219 3.62321 60.4951 3.66723 60.4682 3.71126C60.4517 3.73771 60.3401 3.87867 60.4455 3.74908C60.4062 3.79682 60.3628 3.84332 60.3194 3.88859C60.2037 4.00825 60.0755 4.1151 59.9474 4.21823C59.4803 4.5919 58.6846 4.99699 58.0542 5.29006C54.4312 6.9757 49.316 7.22991 47.2058 11.1346C46.7883 11.9045 46.747 12.8064 47.5324 13.3411C48.2082 13.8003 49.2519 13.6406 50.0042 13.5362C52.4637 13.1952 54.7102 12.2618 56.9465 11.2202C59.3005 10.1232 61.731 8.90171 64.3744 8.76468C65.1556 8.72438 65.9017 8.70805 66.6106 8.93436C66.6396 8.94325 66.8256 9.02241 66.6561 8.94822C66.7057 8.96971 66.7532 8.99471 66.7987 9.02117C66.962 9.11314 66.745 8.94325 66.9062 9.10673C67.0136 9.21503 66.8111 8.96578 66.8917 9.08916C66.9227 9.13195 66.9764 9.26277 66.8896 9.05527C66.9041 9.09165 66.9144 9.12947 66.9227 9.16708C66.9558 9.28799 66.9144 8.97095 66.9206 9.17225C66.9289 9.41241 66.9516 9.09164 66.9144 9.2791C66.8958 9.37355 66.8648 9.46531 66.8318 9.5546C66.7718 9.72056 66.9 9.40745 66.8256 9.57341C66.8028 9.62384 66.778 9.67282 66.7532 9.72201C66.6912 9.84395 66.623 9.96217 66.5507 10.0791C66.2262 10.6113 65.9844 10.8982 65.6206 11.3421C64.9345 12.1837 64.1202 13.004 63.6242 13.9801C63.4195 14.3815 63.2583 14.8734 63.4133 15.3213C63.6283 15.9514 64.2607 16.261 64.9035 16.2081C66.7202 16.0572 68.0615 14.4495 69.7914 14.0242C69.9712 13.9801 70.3949 13.9878 70.6821 13.9801C71.1988 13.9663 71.5584 14.1011 71.918 14.4859C72.2983 14.8974 71.6659 15.6383 71.5688 16.0546C71.2629 17.3742 72.6063 17.4033 73.4909 17.4095C73.9807 17.4132 74.4705 17.4108 74.9583 17.4234C75.2311 17.4308 75.5039 17.4447 75.7746 17.4637C76.0764 17.4862 76.1921 17.5013 76.4174 17.5403C76.6137 17.5742 76.808 17.6234 76.9961 17.6875C77.0746 17.7177 77.0705 17.714 76.9857 17.6774C77.0353 17.6989 77.0829 17.7253 77.1304 17.7503C77.3123 17.8497 77.0767 17.6761 77.2151 17.8109C77.2668 17.8688 77.2565 17.8537 77.1841 17.7654C77.2193 17.8158 77.2462 17.9328 77.1821 17.7441C77.2007 17.8208 77.1986 17.7995 77.1779 17.6786C77.1841 17.7315 77.1573 17.8725 77.1904 17.6749C77.1842 17.7102 77.1759 17.7441 77.1635 17.778C77.1097 17.9568 77.2338 17.6447 77.1387 17.8285C77.0808 17.9405 77.0085 18.0424 76.932 18.1428C76.6943 18.4611 76.8803 18.9544 77.1924 19.1379C77.5644 19.3556 77.9509 19.1933 78.1865 18.8763C78.5895 18.3416 78.7838 17.6912 78.4614 17.0673C78.1927 16.5452 77.5438 16.305 77.0105 16.1792C75.7395 15.8822 74.4002 15.9766 73.1064 15.9502C72.999 15.9477 72.8894 15.944 72.7819 15.9376C72.7365 15.9351 72.691 15.9314 72.6455 15.9264C72.4926 15.9126 72.8254 15.9553 72.691 15.9326C72.6621 15.9277 72.6331 15.9212 72.6042 15.9138C72.6745 15.9326 72.9163 16.0849 72.9721 16.2559C72.9928 16.3162 72.9638 16.4433 73.0114 16.2962C73.0052 16.3137 73.0961 16.1139 73.1188 16.0659C73.6562 14.9639 73.5797 13.9099 72.5649 13.1059C71.6969 12.4191 70.3638 12.3863 69.3181 12.643C68.4149 12.8655 67.5758 13.4153 66.776 13.8721C66.158 14.2255 65.3106 14.7777 64.6865 14.7589C64.8621 14.7651 64.579 14.7074 64.7402 14.7789C64.6906 14.7564 64.5852 14.6647 64.7691 14.813C64.7257 14.7765 64.6534 14.6773 64.7981 14.8672C64.7629 14.8205 64.7195 14.7074 64.8146 14.935C64.734 14.7413 64.8063 15.0797 64.8084 14.9137C64.8084 14.8546 64.8373 14.7349 64.796 14.9703C64.8043 14.9199 64.8208 14.8709 64.8353 14.8219C64.9035 14.5954 64.7939 14.8872 64.8787 14.7136C64.9241 14.6244 64.9737 14.5376 65.0254 14.452C65.1556 14.2356 65.3044 14.0318 65.4553 13.8305C65.5834 13.6619 65.3664 13.9438 65.4987 13.7739C65.54 13.7224 65.5793 13.6695 65.6206 13.6178C65.7074 13.511 65.7942 13.4054 65.879 13.3008C66.0753 13.0631 66.2717 12.8279 66.468 12.5915C67.1666 11.746 67.985 10.8352 68.295 9.7559C68.6402 8.54705 67.7907 7.69659 66.6685 7.44382C64.4984 6.95441 62.1071 7.51285 60.0755 8.26887C57.5706 9.19994 55.2517 10.5723 52.7137 11.4227C51.7113 11.7586 50.6408 12.0116 49.5888 12.1347C49.2705 12.1726 48.758 12.1988 48.5451 12.1674C48.4728 12.1562 48.4004 12.1372 48.3301 12.1172C48.1297 12.0605 48.4294 12.1788 48.2661 12.0858C48.4046 12.1637 48.2309 12.0076 48.326 12.1486C48.3591 12.1963 48.3467 12.2594 48.3467 12.1713C48.3467 12.2416 48.4169 11.9574 48.4603 11.8681C48.5802 11.6278 48.7394 11.4064 48.8964 11.1888C49.2065 10.7597 49.6115 10.3949 50.0414 10.088C50.9756 9.41881 52.0524 8.95958 53.123 8.55822C54.9396 7.87908 56.8287 7.41737 58.6061 6.62972C59.8007 6.09898 61.4065 5.35557 61.9087 4.04835C62.1588 3.4031 61.7661 2.793 61.2557 2.43194C60.5302 1.91607 59.4576 1.83691 58.604 1.74887C56.9692 1.57898 55.3282 1.77016 53.7099 2.01176C50.1448 2.54375 46.6085 3.49611 43.2397 4.77564C41.6297 5.38698 40.0383 6.08762 38.5544 6.96826C37.3763 7.66641 36.252 8.50158 35.4315 9.60999C35.1959 9.92951 35.3778 10.4214 35.6919 10.6049C36.0619 10.8213 36.4525 10.6616 36.6881 10.3433" fill="#984024"/>
<path d="M36.1804 9.94477C36.4099 9.17992 37.1171 8.6403 37.7459 8.20628C38.4139 7.74577 39.1416 7.37464 39.8693 7.0188C40.7594 6.58217 41.6849 6.32803 42.6328 6.04385C43.6721 5.73187 44.6554 5.12171 45.7395 4.98325C46.0456 4.94426 46.0493 4.45986 45.7395 4.49905C44.6051 4.64366 43.5881 5.2387 42.5021 5.57587C41.4796 5.89532 40.4888 6.17596 39.5222 6.65009C38.1564 7.3181 36.1897 8.22755 35.712 9.81527C35.6224 10.1159 36.0908 10.2429 36.1804 9.94477" fill="#C35B59"/>
<path d="M48.7206 12.8709C47.3105 12.2218 48.3001 10.6782 49.0993 9.9712C49.891 9.26801 50.8844 8.81261 51.8246 8.34464C52.1043 8.20495 51.8588 7.78608 51.5791 7.92577C50.3858 8.52067 49.126 9.11957 48.2392 10.1486C47.4189 11.1022 47.1259 12.6682 48.4771 13.2898C48.7587 13.4194 49.0061 13.0017 48.7206 12.8709Z" fill="#C35B59"/>
<path d="M62.626 8.51449C63.3547 8.25908 64.1173 8.20383 64.8819 8.21885C65.5044 8.23146 66.2691 8.25287 66.7775 8.65541C67.8384 9.49691 65.9848 11.0128 65.4944 11.6481C65.3043 11.8921 65.6466 12.2382 65.8367 11.9904C66.5413 11.082 68.1747 9.83659 67.33 8.54592C66.9256 7.9296 66.0789 7.82391 65.4124 7.76466C64.4436 7.68039 63.4227 7.72323 62.4979 8.0465C62.2057 8.14959 62.3318 8.61758 62.626 8.51449" fill="#C35B59"/>
<path d="M63.7835 14.9552C63.5065 16.2184 65.3532 15.5843 65.9072 15.3791C66.5476 15.1427 67.1698 14.8558 67.7881 14.5628C68.0731 14.4269 68.5408 14.1262 68.7837 14.0898C69.0928 14.0419 68.9603 13.5752 68.6552 13.6217C68.4164 13.6583 68.1474 13.852 67.9346 13.9552C67.4468 14.193 66.955 14.4231 66.4572 14.6382C65.9454 14.8597 65.4195 15.0648 64.8755 15.1955C64.7109 15.2346 64.183 15.393 64.2512 15.0837C64.3174 14.7792 63.8497 14.6495 63.7835 14.9552" fill="#C35B59"/>
<path d="M71.7486 13.7362C72.1679 14.1564 72.4407 14.5261 72.3023 15.1212C72.227 15.4459 72.1048 15.7641 72.0723 16.0975C71.9868 16.9831 72.8275 16.9163 73.4383 16.7076C73.7335 16.6069 73.6072 16.1391 73.31 16.2396C73.1329 16.3013 72.5568 16.5653 72.5486 16.227C72.5405 15.954 72.6586 15.6659 72.7298 15.4068C72.9599 14.5603 72.7074 14.0129 72.0926 13.3928C71.8707 13.1713 71.5287 13.5147 71.7486 13.7362" fill="#C35B59"/>
<path d="M77.2293 17.0712C77.1591 17.1015 77.2747 17.1393 77.3139 17.1756C77.4129 17.2662 77.481 17.3819 77.5388 17.5014C77.6956 17.8185 77.5759 18.0952 77.2767 18.2526C76.9982 18.3973 77.2437 18.8149 77.5202 18.6702C78.0463 18.3958 78.2155 17.8511 77.9824 17.3128C77.8235 16.9468 77.4335 16.4549 76.9838 16.6524C76.699 16.7782 76.9446 17.1958 77.2293 17.0712" fill="#C35B59"/>
<path d="M28.4642 19.6954C29.0454 19.9873 29.6284 20.2779 30.2096 20.5685C30.4896 20.7081 30.7341 20.2892 30.4541 20.1496C29.8729 19.859 29.2917 19.5684 28.7087 19.2778C28.4305 19.1381 28.1842 19.5558 28.4642 19.6954" fill="#CA5B00"/>
<path d="M27.838 23.9133C28.4192 23.6227 29.0022 23.3321 29.5834 23.0402C29.8626 22.9007 29.617 22.4829 29.3379 22.6226C28.7566 22.9132 28.1754 23.2038 27.5924 23.4944C27.3133 23.634 27.5589 24.0529 27.838 23.9133Z" fill="#CA5B00"/>
<path d="M31.8525 24.6644C32.3268 24.5183 32.8314 24.5198 33.3057 24.3737C33.6046 24.2819 33.4775 23.814 33.1768 23.907C32.7026 24.0529 32.1979 24.0518 31.7219 24.1976C31.4248 24.2895 31.5537 24.7574 31.8525 24.6644Z" fill="#CA5B00"/>
<path d="M32.8037 26.7102C33.2884 26.7102 33.7732 26.7102 34.258 26.7102C34.5704 26.7102 34.5704 26.2258 34.258 26.2258C33.7732 26.2258 33.2884 26.2258 32.8037 26.2258C32.4912 26.2258 32.4912 26.7102 32.8037 26.7102Z" fill="#CA5B00"/>
<path d="M32.9507 22.2012C33.5804 22.2012 34.2119 22.2012 34.8416 22.2012C35.1546 22.2012 35.1546 21.7169 34.8416 21.7169C34.2119 21.7169 33.5804 21.7169 32.9507 21.7169C32.6395 21.7169 32.6395 22.2012 32.9507 22.2012Z" fill="#CA5B00"/>
<path d="M36.2322 20.3015C37.1745 20.5959 38.168 20.6072 39.1396 20.7381C39.4464 20.7796 39.5779 20.3128 39.2692 20.2701C38.2977 20.1393 37.3024 20.1267 36.3619 19.8349C36.0624 19.7417 35.9345 20.2096 36.2322 20.3015Z" fill="#CA5B00"/>
<path d="M43.6873 22.5661C44.1104 22.9612 44.7104 23.1738 45.249 23.3561C45.5453 23.4567 45.6721 22.9887 45.3757 22.8881C44.921 22.7347 44.388 22.5586 44.0284 22.2239C43.801 22.0102 43.4581 22.3523 43.6873 22.5661Z" fill="#CA5B00"/>
<path d="M38.6235 26.7099C39.4744 26.7099 40.318 26.6871 41.1597 26.5552C41.4684 26.5074 41.3361 26.0406 41.031 26.0884C40.2316 26.213 39.4303 26.2242 38.6235 26.2255C38.3111 26.2255 38.3111 26.7099 38.6235 26.7099Z" fill="#CA5B00"/>
<path d="M42.2345 28.5681C42.7983 28.1531 43.416 27.8183 43.9798 27.4045C44.2284 27.2209 43.9872 26.7994 43.735 26.9857C43.1712 27.3995 42.5535 27.7341 41.9897 28.1492C41.7411 28.3317 41.9822 28.7531 42.2345 28.5681" fill="#CA5B00"/>
<path d="M39.2675 23.3563C39.9368 23.2028 40.63 23.1914 41.3029 23.0656C41.6118 23.0079 41.4813 22.541 41.1761 22.5977C40.5013 22.7234 39.8099 22.7348 39.1388 22.8884C38.8335 22.9588 38.9641 23.4255 39.2675 23.3563" fill="#CA5B00"/>
<path d="M47.1377 27.7189C48.082 28.0497 48.9298 28.6032 49.8439 29.0033C50.1277 29.1278 50.3738 28.7102 50.088 28.5856C49.1361 28.1666 48.2523 27.5968 47.2663 27.2522C46.9711 27.1477 46.8443 27.6169 47.1377 27.7189" fill="#CA5B00"/>
<path d="M50.2303 23.2934C50.7085 23.7539 51.2914 24.0556 51.88 24.3501C52.1581 24.4897 52.4038 24.0708 52.1238 23.9312C51.5752 23.6569 51.0209 23.3815 50.5732 22.9511C50.3484 22.7336 50.0056 23.077 50.2303 23.2934Z" fill="#CA5B00"/>
<path d="M53.2294 27.5742C54.033 27.2659 54.8847 27.1112 55.7037 26.847C55.9985 26.7514 55.8732 26.2822 55.5726 26.3791C54.7556 26.6433 53.9058 26.7992 53.1023 27.1062C52.8113 27.2168 52.9385 27.6862 53.2294 27.5742Z" fill="#CA5B00"/>
<path d="M49.9401 25.3299C50.2762 25.6569 50.6598 25.8293 51.1307 25.8368C51.4422 25.8419 51.4422 25.3576 51.1307 25.3525C50.787 25.3462 50.5268 25.2255 50.2838 24.9864C50.0597 24.7687 49.716 25.1109 49.9401 25.3299Z" fill="#CA5B00"/>
<path d="M53.6813 22.7751C54.7023 23.0568 55.7427 23.2104 56.8024 23.2193C57.1138 23.2218 57.1138 22.7374 56.8024 22.7348C55.7833 22.7259 54.7913 22.5788 53.8108 22.3071C53.5092 22.2228 53.3815 22.6907 53.6813 22.7751" fill="#CA5B00"/>
<path d="M60.35 24.6416C60.6584 25.389 61.0573 26.0847 61.5386 26.735C61.7213 26.9841 62.1417 26.7426 61.9571 26.491C61.5032 25.877 61.1083 25.219 60.8176 24.5122C60.6997 24.2279 60.2301 24.3524 60.35 24.6416" fill="#CA5B00"/>
<path d="M58.0461 28.3351C58.3539 28.958 58.613 29.6033 58.9209 30.226C59.0592 30.5065 59.4761 30.2599 59.3398 29.9807C59.0319 29.358 58.7728 28.7125 58.4669 28.0898C58.3266 27.8093 57.9097 28.0559 58.0461 28.3351Z" fill="#CA5B00"/>
<path d="M56.0735 31.7997C56.7043 31.7997 57.3351 31.7997 57.9659 31.7997C58.2784 31.7997 58.2784 31.3154 57.9659 31.3154C57.3351 31.3154 56.7043 31.3154 56.0735 31.3154C55.7629 31.3154 55.7629 31.7997 56.0735 31.7997Z" fill="#CA5B00"/>
<path d="M59.5639 33.8365C59.878 33.8365 59.878 33.3509 59.5639 33.3509C59.2518 33.3509 59.2518 33.8365 59.5639 33.8365Z" fill="#CA5B00"/>
<path d="M59.5642 33.8364C60.2672 33.8364 60.9761 33.8404 61.6653 33.6819C61.9697 33.6126 61.8401 33.1447 61.5357 33.2152C60.8897 33.3622 60.224 33.351 59.5642 33.351C59.252 33.3522 59.252 33.8364 59.5642 33.8364Z" fill="#CA5B00"/>
<path d="M66.0285 33.1006C66.9455 32.9483 67.8846 32.8124 68.7053 32.3483C68.9762 32.1948 68.7314 31.7758 68.4605 31.9305C67.68 32.371 66.771 32.4891 65.9001 32.6324C65.5931 32.6842 65.7235 33.1507 66.0285 33.1006" fill="#CA5B00"/>
<path d="M65.2385 29.3276C66.0405 29.3276 66.8386 29.3214 67.6307 29.173C67.9367 29.1164 67.8067 28.6483 67.5007 28.7061C66.7546 28.8457 65.9965 28.8419 65.2385 28.8433C64.9244 28.8433 64.9244 29.3276 65.2385 29.3276Z" fill="#CA5B00"/>
<path d="M66.5458 25.4001C67.1051 25.4089 67.6905 25.5046 68.1697 25.8039C68.4363 25.9701 68.6789 25.5499 68.4142 25.3851C67.8629 25.0417 67.1873 24.9246 66.5458 24.9158C66.2351 24.9108 66.2351 25.3963 66.5458 25.4001Z" fill="#CA5B00"/>
<path d="M72.8232 27.695C73.4449 28.0019 74.0911 28.261 74.7128 28.568C74.9929 28.705 75.2383 28.2874 74.9582 28.1489C74.3344 27.8422 73.6903 27.5829 73.0665 27.2759C72.7884 27.1389 72.543 27.5565 72.8232 27.695Z" fill="#CA5B00"/>
<path d="M71.3674 31.7672C71.9515 32.059 72.5375 32.3496 73.1704 32.5181C73.4736 32.5999 73.6018 32.1319 73.3007 32.0515C72.7064 31.893 72.159 31.6225 71.6116 31.3482C71.3328 31.2099 71.0886 31.6276 71.3674 31.7672" fill="#CA5B00"/>
<path d="M74.6257 36.5914C75.3703 36.7286 76.117 36.7448 76.8719 36.7448C77.1846 36.7448 77.1846 36.2606 76.8719 36.2606C76.1623 36.2592 75.4568 36.253 74.7553 36.1234C74.4489 36.0668 74.3192 36.5336 74.6257 36.5914" fill="#CA5B00"/>
<path d="M78.8418 35.4278C79.6075 35.5574 80.2712 35.3171 80.8247 34.7836C81.0494 34.566 80.7061 34.2239 80.4814 34.4403C80.0632 34.8442 79.5597 35.0606 78.9729 34.9599C78.665 34.9083 78.5339 35.375 78.8418 35.4278Z" fill="#CA5B00"/>
<path d="M76.5808 32.5268C77.3819 32.5268 78.1829 32.5193 78.9735 32.3734C79.2799 32.3167 79.1495 31.8487 78.8432 31.9054C78.098 32.0437 77.3384 32.0424 76.5808 32.0424C76.2683 32.0424 76.2683 32.5268 76.5808 32.5268" fill="#CA5B00"/>
<path d="M81.0894 29.909C81.6714 29.909 82.2534 29.909 82.8354 29.909C83.1473 29.909 83.1473 29.4245 82.8354 29.4245C82.2534 29.4245 81.6714 29.4245 81.0894 29.4245C80.7775 29.4245 80.7775 29.909 81.0894 29.909Z" fill="#CA5B00"/>
<path d="M83.183 33.5131C83.3385 34.2428 83.6054 34.9372 83.9333 35.6064C84.072 35.887 84.4903 35.6417 84.3537 35.3624C84.0405 34.7298 83.7967 34.0743 83.6496 33.3836C83.5844 33.078 83.1178 33.2075 83.183 33.5131Z" fill="#CA5B00"/>
<path d="M82.7704 37.2067C82.9172 37.4972 83.062 37.7891 83.2067 38.0796C83.3472 38.359 83.7646 38.1136 83.6261 37.8344C83.4793 37.5437 83.3346 37.2531 83.1899 36.9613C83.0494 36.682 82.632 36.9273 82.7704 37.2067" fill="#CA5B00"/>
<path d="M28.5056 40.3717C29.351 40.241 30.2052 40.2358 31.0594 40.2358C31.3719 40.2358 31.3719 39.7503 31.0594 39.7503C30.1608 39.7503 29.2675 39.7667 28.376 39.905C28.0688 39.9528 28.2002 40.4197 28.5056 40.3717" fill="#CA5B00"/>
<path d="M35.252 40.7465C35.8813 41.3829 36.4399 42.0837 36.9985 42.7818C37.1926 43.026 37.5336 42.6812 37.3395 42.4398C36.7809 41.7415 36.2241 41.0409 35.5947 40.403C35.3753 40.1803 35.0325 40.5238 35.252 40.7465" fill="#CA5B00"/>
<path d="M32.3043 43.7166C32.7614 43.8813 33.1916 44.2285 33.4694 44.6236C33.6469 44.8777 34.0663 44.6361 33.887 44.3794C33.5339 43.8738 33.0159 43.4587 32.4334 43.2499C32.1394 43.1441 32.014 43.6121 32.3043 43.7166" fill="#CA5B00"/>
<path d="M27.3264 42.3203C27.3457 42.841 27.6236 43.2889 27.9788 43.6551C28.1969 43.8789 28.5398 43.5367 28.3217 43.3116C28.0597 43.0424 27.8258 42.709 27.81 42.3203C27.7994 42.0084 27.3141 42.007 27.3264 42.3203" fill="#CA5B00"/>
<path d="M36.5866 47.2165C36.8979 47.2165 36.8979 46.7322 36.5866 46.7322C36.2735 46.7322 36.2735 47.2165 36.5866 47.2165Z" fill="#CA5B00"/>
<path d="M36.8122 47.2077C37.6562 47.3498 38.4928 47.497 39.3496 47.5071C39.6619 47.5107 39.6619 47.0265 39.3496 47.0228C38.5348 47.0128 37.742 46.8756 36.9401 46.7409C36.635 46.6894 36.5035 47.156 36.8122 47.2077Z" fill="#CA5B00"/>
<path d="M40.8032 45.4715C41.6136 45.4702 42.4277 45.455 43.1955 45.1719C43.486 45.0639 43.362 44.5958 43.0679 44.704C42.337 44.9732 41.5729 44.9858 40.8032 44.9858C40.4924 44.9858 40.4924 45.4715 40.8032 45.4715Z" fill="#CA5B00"/>
<path d="M40.8861 41.8257C41.7754 41.9641 42.6683 41.9805 43.5687 41.9805C43.8799 41.9805 43.8799 41.4961 43.5687 41.4961C42.7146 41.4948 41.8606 41.4898 41.0139 41.359C40.7082 41.3112 40.5786 41.7792 40.8861 41.8257" fill="#CA5B00"/>
<path d="M47.9303 49.6883C49.0058 49.6644 49.9333 49.2177 50.8172 48.6378C51.0771 48.4667 50.8343 48.0466 50.5726 48.2188C49.7626 48.7511 48.9185 49.1812 47.9303 49.2038C47.6193 49.2114 47.6193 49.6958 47.9303 49.6883" fill="#CA5B00"/>
<path d="M47.2666 46.2239C47.6849 45.6816 48.2351 45.2639 48.7796 44.8563C49.0265 44.6715 48.7853 44.25 48.5347 44.4375C47.9186 44.8991 47.3213 45.3658 46.8483 45.9785C46.6562 46.2263 47.0782 46.4679 47.2666 46.2239Z" fill="#CA5B00"/>
<path d="M54.0957 46.4565C54.2651 47.3674 54.6692 48.2038 54.9674 49.0743C55.0694 49.3687 55.5369 49.2417 55.4369 48.9461C55.1367 48.0743 54.7327 47.2377 54.5633 46.3282C54.5056 46.0213 54.038 46.1507 54.0957 46.4565Z" fill="#CA5B00"/>
<path d="M60.2662 46.2729C60.5899 46.6062 60.843 47.0012 61.1 47.3875C61.2727 47.6453 61.6925 47.4037 61.5199 47.142C61.2393 46.7232 60.9607 46.2929 60.6076 45.9294C60.3898 45.7055 60.0465 46.0489 60.2662 46.2729Z" fill="#CA5B00"/>
<path d="M59.4186 51.1425C59.7325 51.1425 59.7325 50.6581 59.4186 50.6581C59.1066 50.6581 59.1066 51.1425 59.4186 51.1425Z" fill="#CA5B00"/>
<path d="M59.3551 51.135C60.127 51.4229 60.9323 51.4331 61.7475 51.4343C62.0598 51.4343 62.0598 50.9488 61.7475 50.9488C60.9736 50.9488 60.2174 50.9413 59.4848 50.6669C59.1901 50.5575 59.0664 51.0256 59.3551 51.135" fill="#CA5B00"/>
<path d="M68.0647 52.8799C68.6001 52.7453 69.1395 52.6145 69.6628 52.4434C69.9606 52.3466 69.8338 51.8787 69.536 51.9755C69.0087 52.1477 68.4713 52.2786 67.9359 52.412C67.632 52.4887 67.7608 52.9554 68.0647 52.8799Z" fill="#CA5B00"/>
<path d="M65.2153 50.0921C65.952 49.6455 66.6069 49.1248 67.154 48.4543C67.3497 48.2139 67.0082 47.8693 66.8106 48.1121C66.2895 48.7512 65.6745 49.2468 64.9697 49.6733C64.7021 49.8356 64.9457 50.2545 65.2153 50.0921" fill="#CA5B00"/>
<path d="M66.9172 46.044C67.5882 46.3156 68.2432 46.6176 68.9544 46.7711C69.2578 46.8378 69.3884 46.3697 69.083 46.3044C68.3718 46.1509 67.7168 45.8477 67.0458 45.5773C66.7565 45.459 66.6319 45.9283 66.9172 46.044Z" fill="#CA5B00"/>
<path d="M71.8387 48.0568C72.0074 49.0355 72.3002 49.9839 72.7353 50.877C72.8735 51.1588 73.2903 50.9124 73.1541 50.6331C72.7373 49.7776 72.4689 48.8631 72.3063 47.9271C72.2534 47.6203 71.7838 47.751 71.8387 48.0568" fill="#CA5B00"/>
<path d="M70.3505 50.2369C71.0594 50.6621 71.7765 51.096 72.5891 51.2798C72.8938 51.3489 73.0238 50.881 72.7191 50.813C71.9451 50.6369 71.2687 50.2231 70.5942 49.8192C70.3261 49.6583 70.0823 50.0772 70.3505 50.2369" fill="#CA5B00"/>
<path d="M73.445 55.3517C74.7722 54.9227 76.1551 54.7479 77.5173 54.48C77.8244 54.4196 77.6945 53.9516 77.3895 54.012C76.0273 54.2799 74.6424 54.4549 73.3172 54.885C73.0205 54.9806 73.1462 55.4486 73.445 55.3517Z" fill="#CA5B00"/>
<path d="M77.3729 52.1528C78.0066 51.983 78.5926 51.6923 79.1766 51.4005C79.4562 51.2609 79.2098 50.8432 78.9323 50.9828C78.3835 51.2559 77.8368 51.5262 77.2424 51.6848C76.9421 51.7654 77.0705 52.2334 77.3729 52.1528Z" fill="#CA5B00"/>
<path d="M75.1921 48.5171C76.3485 48.219 77.5875 48.5134 78.7625 48.5247C79.0748 48.5285 79.0748 48.0442 78.7625 48.0403C77.5379 48.0277 76.2699 47.7385 75.0618 48.0492C74.7598 48.1272 74.8881 48.5938 75.1921 48.5171" fill="#CA5B00"/>
<path d="M81.5014 49.6178C82.3024 50.4191 83.1054 51.2154 83.9736 51.9451C84.2111 52.1437 84.5559 51.803 84.3162 51.6016C83.448 50.8721 82.645 50.0756 81.8441 49.2745C81.6212 49.0542 81.2807 49.3964 81.5014 49.6178Z" fill="#CA5B00"/>
<path d="M81.8409 54.3098C82.5302 54.8182 83.2742 55.1893 84.1442 55.2157C84.4573 55.2245 84.4552 54.7389 84.1442 54.7301C83.3582 54.7075 82.7046 54.3464 82.0847 53.891C81.8325 53.7048 81.5908 54.1264 81.8409 54.3098Z" fill="#CA5B00"/>
</svg>
