<svg width="258" height="102" viewBox="0 0 258 102" fill="none" xmlns="http://www.w3.org/2000/svg">
<path d="M257.277 101.952L173.12 22.5686L123.58 74.4963L216.691 101.952H257.277Z" fill="#933D2A"/>
<path d="M173.176 22.661L183.25 39.2531C183.256 39.2647 183.248 39.2791 183.235 39.2762L174.957 38.0952C174.943 38.0923 174.935 38.1096 174.945 38.1183L195.178 56.5672C195.188 56.5758 195.182 56.5903 195.169 56.5903L186.306 57.1823C186.291 57.1823 186.287 57.2054 186.3 57.2111L205.947 66.7373L212.499 70.9041C212.504 70.9099 212.507 70.9215 212.502 70.9272L208.941 75.0796C208.935 75.0854 208.938 75.0969 208.947 75.1027L218.482 81.0598L257.178 101.9C257.193 101.905 257.207 101.888 257.196 101.874L173.198 22.6436C173.186 22.6321 173.167 22.6465 173.176 22.661Z" fill="#A5563D"/>
<path d="M173.12 22.5685L183.266 39.279L174.91 38.0865L195.203 56.5902L186.25 57.1851L179.684 67.9298L155.214 40.4745L173.12 22.5685Z" fill="#E3684E"/>
<path d="M114.926 0.186714L177.895 63.1567L201.768 76.2866L216.691 101.952H94.9306L82.8202 66.4428L72.847 52.4119L114.926 0.186714Z" fill="#9C594B"/>
<path d="M114.926 0.186787L111.046 14.2119L114.03 26.747L107.465 36.2963L119.999 53.0097L111.643 61.3636L105.674 84.0457L85.9778 81.0599L72.847 52.412L114.926 0.186787Z" fill="#78382B"/>
<path d="M80.6058 61.9613L92.5431 43.4575L88.9619 65.5419L95.5272 60.7687L94.9303 70.9158L102.63 57.884C102.646 57.858 102.686 57.8696 102.684 57.9013L101.496 83.4479L90.1554 87.0315L74.6374 76.8815L80.6058 61.9613Z" fill="#E3684E"/>
<path d="M111.123 101.963L107.225 89.0441C106.217 85.7955 104.208 82.9454 101.486 80.9039L86.5747 69.7202L63.2966 39.2791L33.8612 78.2386L31.8471 78.6862L18.6415 82.9397L0.408936 101.963H111.123Z" fill="#A5563D"/>
<path d="M190.428 81.6576L177.895 63.1567L157.004 45.2507L147.454 66.1396L171.329 80.465L178.491 101.952L203.518 101.516L190.428 81.6576Z" fill="#A5563D"/>
<path d="M33.4539 77.4779L53.7471 51.8129C53.7471 51.8129 44.7941 73.8973 47.7787 76.8802C50.7628 79.8659 63.8938 79.2682 68.6685 82.8517C73.4434 86.4324 68.0719 101.95 68.0719 101.95H0.0296021L18.5322 82.254L33.4539 77.4779Z" fill="#893E2E"/>
<path d="M63.2965 39.2791L58.3437 45.8859C58.0783 46.2382 57.9825 46.6915 58.0818 47.1218L59.5605 53.5323C59.659 53.9568 59.9388 54.3235 60.3263 54.5256C67.8774 58.4787 75.2653 60.3268 76.4279 66.1395L77.1365 69.6826C77.2613 70.3064 78.1397 70.3468 78.3193 69.7346L80.3911 62.6917C80.5263 62.2326 80.4344 61.736 80.1445 61.3577L63.2965 39.2791Z" fill="#BA775A"/>
<path d="M115.658 0.920219L154.9 40.1599C155.086 40.3476 155.13 40.6334 155.007 40.8673L148.694 52.9202C148.663 52.9779 148.623 53.0328 148.575 53.079L137.079 63.9999C136.866 64.2021 136.829 64.5283 136.992 64.7709L138.531 67.0781C138.785 67.4621 138.536 67.9761 138.078 68.0166L132.956 68.4411C132.498 68.4815 132.249 68.9955 132.504 69.3795C132.771 69.7809 132.484 70.318 132.001 70.318H124.902C124.817 70.318 124.734 70.3353 124.656 70.37L116.368 74.0545C115.785 74.3115 115.251 73.6099 115.656 73.119L122.204 65.1665C122.319 65.0279 122.365 64.8431 122.33 64.6641L120.143 53.7316C120.069 53.3591 120.354 53.0097 120.735 53.0097H128.537C128.994 53.0097 129.286 52.5217 129.069 52.1174L122.821 40.515C122.501 39.9202 123.25 39.3282 123.755 39.7787L135.138 49.9431C135.649 50.3964 136.404 49.7871 136.065 49.1923L126.071 31.705C126.004 31.5866 125.898 31.4942 125.772 31.4422L116.667 27.8009C116.062 27.5584 116.217 26.6632 116.869 26.6372L129.216 26.1636C129.423 26.155 129.619 26.2532 129.737 26.4235L134.886 33.914C135.233 34.4164 136.022 34.1479 135.987 33.5357L135.538 25.9095C135.525 25.6901 135.394 25.4937 135.196 25.3984L121.789 18.9879L111.521 14.4226C111.248 14.3014 111.105 13.9982 111.184 13.7123L114.649 1.18587C114.772 0.738289 115.331 0.593918 115.658 0.920219Z" fill="#C6684B"/>
<path d="M155.214 40.4747L136.71 64.3494L124.774 70.3181L120.595 78.6748L130.145 70.9158L133.13 79.8674L134.92 69.7203L139.695 75.0913L140.292 67.93L144.47 69.1255L146.857 81.06L151.035 66.7375L171.329 80.4651L156.407 60.7688L159.391 52.4121L155.214 40.4747Z" fill="#BA775A"/>
<path d="M155.214 40.4746L177.895 63.1567L168.941 57.1851L172.522 69.7202L162.376 54.8L156.407 60.7686L159.392 52.4119L155.214 40.4746Z" fill="#D1966B"/>
<path d="M173.12 22.5685L162.376 33.3133L171.329 30.9252L174.91 38.0865L183.266 39.2791L173.12 22.5685Z" fill="#933D2A"/>
<path d="M171.329 80.465L151.035 66.7373L140.292 101.952H178.491L171.329 80.465Z" fill="#E3684E"/>
<path d="M190.428 81.6576L194.009 94.1927L179.088 76.2866L184.46 94.7875L179.088 88.224L178.491 101.952H209.527L190.428 81.6576Z" fill="#E3684E"/>
<path d="M160.379 94.5247L160.715 99.9534L155 91.1L156.008 99.9534L152.983 97.0976L149.958 99.6676L150.63 96.24L146.261 101.952H167.774L160.379 94.5247Z" fill="#BC5742"/>
<path d="M111.166 101.963H127.588L124.774 87.3288L118.805 95.0878L120.595 79.5698L111.166 101.963Z" fill="#E3684E"/>
<path d="M91.8851 93.4592L93.8111 99.1218L86.5878 91.1L88.5138 99.5925L84.6611 96.2891L79.8455 99.5925L81.7715 93.4592L74.0665 101.952H99.1087L91.8851 93.4592Z" fill="#E3684E"/>
<path d="M39.8199 101.963L34.6736 91.1L32.2859 99.4568L28.1081 89.9046L23.9303 98.859L22.1397 91.1L14.9773 99.4568L18.5322 82.2553L0.0296021 101.952L1.08588 101.963H39.8199Z" fill="#BC5742"/>
<path d="M113.9 92.933C126.488 92.933 136.692 91.1879 136.692 89.0351C136.692 86.8823 126.488 85.1372 113.9 85.1372C101.313 85.1372 91.1089 86.8823 91.1089 89.0351C91.1089 91.1879 101.313 92.933 113.9 92.933Z" fill="#414042"/>
<path d="M134.995 45.4698C137.105 41.2967 137.013 36.2982 134.537 32.3086C132.106 28.4106 127.933 26.1177 123.347 26.1177H104.408C99.8222 26.1177 95.4657 28.3189 92.9894 32.1251C90.4213 36.0689 90.192 40.9757 92.2556 45.1947L92.439 45.5615C93.8606 48.4047 93.6772 51.7524 92.0722 54.5038C89.9169 58.1725 88.7245 62.4831 88.7245 67.0231C88.7245 75.1399 92.6225 82.3855 98.6299 86.9254C100.418 88.3012 102.62 89.0349 104.912 89.0349H122.476C124.723 89.0349 126.97 88.3012 128.759 86.9254C134.812 82.3396 138.71 75.0482 138.664 66.8396C138.618 62.2538 137.38 57.9432 135.225 54.2745C133.711 51.6148 133.62 48.2671 134.995 45.4698ZM97.8503 34.9225C99.3177 32.813 101.794 31.6665 104.316 31.6665H123.164C125.732 31.6665 128.208 32.813 129.676 34.9225C131.281 37.2612 131.464 40.1961 130.226 42.6725L129.951 43.2686C129.08 44.9654 127.016 45.6991 125.319 44.8278C121.788 42.9935 117.753 41.9846 113.442 42.0763C109.407 42.1222 105.646 43.131 102.299 44.8736C100.602 45.745 98.4923 45.0571 97.621 43.3603L97.3 42.7183C96.016 40.1961 96.2453 37.2612 97.8503 34.9225Z" fill="#414343"/>
<path d="M109.085 66.0143C109.36 66.0143 109.635 66.0602 109.911 66.1519C110.186 66.2436 110.415 66.427 110.598 66.6104C110.782 66.7939 110.965 67.0232 111.057 67.2983C111.195 67.5735 111.24 67.8486 111.24 68.1238V74.177C111.24 74.4522 111.195 74.7273 111.057 75.0025C110.919 75.2776 110.782 75.5069 110.598 75.6903C110.415 75.8738 110.14 76.0113 109.911 76.1489C109.635 76.2865 109.36 76.3323 109.085 76.3323H108.764H106.425C106.104 76.3323 105.829 76.2865 105.554 76.1489C105.279 76.0113 105.05 75.8738 104.866 75.6903C104.683 75.5069 104.499 75.2776 104.408 75.0025C104.27 74.7273 104.224 74.4522 104.224 74.177V70.7835H106.655V74.177C106.655 74.2229 106.655 74.2687 106.701 74.2687H108.764C108.81 74.2687 108.81 74.2229 108.81 74.177V68.9033C108.81 68.5823 108.764 68.3531 108.672 68.2155C108.581 68.0779 108.351 67.9862 108.03 67.9862H104.27C104.224 67.9862 104.178 67.9862 104.178 67.9403V60.3738C104.178 60.3279 104.224 60.3279 104.27 60.3279H110.874C110.919 60.3279 110.965 60.3279 110.965 60.3738V64.18C110.965 64.2258 110.965 64.2717 110.874 64.2717H108.993C108.948 64.2717 108.948 64.2717 108.948 64.18V62.3457C108.948 62.2998 108.948 62.2539 108.856 62.2539H106.792C106.746 62.2539 106.701 62.2998 106.701 62.3457V65.6474C106.701 65.7391 106.701 65.785 106.746 65.8767C106.792 65.9684 106.838 66.0143 106.93 66.0143H109.085Z" fill="white"/>
<path d="M116.973 67.8946C117.019 67.8946 117.111 67.8946 117.202 67.8946C117.294 67.8946 117.432 67.9405 117.523 67.9863C117.661 68.0322 117.753 68.1239 117.844 68.2615C117.936 68.3991 117.982 68.5825 117.982 68.8118V72.297C117.982 72.297 117.982 72.3429 117.936 72.3429H116.79C116.744 72.3429 116.744 72.3429 116.744 72.297V69.3621C116.744 69.1787 116.744 69.0411 116.698 68.9035C116.652 68.7659 116.606 68.6742 116.515 68.5825C116.423 68.4908 116.331 68.4449 116.148 68.4449H115.185L115.139 68.4908V72.3429C115.139 72.3887 115.139 72.3887 115.093 72.3887H113.901C113.855 72.3887 113.855 72.3887 113.855 72.3429V64.3636C113.855 64.3177 113.855 64.3177 113.901 64.3177H115.093C115.093 64.3177 115.139 64.3177 115.139 64.3636V67.4819C115.139 67.5278 115.139 67.5278 115.185 67.5278H115.689C115.735 67.5278 115.827 67.5278 115.873 67.4819C115.918 67.4819 116.01 67.3902 116.056 67.3443C116.102 67.2526 116.148 67.1609 116.194 67.0233C116.239 66.8857 116.239 66.7023 116.239 66.5189V64.3636C116.239 64.3177 116.239 64.3177 116.285 64.3177H117.432C117.478 64.3177 117.478 64.3177 117.478 64.3636V66.8857C117.478 67.0692 117.478 67.2068 117.432 67.3443C117.386 67.4819 117.34 67.5736 117.294 67.6653C117.248 67.757 117.157 67.8029 117.111 67.8488C117.065 67.8946 117.019 67.8946 116.973 67.8946Z" fill="white"/>
<path d="M123.256 69.2246V71.2882C123.256 71.4258 123.21 71.5633 123.164 71.7009C123.118 71.8385 123.027 71.9302 122.935 72.0219C122.843 72.1136 122.751 72.2053 122.614 72.2512C122.476 72.2971 122.339 72.3429 122.201 72.3429H120.504C120.367 72.3429 120.229 72.2971 120.092 72.2512C119.954 72.2053 119.862 72.1136 119.771 72.0219C119.679 71.9302 119.587 71.7926 119.541 71.7009C119.496 71.5633 119.45 71.4258 119.45 71.2882V65.3725C119.45 65.2349 119.496 65.0974 119.541 64.9598C119.587 64.8222 119.679 64.7305 119.771 64.6388C119.862 64.5471 120 64.4553 120.138 64.4095C120.275 64.3636 120.413 64.3178 120.55 64.3178H122.109C122.247 64.3178 122.385 64.3636 122.522 64.4095C122.66 64.4553 122.751 64.5471 122.843 64.6388C122.935 64.7305 123.027 64.8681 123.072 64.9598C123.118 65.0974 123.164 65.2349 123.164 65.3725V66.9775C123.164 67.0234 123.164 67.0234 123.118 67.0234H121.972C121.926 67.0234 121.926 67.0234 121.926 66.9775V65.3725C121.926 65.3266 121.926 65.3266 121.88 65.3266H120.734C120.734 65.3266 120.688 65.3266 120.688 65.3725V71.2882C120.688 71.334 120.688 71.334 120.734 71.334H122.018C122.018 71.334 122.064 71.334 122.064 71.2882V69.2704H121.605C121.605 69.2704 121.559 69.2704 121.559 69.2246V68.3991C121.559 68.3533 121.559 68.3533 121.605 68.3533H123.256C123.256 68.3533 123.302 68.3533 123.302 68.3991V69.2246H123.256Z" fill="white"/>
</svg>
