<svg width="99" height="114" viewBox="0 0 99 114" fill="none" xmlns="http://www.w3.org/2000/svg">
<path d="M98.9034 0.413849L98.9034 113.862H0.0646973C0.0646973 113.862 26.7169 104.138 29.2456 80.368C31.7744 56.5979 45.5486 41.4714 65.0158 39.3105C84.4831 37.1495 98.9034 0.413849 98.9034 0.413849Z" fill="#85A2FB"/>
<path d="M99 32.8278L99 114H28.281C28.281 114 47.3506 107.042 49.1599 90.0349C50.9692 73.0274 60.8247 62.2044 74.7535 60.6583C88.6823 59.1121 99 32.8278 99 32.8278Z" fill="#6382E1"/>
<path d="M50.4146 35.9211C47.5886 42.3533 45.9933 46.3327 44.7626 52.89C44.5119 54.4668 44.6486 59.4724 45.15 66.8806C45.5602 72.8873 53.5825 79.1193 54.2434 79.4697C55.155 79.9202 56.0894 80.2705 57.0922 80.4958L64.4308 41.2771C60.055 40.276 53.6964 37.573 50.4146 35.9211Z" fill="#0C6360"/>
<path d="M59.0978 53.9662C55.4969 57.5452 50.5969 54.7671 50.0728 49.4612C51.782 52.3394 54.8132 55.1926 59.0978 53.9662Z" fill="#313F46"/>
<path d="M79.1989 42.4283C79.4724 49.5612 79.5179 53.9161 78.3101 60.4734C77.9682 62.0501 76.0538 66.5552 72.9315 73.1625C70.4018 78.5185 60.7842 80.746 60.0549 80.796C59.0749 80.8211 58.0721 80.721 57.0693 80.4957L64.4079 41.277C68.7836 42.2531 75.598 42.5284 79.1989 42.4283Z" fill="#0D413E"/>
<path d="M64.7271 55.2426C66.7554 60.098 72.2479 59.6475 74.6409 55.0173C72.0428 56.9195 68.2368 58.2209 64.7271 55.2426Z" fill="#1D262B"/>
<path d="M66.3223 75.6153C63.3595 72.2365 58.8242 71.1353 58.8242 71.1353L59.2572 68.8828C63.2911 69.7838 67.1427 73.2126 66.3223 75.6153Z" fill="#3B4D57"/>
<path d="M50.3235 72.0113C54.2434 70.1842 58.8243 71.1353 58.8243 71.1353L59.2574 68.8828C55.2006 67.9568 50.4146 69.4584 50.3235 72.0113Z" fill="#2C3A41"/>
<path d="M12.3312 47.2837C11.7386 55.8433 11.5107 61.0741 12.7642 68.9829C13.1061 70.885 15.2484 76.3912 18.7581 84.4752C21.6069 91.0075 33.0705 94.1109 33.9365 94.186C35.1217 94.2611 36.3295 94.186 37.5374 93.9608L30.1305 46.5329C24.8432 47.534 16.6614 47.5841 12.3312 47.2837Z" fill="#E3684E"/>
<path d="M17.801 65.5291C20.4219 59.7977 27.0084 60.5485 29.6976 66.2298C26.6437 63.8522 22.1084 62.1002 17.801 65.5291Z" fill="#3B4D57"/>
<path d="M47.1324 40.7514C50.2775 48.6102 52.0779 53.4405 53.3086 61.3744C53.5593 63.3015 53.2174 69.2832 52.3514 78.1681C51.6449 85.3761 41.7766 92.4841 40.979 92.8845C39.885 93.3851 38.7227 93.7605 37.5148 93.9857L30.1079 46.5579C35.4181 45.5568 43.1441 42.5784 47.1324 40.7514Z" fill="#A13F30"/>
<path d="M47.5198 59.9479C43.3035 55.4929 37.3324 58.6214 36.512 64.9785C38.6771 61.5747 42.4147 58.296 47.5198 59.9479Z" fill="#2C3A41"/>
<path d="M25.2078 78.7688C29.857 81.1215 35.3723 80.1954 35.3723 80.1954L35.8053 82.9235C30.9054 83.8495 25.2306 81.8473 25.2078 78.7688Z" fill="#3B4D57"/>
<path d="M44.5343 75.1398C40.8651 79.0441 35.3726 80.1954 35.3726 80.1954L35.8056 82.9234C40.7055 82.0224 45.4459 78.043 44.5343 75.1398Z" fill="#2C3A41"/>
</svg>
