<svg width="148" height="70" viewBox="0 0 148 70" fill="none" xmlns="http://www.w3.org/2000/svg">
<path d="M0.757568 69.2306C0.757568 69.2306 23.2985 52.7671 31.5203 53.5361C39.7915 54.3105 39.8103 54.3205 48.9513 56.0754C48.9513 56.0754 71.0931 39.7148 79.0273 40.3836C86.9633 41.0508 98.7929 50.6524 98.7929 50.6524C98.7929 50.6524 106.343 47.2213 109.685 47.9786C113.027 48.7374 122.426 56.757 126.02 57.6472C129.614 58.5389 133.056 61.4712 136.406 62.7887C139.757 64.1076 147.371 69.2306 147.371 69.2306H0.757568Z" fill="#126966"/>
<path d="M79.9382 40.4953C79.9382 40.4953 88.9437 46.78 91.5078 50.8269C95.6469 57.3603 97.5976 63.3006 99.674 69.2309L121.355 68.9422C121.355 68.9422 105.616 51.5686 98.6057 47.263C93.9203 44.3851 83.3105 40.3995 79.9382 40.4953Z" fill="#0D4441"/>
<path d="M31.5193 53.536C31.5193 53.536 46.5166 54.5391 53.7931 58.103C61.0681 61.6655 72.7987 69.2392 72.7987 69.2392H57.0598C57.0598 69.2392 52.9014 62.7058 43.1013 57.5086C40.2848 56.0153 31.5193 53.536 31.5193 53.536" fill="#0D4441"/>
<path d="M109.685 47.9786C111.11 49.1932 115.714 54.8363 117.792 57.6572C119.871 60.478 122.693 69.2392 122.693 69.2392L147.371 69.2306L124.028 54.3905C116.604 50.2321 109.685 47.9786 109.685 47.9786" fill="#0D4441"/>
<path d="M26.0807 67.2272L24.8903 61.2954L23.7014 67.2272H24.5974V68.4575H25.0776V67.2272H26.0807" fill="#0A262F"/>
<path d="M28.9762 65.148L27.7873 59.2163L26.5969 65.148H27.4929V66.3798H27.973V65.148H28.9762" fill="#0A262F"/>
<path d="M33.7272 67.0786L32.5383 61.1468L31.3479 67.0786H32.2439V68.3104H32.7254V67.0786H33.7272" fill="#0A262F"/>
<path d="M133.619 67.9691L132.429 62.0375L131.24 67.9691H132.134V69.201H132.616V67.9691H133.619" fill="#0A262F"/>
<path d="M138.853 67.9817L136.717 61.0353L134.581 67.9817H136.19V69.4236H137.052V67.9817H138.853" fill="#0A262F"/>
<path d="M96.8867 59.9727L96.0042 55.5784L95.1233 59.9727H95.7871V60.8857H96.1442V59.9727H96.8867" fill="#0A262F"/>
<path d="M61.8085 59.8607L60.9268 55.4666L60.0452 59.8607H60.7096V60.7739H61.0655V59.8607H61.8085" fill="#0A262F"/>
<path d="M59.9153 57.077L59.0336 52.6829L58.1533 57.077H58.8164V57.9902H59.1722V57.077H59.9153" fill="#0A262F"/>
<path d="M65.3711 55.2451L64.6566 51.6812L63.9421 55.2451H64.4809V55.9853H64.7695V55.2451H65.3711" fill="#0A262F"/>
<path d="M93.991 55.8157L93.1092 51.4214L92.2273 55.8157H92.8914V56.7274H93.2476V55.8157H93.991" fill="#0A262F"/>
<path d="M101.862 53.6617L100.98 49.2676L100.098 53.6617H100.763V54.5749H101.119V53.6617H101.862Z" fill="#0A262F"/>
<path d="M99.1899 52.1767L98.309 47.7825L97.4265 52.1767H98.0915V53.0898H98.4471V52.1767H99.1899" fill="#0A262F"/>
<path d="M106.837 58.7843L105.955 54.3902L105.075 58.7843H105.739V59.6975H106.093V58.7843H106.837" fill="#0A262F"/>
<path d="M109.362 62.1998L108.481 57.8055L107.599 62.1998H108.263V63.1128H108.62V62.1998H109.362Z" fill="#0A262F"/>
<path d="M86.5119 17.8325H80.9825C80.5269 17.832 80.0902 17.6507 79.768 17.3286C79.4459 17.0065 79.2647 16.5697 79.2642 16.1141V10.5847C79.2647 10.1292 79.4459 9.6924 79.768 9.37026C80.0902 9.04812 80.5269 8.86691 80.9825 8.8664H86.5119C86.9675 8.86691 87.4042 9.04812 87.7264 9.37026C88.0485 9.6924 88.2297 10.1292 88.2303 10.5847V16.1141C88.2297 16.5697 88.0485 17.0065 87.7264 17.3286C87.4042 17.6507 86.9675 17.832 86.5119 17.8325V17.8325Z" fill="#E6E6E6"/>
<path d="M77.3606 16.194H71.8312C71.3552 16.1935 70.8988 16.0041 70.5622 15.6675C70.2255 15.3309 70.0362 14.8745 70.0356 14.3984V8.86905C70.0362 8.39301 70.2256 7.93662 70.5622 7.60002C70.8988 7.26342 71.3552 7.07408 71.8312 7.07354H77.3606C77.8366 7.07408 78.293 7.26342 78.6296 7.60002C78.9662 7.93663 79.1556 8.39301 79.1561 8.86905V14.3984C79.1556 14.8745 78.9663 15.3309 78.6297 15.6675C78.293 16.0041 77.8366 16.1935 77.3606 16.194V16.194Z" fill="#984024"/>
<path d="M51.1982 30.463C51.4072 30.359 51.5908 30.2104 51.7362 30.0278C51.8816 29.8451 51.9851 29.6328 52.0396 29.4058C52.094 29.1788 52.098 28.9426 52.0513 28.7139C52.0046 28.4852 51.9083 28.2695 51.7692 28.082L52.9632 16.4077H50.3828L49.4339 27.807C49.1344 28.0616 48.9387 28.4171 48.8839 28.8063C48.829 29.1955 48.9189 29.5913 49.1363 29.9187C49.3538 30.246 49.6838 30.4823 50.0638 30.5826C50.4438 30.6829 50.8474 30.6404 51.1982 30.463V30.463Z" fill="#FFCE92"/>
<path d="M53.5675 9.96483C55.5838 9.96483 57.2183 8.33032 57.2183 6.31404C57.2183 4.29776 55.5838 2.66325 53.5675 2.66325C51.5513 2.66325 49.9167 4.29776 49.9167 6.31404C49.9167 8.33032 51.5513 9.96483 53.5675 9.96483Z" fill="#FFCE92"/>
<path d="M54.2547 23.2064C54.1086 23.2064 53.9665 23.1584 53.8503 23.0698C53.734 22.9812 53.6501 22.857 53.6112 22.7161C53.3187 21.6534 52.5578 19.8566 51.3495 17.3754C51.0768 16.8146 50.9258 16.2024 50.9064 15.5791C50.887 14.9557 50.9996 14.3353 51.2369 13.7586C51.4741 13.1819 51.8306 12.6618 52.2829 12.2325C52.7353 11.8032 53.2733 11.4744 53.8616 11.2677V11.2677C54.4192 11.0708 55.0106 10.9878 55.6008 11.0235C56.191 11.0592 56.7681 11.2129 57.2979 11.4755C57.8277 11.7381 58.2994 12.1044 58.6851 12.5525C59.0709 13.0006 59.3628 13.5216 59.5437 14.0845C60.4803 17.0208 60.4351 20.1661 60.3721 21.3819C60.3643 21.5284 60.3087 21.6682 60.2139 21.78C60.119 21.8918 59.9901 21.9695 59.8469 22.001L54.3982 23.1909C54.3511 23.2012 54.303 23.2065 54.2547 23.2064V23.2064Z" fill="#CCCCCC"/>
<path d="M59.5311 57.874L61.3535 57.8738L62.2204 50.8449L59.5308 50.8451L59.5311 57.874Z" fill="#FFCE92"/>
<path d="M64.8682 59.5658L59.1409 59.566L59.1408 57.3532L62.6553 57.3531C62.9458 57.3531 63.2336 57.4103 63.5021 57.5215C63.7705 57.6327 64.0145 57.7957 64.22 58.0011C64.4255 58.2066 64.5885 58.4505 64.6997 58.719C64.8109 58.9874 64.8682 59.2752 64.8682 59.5658V59.5658Z" fill="#2F2E41"/>
<path d="M41.3091 55.5121L42.906 56.39L47.0523 50.6485L44.6954 49.3528L41.3091 55.5121Z" fill="#FFCE92"/>
<path d="M45.1704 59.566L40.1516 56.8068L41.2177 54.8677L44.2974 56.5609C44.8117 56.8436 45.1926 57.3191 45.3563 57.8826C45.52 58.4462 45.4531 59.0517 45.1704 59.566V59.566V59.566Z" fill="#2F2E41"/>
<path d="M59.4461 53.9725C59.2837 53.9723 59.1269 53.9131 59.005 53.8059C58.883 53.6986 58.8043 53.5507 58.7834 53.3897L56.5044 35.8279C56.4943 35.7502 56.46 35.6777 56.4062 35.6207C56.3525 35.5637 56.2821 35.5252 56.2051 35.5106C56.1282 35.496 56.0486 35.5061 55.9777 35.5394C55.9068 35.5727 55.8483 35.6276 55.8105 35.6962L46.3125 52.9284C46.2341 53.0691 46.1078 53.177 45.9566 53.2324C45.8054 53.2879 45.6394 53.2873 45.4886 53.2307L43.4183 52.4419C43.335 52.4102 43.2589 52.3622 43.1945 52.3006C43.13 52.2391 43.0785 52.1653 43.043 52.0836C43.0075 52.0019 42.9886 51.9139 42.9876 51.8248C42.9865 51.7357 43.0033 51.6473 43.0369 51.5647L49.6164 35.4019C49.6331 35.3608 49.6444 35.3178 49.65 35.2738C50.5412 28.3764 52.8086 24.8688 53.4822 23.958C53.5315 23.8911 53.5638 23.8133 53.5767 23.7312C53.5895 23.6491 53.5824 23.5652 53.556 23.4864L53.4633 23.2086C53.4263 23.0983 53.4188 22.9803 53.4413 22.8662C53.4639 22.7521 53.5159 22.6459 53.5921 22.558C56.0196 19.793 60.2506 21.3018 60.2931 21.3173L60.3143 21.3252L60.3276 21.3433C65.0718 27.8497 63.3177 48.9824 62.9179 53.1526C62.903 53.3093 62.8331 53.4557 62.7207 53.5659C62.6082 53.6761 62.4604 53.7429 62.3034 53.7546L59.498 53.9706C59.4806 53.9719 59.4633 53.9725 59.4461 53.9725Z" fill="#984024"/>
<path d="M67.7605 10.5548C67.7422 10.635 67.7303 10.7166 67.7249 10.7986L61.3396 14.4823L59.7876 13.5888L58.1331 15.7548L60.7269 17.6036C60.9365 17.7529 61.1888 17.8303 61.446 17.824C61.7033 17.8177 61.9516 17.7282 62.1536 17.5688L68.7379 12.3744C69.0351 12.4844 69.3587 12.5013 69.6657 12.4229C69.9727 12.3445 70.2485 12.1745 70.4565 11.9355C70.6645 11.6965 70.7949 11.3998 70.8302 11.0849C70.8654 10.7701 70.804 10.4519 70.6541 10.1728C70.5042 9.89364 70.2728 9.66677 69.9908 9.52235C69.7088 9.37792 69.3894 9.32278 69.0753 9.36425C68.7612 9.40573 68.4671 9.54186 68.2323 9.75454C67.9974 9.96721 67.8328 10.2464 67.7605 10.5548V10.5548Z" fill="#FFCE92"/>
<path d="M61.1261 14.6567L59.0624 17.3313C59.0036 17.4074 58.9292 17.47 58.8441 17.5147C58.7591 17.5594 58.6654 17.5853 58.5694 17.5906C58.4734 17.5958 58.3774 17.5804 58.288 17.5452C58.1985 17.51 58.1177 17.4559 58.051 17.3867L55.7148 14.9607C55.3273 14.658 55.0756 14.214 55.0149 13.7261C54.9543 13.2382 55.0895 12.7461 55.391 12.3577C55.6925 11.9693 56.1356 11.7163 56.6234 11.6541C57.1111 11.5919 57.6036 11.7256 57.9929 12.0259L60.9231 13.6643C61.007 13.7113 61.0798 13.7757 61.1365 13.8533C61.1932 13.9309 61.2325 14.0199 61.2518 14.114C61.2711 14.2082 61.2698 14.3054 61.2481 14.3991C61.2264 14.4927 61.1848 14.5806 61.1261 14.6567V14.6567Z" fill="#CCCCCC"/>
<path d="M53.1275 19.3036L49.803 18.7033C49.7084 18.6862 49.6186 18.6489 49.5397 18.594C49.4608 18.5391 49.3947 18.4678 49.3458 18.385C49.2969 18.3023 49.2665 18.2099 49.2565 18.1143C49.2466 18.0187 49.2573 17.9221 49.2881 17.831L50.3658 14.6401C50.456 14.1566 50.7341 13.7287 51.1393 13.45C51.5445 13.1713 52.0437 13.0647 52.5274 13.1535C53.0111 13.2423 53.4399 13.5193 53.7197 13.9237C53.9995 14.3282 54.1075 14.827 54.02 15.311L53.9149 18.6665C53.9118 18.7626 53.8881 18.8568 53.8453 18.9429C53.8026 19.029 53.7418 19.1049 53.667 19.1653C53.5923 19.2258 53.5054 19.2694 53.4123 19.2933C53.3192 19.3171 53.222 19.3207 53.1275 19.3036H53.1275Z" fill="#CCCCCC"/>
<path d="M54.1454 5.47431C55.0837 6.11652 56.3158 6.77667 57.2741 6.09277C57.5739 5.86448 57.7917 5.54524 57.8949 5.18284C57.998 4.82044 57.9811 4.43436 57.8465 4.08241C57.3876 2.77012 56.1268 2.19239 54.9211 1.74954C53.3538 1.17384 51.6472 0.715854 50.0292 1.12814C48.4111 1.54042 46.9812 3.10699 47.2733 4.75097C47.5081 6.07303 48.7552 7.17308 48.5782 8.50412C48.4 9.84369 46.8935 10.5488 45.5635 10.7882C44.2335 11.0276 42.7452 11.1046 41.7894 12.0599C40.5701 13.2786 40.8746 15.4568 42.0219 16.7435C43.1692 18.0302 44.9006 18.6135 46.5783 19.0099C48.8012 19.5353 51.2054 19.8114 53.3166 18.9395C55.4277 18.0677 57.0706 15.7208 56.459 13.5201C56.2007 12.5905 55.5922 11.8049 55.004 11.0401C54.4159 10.2752 53.8204 9.47547 53.596 8.53711C53.4091 7.75515 53.5475 6.84725 54.066 6.26069C54.1603 6.15802 54.2197 6.02811 54.2356 5.8896C54.2514 5.75109 54.223 5.61111 54.1544 5.48977L54.1454 5.47431Z" fill="#759ED4"/>
<path d="M91.2656 58.1171H89.3726L88.4722 50.8159H91.2659L91.2656 58.1171Z" fill="#FFCE92"/>
<path d="M88.0207 57.5762H91.6713V59.8747H85.7222C85.7222 59.5729 85.7816 59.274 85.8971 58.9951C86.0126 58.7162 86.182 58.4628 86.3954 58.2494C86.6088 58.036 86.8622 57.8667 87.1411 57.7511C87.42 57.6356 87.7189 57.5762 88.0207 57.5762Z" fill="#2F2E41"/>
<path d="M98.3679 58.1171H96.4749L95.5745 50.8159H98.3682L98.3679 58.1171Z" fill="#FFCE92"/>
<path d="M95.123 57.5762H98.7736V59.8747H92.8245C92.8245 59.5729 92.8839 59.274 92.9994 58.9951C93.1149 58.7162 93.2842 58.4628 93.4977 58.2494C93.7111 58.036 93.9645 57.8667 94.2434 57.7511C94.5223 57.6356 94.8211 57.5762 95.123 57.5762V57.5762Z" fill="#2F2E41"/>
<path d="M98.1368 36.3716C97.9329 36.2405 97.7602 36.0662 97.6309 35.861C97.5016 35.6559 97.4189 35.4249 97.3885 35.1843C97.3582 34.9437 97.3809 34.6994 97.4552 34.4686C97.5295 34.2378 97.6535 34.026 97.8184 33.8483L96.572 16.1606L100.162 16.5087L100.261 33.8304C100.541 34.1273 100.703 34.5167 100.715 34.9247C100.727 35.3328 100.589 35.7312 100.328 36.0445C100.066 36.3577 99.6982 36.564 99.2944 36.6243C98.8906 36.6846 98.4787 36.5947 98.1368 36.3716H98.1368Z" fill="#FFCE92"/>
<path d="M91.1762 54.4389L89.0923 54.3395C88.9148 54.3311 88.7473 54.255 88.6242 54.1268C88.5011 53.9986 88.4318 53.8281 88.4306 53.6504L88.2852 32.5661C88.2845 32.466 88.3054 32.367 88.3466 32.2757C88.3877 32.1845 88.4481 32.1032 88.5235 32.0374C88.599 31.9717 88.6877 31.923 88.7837 31.8947C88.8797 31.8664 88.9807 31.8592 89.0798 31.8736L97.4164 33.0837C97.5811 33.1068 97.732 33.1885 97.8413 33.3139C97.9506 33.4392 98.011 33.5998 98.0114 33.7662L99.0836 53.303C99.0843 53.3947 99.0668 53.4856 99.0322 53.5705C98.9976 53.6554 98.9465 53.7326 98.8819 53.7977C98.8174 53.8628 98.7405 53.9145 98.6559 53.9497C98.5713 53.985 98.4805 54.0031 98.3888 54.0031H96.1423C95.9765 54.0038 95.8161 53.9449 95.6901 53.8372C95.5641 53.7295 95.481 53.5801 95.4559 53.4163L94.0698 44.6051C94.0496 44.4761 93.9834 44.3589 93.8834 44.275C93.7835 44.1911 93.6565 44.1462 93.526 44.1486C93.3955 44.151 93.2703 44.2006 93.1735 44.2881C93.0767 44.3756 93.0149 44.4952 92.9994 44.6248L91.8991 53.8274C91.8784 53.996 91.7969 54.1512 91.6698 54.264C91.5428 54.3767 91.379 54.4392 91.2091 54.4398C91.1982 54.4398 91.1872 54.4395 91.1762 54.4389Z" fill="#787878"/>
<path d="M92.6431 33.7671C90.8059 32.7463 89.3703 32.4781 88.6781 32.409C88.5862 32.4001 88.4969 32.3727 88.4159 32.3283C88.3349 32.2839 88.2637 32.2235 88.2067 32.1507C88.1484 32.0775 88.1056 31.9932 88.0809 31.9029C88.0562 31.8126 88.0501 31.7183 88.0629 31.6256L90.0605 16.7953C90.1755 15.9277 90.5106 15.104 91.0339 14.4025C91.5572 13.701 92.2513 13.145 93.0502 12.7876C93.8235 12.4321 94.6749 12.2804 95.5234 12.3469C96.3719 12.4134 97.1892 12.6959 97.8977 13.1675C97.9661 13.2131 98.0333 13.2596 98.0992 13.307C98.915 13.9048 99.5357 14.7307 99.8829 15.6807C100.23 16.6306 100.288 17.6621 100.05 18.6451C98.8253 23.6562 98.4046 31.8713 98.3326 33.4674C98.327 33.6034 98.2812 33.7347 98.201 33.8448C98.1208 33.9548 98.0099 34.0386 97.8821 34.0857C97.1284 34.3596 96.3331 34.5012 95.5312 34.5043C94.5212 34.5104 93.5266 34.2565 92.6431 33.7671V33.7671Z" fill="#984024"/>
<path d="M97.3847 22.1039C97.3007 22.0435 97.2312 21.9649 97.1816 21.874C97.1319 21.7832 97.1033 21.6823 97.0978 21.5789L96.8347 16.8116C96.8087 16.3393 96.9584 15.8741 97.2551 15.5056C97.5517 15.1372 97.9743 14.8916 98.4413 14.8163C98.9083 14.741 99.3867 14.8413 99.7841 15.0977C100.182 15.3542 100.47 15.7488 100.594 16.2053L101.749 20.4675C101.797 20.6453 101.773 20.835 101.681 20.9948C101.59 21.1546 101.438 21.2715 101.261 21.3199L97.9734 22.2112C97.8735 22.2385 97.7687 22.243 97.6669 22.2245C97.565 22.2059 97.4686 22.1647 97.3847 22.1039Z" fill="#984024"/>
<path d="M94.3139 10.7739C96.4083 10.7739 98.1062 9.07606 98.1062 6.98168C98.1062 4.88729 96.4083 3.18945 94.3139 3.18945C92.2196 3.18945 90.5217 4.88729 90.5217 6.98168C90.5217 9.07606 92.2196 10.7739 94.3139 10.7739Z" fill="#FFCE92"/>
<path d="M80.5718 14.4322C80.5907 14.5155 80.6031 14.6002 80.6087 14.6855L87.2414 18.5118L88.8535 17.5837L90.5722 19.8337L87.1233 22.2918L79.5565 16.3223C79.2479 16.4365 78.9118 16.454 78.593 16.3726C78.2741 16.2911 77.9877 16.1145 77.7716 15.8663C77.5556 15.6181 77.4203 15.3099 77.3836 14.9829C77.347 14.6559 77.4107 14.3255 77.5665 14.0356C77.7222 13.7457 77.9625 13.5101 78.2554 13.3601C78.5483 13.2101 78.8799 13.1528 79.2061 13.1958C79.5324 13.2389 79.8378 13.3802 80.0817 13.6011C80.3257 13.822 80.4966 14.1119 80.5718 14.4322V14.4322Z" fill="#FFCE92"/>
<path d="M87.4783 18.1864C87.4673 18.0835 87.4795 17.9793 87.514 17.8817C87.5486 17.7841 87.6046 17.6954 87.678 17.6223L91.0537 14.2459C91.3882 13.9114 91.8346 13.7125 92.307 13.6877C92.7794 13.6629 93.2442 13.8139 93.6119 14.1115C93.9795 14.4091 94.224 14.8323 94.2981 15.2995C94.3722 15.7667 94.2707 16.2448 94.0132 16.6416L91.6092 20.346C91.5088 20.5004 91.3512 20.6086 91.171 20.647C90.9908 20.6853 90.8028 20.6507 90.6482 20.5505L87.7911 18.6964C87.7042 18.6402 87.6309 18.5652 87.5768 18.477C87.5226 18.3887 87.489 18.2894 87.4783 18.1864Z" fill="#984024"/>
<path d="M96.9977 9.98189C96.2902 10.7355 94.9764 10.3309 94.8842 9.30142C94.877 9.22149 94.8775 9.14105 94.8858 9.06122C94.9334 8.60519 95.1968 8.19118 95.1337 7.70967C95.1194 7.58983 95.0748 7.47563 95.004 7.37788C94.4403 6.62296 93.1169 7.71553 92.5848 7.03213C92.2586 6.61309 92.6421 5.95332 92.3917 5.48497C92.0613 4.86681 91.0826 5.17175 90.4689 4.83322C89.786 4.45656 89.8268 3.40884 90.2763 2.77156C90.8245 1.99438 91.7857 1.57967 92.7349 1.5199C93.6841 1.46013 94.6268 1.71672 95.5129 2.06207C96.5198 2.45445 97.5182 2.99673 98.1378 3.88206C98.8913 4.95872 98.9638 6.40618 98.587 7.66513C98.3578 8.43097 97.5754 9.3665 96.9977 9.98189Z" fill="#2F2E41"/>
</svg>
