<svg width="135" height="85" viewBox="0 0 135 85" fill="none" xmlns="http://www.w3.org/2000/svg">
<path d="M134.382 84.2777C134.382 84.2777 131.153 48.0206 91.3235 49.81L90.8303 79.2304L134.382 84.2777Z" fill="#FEC51C"/>
<path d="M126.925 71.7169L126.927 71.7011C126.927 71.1262 126.461 70.6598 125.886 70.6598C125.311 70.6598 124.844 71.1262 124.844 71.7011L124.846 71.7169H126.925Z" fill="#F4B006"/>
<path d="M120.294 61.937L120.296 61.9212C120.296 61.3463 119.83 60.8799 119.254 60.8799C118.679 60.8799 118.213 61.3463 118.213 61.9212L118.214 61.937H120.294" fill="#F4B006"/>
<path d="M114.069 56.6441L114.07 56.6283C114.07 56.053 113.604 55.587 113.029 55.587C112.454 55.587 111.988 56.053 111.988 56.6283L111.989 56.6441H114.069Z" fill="#F4B006"/>
<path d="M20.3162 55.8861C20.3162 55.8861 32.1227 25.9909 65.9395 36.9911C65.9395 36.9911 55.3778 57.0331 20.3162 55.8861Z" fill="#64C1AD"/>
<path d="M113.5 74.5C111.657 90.5244 97.9043 81.7888 77.9998 79.5C58.0953 77.2112 39.2597 77.162 41.1022 61.1376C42.9451 45.1136 60.5748 33.9793 80.4793 36.2684C100.384 38.5572 115.843 54.976 114 71" fill="#1B957A"/>
<path d="M0 83.303C0 83.303 5.91473 45.9969 45.5002 50.9247L43.8054 81.4366L0 83.303" fill="#FEC51C"/>
<path d="M71.6689 39.278L71.6704 39.2626C71.6704 38.6873 71.2039 38.2213 70.629 38.2213C70.0537 38.2213 69.5876 38.6873 69.5876 39.2626L69.5891 39.278H71.6689" fill="#1B957A"/>
<path d="M78.1822 44.839L78.1837 44.8236C78.1837 44.2487 77.7176 43.7823 77.1427 43.7823C76.5674 43.7823 76.1013 44.2487 76.1013 44.8236L76.1028 44.839H78.1822Z" fill="#1B957A"/>
<path d="M86.947 40.6355L86.9484 40.6201C86.9484 40.0452 86.482 39.5791 85.9071 39.5791C85.3318 39.5791 84.8657 40.0452 84.8657 40.6201L84.8672 40.6355H86.947" fill="#1B957A"/>
<path d="M84.8644 54.4869L84.8659 54.4715C84.8659 53.8966 84.3999 53.4301 83.8246 53.4301C83.2496 53.4301 82.7832 53.8966 82.7832 54.4715L82.7847 54.4869H84.8644" fill="#1B957A"/>
<path d="M94.5859 45.7751L94.5873 45.7597C94.5873 45.1848 94.1209 44.7184 93.546 44.7184C92.9707 44.7184 92.5046 45.1848 92.5046 45.7597L92.5061 45.7751H94.5859" fill="#1B957A"/>
<path d="M93.975 60.7324L93.9765 60.717C93.9765 60.1421 93.5101 59.6757 92.9351 59.6757C92.3598 59.6757 91.8938 60.1421 91.8938 60.717L91.8953 60.7324H93.975" fill="#1B957A"/>
<path d="M103.054 51.5117L103.055 51.4963C103.055 50.9214 102.589 50.455 102.014 50.455C101.439 50.455 100.973 50.9214 100.973 51.4963L100.974 51.5117H103.054Z" fill="#1B957A"/>
<path d="M107.502 63.0506L107.503 63.0352C107.503 62.4602 107.037 61.9938 106.462 61.9938C105.887 61.9938 105.421 62.4602 105.421 63.0352L105.422 63.0506H107.502Z" fill="#1B957A"/>
<path d="M31.6672 54.7495L31.6686 54.7337C31.6686 54.1588 31.2022 53.6924 30.6273 53.6924C30.0523 53.6924 29.5859 54.1588 29.5859 54.7337L29.5874 54.7495H31.6672" fill="#F4B006"/>
<path d="M24.517 62.1441L24.5185 62.1284C24.5185 61.5531 24.0521 61.087 23.4771 61.087C22.9022 61.087 22.4358 61.5531 22.4358 62.1284L22.4373 62.1441H24.517" fill="#F4B006"/>
<path d="M17.5209 60.1091L17.5224 60.0933C17.5224 59.518 17.056 59.052 16.4811 59.052C15.9061 59.052 15.4397 59.518 15.4397 60.0933L15.4412 60.1091H17.5209" fill="#F4B006"/>
<path d="M10.6227 71.2498L10.6241 71.234C10.6241 70.6587 10.1579 70.1926 9.58264 70.1926C9.00773 70.1926 8.5415 70.6587 8.5415 71.234L8.54293 71.2498H10.6227Z" fill="#F4B006"/>
<path d="M3.7567 78.2855L3.75813 78.2697C3.75813 77.6948 3.29191 77.2283 2.71667 77.2283C2.14176 77.2283 1.67554 77.6948 1.67554 78.2697L1.67697 78.2855H3.7567Z" fill="#F4B006"/>
<path d="M99.2475 7.80648C99.2475 12.1178 95.752 15.613 91.441 15.613C87.1293 15.613 83.6345 12.1178 83.6345 7.80648C83.6345 3.49513 87.1293 7.45056e-06 91.441 7.45056e-06C95.752 7.45056e-06 99.2475 3.49513 99.2475 7.80648Z" fill="#FEC51C"/>
<path d="M90 76C90 90.3594 65.1061 81.5 45.5 81.5C25.8939 81.5 19 90.3594 19 76C19 61.6406 34.8939 50 54.5 50C74.1061 50 90 61.6406 90 76Z" fill="#FB9C26"/>
<path d="M97.296 7.80648C97.296 11.0405 94.6747 13.6623 91.441 13.6623C88.2066 13.6623 85.5852 11.0405 85.5852 7.80648C85.5852 4.57242 88.2066 1.95108 91.441 1.95108C94.6747 1.95108 97.296 4.57242 97.296 7.80648Z" fill="#F9B710"/>
<path d="M22.8307 21.3973C21.8982 21.3973 21.067 21.8138 20.5001 22.4668C19.1386 20.3893 16.7941 19.015 14.1251 19.015C11.4915 19.015 9.17402 20.3541 7.80516 22.3858C7.08571 21.5186 6.00644 20.9605 4.79139 20.9605C3.2972 20.9605 1.99881 21.7962 1.33594 23.0253H7.41414H8.24659H20.1066H20.8367H25.5554C25.0329 22.0562 24.0088 21.3973 22.8307 21.3973Z" fill="white"/>
<path d="M60.3529 4.93728C59.5928 4.93728 58.9093 5.26032 58.4282 5.77513C57.1258 3.79656 54.8876 2.4879 52.3414 2.4879C49.8708 2.4879 47.6895 3.71992 46.3724 5.60096C44.7121 3.09805 41.874 1.44471 38.6455 1.44471C35.4451 1.44471 32.6287 3.07018 30.9626 5.53752C30.0873 4.48334 28.7677 3.81196 27.2903 3.81196C25.4724 3.81196 23.8924 4.82838 23.0864 6.32367H30.4808H31.4935H45.9232H46.8109H58.0326H58.7601H62.6732C62.2284 5.49829 61.3565 4.93728 60.3529 4.93728Z" fill="white"/>
<path d="M123.16 11.2026H133.44C133.143 10.6526 132.562 10.2782 131.893 10.2782C131.386 10.2782 130.93 10.4938 130.61 10.837C129.741 9.51776 128.249 8.64544 126.552 8.64544C125.008 8.64544 123.634 9.36742 122.745 10.4898C120.465 6.83958 116.414 4.41037 111.793 4.41037C107.383 4.41037 103.496 6.62727 101.168 10.0036C100.312 9.19105 99.1574 8.69091 97.884 8.69091C96.066 8.69091 94.486 9.70733 93.6804 11.2026H100.426H102.088H122.273H123.16" fill="white"/>
<path d="M127.879 26.296C126.425 26.296 125.123 26.9409 124.239 27.9585C122.115 24.7207 118.459 22.5794 114.298 22.5794C109.771 22.5794 105.836 25.1109 103.828 28.8355H123.629H124.768H132.129C131.315 27.3237 129.717 26.296 127.879 26.296Z" fill="white"/>
<path d="M91.0565 52.2605C89.3969 52.2605 87.8481 52.2 86.5383 52.0955C86.5812 51.4766 86.6285 50.8583 86.6802 50.2423C87.9596 50.1444 89.4563 50.0883 91.0565 50.0883C91.1276 50.0883 91.1984 50.0883 91.2691 50.0887C91.2328 50.7942 91.1991 51.5187 91.1687 52.2605C91.1313 52.2605 91.0939 52.2605 91.0565 52.2605V52.2605ZM95.4595 52.1043C95.4327 51.4905 95.4104 50.8675 95.3931 50.2394C97.8986 50.4286 99.5783 50.7766 99.5783 51.1744C99.5783 51.5689 97.9279 51.9144 95.4595 52.1043Z" fill="#1B957A"/>
<path d="M86.5384 52.0955C84.1337 51.9034 82.5347 51.5627 82.5347 51.1744C82.5347 50.7784 84.1968 50.4323 86.6803 50.2423C86.6286 50.8583 86.5813 51.4765 86.5384 52.0955Z" fill="#BBCC3E"/>
<path d="M91.1687 52.2605C91.1991 51.5187 91.2329 50.7942 91.2692 50.0887C92.7729 50.0935 94.1798 50.1477 95.3931 50.2394C95.4104 50.8675 95.4327 51.4905 95.4595 52.1043C94.2044 52.2011 92.7377 52.2579 91.1687 52.2605" fill="#BBCC3E"/>
<path d="M85.7957 51.0461C87.684 45.1639 89.572 39.2821 91.46 33.3999C91.1656 33.3999 90.8712 33.3999 90.5764 33.3999C92.3192 39.2821 94.0623 45.1639 95.8055 51.0461C95.9731 51.6115 96.8575 51.3706 96.6892 50.8022C94.9464 44.9201 93.2032 39.0382 91.46 33.1561C91.3288 32.712 90.7142 32.7263 90.5764 33.1561C88.6884 39.0382 86.8 44.9201 84.912 50.8022C84.7309 51.3669 85.616 51.6063 85.7957 51.0461Z" fill="#89371E"/>
<path d="M87.7664 44.1313C89.8088 44.1313 91.8515 44.1313 93.8939 44.1313C94.4575 44.1313 94.4575 43.2146 93.8939 43.2146C91.8515 43.2146 89.8088 43.2146 87.7664 43.2146C87.2029 43.2146 87.2029 44.1313 87.7664 44.1313Z" fill="#89371E"/>
<path d="M87.2595 46.4146C89.6352 46.4146 92.0105 46.4146 94.3866 46.4146C95.0414 46.4146 95.0414 45.4979 94.3866 45.4979C92.0105 45.4979 89.6352 45.4979 87.2595 45.4979C86.6039 45.4979 86.6039 46.4146 87.2595 46.4146Z" fill="#89371E"/>
<path d="M90.8739 32.8444V26.5171L88.9265 26.9813L90.8739 32.8444Z" fill="white"/>
<path d="M90.7861 32.8125V39.1398L92.7332 38.6756L90.7861 32.8125Z" fill="white"/>
<path d="M90.846 32.7843H84.5183L84.9825 34.7317L90.846 32.7843Z" fill="white"/>
<path d="M90.8142 32.8727H97.1419L96.6773 30.9253L90.8142 32.8727Z" fill="white"/>
<path d="M90.8655 32.7986L85.3827 29.64L84.8132 31.5592L90.8655 32.7986Z" fill="white"/>
<path d="M90.7944 32.8583L96.2773 36.0169L96.8467 34.0973L90.7944 32.8583Z" fill="white"/>
<path d="M90.7999 32.7927L87.6414 38.2756L89.5613 38.845L90.7999 32.7927Z" fill="white"/>
<path d="M90.8604 32.8642L94.0185 27.381L92.099 26.8119L90.8604 32.8642Z" fill="white"/>
<path d="M90.8764 32.8202L87.7267 27.3322L86.2688 28.7043L90.8764 32.8202Z" fill="white"/>
<path d="M90.7839 32.8363L93.9333 38.3247L95.3912 36.9522L90.7839 32.8363Z" fill="white"/>
<path d="M90.8221 32.782L85.3337 35.9318L86.7058 37.3897L90.8221 32.782Z" fill="white"/>
<path d="M90.8379 32.8745L96.3263 29.7251L94.9538 28.2672L90.8379 32.8745Z" fill="white"/>
<path d="M91.7598 32.8444C91.7598 33.3339 91.3634 33.7303 90.8739 33.7303C90.3848 33.7303 89.988 33.3339 89.988 32.8444C89.988 32.3553 90.3848 31.9585 90.8739 31.9585C91.3634 31.9585 91.7598 32.3553 91.7598 32.8444Z" fill="#4D4D4F"/>
<path d="M46.3347 38.3529C44.9527 38.3529 43.8333 38.027 43.8333 37.6251C43.8333 37.2232 44.9527 36.8976 46.3347 36.8976C47.7167 36.8976 48.8361 37.2232 48.8361 37.6251C48.8361 38.027 47.7167 38.3529 46.3347 38.3529Z" fill="#29A388"/>
<path d="M46.3364 14.506C36.6119 26.9281 46.3364 30.2557 46.3364 30.2557C46.3364 30.2557 56.0602 26.9281 46.3364 14.506Z" fill="#1F553F"/>
<path d="M46.3361 30.2557C46.3361 30.2557 45.4539 29.9539 44.4866 29.1923C44.4888 29.115 44.4899 29.0372 44.4899 28.9591C44.4899 26.6194 43.4955 24.5866 42.0339 23.5566C42.1934 21.2887 43.3441 18.3278 46.3361 14.506V30.2557" fill="#70A752"/>
<path d="M46.033 24.2774C46.033 27.5137 46.033 34.2913 46.033 37.5275C46.033 37.9169 46.6365 37.9169 46.6365 37.5275C46.6365 34.2913 46.6365 27.5137 46.6365 24.2774C46.6365 23.888 46.033 23.888 46.033 24.2774Z" fill="#89371E"/>
<path d="M43.9876 25.8523C44.699 26.5197 45.4103 27.1874 46.1213 27.8547C46.4048 28.1209 46.833 27.6949 46.5485 27.4276C45.8372 26.7602 45.1258 26.0925 44.4145 25.4252C44.131 25.1586 43.7027 25.585 43.9876 25.8523Z" fill="#89371E"/>
<path d="M48.6874 24.5528C47.9761 25.2202 47.2648 25.8879 46.5541 26.5556C46.2703 26.8222 45.8421 26.3954 46.1266 26.1288C46.838 25.4611 47.5493 24.7934 48.2606 24.126C48.5437 23.8595 48.972 24.2859 48.6874 24.5528Z" fill="#89371E"/>
<path d="M39.8506 40.3066C38.4693 40.3066 37.3491 39.981 37.3491 39.5791C37.3491 39.1772 38.4693 38.8513 39.8506 38.8513C41.2326 38.8513 42.3527 39.1772 42.3527 39.5791C42.3527 39.981 41.2326 40.3066 39.8506 40.3066Z" fill="#29A388"/>
<path d="M44.4901 28.9591C44.4901 32.3391 42.4143 35.0793 39.8535 35.0793C37.293 35.0793 35.2173 32.3391 35.2173 28.9591C35.2173 25.5791 37.293 22.839 39.8535 22.839C42.4143 22.839 44.4901 25.5791 44.4901 28.9591Z" fill="#FB9C26"/>
<path d="M39.8535 35.0793C37.293 35.0793 35.2173 32.3391 35.2173 28.9591C35.2173 25.5791 37.293 22.839 39.8535 22.839V35.0793" fill="#FCB051"/>
<path d="M39.5422 29.4871C39.5422 32.7916 39.5422 36.0968 39.5422 39.4012C39.5422 39.7991 40.159 39.7991 40.159 39.4012C40.159 36.0968 40.159 32.7916 40.159 29.4871C40.159 29.0893 39.5422 29.0893 39.5422 29.4871Z" fill="#89371E"/>
<path d="M37.4539 31.095C38.1803 31.7767 38.9066 32.4587 39.6327 33.14C39.9223 33.412 40.3594 32.9768 40.0686 32.704C39.3426 32.0223 38.6159 31.3403 37.8899 30.659C37.6006 30.387 37.1631 30.8222 37.4539 31.095Z" fill="#89371E"/>
<path d="M42.2527 29.7684C41.5267 30.45 40.8 31.1317 40.0743 31.8133C39.7846 32.0857 39.3472 31.6501 39.638 31.3773C40.3643 30.6957 41.0904 30.014 41.8171 29.332C42.1064 29.0603 42.5431 29.4956 42.2527 29.7684Z" fill="#89371E"/>
<path d="M27.4292 49.6901C26.0476 49.6901 24.9277 49.3641 24.9277 48.9623C24.9277 48.5604 26.0476 48.2348 27.4292 48.2348C28.8112 48.2348 29.931 48.5604 29.931 48.9623C29.931 49.3641 28.8112 49.6901 27.4292 49.6901Z" fill="#29A388"/>
<path d="M32.8257 34.9902C32.8257 37.9705 30.4094 40.3869 27.429 40.3869C24.4484 40.3869 22.0327 37.9705 22.0327 34.9902C22.0327 32.0098 24.4484 29.5935 27.429 29.5935C30.4094 29.5935 32.8257 32.0098 32.8257 34.9902Z" fill="#1F553F"/>
<path d="M27.429 40.3869C24.4484 40.3869 22.0327 37.9705 22.0327 34.9902C22.0327 32.0098 24.4484 29.5935 27.429 29.5935V40.3869" fill="#70A752"/>
<path d="M27.1204 35.2296C27.1204 38.5113 27.1204 45.3843 27.1204 48.666C27.1204 49.0609 27.7331 49.0609 27.7331 48.666C27.7331 45.3843 27.7331 38.5113 27.7331 35.2296C27.7331 34.8343 27.1204 34.8343 27.1204 35.2296Z" fill="#89371E"/>
<path d="M25.0459 36.8261C25.7672 37.503 26.4888 38.1802 27.21 38.8571C27.4971 39.127 27.9316 38.6947 27.6427 38.4241C26.9218 37.7472 26.2002 37.07 25.479 36.3934C25.1915 36.1232 24.7574 36.5555 25.0459 36.8261Z" fill="#89371E"/>
<path d="M29.8117 35.5087C29.0908 36.1855 28.3696 36.8628 27.6484 37.5397C27.3605 37.8095 26.9264 37.3776 27.2153 37.1066C27.9362 36.4297 28.6578 35.7525 29.3791 35.0756C29.6665 34.8058 30.1007 35.2377 29.8117 35.5087Z" fill="#89371E"/>
<path d="M56.2317 38.845C54.85 38.845 53.7302 38.519 53.7302 38.1172C53.7302 37.7157 54.85 37.3897 56.2317 37.3897C57.6137 37.3897 58.7331 37.7157 58.7331 38.1172C58.7331 38.519 57.6137 38.845 56.2317 38.845Z" fill="#29A388"/>
<path d="M59.9143 23.8569C60.1648 23.323 60.3089 22.7294 60.3089 22.1012C60.3089 19.8139 58.4553 17.9604 56.1684 17.9604C53.8814 17.9604 52.0275 19.8139 52.0275 22.1012C52.0275 22.7294 52.1716 23.3234 52.4224 23.8569C51.717 24.7028 51.292 25.79 51.292 26.9773C51.292 29.6705 53.4755 31.8537 56.1684 31.8537C58.8616 31.8537 61.0448 29.6705 61.0448 26.9773C61.0448 25.79 60.6198 24.7028 59.9143 23.8569" fill="#FB9C26"/>
<path d="M56.1684 31.8537C53.4755 31.8537 51.292 29.6705 51.292 26.9773C51.292 25.79 51.717 24.7028 52.4224 23.8569C52.1716 23.3234 52.0275 22.7294 52.0275 22.1012C52.0275 19.8139 53.8814 17.9604 56.1684 17.9604V31.8537" fill="#FCB051"/>
<path d="M55.8232 26.7928C55.8232 30.4907 55.8232 34.1894 55.8232 37.8873C55.8232 38.3324 56.5133 38.3324 56.5133 37.8873C56.5133 34.1894 56.5133 30.4907 56.5133 26.7928C56.5133 26.3477 55.8232 26.3477 55.8232 26.7928Z" fill="#89371E"/>
<path d="M53.4856 28.5921C54.2985 29.3548 55.1118 30.1178 55.9239 30.8805C56.2481 31.1849 56.7372 30.6979 56.4116 30.3928C55.5994 29.6302 54.7865 28.8671 53.9736 28.1044C53.6498 27.8001 53.1607 28.287 53.4856 28.5921" fill="#89371E"/>
<path d="M58.8559 27.1074C58.0438 27.8701 57.2308 28.6335 56.4179 29.3962C56.0942 29.7005 55.6046 29.2136 55.9302 28.9085C56.7428 28.1451 57.5557 27.3824 58.3683 26.6198C58.6924 26.3154 59.1812 26.8024 58.8559 27.1074Z" fill="#89371E"/>
</svg>
