<svg width="175" height="124" viewBox="0 0 175 124" fill="none" xmlns="http://www.w3.org/2000/svg">
<path fill-rule="evenodd" clip-rule="evenodd" d="M56.6276 50.4733L56.6501 50.4861C57.2938 51.1501 57.3083 52.2374 56.6543 52.9167L4.23258 105.758C3.55611 106.424 2.46893 106.439 1.82485 105.775C1.14553 105.121 1.13105 104.034 1.78515 103.355L54.2069 50.5134C54.8836 49.8469 55.9709 49.8323 56.6276 50.4733Z" fill="#CD856F"/>
<path fill-rule="evenodd" clip-rule="evenodd" d="M1.82514 105.775C1.14582 105.121 1.13134 104.034 1.78543 103.355L54.2072 50.5134C54.8837 49.8468 55.9709 49.8324 56.6276 50.4732L1.82514 105.775Z" fill="#984024"/>
<path fill-rule="evenodd" clip-rule="evenodd" d="M66.2776 40.559L61.3321 50.4262L69.2164 58.1408L58.3136 56.5003L53.3982 66.3846L51.6101 55.5078L40.6902 53.8975L50.4894 48.8197L48.6473 37.9325L56.491 45.6835L66.2776 40.559Z" fill="#FAC811"/>
<path fill-rule="evenodd" clip-rule="evenodd" d="M55.6506 51.3816L40.6901 53.8976L50.4894 48.8197L55.6506 51.3816Z" fill="#ECAF1C"/>
<path fill-rule="evenodd" clip-rule="evenodd" d="M55.6505 51.3815L48.6472 37.9325L50.4893 48.8197L55.6505 51.3815Z" fill="#ECAF1C"/>
<path fill-rule="evenodd" clip-rule="evenodd" d="M55.6506 51.3814L69.2163 58.1406L58.3135 56.5001L55.6506 51.3814Z" fill="#ECAF1C"/>
<path fill-rule="evenodd" clip-rule="evenodd" d="M51.6099 55.5076L55.6504 51.3813L53.398 66.3843L51.6099 55.5076Z" fill="#ECAF1C"/>
<path fill-rule="evenodd" clip-rule="evenodd" d="M56.4908 45.6833L55.6504 51.3813L66.2774 40.5588L56.4908 45.6833Z" fill="#ECAF1C"/>
<path d="M143.535 62.5818C142.846 60.5174 142.158 58.4 141.655 56.2826C139.644 47.8131 140.703 38.629 141.602 30.5035C141.682 29.7095 141.126 28.9949 140.332 28.889C139.538 28.8096 138.823 29.3654 138.718 30.1594C137.765 38.4966 136.706 47.9719 138.823 56.9178C139.353 59.1676 140.067 61.3379 140.782 63.4553C141.205 64.7522 141.655 66.102 142.052 67.3989C145.467 78.9916 145.308 91.3518 145.176 103.315C145.176 104.109 145.811 104.771 146.605 104.771C146.605 104.771 146.605 104.771 146.631 104.771C147.425 104.771 148.06 104.135 148.087 103.341C148.219 91.1665 148.378 78.5946 144.831 66.5784C144.434 65.255 143.985 63.9052 143.535 62.5818Z" fill="#3F4B1B"/>
<path d="M137.05 44.5312C136.177 44.5312 135.33 44.8223 134.536 45.1399C133.953 45.3781 133.345 45.6428 132.815 45.9604C130.724 47.1779 129.189 49.2424 128.369 51.5185C127.548 53.7947 127.416 56.2827 127.734 58.6912C128.131 57.6854 129.11 56.9973 130.089 56.5473C131.069 56.0974 132.154 55.7798 133.08 55.224C134.959 54.0859 136.097 51.995 136.653 49.8776C136.891 49.0042 137.024 48.1043 137.421 47.3103C137.606 46.9132 137.897 46.5162 138.241 46.2251C138.479 46.0398 139.194 45.8016 139.22 45.5105C139.326 44.7694 137.527 44.5312 137.05 44.5312Z" fill="#6F852C"/>
<path d="M149.993 14.3585C146.261 14.3585 143.958 16.8994 142.264 18.7785C141.285 19.8637 140.359 20.8959 139.618 20.8959C139.538 20.8959 139.485 20.9224 139.432 20.9224C139.459 20.8694 139.459 20.79 139.459 20.7371C139.459 19.996 140.491 19.0697 141.576 18.0904C143.429 16.3965 145.996 14.0938 145.996 10.3619C145.996 6.70945 144.143 3.66572 140.332 0.992523C138.453 -0.330841 135.992 -0.330841 134.112 0.992523C130.301 3.63925 128.448 6.70945 128.448 10.3619C128.448 14.0938 130.989 16.3965 132.868 18.0904C133.954 19.0697 134.986 19.996 134.986 20.7371C134.986 20.8165 135.012 20.8694 135.012 20.9224C134.959 20.8959 134.88 20.8959 134.827 20.8959C134.086 20.8959 133.16 19.8637 132.18 18.7785C130.486 16.9258 128.184 14.3585 124.452 14.3585C120.799 14.3585 117.756 16.2112 115.082 20.0225C113.759 21.9017 113.759 24.3631 115.082 26.2423C117.729 30.0536 120.799 31.9063 124.452 31.9063C128.184 31.9063 130.486 29.3654 132.18 27.4863C133.16 26.4011 134.086 25.3689 134.827 25.3689C134.906 25.3689 134.959 25.3424 135.012 25.3424C134.986 25.3953 134.986 25.4747 134.986 25.5277C134.986 26.2688 133.954 27.1951 132.868 28.1744C131.016 29.8683 128.448 32.171 128.448 35.9029C128.448 39.5553 130.301 42.5991 134.112 45.2723C135.065 45.934 136.15 46.2516 137.235 46.2516C138.321 46.2516 139.406 45.934 140.359 45.2723C144.17 42.6255 146.023 39.5553 146.023 35.9029C146.023 32.171 143.482 29.8683 141.603 28.1744C140.517 27.1951 139.485 26.2688 139.485 25.5277C139.485 25.4483 139.459 25.3953 139.459 25.3424C139.512 25.3689 139.591 25.3689 139.644 25.3689C140.385 25.3689 141.311 26.4011 142.291 27.4863C143.985 29.339 146.287 31.9063 150.019 31.9063C153.672 31.9063 156.715 30.0536 159.389 26.2423C160.712 24.3631 160.712 21.9017 159.389 20.0225C156.689 16.2112 153.645 14.3585 149.993 14.3585Z" fill="#85A2FB"/>
<path d="M144.884 17.8787C143.958 17.8787 143.191 18.1433 142.502 18.5404C142.423 18.6198 142.344 18.6992 142.264 18.7786C141.444 19.6784 140.65 20.5519 139.988 20.8165C139.485 21.3459 139.035 21.7958 138.665 21.7958C138.612 21.7958 138.585 21.8223 138.559 21.8223C138.559 21.7958 138.585 21.7429 138.585 21.7164C138.585 21.3459 139.035 20.8695 139.565 20.3931C139.803 19.7314 140.676 18.9374 141.603 18.1169C141.682 18.0375 141.761 17.9581 141.841 17.8787C142.238 17.217 142.502 16.423 142.502 15.4966C142.502 13.3263 141.391 11.4736 139.115 9.88555C137.976 9.09153 136.521 9.09153 135.383 9.88555C133.107 11.4736 131.995 13.2998 131.995 15.4966C131.995 16.423 132.26 17.1905 132.657 17.8787C132.736 17.9581 132.815 18.0375 132.895 18.1169C133.795 18.9374 134.668 19.7314 134.933 20.3931C135.462 20.8695 135.912 21.3459 135.912 21.7164C135.912 21.7694 135.938 21.7958 135.938 21.8223C135.912 21.8223 135.859 21.7958 135.833 21.7958C135.462 21.7958 134.986 21.3459 134.509 20.8165C133.848 20.5783 133.054 19.7049 132.233 18.7786C132.154 18.6992 132.074 18.6198 131.995 18.5404C131.333 18.1433 130.539 17.8787 129.613 17.8787C127.442 17.8787 125.59 18.9903 124.002 21.2665C123.208 22.4046 123.208 23.8603 124.002 24.9984C125.59 27.2746 127.416 28.3862 129.613 28.3862C130.539 28.3862 131.307 28.1215 131.995 27.7245C132.074 27.6451 132.154 27.5657 132.233 27.4863C133.054 26.5599 133.848 25.713 134.509 25.4483C134.986 24.919 135.462 24.469 135.833 24.469C135.886 24.469 135.912 24.4426 135.938 24.4426C135.938 24.469 135.912 24.522 135.912 24.5484C135.912 24.919 135.462 25.3954 134.933 25.8718C134.695 26.5335 133.821 27.3275 132.895 28.148C132.815 28.2274 132.736 28.3068 132.657 28.3597C132.26 29.0214 131.995 29.8154 131.995 30.7418C131.995 32.9121 133.107 34.7648 135.383 36.3528C135.939 36.7498 136.6 36.9351 137.262 36.9351C137.924 36.9351 138.559 36.7498 139.141 36.3528C141.417 34.7648 142.529 32.9385 142.529 30.7418C142.529 29.8154 142.264 29.0479 141.867 28.3597C141.788 28.2803 141.708 28.2009 141.629 28.148C140.703 27.3275 139.856 26.5335 139.591 25.8718C139.062 25.3954 138.612 24.919 138.612 24.5484C138.612 24.4955 138.585 24.469 138.585 24.4426C138.612 24.4426 138.665 24.469 138.691 24.469C139.062 24.469 139.538 24.919 140.014 25.4483C140.676 25.6865 141.47 26.5599 142.291 27.4863C142.37 27.5657 142.449 27.6451 142.529 27.7245C143.191 28.1215 143.985 28.3862 144.911 28.3862C147.081 28.3862 148.934 27.2746 150.522 24.9984C151.316 23.8603 151.316 22.4046 150.522 21.2665C148.907 18.9903 147.055 17.8787 144.884 17.8787Z" fill="#7691EE"/>
<path d="M138.321 14.3585H136.124V22.034H128.448V24.2308H136.124V31.9063H138.321V24.2308H145.996V22.034H138.321V14.3585Z" fill="#6780E1"/>
<path d="M128.448 25.3425C129.662 25.3425 130.645 24.3589 130.645 23.1457C130.645 21.9324 129.662 20.9489 128.448 20.9489C127.235 20.9489 126.252 21.9324 126.252 23.1457C126.252 24.3589 127.235 25.3425 128.448 25.3425Z" fill="#4C5D95"/>
<path d="M145.996 25.3425C147.21 25.3425 148.193 24.3589 148.193 23.1457C148.193 21.9324 147.21 20.9489 145.996 20.9489C144.783 20.9489 143.8 21.9324 143.8 23.1457C143.8 24.3589 144.783 25.3425 145.996 25.3425Z" fill="#4C5D95"/>
<path d="M137.236 34.1032C138.449 34.1032 139.432 33.1196 139.432 31.9064C139.432 30.6931 138.449 29.7096 137.236 29.7096C136.022 29.7096 135.039 30.6931 135.039 31.9064C135.039 33.1196 136.022 34.1032 137.236 34.1032Z" fill="#4C5D95"/>
<path d="M137.236 16.5554C138.449 16.5554 139.432 15.5718 139.432 14.3586C139.432 13.1453 138.449 12.1618 137.236 12.1618C136.022 12.1618 135.039 13.1453 135.039 14.3586C135.039 15.5718 136.022 16.5554 137.236 16.5554Z" fill="#4C5D95"/>
<path d="M137.236 26.4277C139.048 26.4277 140.517 24.9583 140.517 23.1457C140.517 21.3331 139.048 19.8638 137.236 19.8638C135.423 19.8638 133.954 21.3331 133.954 23.1457C133.954 24.9583 135.423 26.4277 137.236 26.4277Z" fill="#96ABFB"/>
<path d="M146.472 89.6579C138.268 90.4519 136.415 85.8731 133.371 78.3034C130.354 70.8132 126.596 61.4967 114.871 54.2447C114.182 53.8212 113.309 54.0329 112.886 54.7211C112.462 55.4092 112.674 56.2826 113.362 56.7061C124.266 63.4817 127.84 72.2953 130.698 79.3886C133.556 86.4818 136.044 92.6487 144.779 92.6487C145.414 92.6487 146.075 92.6222 146.79 92.5428C147.584 92.4634 148.166 91.7488 148.087 90.9548C147.981 90.1608 147.293 89.5785 146.472 89.6579Z" fill="#3F4B1B"/>
<path d="M115.903 41.4345C112.171 41.4345 109.868 43.9754 108.174 45.8546C107.195 46.9397 106.269 47.9719 105.528 47.9719C105.448 47.9719 105.395 47.9984 105.342 47.9984C105.369 47.9455 105.369 47.8661 105.369 47.8131C105.369 47.0721 106.401 46.1457 107.486 45.1664C109.339 43.4725 111.906 41.1699 111.906 37.438C111.906 33.7855 110.054 30.7418 106.242 28.0686C104.363 26.7452 101.902 26.7452 100.022 28.0686C96.2112 30.7153 94.3585 33.7855 94.3585 37.438C94.3585 41.1699 96.8993 43.4725 98.7785 45.1664C99.8637 46.1457 100.896 47.0721 100.896 47.8131C100.896 47.8925 100.922 47.9455 100.922 47.9984C100.869 47.9719 100.79 47.9719 100.737 47.9719C99.996 47.9719 99.0697 46.9397 98.0904 45.8546C96.3965 44.0019 94.0938 41.4345 90.3619 41.4345C86.7094 41.4345 83.6657 43.2872 80.9925 47.0985C79.6692 48.9777 79.6692 51.4392 80.9925 53.3183C83.6392 57.1296 86.7094 58.9823 90.3619 58.9823C94.0938 58.9823 96.3965 56.4415 98.0904 54.5623C99.0697 53.4771 99.996 52.4449 100.737 52.4449C100.817 52.4449 100.869 52.4184 100.922 52.4184C100.896 52.4714 100.896 52.5508 100.896 52.6037C100.896 53.3448 99.8637 54.2712 98.7785 55.2504C96.9258 56.9443 94.3585 59.247 94.3585 62.9789C94.3585 66.6314 96.2112 69.6751 100.022 72.3483C100.975 73.01 102.06 73.3276 103.146 73.3276C104.231 73.3276 105.316 73.01 106.269 72.3483C110.08 69.7016 111.933 66.6314 111.933 62.9789C111.933 59.247 109.392 56.9443 107.513 55.2504C106.428 54.2712 105.395 53.3448 105.395 52.6037C105.395 52.5243 105.369 52.4714 105.369 52.4184C105.422 52.4449 105.501 52.4449 105.554 52.4449C106.295 52.4449 107.222 53.4771 108.201 54.5623C109.895 56.415 112.197 58.9823 115.929 58.9823C119.582 58.9823 122.626 57.1296 125.299 53.3183C126.622 51.4392 126.622 48.9777 125.299 47.0985C122.626 43.2872 119.555 41.4345 115.903 41.4345Z" fill="#85A2FB"/>
<path d="M110.795 44.9282C109.868 44.9282 109.101 45.1929 108.413 45.5899C108.333 45.6693 108.254 45.7487 108.174 45.8281C107.354 46.728 106.56 47.6014 105.898 47.8661C105.395 48.3954 104.945 48.8454 104.575 48.8454C104.522 48.8454 104.495 48.8718 104.469 48.8718C104.469 48.8454 104.495 48.7924 104.495 48.766C104.495 48.3954 104.945 47.919 105.475 47.4426C105.713 46.7809 106.586 45.9869 107.513 45.1664C107.592 45.087 107.671 45.0076 107.751 44.9282C108.148 44.2665 108.413 43.4725 108.413 42.5461C108.413 40.3758 107.301 38.5231 105.025 36.9351C103.887 36.1411 102.431 36.1411 101.293 36.9351C99.0167 38.5231 97.905 40.3494 97.905 42.5461C97.905 43.4725 98.1697 44.24 98.5667 44.9282C98.6461 45.0076 98.7255 45.087 98.8049 45.1664C99.7313 45.9869 100.578 46.7809 100.843 47.4426C101.372 47.9455 101.822 48.3954 101.822 48.766C101.822 48.8189 101.849 48.8454 101.849 48.8718C101.822 48.8718 101.769 48.8454 101.743 48.8454C101.372 48.8454 100.896 48.3954 100.419 47.8661C99.7577 47.6279 98.9637 46.7544 98.1433 45.8281C98.0638 45.7487 97.9844 45.6693 97.905 45.5899C97.2434 45.1929 96.4493 44.9282 95.523 44.9282C93.3527 44.9282 91.5 46.0398 89.9119 48.316C89.1179 49.4541 89.1179 50.9098 89.9119 52.0479C91.5 54.3241 93.3262 55.4357 95.523 55.4357C96.4493 55.4357 97.2169 55.171 97.905 54.774C97.9844 54.6946 98.0638 54.6152 98.1433 54.5358C98.9637 53.6095 99.7577 52.7625 100.419 52.4978C100.896 51.9685 101.372 51.5185 101.743 51.5185C101.796 51.5185 101.822 51.4921 101.849 51.4921C101.849 51.5185 101.822 51.5715 101.822 51.598C101.822 51.9685 101.372 52.4449 100.843 52.9213C100.605 53.583 99.7313 54.377 98.8049 55.1975C98.7255 55.2769 98.6461 55.3563 98.5667 55.4092C98.1697 56.0709 97.905 56.8649 97.905 57.7913C97.905 59.9616 99.0167 61.8143 101.293 63.4024C101.849 63.7994 102.51 63.9846 103.172 63.9846C103.834 63.9846 104.469 63.7994 105.051 63.4024C107.327 61.8143 108.439 59.9881 108.439 57.7913C108.439 56.8649 108.174 56.0974 107.777 55.4092C107.698 55.3298 107.619 55.2504 107.539 55.1975C106.613 54.377 105.766 53.583 105.501 52.9213C104.972 52.4449 104.522 51.9685 104.522 51.598C104.522 51.545 104.495 51.5185 104.495 51.4921C104.522 51.4921 104.575 51.5185 104.601 51.5185C104.972 51.5185 105.448 51.9685 105.925 52.4978C106.586 52.736 107.38 53.6095 108.201 54.5358C108.28 54.6152 108.36 54.6946 108.439 54.774C109.101 55.171 109.895 55.4357 110.821 55.4357C112.991 55.4357 114.844 54.3241 116.432 52.0479C117.226 50.9098 117.226 49.4541 116.432 48.316C114.818 46.0398 112.965 44.9282 110.795 44.9282Z" fill="#7691EE"/>
<path d="M104.231 41.4346H102.034V49.1101H94.3584V51.2804H102.034V58.9824H104.231V51.2804H111.906V49.1101H104.231V41.4346Z" fill="#6780E1"/>
<path d="M94.3582 52.392C95.5714 52.392 96.555 51.4085 96.555 50.1952C96.555 48.982 95.5714 47.9984 94.3582 47.9984C93.1449 47.9984 92.1614 48.982 92.1614 50.1952C92.1614 51.4085 93.1449 52.392 94.3582 52.392Z" fill="#4C5D95"/>
<path d="M111.906 52.392C113.119 52.392 114.103 51.4085 114.103 50.1952C114.103 48.982 113.119 47.9984 111.906 47.9984C110.693 47.9984 109.709 48.982 109.709 50.1952C109.709 51.4085 110.693 52.392 111.906 52.392Z" fill="#4C5D95"/>
<path d="M103.145 61.1791C104.359 61.1791 105.342 60.1956 105.342 58.9823C105.342 57.7691 104.359 56.7856 103.145 56.7856C101.932 56.7856 100.948 57.7691 100.948 58.9823C100.948 60.1956 101.932 61.1791 103.145 61.1791Z" fill="#4C5D95"/>
<path d="M103.145 43.6313C104.359 43.6313 105.342 42.6478 105.342 41.4345C105.342 40.2213 104.359 39.2378 103.145 39.2378C101.932 39.2378 100.948 40.2213 100.948 41.4345C100.948 42.6478 101.932 43.6313 103.145 43.6313Z" fill="#4C5D95"/>
<path d="M103.145 53.4771C104.958 53.4771 106.427 52.0077 106.427 50.1952C106.427 48.3826 104.958 46.9132 103.145 46.9132C101.333 46.9132 99.8635 48.3826 99.8635 50.1952C99.8635 52.0077 101.333 53.4771 103.145 53.4771Z" fill="#96ABFB"/>
<path d="M165.953 67.8488C162.327 65.7579 158.012 64.7786 153.883 65.4933C152.798 65.6785 151.74 65.9961 150.681 66.3402C149.252 66.8166 147.822 67.3989 146.658 68.3517C146.049 68.8546 143.958 71.2102 144.938 72.0571C145.335 72.4012 146.526 71.8983 147.028 71.8983C147.796 71.8983 148.59 72.1101 149.305 72.4012C150.734 73.01 151.925 74.0157 153.195 74.9156C156.318 77.0859 160.13 78.5681 163.888 77.9594C165.741 77.6682 167.488 76.8742 169.314 76.3713C171.14 75.8684 173.152 75.6832 174.819 76.5566C172.516 73.0364 169.579 69.9133 165.953 67.8488Z" fill="#6F852C"/>
<path d="M132.868 80.9502C132.286 80.5002 131.677 80.0503 131.042 79.6797C128.607 78.3034 125.643 77.9594 122.89 78.4622C120.137 78.9651 117.57 80.2885 115.32 81.9824C116.564 81.7971 117.808 82.3794 118.84 83.094C119.873 83.8086 120.799 84.7085 121.911 85.3173C124.134 86.5348 126.887 86.4554 129.348 85.7937C130.354 85.529 131.333 85.1585 132.365 85.0791C132.868 85.0526 133.424 85.1055 133.9 85.2643C134.218 85.3702 134.853 85.979 135.197 85.8466C136.018 85.529 135.224 83.5969 134.933 83.1205C134.43 82.2735 133.662 81.5854 132.868 80.9502Z" fill="#6F852C"/>
</svg>
