<svg width="103" height="87" viewBox="0 0 103 87" fill="none" xmlns="http://www.w3.org/2000/svg">
<path d="M89.7783 86.8908C82.6137 86.8908 76.8056 86.1951 76.8056 85.3369C76.8056 84.4788 82.6137 83.7831 89.7783 83.7831C96.9429 83.7831 102.751 84.4788 102.751 85.3369C102.751 86.1951 96.9429 86.8908 89.7783 86.8908Z" fill="#E6E6E6"/>
<path d="M30.8391 52.3604C30.854 52.4136 30.8626 52.4683 30.8645 52.5235L30.8391 52.3604Z" fill="#E3684E"/>
<path d="M41.8131 57.3822C41.8181 57.2628 41.8395 57.2129 41.8589 57.2068C41.8448 57.3178 41.8317 57.4088 41.8131 57.3822Z" fill="#E3684E"/>
<path d="M42.0346 59.9033C42.0385 59.9551 42.0424 60.0029 42.0489 60.0611C42.0615 60.0084 42.0565 59.953 42.0346 59.9033V59.9033Z" fill="#E3684E"/>
<path d="M30.8644 52.5236L30.9316 52.9427C30.8619 52.972 30.8798 52.7279 30.8644 52.5236Z" fill="#E3684E"/>
<path d="M17.4146 19.7788L17.2871 19.7785C17.2489 19.7532 17.2134 19.7241 17.1813 19.6915L17.4146 19.7788Z" fill="#E3684E"/>
<path d="M12.421 19.9992C12.4165 19.9693 12.4032 19.9414 12.3827 19.9192C12.3622 19.897 12.3355 19.8815 12.3061 19.8746C12.3395 19.8278 12.3778 19.7847 12.4203 19.7459C12.482 19.738 12.417 19.9197 12.421 19.9992Z" fill="#E3684E"/>
<path d="M7.19604 16.4387C7.17774 16.4359 7.16031 16.4331 7.14641 16.4304L7.19604 16.4387Z" fill="#E3684E"/>
<path d="M7.30005 16.4554L7.19589 16.4379C7.23041 16.4432 7.26967 16.4486 7.30005 16.4554Z" fill="#E3684E"/>
<path d="M21.4115 20.2082C21.4241 20.2056 21.4373 20.2071 21.449 20.2125C21.4608 20.2179 21.4705 20.2269 21.4768 20.2381C21.4539 20.253 21.4321 20.2377 21.4115 20.2082Z" fill="#E3684E"/>
<path d="M0.829102 16.6419L0.819337 16.7272C0.786307 16.7376 0.752065 16.7438 0.717458 16.7456L0.829102 16.6419Z" fill="#E3684E"/>
<path d="M42.4364 62.9652C42.4351 62.9652 42.4351 62.9665 42.4377 62.9691C42.4377 62.9704 42.439 62.9717 42.4403 62.973C42.4403 62.9756 42.4599 62.9782 42.4742 62.9808C42.4814 62.9788 42.4888 62.9775 42.4963 62.9769C42.4768 62.9743 42.4573 62.9704 42.4416 62.9691C42.439 62.9665 42.4377 62.9652 42.4364 62.9652Z" fill="#E3684E"/>
<path d="M57.0006 82.9967C57.5104 82.8343 56.1708 82.7882 56.9384 82.6075C56.8669 82.6787 57.6361 82.8911 57.0006 82.9967Z" fill="#E3684E"/>
<path d="M52.9252 65.3118C52.943 65.3557 52.9704 65.395 53.0054 65.4269C52.9666 65.3416 52.9446 65.3157 52.9252 65.3118Z" fill="#E3684E"/>
<path d="M45.3772 63.3442C45.4471 63.3422 45.5168 63.3344 45.5854 63.3209L45.3772 63.3442Z" fill="#E3684E"/>
<path d="M55.6265 65.9539C55.6975 65.9401 55.7705 65.9401 55.8416 65.954C55.8268 65.9632 55.8111 65.9706 55.7946 65.9761C55.7415 65.954 55.6835 65.9464 55.6265 65.9539V65.9539Z" fill="#E3684E"/>
<path d="M55.6265 65.9539C55.5993 65.9587 55.5708 65.9642 55.5346 65.9686C55.5648 65.9617 55.5955 65.9568 55.6265 65.9539Z" fill="#E3684E"/>
<path d="M50.4175 37.1302C50.3934 37.1441 50.3615 37.1545 50.3336 37.1668C50.2885 37.1638 50.2359 37.1602 50.1895 37.1571L50.4175 37.1302Z" fill="#E3684E"/>
<path d="M56.3088 66.0918C56.3092 66.0945 56.3102 66.0971 56.3118 66.0993C56.3135 66.1016 56.3156 66.1033 56.3181 66.1045C56.3135 66.0975 56.3088 66.0918 56.3088 66.0918Z" fill="#E3684E"/>
<path d="M1.57092 53.8936C1.60048 53.891 1.62972 53.8886 1.66211 53.8851C1.62798 53.8895 1.59835 53.892 1.57092 53.8936Z" fill="#E3684E"/>
<path d="M0.342872 49.7195C0.344791 49.7196 0.346456 49.7208 0.348389 49.7208C0.346498 49.7295 0.344682 49.7269 0.342872 49.7195Z" fill="#E3684E"/>
<path d="M45.7651 63.462C45.7186 63.4532 45.6731 63.4397 45.6293 63.4219C45.5349 63.4465 45.6642 63.4452 45.7651 63.462Z" fill="#E3684E"/>
<path d="M0.477295 33.7797C0.470315 33.7491 0.463047 33.7146 0.454401 33.6725C0.462809 33.7087 0.469736 33.744 0.477295 33.7797Z" fill="#E3684E"/>
<path d="M9.90898 76.3964C9.89491 76.3654 9.87516 76.3373 9.85076 76.3136L9.83266 76.3783C9.81854 76.2454 9.82728 76.1111 9.85853 75.9811C9.83034 75.8087 9.81392 75.6345 9.80938 75.4598C9.67226 75.3861 9.73565 74.7199 9.72789 74.3991C9.90898 74.425 9.88052 74.0123 10.0267 74.3888C10.0163 74.3668 10.0099 74.4767 10.0021 74.6733C9.99929 74.7195 9.9928 74.7653 9.98271 74.8105C9.98788 74.804 9.99306 74.7962 9.99953 74.7885C9.99565 74.9993 9.99177 75.2748 9.9866 75.5879C10.1102 75.3128 10.1349 75.0034 10.0564 74.7121C10.1729 74.5479 10.2932 74.3655 10.3488 74.2633C10.0953 73.8235 9.95813 72.9749 9.8029 72.8572C9.9038 71.8754 9.87017 70.5443 10.2117 69.9259C10.2557 69.6465 10.1134 69.6051 10.059 69.5003C10.0254 69.662 10.0306 69.8535 9.98142 69.9415C10.0694 69.3826 10.015 68.287 10.2544 68.1537C10.147 67.45 10.0345 68.5496 10.0733 67.582L10.0008 67.7126C9.62569 65.8434 10.5752 64.6611 10.1431 62.6186C10.1599 62.6949 10.1755 62.7402 10.2039 62.7609C9.98788 60.3574 10.407 57.8065 10.0642 55.4341C9.99566 54.7601 10.147 54.6864 10.2634 54.275L10.0681 54.1289L10.2932 53.4252C10.4587 52.4278 9.81455 51.6982 10.1263 50.4344L10.2582 50.5974C10.2324 50.1434 10.3359 49.1603 10.1845 49.2366C10.2243 49.1935 10.2516 49.1404 10.2634 49.0829C10.2753 49.0255 10.2713 48.9659 10.2518 48.9106L10.1496 48.8964L10.3255 47.7813C10.2518 46.9185 9.91932 47.9171 9.89991 46.6559C9.93873 46.1876 10.1974 45.3223 10.266 45.4982C10.2699 45.687 10.3294 45.9807 10.4316 45.9949L10.4846 45.5667C10.504 45.5616 10.5221 45.5564 10.5415 45.5499V45.4814H10.7265C10.765 45.465 10.8063 45.4566 10.8481 45.4566C10.8899 45.4566 10.9312 45.465 10.9697 45.4814H15.6071L15.5567 45.4309L15.7093 45.4814H16.3639C16.3445 45.4426 16.2824 45.4102 16.153 45.3947C16.6291 45.2615 16.5747 45.4904 16.9822 45.3417C17.0275 45.3184 17.0081 45.3054 16.9654 45.2951L17.4311 45.3753C17.3392 45.3184 17.5074 45.1851 17.2228 45.2239C18.0559 45.0687 18.5668 45.4257 18.8812 45.2214L18.8113 45.2058C19.6767 45.2731 19.3106 45.3494 19.4348 45.4814H19.9755L20.0842 45.3908L20.2304 45.2692C20.2801 45.2235 20.3343 45.1828 20.3921 45.1476C20.4366 45.2101 20.4764 45.2758 20.5111 45.3442C20.6456 45.3378 20.9224 45.3235 20.9095 45.2433C21.1462 45.3119 21.0971 45.3326 21.0401 45.3533C20.978 45.374 20.903 45.3934 20.9988 45.4581C21.1503 45.4223 21.3049 45.401 21.4605 45.3947C21.4774 45.6819 21.4567 46.0298 21.4631 46.295C21.4696 46.5718 21.5019 46.7503 21.6287 46.806C21.4787 47.0117 21.5123 46.2562 21.4075 46.8694C21.7464 47.0414 21.3506 47.586 21.5058 48.097C21.6805 47.9495 21.5873 47.4424 21.7438 47.9702C21.6947 48.0223 21.6583 48.0852 21.6378 48.1539C21.6231 48.2232 21.6213 48.2947 21.6326 48.3647C21.6556 48.489 21.6907 48.6108 21.7374 48.7282C21.8139 48.7091 21.8933 48.7042 21.9715 48.714C21.8939 48.8317 22.0672 48.8563 22.3272 48.8615C22.4838 48.8615 22.6636 48.8627 22.8473 48.8627C23.04 48.8653 23.2379 48.8705 23.4242 48.8899C23.3776 48.811 24.8225 48.7619 25.5133 48.6765L25.4939 48.6364C25.6271 48.8744 26.3399 48.8291 26.8599 48.8783C26.8392 48.736 26.7461 48.6804 26.4641 48.617L26.953 48.6183C27.0682 48.6946 27.2195 48.7347 27.5364 48.7619L27.4136 48.5833C27.7382 48.5885 28.0655 48.6415 28.4161 48.6778C28.592 48.6959 28.7718 48.7088 28.962 48.7114C29.0564 48.7127 29.1534 48.7101 29.253 48.7049C29.3022 48.7023 29.3526 48.6985 29.4031 48.6933C29.46 48.6868 29.5169 48.6804 29.5738 48.6739C29.5919 48.7153 29.5285 48.7657 29.4884 48.8175C29.4387 48.8676 29.3937 48.9222 29.3539 48.9805C29.3425 48.9964 29.3354 49.015 29.3333 49.0345C29.3313 49.0541 29.3344 49.0738 29.3423 49.0917H29.795C29.7937 49.0426 29.764 48.9986 29.6682 48.9753C29.8015 49.0133 29.9412 49.0226 30.0783 49.0025C29.9748 48.9533 29.8545 48.9028 29.7187 48.8524C30.2103 48.7864 29.9205 48.9779 30.2659 48.9636C30.337 48.8369 30.597 48.8731 30.6255 48.7722C30.5285 48.7593 30.2491 48.8239 30.1249 48.7748C30.3823 48.7619 30.6863 48.7321 30.9657 48.6907C30.9821 48.8152 31.0198 48.9359 31.0769 49.0477C31.0045 49.0542 30.9049 49.1758 30.8894 49.5082C30.8842 49.9338 30.923 50.0024 30.9709 50.0295C30.9942 50.0425 31.02 50.0438 31.0446 50.0774C31.0595 50.1003 31.0713 50.1251 31.0795 50.1511C31.0928 50.1858 31.1024 50.2218 31.108 50.2585C31.02 50.4163 31.1119 50.8303 30.9204 50.8419C30.9217 51.0321 31.011 51.067 31.0627 51.1407C30.9786 51.4771 31.0381 52.7111 30.835 52.3321L30.8221 52.2454C30.8182 52.2622 30.8169 52.2804 30.8131 52.3011C30.76 52.635 30.7392 52.9734 30.751 53.3113C30.7587 53.5933 30.7859 53.8611 30.8118 54.0965C31.0019 54.0797 31.1779 54.0655 31.3421 54.0577C31.4249 54.0551 31.5051 54.0525 31.5853 54.0551L31.7406 54.059C31.7949 54.0629 31.8505 54.0655 31.9048 54.0681L31.9022 54.0047C32.5555 54.0771 33.3562 54.0474 33.8219 54.1858C34.0146 54.1845 34.2772 54.0681 34.1944 53.993C34.6938 54.0409 34.7494 54.112 35.4699 54.0073C34.9693 53.896 35.6432 53.9077 34.9564 53.9258C35.6044 53.8702 35.7519 53.768 36.4479 53.9426C36.2111 53.7783 36.9355 53.7369 37.2434 53.7848L36.7893 53.9025C37.1082 53.9196 37.4279 53.9179 37.7466 53.8973L37.581 53.6826C38.2433 53.5519 38.8422 53.6632 39.4011 53.7524C39.6688 53.8013 39.94 53.8294 40.2121 53.8365L40.3104 53.8352L40.4359 53.8288C40.5329 53.8236 40.6312 53.8158 40.7308 53.8042C40.9488 53.7782 41.1651 53.7402 41.3789 53.6903C41.6118 53.7654 41.3013 53.7912 41.0154 53.821C40.7218 53.8507 40.4553 53.8844 40.6571 53.9723C41.0848 53.944 41.5104 53.8892 41.9313 53.8081C42.0148 54.09 42.0732 54.3787 42.1059 54.6709C42.1214 54.8403 42.1266 54.9943 42.1266 55.1301C42.1266 55.1974 42.1253 55.262 42.1214 55.3215C42.1201 55.3487 42.1188 55.3888 42.1163 55.4017C42.1137 55.4173 42.1111 55.4341 42.1085 55.4496C42.0865 55.5616 42.0513 55.6706 42.0037 55.7743C41.8803 56.0366 41.8349 56.329 41.8731 56.6164C41.7967 56.5039 41.5911 56.3991 41.5199 57.0523C41.5354 57.4145 41.6467 57.6125 41.7463 57.6306C41.8019 57.6422 41.8537 57.5969 41.8834 57.496C41.8925 57.4704 41.899 57.444 41.9028 57.4171C41.9093 57.2709 41.8847 57.2011 41.8588 57.2063C41.8873 57.0096 41.9196 56.7509 42.0024 56.9928L41.9261 57.0717C41.9504 57.1825 41.9668 57.2949 41.9753 57.4081C42.0102 57.756 42.0309 58.1609 42.1227 58.0173C42.0593 58.4119 42.0115 58.2761 41.974 58.0135C42.0555 58.712 41.9649 59.1466 42.0348 59.9034C41.9921 59.7753 41.9015 59.6563 41.9028 59.7843C41.9985 60.9667 41.7566 60.3057 41.723 61.1064C41.8407 61.5617 42.0024 60.9434 41.9054 61.7493C41.9843 62.2421 42.1085 61.8541 42.1706 61.6587C42.1095 61.9939 42.1087 62.3374 42.168 62.6729C42.1719 62.6949 42.1745 62.7169 42.1783 62.7376C42.1809 62.7531 42.1835 62.7699 42.1861 62.7854L42.1913 62.8126C42.1926 62.8204 42.1939 62.8191 42.1952 62.8217L42.2055 62.8346C42.2171 62.8476 42.2301 62.8593 42.2443 62.8695C42.2625 62.8802 42.2798 62.8923 42.2961 62.9057C42.3089 62.8851 42.3246 62.8664 42.3426 62.8501C42.3348 62.8591 42.3289 62.8696 42.3253 62.8809C42.3218 62.8923 42.3206 62.9043 42.3219 62.9161C42.3061 62.9265 42.2897 62.936 42.2728 62.9445C42.2395 62.9618 42.2043 62.9753 42.168 62.9846C42.1939 63.0222 42.1952 63.0597 42.2456 63.0131C42.2514 63.009 42.2566 63.0042 42.2611 62.9989C42.2159 63.0665 42.162 63.1278 42.1007 63.1813C42.0335 63.2498 41.9533 63.3236 42.0296 63.3921C42.1358 63.3658 42.2463 63.3614 42.3543 63.3792C42.3814 63.3805 42.4086 63.3805 42.4345 63.3792C42.4752 63.3768 42.5158 63.3721 42.5561 63.3649C42.5885 63.3626 42.62 63.3531 42.6482 63.337C42.6764 63.3208 42.7006 63.2986 42.7191 63.2718C42.5988 63.2809 42.5121 63.2835 42.4474 63.2822C42.4125 63.2822 42.3996 63.277 42.3892 63.2679C42.3711 63.2524 42.384 63.2227 42.3957 63.1916C42.4177 63.1386 42.4254 63.0791 42.3866 63.0493C42.3925 63.0509 42.3986 63.0518 42.4047 63.0519C42.4162 63.0515 42.4276 63.0493 42.4384 63.0454C42.4875 63.0416 42.538 63.0364 42.591 63.0312C42.6246 63.0079 42.5587 62.9885 42.4966 62.9769C42.5664 62.9626 42.6285 62.9523 42.6828 62.9445C42.7902 62.925 42.9002 62.925 43.0075 62.9445C43.243 63.0002 43.1925 63.2058 43.86 63.202C43.741 63.0881 44.0799 62.9846 44.2338 63.0092C43.8522 63.0118 44.0514 63.2007 44.4007 63.2886C45.0074 63.1994 45.0591 63.3546 45.3773 63.3443L45.0151 63.3869C45.138 63.5021 45.4407 63.4865 45.8624 63.5228C45.8741 63.4943 45.8417 63.4788 45.7952 63.4671C46.2311 63.5344 46.7537 63.2343 47.3268 63.3455C47.3324 63.3458 47.3381 63.3466 47.3436 63.3481C47.6463 63.2705 47.3733 63.1334 47.6398 63.0804C48.372 63.2291 48.4328 62.9225 49.2037 63.0454C48.9812 63.2007 48.9424 63.1631 49.4857 63.3132L48.218 63.2045L49.0317 63.4283C48.6488 63.4309 48.2245 63.3313 47.9955 63.3585C48.3836 63.484 48.3435 63.4451 48.1598 63.5732C48.6837 63.3417 49.1973 63.709 49.8014 63.5525L49.7832 63.1696C50.1677 63.1085 50.5596 63.1103 50.9436 63.1748L51.091 63.1942L51.1648 63.2033L51.1842 63.2058L51.2139 63.2084L51.2747 63.2136C51.4338 63.2252 51.5955 63.2382 51.7624 63.2511C52.0897 63.2731 52.4234 63.2886 52.805 63.286C52.8063 63.4568 52.8115 63.634 52.8205 63.819L52.7597 63.3313L52.7119 63.3365C52.7176 63.3451 52.7257 63.3519 52.7352 63.3559C52.68 63.5958 52.6617 63.8427 52.6808 64.0881C52.6808 64.11 52.6821 64.1333 52.6821 64.1566V64.1579C52.6847 64.2795 52.6886 64.4063 52.6899 64.533C52.6899 64.6081 52.6886 64.6818 52.686 64.7542C52.6847 64.7905 52.6821 64.8254 52.6808 64.8603L52.6769 64.9108L52.6718 64.9457C52.7998 64.9095 52.8464 65.1488 52.9253 65.3118C52.902 65.3066 52.8904 65.3583 52.8826 65.4398C52.8749 65.4735 52.871 65.5149 52.8619 65.564C52.8382 65.6986 52.7746 65.8229 52.6795 65.921C52.6992 65.9407 52.7214 65.9576 52.7455 65.9715C52.825 65.9418 52.9027 65.9077 52.9784 65.8693C53.0577 65.8526 53.1403 65.8621 53.2138 65.8965C53.2306 65.9042 53.2474 65.9133 53.2642 65.9223C53.2775 65.9295 53.292 65.9343 53.3069 65.9366C53.325 65.9417 53.3431 65.9469 53.36 65.9521C53.4311 65.9741 53.4984 65.9974 53.5643 66.0207C53.8771 66.15 54.2147 66.2078 54.5526 66.1901C54.2771 66.0517 54.6936 65.9611 54.0792 65.8615C54.3858 65.8602 54.66 65.837 54.6652 65.9249C54.6987 65.9127 54.7343 65.9074 54.7699 65.9094C54.9239 65.9107 55.171 65.9702 55.3973 65.9974C55.5058 66.0143 55.6162 66.0143 55.7246 65.9974C55.7487 65.9936 55.7722 65.9866 55.7945 65.9767C55.8082 65.9828 55.8216 65.9897 55.8346 65.9974C55.8983 66.0553 55.9735 66.0992 56.0553 66.1264C56.137 66.1536 56.2235 66.1634 56.3093 66.1552C56.3134 66.1528 56.3169 66.1495 56.3196 66.1456C56.3223 66.1418 56.3242 66.1373 56.3251 66.1327C56.3259 66.128 56.3258 66.1232 56.3246 66.1186C56.3234 66.114 56.3213 66.1097 56.3184 66.106C56.3869 66.1591 56.8228 66.1888 56.5447 66.3195C56.9522 66.1474 57.4994 66.1293 58.0569 66.1371C58.7878 66.1461 59.5342 66.2005 59.9999 66.0064C60.3336 66.0271 60.701 66.0491 61.0619 66.0659C61.2417 66.0724 61.4202 66.0802 61.5909 66.0866C61.6763 66.0892 61.7604 66.0918 61.8406 66.0944C61.9311 66.0957 62.0178 66.0983 62.1006 66.0996C62.0747 66.0802 62.0747 66.0646 62.0605 66.0556C62.0288 66.043 61.994 66.0408 61.9609 66.0491C61.9842 66.0465 61.9997 66.0426 62.0282 66.0413C62.0566 66.0388 62.0851 66.0375 62.1122 66.0349C62.1666 66.0323 62.217 66.031 62.2636 66.0297C62.3431 66.0293 62.4226 66.0336 62.5016 66.0426C62.5983 66.052 62.6921 66.0811 62.7771 66.128C62.9091 66.2375 63.074 66.2995 63.2454 66.3039C63.2394 66.4431 63.2464 66.5826 63.2661 66.7205C63.3179 66.833 63.3502 66.8589 63.3722 66.8214C63.3972 66.7445 63.4099 66.6642 63.4097 66.5833C63.4213 66.3777 63.4175 66.1448 63.4563 66.3182C63.6658 66.225 63.6516 66.7192 63.6154 67.2599C63.5973 67.5742 63.574 67.7113 63.5701 67.9093C63.5609 68.0895 63.5859 68.2699 63.6438 68.4409L63.6684 68.2857C63.812 68.7747 63.5093 69.4796 63.5391 70.2791C63.5391 70.2791 63.5766 70.2403 63.6024 70.2739C63.389 70.8211 63.3179 71.8559 63.2584 72.6243C63.4226 72.385 63.345 72.275 63.5119 72.4212C63.4886 72.7666 63.2441 72.3203 63.1976 73.0085C63.2868 73.2323 63.3657 73.729 63.5442 73.795L63.5546 73.1456C63.7848 73.4781 63.5455 73.9852 63.5856 74.3279L63.6865 74.284C63.6542 75.2787 63.4006 75.293 63.4188 76.3614L63.3424 76.2515C63.0902 76.8362 63.4834 76.7418 63.2959 77.3239L63.552 77.5011C63.4899 77.8866 63.3049 78.8503 63.2571 79.5423C63.4459 79.1504 63.5429 78.3419 63.6555 77.8413C63.6568 78.2229 63.6361 79.14 63.5106 79.3392C63.5352 79.1853 63.5973 78.9913 63.5585 78.8386C63.358 79.3069 63.2596 79.9239 63.2635 80.6858C63.4252 80.6419 63.4951 80.8385 63.5287 81.1438C63.53 81.1632 63.5326 81.1826 63.5339 81.2033C63.5352 81.2317 63.5378 81.2615 63.5391 81.2912C63.5416 81.352 63.5442 81.4141 63.5481 81.4788C63.5507 81.6082 63.5546 81.7453 63.5585 81.885C63.5649 82.1709 63.5714 82.471 63.5779 82.762C62.9867 82.7814 62.4434 82.8241 62.1278 82.9574L62.0217 82.9483L61.9557 82.9405L61.829 82.9276C61.7449 82.9198 61.6608 82.9134 61.5767 82.9082C61.4085 82.8966 61.2404 82.8927 61.0709 82.8914C60.7333 82.8901 60.3918 82.9043 60.0438 82.9237C59.3479 82.9625 58.6248 83.0207 57.8396 83.0052C58.3958 82.621 57.3817 82.9949 57.4774 82.599C57.1152 82.5745 56.9755 82.5809 56.9419 82.6055L56.9949 82.5939C56.9755 82.599 56.96 82.6029 56.9393 82.6081V82.6068L55.832 82.8422C55.5694 82.9574 56.1799 82.9289 56.1463 83.0181C55.3456 83.0492 55.81 83.1863 55.2809 83.2911C55.3896 83.1501 55.0028 83.088 54.5462 83.1423L55.1891 82.9599C54.0701 82.7491 54.2215 83.2924 53.0948 83.0828L53.4518 83.2083C52.8723 83.1346 51.3174 83.2109 50.7495 82.8927C50.6473 82.938 50.5115 83.0466 50.7664 83.0751C49.3835 83.1229 47.689 82.7374 46.614 82.9328L46.7188 83.0298C46.4614 83.0013 46.2699 82.8474 45.9465 82.9444C45.9633 82.9845 46.0513 83.0414 45.931 83.0466C45.7952 83.0143 45.2467 82.8772 44.9039 82.9341L45.1963 83.0427C44.3477 83.1229 43.7475 82.9975 43.1369 82.8759C42.7609 82.7941 42.3797 82.7392 41.996 82.7116C41.9985 82.9962 40.9378 83.0893 40.4075 83.1346L40.4269 83.1747C39.7973 83.1863 39.1676 83.1556 38.5421 83.0828C38.0622 83.0298 37.5965 82.9625 37.1037 82.9069H37.1024C37.0714 82.903 37.0403 82.8991 37.008 82.8953C36.8941 82.8823 36.7777 82.8707 36.66 82.859C36.6238 82.8552 36.5863 82.8513 36.5487 82.8474C36.4685 82.8409 36.387 82.8345 36.3043 82.828C35.8926 82.9405 35.4684 83.0005 35.0417 83.0065C34.0302 83.0557 32.7573 83.0156 31.7949 83.1307C32.0174 83.079 31.7587 82.9082 31.5012 82.8797C31.1817 82.9341 30.6333 82.7129 30.6113 82.9004C30.6097 82.9147 30.6105 82.9292 30.6138 82.9431L30.729 82.938H30.7354L30.7341 82.9393C30.4767 83.1941 29.7782 83.1268 29.2323 83.1333L29.1431 82.7918C27.7137 83.2885 25.3982 82.6094 24.6182 83.0544C24.2728 82.969 23.8459 82.9703 23.5044 82.8849L23.5225 83.0673C22.6526 83.1225 21.7803 83.1311 20.9095 83.0932L21.1501 83.2251C20.4839 83.2368 20.3093 82.6961 19.6935 82.6857L19.5099 82.9587C18.3469 82.9548 17.1711 83.1954 16.0224 82.947C16.0405 82.9871 16.0754 83.066 16.263 83.0777C15.7339 83.0841 14.2489 83.251 14.3317 82.9224C14.2049 83.1074 13.1132 82.9056 12.5194 82.8034L12.6164 82.9832C12.3512 82.8681 12.2154 82.7944 12.0524 82.7426C11.9598 82.7134 11.8651 82.6913 11.7691 82.6767C11.7096 82.6676 11.6527 82.6585 11.5712 82.6508C11.4729 82.643 11.3617 82.6353 11.2362 82.6262C11.0137 82.6482 10.9762 82.7478 11.2375 82.7336C11.043 82.7592 10.8455 82.7505 10.6541 82.7077C10.4934 82.6567 10.3259 82.6301 10.1574 82.6288C10.1581 82.4987 10.1512 82.3687 10.1367 82.2394C10.0978 82.3895 10.059 82.5486 10.0215 82.7168C10.0069 82.4399 10.0186 82.1622 10.0564 81.8876C10.0875 81.722 10.1366 81.5991 10.2026 81.3701C10.2078 81.3391 10.2117 81.3055 10.2143 81.2705C10.2168 81.2382 10.2194 81.2059 10.222 81.1709C10.2246 81.114 10.2259 81.0519 10.2246 80.9898C10.2206 80.8611 10.208 80.7327 10.1871 80.6057C10.147 80.356 10.0759 80.1438 9.99436 80.0999C10.094 80.0184 10.2272 79.6898 10.1806 79.3354C10.1185 79.2875 10.0797 79.4156 10.0616 79.4815C9.93874 78.4764 10.2712 77.9862 10.094 77.2954C10.0671 77.2877 10.0429 77.2728 10.0239 77.2523C10.005 77.2317 9.99207 77.2064 9.98661 77.179C9.99048 77.9111 9.99953 78.5114 10.0112 78.5592C9.84689 78.5502 9.81715 77.9176 9.58948 78.4273C9.71494 77.9098 9.98659 77.0251 9.90898 76.3964ZM9.7628 75.0575C9.73694 75.2723 9.77315 75.3434 9.81066 75.3732C9.81325 75.2723 9.81972 75.1533 9.83266 74.998C9.83913 74.9929 9.84689 74.9799 9.85465 74.9735C9.81734 74.9931 9.78571 75.0221 9.7628 75.0575V75.0575ZM17.1672 45.4529C17.1454 45.4599 17.1246 45.4694 17.1051 45.4814H17.3793C17.3134 45.471 17.2435 45.462 17.1672 45.4529V45.4529Z" fill="#E3684E"/>
<path d="M42.3539 63.0338C42.3623 63.043 42.374 63.0486 42.3865 63.0494C42.3766 63.0424 42.3656 63.0371 42.3539 63.0338Z" fill="#E3684E"/>
<path d="M45.7952 63.4677C45.785 63.4661 45.7751 63.4637 45.765 63.4617C45.7755 63.4635 45.7856 63.4655 45.7952 63.4677Z" fill="#E3684E"/>
<path d="M0.33625 45.8338C0.34256 45.8048 0.346991 45.7753 0.349508 45.7457C0.365614 45.7894 0.379194 45.8309 0.390381 45.8733L0.333401 45.949L0.33625 45.8338Z" fill="#E3684E"/>
<path d="M30.8391 52.3609C30.8341 52.3394 30.8253 52.319 30.8131 52.3006C30.8219 52.3198 30.8276 52.3198 30.8349 52.3321L30.8391 52.3609Z" fill="#E3684E"/>
<path d="M12.1331 16.4239C12.0747 16.4253 12.0086 16.5096 12.0212 17.1286L11.9823 16.368L11.6966 16.3818C11.9273 16.3115 12.3081 16.2171 11.781 16.2002C11.9626 16.179 12.1011 16.1629 12.1989 16.1515C12.2422 16.5162 12.1915 16.4255 12.1331 16.4239Z" fill="#E3684E"/>
<path d="M12.123 19.5893C12.1393 19.4444 12.1648 19.4403 12.1912 19.4573C12.2176 19.4758 12.2448 19.5127 12.2646 19.4947C12.2007 19.6664 12.1846 19.7496 12.123 19.5893Z" fill="#E3684E"/>
<path d="M34.3826 53.9282L34.3375 53.7628C34.6827 53.7866 34.3408 53.8269 34.3826 53.9282Z" fill="#E3684E"/>
<path d="M40.3546 53.6298L40.3259 53.6275L40.2727 53.6229L40.0603 53.6048L39.9095 53.5811L40.1974 53.6111L40.3413 53.6261L40.5764 53.6411L40.3991 53.632L40.3546 53.6298Z" fill="#E3684E"/>
<path d="M49.6086 36.9695L49.5043 37.1732C49.2711 37.1367 49.2221 36.9077 49.6086 36.9695Z" fill="#E3684E"/>
<path d="M53.8674 47.4011C53.9297 47.5171 53.9678 47.6445 53.9794 47.7756C53.991 47.9068 53.9757 48.0389 53.9347 48.164C53.9206 47.8597 53.8412 47.5561 53.8674 47.4011Z" fill="#E3684E"/>
<path d="M28.7358 83.1172L28.2227 83.0603L28.4636 83.049L28.7358 83.1172Z" fill="#E3684E"/>
<path d="M26.2194 66.419C26.2506 67.9884 26.4699 69.5484 26.8726 71.0655C28.4404 76.8607 32.7299 81.0778 35.0415 83.0065C35.4682 83.0005 35.8924 82.9405 36.304 82.828C36.3868 82.8344 36.4683 82.8409 36.5485 82.8474C36.586 82.8512 36.6235 82.8551 36.6598 82.859C36.7775 82.8706 36.8939 82.8823 37.0077 82.8952C37.0401 82.8991 37.0711 82.903 37.1022 82.9069H37.1035C37.8512 80.9513 38.3876 78.9213 38.7036 76.8517L38.7049 76.8504V76.8491C39.1046 74.1947 39.1693 71.0798 38.3272 67.9674C37.9664 66.6503 37.4674 65.3751 36.8383 64.163C33.832 58.329 28.6332 54.8532 28.6332 54.8532C28.6332 54.8532 26.0641 60.1297 26.2194 66.419Z" fill="white"/>
<path d="M42.0346 59.9033C42.0385 59.9551 42.0424 60.0029 42.0489 60.0611C42.0615 60.0084 42.0565 59.953 42.0346 59.9033V59.9033Z" fill="white"/>
<path d="M45.7651 63.462C45.7186 63.4532 45.6731 63.4397 45.6293 63.4219C45.5349 63.4465 45.6642 63.4452 45.7651 63.462Z" fill="white"/>
<path d="M45.5854 63.3209L45.3772 63.3442C45.4471 63.3422 45.5168 63.3344 45.5854 63.3209V63.3209Z" fill="white"/>
<path d="M42.4742 62.9808C42.4814 62.9788 42.4888 62.9775 42.4963 62.9769C42.4768 62.9743 42.4573 62.9704 42.4416 62.9691C42.439 62.9665 42.4377 62.9652 42.4364 62.9652C42.4351 62.9652 42.4351 62.9665 42.4377 62.9691C42.4377 62.9704 42.439 62.9717 42.4403 62.973C42.4403 62.9756 42.4599 62.9782 42.4742 62.9808Z" fill="white"/>
<path d="M42.3539 63.0338C42.3623 63.043 42.374 63.0486 42.3865 63.0494C42.3766 63.0424 42.3656 63.0371 42.3539 63.0338Z" fill="white"/>
<path d="M34.9681 76.8414C34.9681 76.844 34.9694 76.8466 34.9694 76.8491C35.2823 78.8988 35.8118 80.9095 36.5488 82.8474C36.5863 82.8513 36.6239 82.8552 36.6601 82.8591C36.7778 82.8707 36.8942 82.8823 37.008 82.8953C37.0404 82.8992 37.0714 82.903 37.1025 82.9069H37.1038C37.5966 82.9625 38.0623 83.0298 38.5422 83.0828C40.8305 81.1904 45.2132 76.9384 46.8004 71.0656C47.2042 69.5482 47.424 67.9877 47.4549 66.4178C47.4785 65.392 47.4357 64.3658 47.3268 63.3456C46.7538 63.2343 46.2312 63.5344 45.7953 63.4672C45.8418 63.4788 45.8742 63.4943 45.8625 63.5228C45.4408 63.4866 45.1381 63.5021 45.0152 63.387L45.3774 63.3443C45.0592 63.3546 45.0075 63.1994 44.4008 63.2887C44.0515 63.2007 43.8523 63.0118 44.2339 63.0092C44.08 62.9847 43.7411 63.0882 43.8601 63.202C43.1926 63.2059 43.243 63.0002 43.0076 62.9446H42.6829C42.6286 62.9523 42.5665 62.9627 42.4967 62.9769C42.5587 62.9886 42.6247 63.008 42.5911 63.0312C42.538 63.0364 42.4876 63.0416 42.4384 63.0455C42.4276 63.0494 42.4163 63.0515 42.4048 63.0519C42.3987 63.0518 42.3926 63.0509 42.3867 63.0494C42.4255 63.0791 42.4177 63.1386 42.3958 63.1916C42.3841 63.2227 42.3712 63.2524 42.3893 63.268C42.3996 63.277 42.4126 63.2822 42.4475 63.2822C42.5122 63.2835 42.5988 63.2809 42.7192 63.2718C42.7007 63.2986 42.6765 63.3209 42.6483 63.337C42.6201 63.3531 42.5886 63.3627 42.5562 63.365C42.5159 63.3721 42.4753 63.3769 42.4346 63.3792C42.4087 63.3805 42.3815 63.3805 42.3544 63.3792C42.2464 63.3614 42.1359 63.3658 42.0297 63.3921C41.9534 63.3236 42.0336 63.2499 42.1008 63.1813C42.1621 63.1278 42.216 63.0665 42.2612 62.9989C42.2567 63.0043 42.2515 63.0091 42.2457 63.0131C42.1953 63.0597 42.194 63.0222 42.1681 62.9847C42.2044 62.9753 42.2396 62.9619 42.2729 62.9446H42.1784V62.7376C42.1746 62.7169 42.172 62.6949 42.1681 62.6729C42.1087 62.3374 42.1096 61.994 42.1707 61.6588C42.1086 61.8541 41.9844 62.2422 41.9055 61.7493C42.0025 60.9434 41.8408 61.5617 41.7231 61.1064C41.7567 60.3057 41.9986 60.9667 41.9029 59.7844C41.9016 59.6563 41.9922 59.7753 42.0349 59.9034C41.965 59.1467 42.0555 58.712 41.974 58.0135C42.0116 58.2761 42.0594 58.4119 42.1228 58.0174C42.031 58.161 42.0103 57.7561 41.9753 57.4081C41.9456 57.4366 41.9146 57.4663 41.8835 57.4961C41.8382 57.54 41.7917 57.5853 41.7464 57.6306C40.1346 59.2126 38.2447 61.4272 36.8386 64.1631C36.8384 64.1631 36.8382 64.1631 36.8381 64.1632C36.8379 64.1633 36.8378 64.1634 36.8377 64.1635C36.8375 64.1636 36.8375 64.1638 36.8374 64.1639C36.8373 64.1641 36.8373 64.1642 36.8373 64.1644C36.207 65.3756 35.7075 66.6505 35.3471 67.9675C34.5063 71.0772 34.5697 74.187 34.9681 76.8414Z" fill="white"/>
<path d="M52.9252 65.3118C52.943 65.3557 52.9704 65.395 53.0054 65.4269C52.9666 65.3416 52.9446 65.3157 52.9252 65.3118Z" fill="#3F3D56"/>
<path d="M56.3088 66.0918C56.3092 66.0945 56.3102 66.0971 56.3118 66.0993C56.3135 66.1016 56.3156 66.1033 56.3181 66.1045C56.3135 66.0975 56.3088 66.0918 56.3088 66.0918Z" fill="#3F3D56"/>
<path d="M37.0079 82.8952C37.0403 82.8991 37.0713 82.903 37.1024 82.9069H37.1037C37.5965 82.9625 38.0622 83.0298 38.5421 83.0828C39.1676 83.1556 39.7972 83.1863 40.4268 83.1747L40.4074 83.1345C40.9378 83.0893 41.9985 82.9961 41.9959 82.7115C42.3796 82.7392 42.7609 82.7941 43.1369 82.8758C45.9348 81.9652 49.1933 80.4232 51.8594 77.8283C55.6172 74.1714 57.3131 69.2856 58.0569 66.1371C57.4994 66.1293 56.9522 66.1474 56.5447 66.3194C56.8228 66.1888 56.3869 66.159 56.3183 66.106C56.3213 66.1097 56.3234 66.114 56.3246 66.1186C56.3257 66.1232 56.3259 66.128 56.325 66.1326C56.3242 66.1373 56.3223 66.1417 56.3196 66.1456C56.3169 66.1495 56.3134 66.1528 56.3093 66.1552C56.2235 66.1634 56.137 66.1536 56.0552 66.1264C55.9735 66.0992 55.8983 66.0553 55.8345 65.9973H54.7699V65.9094C54.7343 65.9074 54.6986 65.9127 54.6651 65.9249C54.66 65.8369 54.3857 65.8602 54.0791 65.8615C54.6936 65.9611 54.2771 66.0517 54.5526 66.1901C54.2147 66.2078 53.877 66.1499 53.5643 66.0206C53.4983 65.9973 53.4311 65.9741 53.3599 65.9521C53.3431 65.9469 53.325 65.9417 53.3069 65.9365C53.2919 65.9343 53.2775 65.9295 53.2642 65.9223C53.2474 65.9133 53.2306 65.9042 53.2138 65.8964C53.1403 65.8621 53.0577 65.8525 52.9783 65.8693C52.9027 65.9077 52.8249 65.9418 52.7455 65.9715C52.7214 65.9576 52.6992 65.9406 52.6795 65.921C52.7746 65.8229 52.8381 65.6986 52.8619 65.564C52.871 65.5148 52.8748 65.4735 52.8826 65.4398C52.8904 65.3583 52.902 65.3066 52.9253 65.3118C52.8464 65.1488 52.7998 64.9095 52.6718 64.9457L52.6769 64.9107L52.6808 64.8603C52.6821 64.8254 52.6847 64.7904 52.686 64.7542C52.6886 64.6818 52.6899 64.608 52.6899 64.533C52.6886 64.4063 52.6847 64.2795 52.6821 64.1579C50.8607 64.7136 49.1073 65.4716 47.4548 66.4178C46.0494 67.2234 44.749 68.1997 43.5831 69.3244C41.2495 71.5959 39.7115 74.3409 38.7051 76.8491V76.8504L38.7038 76.8517C37.9238 78.7997 37.3552 80.8258 37.0079 82.8952Z" fill="#3F3D56"/>
<path d="M30.7354 82.9379H30.7278C30.7297 82.939 30.7317 82.9395 30.7338 82.9394L30.7354 82.9379Z" fill="#3F3D56"/>
<path d="M15.0689 62.982C15.0689 62.982 15.8037 71.9775 21.8136 77.8283C24.5042 80.4478 27.7964 81.9936 30.6112 82.9004C30.6332 82.7128 31.1816 82.934 31.5012 82.8797C31.7586 82.9081 32.0173 83.0789 31.7948 83.1306C32.7572 83.0155 34.0301 83.0556 35.0417 83.0065C35.4683 83.0005 35.8926 82.9405 36.3042 82.8279C36.387 82.8344 36.4685 82.8409 36.5487 82.8473C36.5862 82.8512 36.6237 82.8551 36.6599 82.859C36.3114 80.7987 35.7442 78.7814 34.9679 76.8413C33.9589 74.3357 32.4209 71.5933 30.0912 69.3257C28.9255 68.2007 27.6251 67.2244 26.2195 66.419C20.8357 63.2963 15.0689 62.982 15.0689 62.982Z" fill="#3F3D56"/>
<path d="M91.6353 10.6946C91.6353 10.6946 93.988 15.4001 97.6241 16.4696C101.26 17.539 88.8548 16.4696 88.8548 16.4696C88.8548 16.4696 89.4964 13.0474 88.6409 12.6196C87.7853 12.1918 91.6353 10.6946 91.6353 10.6946Z" fill="#A0616A"/>
<path d="M95.437 2.61062C95.5649 1.49574 94.9552 0.510049 94.075 0.409039C94.065 0.407893 94.0552 0.408451 94.0452 0.407543C94.1553 0.391367 94.2669 0.389541 94.3774 0.40211C95.2576 0.50312 95.8673 1.48881 95.7394 2.60369C95.6129 3.70592 94.8125 4.5202 93.9438 4.44092C94.6889 4.3327 95.3253 3.58337 95.437 2.61062Z" fill="#2F2E41"/>
<path d="M94.6478 4.12222C95.7107 3.76229 96.342 2.79026 96.0579 1.95112C96.0546 1.94162 96.05 1.93297 96.0465 1.92357C96.1081 2.01617 96.1574 2.11638 96.1932 2.22167C96.4773 3.06081 95.846 4.03283 94.7831 4.39275C93.7322 4.74858 92.6543 4.3721 92.3554 3.5526C92.7711 4.18032 93.7204 4.43625 94.6478 4.12222Z" fill="#2F2E41"/>
<path d="M102.003 24.7351L101.688 33.7943L96.7689 45.3442C96.7689 45.3442 98.0522 51.3329 95.4856 51.1191C92.919 50.9052 95.2717 45.1303 95.2717 45.1303L97.6245 32.9388L98.0522 22.8862L102.003 24.7351Z" fill="#A0616A"/>
<path d="M88.2132 13.9029C85.6145 13.9029 83.5077 11.7961 83.5077 9.19738C83.5077 6.59861 85.6145 4.4919 88.2132 4.4919C90.812 4.4919 92.9187 6.59861 92.9187 9.19738C92.9187 11.7961 90.812 13.9029 88.2132 13.9029Z" fill="#A0616A"/>
<path d="M84.3635 17.3251L89.0008 15.4725C89.0008 15.4725 89.9246 15.614 92.4912 15.8279C95.0578 16.0418 96.1975 15.84 96.1975 15.84C96.1975 15.84 101.688 17.7529 101.474 18.8223C101.26 19.8917 98.9078 36.7887 97.8383 35.9331C96.7689 35.0776 96.1272 34.8637 96.1272 34.8637L84.3635 33.7943V17.3251Z" fill="#CFCCE0"/>
<path d="M100.619 18.3945H101.315C101.315 18.3945 102.116 18.8222 102.116 20.1056C102.116 21.3889 102.758 25.2388 102.758 25.2388H99.3354L100.619 18.3945Z" fill="#CFCCE0"/>
<path d="M94.3091 20.4264L96.8925 16.2533C96.9513 16.1582 97.0362 16.0821 97.137 16.0339C97.2379 15.9856 97.3504 15.9674 97.4613 15.9813L98.135 16.0655C98.2178 16.0758 98.2975 16.1038 98.3686 16.1476C98.4397 16.1913 98.5005 16.2498 98.5471 16.3191C98.5937 16.3884 98.6248 16.4669 98.6385 16.5492C98.6522 16.6316 98.648 16.7159 98.6263 16.7965L97.3035 21.7097C97.3035 21.7097 95.212 30.3892 97.2203 35.0326L97.3035 37.1095C97.3035 37.1095 99.2285 43.526 98.8007 48.4454C98.373 53.3648 98.1591 57.6425 98.1591 57.6425C98.1591 57.6425 99.2285 60.8508 98.8007 61.9202C98.6724 62.241 98.6981 62.7158 98.7969 63.2234C99.4 66.3214 99.5557 69.4899 99.4705 72.6449L99.4424 73.6839C99.4424 73.6839 100.94 74.9672 99.6563 75.1811C98.373 75.395 94.3091 75.8228 94.3091 75.8228C94.3091 75.8228 93.4536 74.3255 93.8814 74.1117L92.5981 67.0534C92.5981 67.0534 90.4592 64.0591 90.6731 62.1341C90.6731 62.1341 90.0314 58.9258 90.6731 57.4286L90.4592 48.0176L89.6037 59.3536L90.887 73.47C90.887 73.47 92.5981 74.7533 91.5286 75.1811C90.4592 75.6089 83.8287 77.7477 83.8287 76.6783C83.8287 75.6089 84.2565 75.1811 84.2565 75.1811L81.476 46.3065L82.9732 34.329C82.9732 34.329 93.0258 33.4734 92.1703 22.1375C92.1703 22.1375 89.7109 17.0295 87.283 16.0657C87.2555 16.0554 87.2318 16.0367 87.2155 16.0123C87.1992 15.9878 87.191 15.9588 87.1921 15.9294C87.1932 15.9 87.2036 15.8717 87.2217 15.8486C87.2399 15.8254 87.2649 15.8086 87.2931 15.8005L88.2788 15.5189C88.3056 15.5109 88.3343 15.5114 88.3608 15.5204C88.7885 15.6652 92.4968 17.0031 94.3091 20.4264Z" fill="#0C6360"/>
<path d="M89.3899 74.9672L89.4241 75.2747C89.6541 77.2341 90.2911 79.1238 91.2943 80.8226C91.7732 81.6457 92.1399 82.5755 91.9565 83.3088C91.5288 85.0199 91.7427 85.6615 91.7427 85.6615H88.3205V85.0199L86.4099 85.541C85.9838 85.6639 85.5299 85.65 85.1122 85.5011C84.6844 85.3407 84.2567 85.0199 84.2567 84.3782C84.2567 83.8435 84.6651 83.3459 85.1417 82.9473C86.1464 82.1233 86.8742 81.0111 87.2271 79.7605L87.2511 79.6727L85.9677 74.9672L89.3899 74.9672Z" fill="#2F2E41"/>
<path d="M98.2659 75.0742L98.3001 75.3817C98.5301 77.3411 99.1671 79.2307 100.17 80.9295C100.649 81.7526 101.016 82.6824 100.833 83.4157C100.405 85.1268 100.619 85.7684 100.619 85.7684H97.1965V85.1268L95.2858 85.6479C94.8598 85.7709 94.4059 85.7569 93.9882 85.608C93.5604 85.4476 93.1326 85.1268 93.1326 84.4851C93.1326 83.9504 93.5411 83.4528 94.0176 83.0543C95.0223 82.2303 95.7502 81.118 96.1031 79.8675L96.127 79.7797L94.8437 75.0742H98.2659Z" fill="#2F2E41"/>
<path d="M87.2636 9.99136C87.2636 9.99136 83.8928 8.04402 82.5875 7.92598C82.5875 7.92598 82.2074 7.07034 82.6173 6.24703C82.6173 6.24703 82.8162 3.60567 86.1132 3.70827C86.1132 3.70827 90.0074 1.59876 91.3147 2.46003C92.622 3.3213 95.5329 7.45406 94.3034 9.924C94.3034 9.924 95.7248 10.6392 95.7924 10.2542C95.86 9.86922 96.916 10.9033 95.5219 11.794C95.5219 11.794 97.4732 13.7695 95.5764 15.0058C95.5764 15.0058 95.6632 13.2538 94.5628 12.7241C93.4625 12.1944 94.4255 12.7508 94.4255 12.7508C94.4255 12.7508 96.3093 15.1112 93.4958 16.03C93.4958 16.03 94.5457 14.8344 93.4897 13.8003C93.4897 13.8003 93.8168 16.2155 91.8715 16.4698C91.8715 16.4698 92.8749 15.0353 92.347 14.5183C92.347 14.5183 92.1228 16.297 91.0245 16.5105L90.2007 16.6707L89.9221 15.2376C89.9221 15.2376 90.7055 17.0683 88.8742 17.1764C88.8742 17.1764 89.7596 14.4016 88.5875 12.7704C87.4155 11.1392 87.2636 9.99136 87.2636 9.99136Z" fill="#2F2E41"/>
<path d="M92.4957 3.96323C91.8182 3.06866 91.8414 1.90984 92.5477 1.37494C93.2539 0.840044 94.3757 1.13162 95.0532 2.0262C95.7308 2.92077 95.7075 4.07959 95.0013 4.61448C94.295 5.14938 93.1732 4.85781 92.4957 3.96323Z" fill="#2F2E41"/>
<path d="M92.028 2.89218C92.4535 3.05339 92.8238 3.33346 93.0947 3.69906C93.3358 4.01251 93.4963 4.38025 93.5623 4.7701C93.1367 4.60889 92.7664 4.32883 92.4955 3.96323C92.2545 3.64978 92.0939 3.28203 92.028 2.89218V2.89218Z" fill="#E3684E"/>
<path d="M75.6978 43.6355L75.9695 43.273L73.9974 41.7952C73.7633 41.6193 73.5798 41.3848 73.4651 41.1154C73.3505 40.846 73.3089 40.5512 73.3444 40.2605L74.3214 32.3714C74.3915 31.7986 74.3096 31.2175 74.0837 30.6865C73.8578 30.1555 73.4959 29.6934 73.0346 29.3468L70.8851 27.736C70.4773 27.4312 69.9652 27.3005 69.4612 27.3727C68.9572 27.4449 68.5024 27.7141 68.1966 28.1212L67.6988 28.7855L68.0614 29.0572L68.5592 28.3929C68.7928 28.0818 69.1403 27.8761 69.5254 27.8209C69.9105 27.7658 70.3018 27.8656 70.6134 28.0986L72.7629 29.7093C73.1604 30.008 73.4722 30.4062 73.6669 30.8638C73.8616 31.3213 73.9323 31.8221 73.8718 32.3156L72.8949 40.2049C72.8496 40.5747 72.9025 40.9499 73.0484 41.2927C73.1942 41.6355 73.4279 41.9339 73.7257 42.1577L75.6978 43.6355Z" fill="#CFCCE0"/>
<path d="M74.9946 44.3043L73.3867 42.1868L73.9302 41.4618L76.3409 42.5077L86.8645 49.7795L85.0016 52.2655L74.9946 44.3043Z" fill="#CFCCE0"/>
<path d="M67.4149 27.6428L69.4452 29.1642C70.0001 29.58 70.1129 30.3669 69.697 30.9219L60.2776 43.4918C59.8618 44.0467 59.0749 44.1594 58.52 43.7436L56.4897 42.2222C55.9348 41.8064 55.822 41.0194 56.2379 40.4645L65.6573 27.8946C66.0731 27.3397 66.86 27.227 67.4149 27.6428Z" fill="#E6E6E6"/>
<path opacity="0.2" d="M62.8598 51.7487L63.0827 51.4513L63.1273 51.3918C63.0516 51.4928 62.9966 51.6077 62.9653 51.73C62.934 51.8523 62.9271 51.9796 62.945 52.1046C62.9629 52.2295 63.0053 52.3497 63.0696 52.4583C63.134 52.5669 63.2191 52.6618 63.3201 52.7375L64.8752 53.9028C65.0792 54.0557 65.3356 54.1213 65.588 54.0851C65.8404 54.049 66.0681 53.914 66.2209 53.71L66.1764 53.7695L65.9535 54.067C65.8006 54.271 65.5729 54.4059 65.3205 54.4421C65.0682 54.4782 64.8118 54.4127 64.6077 54.2598L63.0526 53.0944C62.8486 52.9416 62.7137 52.7139 62.6775 52.4615C62.6414 52.2091 62.707 51.9528 62.8598 51.7487V51.7487Z" fill="black"/>
<path d="M67.4713 45.3948C67.4855 45.3809 67.4974 45.3697 67.4978 45.3758C67.4842 45.3922 67.4753 45.3965 67.4713 45.3948Z" fill="#E3684E"/>
<path d="M67.7151 45.0111C67.7167 45.0006 67.7223 44.991 67.7307 44.9845L67.7151 45.0111Z" fill="#E3684E"/>
<path d="M65.9584 47.4473C65.9729 47.4519 65.945 47.4829 65.9267 47.5127L65.9584 47.4473Z" fill="#E3684E"/>
<path d="M65.1975 48.4264L65.1844 48.4438C65.1762 48.4459 65.1677 48.4471 65.1592 48.4475L65.1975 48.4264Z" fill="#E3684E"/>
<path d="M64.7166 49.1433C64.7077 49.1433 64.699 49.1451 64.6909 49.1486C64.6827 49.1521 64.6754 49.1572 64.6693 49.1636C64.6618 49.1576 64.6564 49.1495 64.6536 49.1404C64.6646 49.123 64.6988 49.1398 64.7166 49.1433Z" fill="#E3684E"/>
<path d="M63.2251 51.2153L63.2324 51.228C63.228 51.2335 63.2231 51.2386 63.2176 51.2431L63.2251 51.2153Z" fill="#E3684E"/>
<path d="M68.1895 44.2929L68.188 44.2959C68.1735 44.309 68.1805 44.3007 68.1895 44.2929Z" fill="#E3684E"/>
<path d="M68.9004 32.5901C68.9334 32.4732 68.745 32.704 68.8084 32.5384C68.8142 32.5626 68.9624 32.46 68.9004 32.5901Z" fill="#E3684E"/>
<path d="M64.7156 28.7511C64.7188 28.7617 64.7193 28.7729 64.7173 28.7837C64.7139 28.7801 64.7125 28.772 64.7156 28.7511Z" fill="#E3684E"/>
<path d="M65.5086 28.1791C65.5373 28.197 65.5627 28.2198 65.5835 28.2466C65.5787 28.2456 65.5741 28.2441 65.5698 28.2419C65.5554 28.2158 65.5343 28.1941 65.5086 28.1791V28.1791Z" fill="#E3684E"/>
<path d="M66.3025 28.9218C66.296 28.9206 66.2896 28.9191 66.2833 28.9171L66.2626 28.8954L66.3025 28.9218Z" fill="#E3684E"/>
<path d="M56.6679 39.8077C56.6947 39.8401 56.7471 39.8823 56.7707 39.8682L56.724 39.7846C56.7274 39.7807 56.7304 39.7764 56.7336 39.7722C56.7307 39.7683 56.7276 39.7646 56.7247 39.7606L57.3952 38.8659L57.3777 38.8669L57.4085 38.848L57.4935 38.7346C57.4827 38.7322 57.4689 38.7356 57.4487 38.7556C57.4832 38.6503 57.5249 38.6965 57.5473 38.6006C57.5483 38.589 57.5428 38.5905 57.535 38.5962L57.6137 38.5269C57.5895 38.534 57.5833 38.4829 57.5538 38.5395C57.6311 38.3673 57.775 38.3342 57.773 38.2461L57.7602 38.2558C57.8893 38.1139 57.8573 38.1907 57.9016 38.19L57.9732 38.0944L57.9549 37.9703L58.0121 37.9818C58.0264 37.9595 58.0545 37.9154 58.0319 37.9105C58.1195 37.8537 58.0402 37.9376 58.1016 37.9125C58.1392 37.7822 58.3293 37.6461 58.2792 37.5729C58.3386 37.5605 58.2312 37.6885 58.3347 37.5968C58.2856 37.5118 58.441 37.4808 58.4773 37.3633C58.4186 37.3638 58.3726 37.4664 58.4088 37.3487C58.5138 37.34 58.5303 37.1578 58.601 37.0886C58.6539 37.1225 58.7494 36.9342 58.8644 36.8155C58.9327 36.6763 59.0098 36.5416 59.0953 36.4122L59.0841 36.4095C59.1526 36.4238 59.2374 36.2907 59.3166 36.2069C59.2835 36.1877 59.2592 36.1953 59.2084 36.2347L59.2732 36.1487C59.3163 36.1332 59.3538 36.1053 59.3811 36.0685L59.327 36.0618C59.4417 35.9524 59.5434 35.8302 59.6301 35.6976C59.6583 35.7099 59.6542 35.7917 59.6919 35.8009L59.7504 35.7228C59.7418 35.7191 59.7322 35.7184 59.723 35.7205C59.7139 35.7227 59.7057 35.7278 59.6996 35.735C59.7122 35.7235 59.7513 35.6992 59.7633 35.6661L59.6844 35.7043C59.7206 35.6265 59.7376 35.6893 59.7749 35.6333C59.7468 35.6139 59.7853 35.5789 59.7578 35.5704C59.7449 35.5822 59.7339 35.6258 59.7078 35.6383C59.7476 35.5819 59.7738 35.5171 59.7846 35.449C59.7961 35.4659 59.8213 35.4765 59.8581 35.4348C59.9461 35.3215 59.8547 35.3709 59.8909 35.2934C59.9306 35.2799 59.9658 35.1919 60.0081 35.2206C60.033 35.1869 60.0187 35.1664 60.0173 35.1452C60.0798 35.0992 60.2303 34.8716 60.2236 34.9711L60.215 34.9884L60.2241 34.9801C60.4105 34.8158 60.504 34.5584 60.6662 34.3784L60.6523 34.3685C60.7417 34.2578 60.8395 34.1541 60.9448 34.0584C60.9703 34.0243 60.9802 33.9593 60.953 33.9617C61.0263 33.9012 61.0851 33.825 61.1249 33.7387C61.0347 33.8095 61.1267 33.6923 61.0394 33.8164C61.1135 33.6931 61.111 33.6508 61.2405 33.5558C61.1742 33.5715 61.2611 33.4366 61.3123 33.39L61.2772 33.489C61.3231 33.4355 61.3651 33.3787 61.4029 33.3192L61.3349 33.3141C61.4546 33.0379 61.7467 32.9629 61.7868 32.7143C61.8654 32.6764 61.714 32.8586 61.7932 32.8313C61.8412 32.7322 61.8807 32.6291 61.9111 32.5233C61.9963 32.3566 62.0815 32.4358 62.1798 32.2683C62.1814 32.3003 62.2112 32.3518 62.3132 32.2479C62.3879 32.1355 62.3438 32.0638 62.2796 32.122C62.2588 32.1468 62.2547 32.1632 62.261 32.1663C62.229 32.1967 62.1877 32.2371 62.2019 32.1811L62.2288 32.1794C62.2521 32.1133 62.3651 31.9663 62.3121 31.981C62.3888 31.9112 62.3651 31.9663 62.3284 32.033C62.4083 31.8769 62.4896 31.8163 62.5804 31.662C62.5724 31.6914 62.5761 31.7267 62.5928 31.704C62.729 31.4799 62.6928 31.6354 62.8061 31.4992C62.8413 31.4001 62.7248 31.4833 62.8525 31.3565C62.9008 31.2569 62.8228 31.3055 62.7835 31.3301C62.8756 31.2332 62.9472 31.1187 62.9942 30.9935L62.9298 31.052C62.9628 31.0209 62.9926 30.9864 63.0186 30.9492L63.0221 31.0128C63.0465 30.9683 63.0719 30.9343 63.0576 30.9248C63.1101 30.8995 63.0884 30.9973 63.1793 30.9373C63.2028 30.8713 63.3193 30.7877 63.2897 30.7366C63.1783 30.916 63.2599 30.6852 63.1461 30.8224C63.1765 30.7928 63.2019 30.7584 63.2212 30.7206C63.2209 30.7109 63.208 30.7195 63.1972 30.7286C63.279 30.5384 63.3019 30.6915 63.426 30.5238C63.3856 30.5266 63.4085 30.4503 63.4341 30.427C63.3842 30.4946 63.4509 30.4898 63.516 30.4422C63.5771 30.3208 63.6173 30.3365 63.6571 30.2788L63.6181 30.3495C63.6589 30.3462 63.6958 30.2903 63.7594 30.2214C63.7451 30.2007 63.6955 30.2793 63.707 30.2464C63.8122 30.1959 63.8027 30.0258 63.9183 29.932C63.9418 29.8661 63.8761 29.8923 63.9001 29.8369C64.0289 29.7313 63.9715 29.6715 64.0998 29.5551C64.1033 29.619 64.0901 29.6199 64.1941 29.5481L64.0032 29.7545L64.1587 29.6468C64.1086 29.7147 64.0313 29.7738 64.0066 29.8184C64.0847 29.7701 64.0712 29.771 64.0744 29.8238C64.0942 29.6944 64.2404 29.6623 64.2871 29.5305L64.203 29.4726C64.2869 29.2848 64.4586 29.2187 64.5943 28.9949L64.5583 29.0725C64.6117 29.0688 64.6593 28.9472 64.723 28.8895C64.691 28.8754 64.7127 28.8257 64.7173 28.7842C64.7349 28.8029 64.8298 28.6303 64.8985 28.6521L64.9323 28.5321C65.0359 28.3633 65.1752 28.37 65.3103 28.1703C65.2819 28.1773 65.2826 28.1509 65.2775 28.1344C65.2717 28.1189 65.2596 28.1138 65.1887 28.1863C65.253 28.1 65.3109 28.0123 65.316 28.0449C65.3206 28.0342 65.3264 28.024 65.3334 28.0147L65.3454 27.9992C65.3497 27.9947 65.3554 28.0076 65.3607 28.0118L65.4336 28.1015C65.4693 28.1562 65.5158 28.2029 65.5703 28.2388C65.5943 28.2832 65.5865 28.3255 65.6567 28.3902C65.6688 28.3923 65.6671 28.3768 65.6671 28.3768C65.664 28.398 65.7427 28.4808 65.669 28.4629C65.8918 28.5294 66.0857 28.8666 66.2823 28.9184C66.3835 29.0248 66.5088 29.1498 66.6086 29.2378C66.6088 29.2245 66.6193 29.2247 66.598 29.2109C66.7575 29.3064 66.6195 29.3598 66.8034 29.4666C66.9207 29.4925 66.7371 29.3727 66.8017 29.3993C66.8955 29.3315 66.9851 29.5727 67.1367 29.6085L67.1144 29.5822C67.221 29.6199 67.2921 29.7784 67.4365 29.8785C67.4365 29.8785 67.4358 29.8654 67.446 29.8644C67.5451 30.0094 67.6667 30.1378 67.8062 30.2447C67.7888 30.1785 67.7572 30.1814 67.8093 30.1637C67.8673 30.2126 67.7493 30.209 67.8657 30.3068C67.9197 30.3158 68.0207 30.3616 68.0599 30.3298L67.945 30.2463C68.0391 30.2387 68.0946 30.3529 68.1628 30.386L68.1699 30.3584C68.3442 30.488 68.311 30.5443 68.5103 30.668L68.479 30.6721C68.5515 30.798 68.5903 30.6968 68.6727 30.8066L68.7411 30.7687C68.8497 30.8744 68.9655 30.9726 69.0876 31.0625C69.0066 30.9617 68.9166 30.8684 68.8187 30.7839C68.9172 30.8342 69.0062 30.9012 69.0818 30.982C69.0558 30.9595 69.0276 30.9236 68.9936 30.916C69.0746 31.031 69.1839 31.1231 69.311 31.1833C69.3233 31.1155 69.4685 31.1812 69.6443 31.2671L69.7107 31.2996L69.7445 31.3162C69.7554 31.3218 69.7732 31.3258 69.7587 31.3373C69.7317 31.376 69.7056 31.4143 69.6828 31.4508C69.642 31.508 69.613 31.5728 69.5974 31.6413C69.5603 31.6835 69.5235 31.7253 69.4868 31.767C69.4623 31.7951 69.439 31.824 69.4164 31.8537C69.3713 31.9132 69.3292 31.9758 69.2873 32.0403C69.2035 32.1694 69.1201 32.3065 69.0131 32.4428C69.0045 32.2828 68.9501 32.522 68.8784 32.4416C68.8254 32.5013 68.8082 32.5269 68.8089 32.5371L68.8154 32.5212L68.8088 32.5382L68.8086 32.538L68.7125 32.7712C68.7024 32.836 68.7772 32.7237 68.7917 32.7439C68.6922 32.8901 68.7831 32.83 68.7354 32.9403C68.7196 32.8985 68.6553 32.9571 68.6065 33.0463L68.6525 32.9036C68.4595 33.0675 68.5955 33.1275 68.4017 33.2933L68.4755 33.2502C68.3832 33.3407 68.1936 33.6276 68.0506 33.6769C68.0468 33.7023 68.0521 33.7435 68.0919 33.7031C67.919 33.9549 67.6123 34.1926 67.5119 34.4137L67.5464 34.4106C67.5063 34.4517 67.4481 34.4608 67.4262 34.5335C67.437 34.5369 67.4606 34.5306 67.446 34.5526C67.3823 34.5959 67.3279 34.6514 67.2859 34.7159L67.3478 34.6817C67.1963 34.9402 67.0172 35.0048 66.8534 35.194C66.9146 35.239 66.7939 35.4413 66.7337 35.5422L66.7447 35.5454C66.5537 35.7834 66.3466 36.008 66.1249 36.2177C66.0714 36.4266 65.7478 36.7785 65.5928 37.0625C65.6111 37.0151 65.5406 37.0334 65.5004 37.0744C65.4676 37.1437 65.3336 37.209 65.3966 37.2413L65.4115 37.219C65.4323 37.3053 65.3251 37.418 65.2543 37.5156L65.1694 37.4769C65.0864 37.8088 64.6349 38.109 64.6267 38.318C64.5628 38.3652 64.5065 38.4408 64.443 38.4875L64.4846 38.5136C64.3813 38.676 64.2676 38.8316 64.1442 38.9794L64.2041 38.9578C64.1184 39.0773 63.9799 39.0218 63.8963 39.1287L63.9302 39.2051C63.7755 39.4096 63.6711 39.6558 63.4661 39.819C63.4772 39.8221 63.4986 39.8287 63.5258 39.7972C63.4549 39.895 63.2853 40.2006 63.2314 40.1055C63.2818 40.147 63.0778 40.3211 62.9717 40.4147L63.0232 40.4263C62.9264 40.4583 62.8409 40.5173 62.7766 40.5963C62.7584 40.6311 62.7871 40.6466 62.8081 40.5981C62.7509 40.7164 62.7114 40.6511 62.6381 40.7916L62.6977 40.7634C62.6815 40.794 62.6594 40.8209 62.6326 40.8428C62.6058 40.8646 62.5749 40.8808 62.5417 40.8905C62.4763 40.9456 62.4005 41.0991 62.4236 41.1409C62.3935 41.146 62.365 41.1583 62.3405 41.1766C62.316 41.1949 62.2963 41.2188 62.2829 41.2463C62.2897 41.2646 62.3149 41.2479 62.3275 41.2394C62.2207 41.4366 62.0849 41.4698 62.0312 41.6203C62.0359 41.6253 62.039 41.6314 62.0403 41.6381C62.0417 41.6448 62.0411 41.6517 62.0388 41.6581C62.1435 41.5164 62.2265 41.4012 62.2157 41.4098C62.2512 41.4364 62.1721 41.5549 62.289 41.501C62.1581 41.5813 62.0437 41.6857 61.9519 41.8088C61.9508 41.8167 61.9513 41.8249 61.9532 41.8327L61.9658 41.8241C61.9511 41.8499 61.9313 41.8724 61.9075 41.89C61.8908 41.9249 61.8714 41.9583 61.8492 41.99C61.8687 42.0251 61.7672 42.1325 61.726 42.1904C61.6907 42.1566 61.6412 42.2356 61.6614 42.1419C61.6574 42.153 61.674 42.1347 61.704 42.0981C61.7106 42.0903 61.7181 42.0832 61.7261 42.0769L61.7198 42.0782L61.8282 41.939C61.7978 41.9527 61.7705 41.9725 61.748 41.9971C61.7256 42.0218 61.7084 42.0509 61.6976 42.0825C61.6508 42.0929 61.6011 42.1058 61.5755 42.1148C61.5714 42.2331 61.4884 42.4049 61.5062 42.4508C61.4303 42.5293 61.3502 42.6288 61.2697 42.7154C61.2309 42.7575 61.1897 42.7975 61.1465 42.8351C61.1064 42.8781 61.0584 42.9129 61.005 42.9376C60.9831 42.9584 60.9676 42.9851 60.9605 43.0145C60.9537 43.0397 60.9428 43.0373 60.9302 43.0443C60.9424 43.0517 60.9555 43.0575 60.9693 43.0616L60.995 43.0334C61.0073 43.018 61.0222 43.0048 61.0391 42.9944C61.0049 43.0172 60.9817 43.1009 60.9151 43.0481L60.7434 42.9782C60.7035 42.9633 60.6654 42.9441 60.6297 42.9207C60.6049 42.9035 60.5891 42.8864 60.5877 42.8688C60.4314 42.8376 60.6493 42.9564 60.4517 42.8666L60.4719 42.8956C60.0307 42.8293 59.9019 42.4796 59.433 42.366C59.4656 42.3748 59.4817 42.3794 59.4928 42.3733C58.9897 42.1615 58.5916 41.7368 58.1324 41.4647C58.0043 41.3819 58.0213 41.3374 57.9737 41.2536L57.9146 41.2702L57.8395 41.1204C57.7122 40.9355 57.473 40.9416 57.3404 40.677L57.3912 40.6796C57.3162 40.6112 57.1941 40.4274 57.1742 40.4672C57.1763 40.454 57.1741 40.4404 57.1679 40.4285C57.1617 40.4165 57.1519 40.4069 57.1399 40.4009L57.1172 40.4164C57.0744 40.344 57.035 40.2692 56.9942 40.1961C56.8577 40.0595 56.927 40.2901 56.7483 40.0716C56.6921 39.9817 56.6292 39.7874 56.6679 39.8077ZM57.5955 38.5858C57.5942 38.5906 57.5937 38.5956 57.594 38.6005L57.6283 38.5547C57.6176 38.5647 57.6071 38.5741 57.5955 38.5858V38.5858ZM61.7832 42.0678L61.7751 42.0687C61.7852 42.0712 61.7958 42.0711 61.8058 42.0684C61.8396 42.0347 61.8415 42.0163 61.8374 42.0052C61.8234 42.0225 61.8064 42.0424 61.7832 42.0678V42.0678Z" fill="#E3684E"/>
<path d="M67.0454 53.0003C67.0412 53.0036 67.0373 53.0072 67.0337 53.0111C67.0355 53.0032 67.0377 52.9954 67.0403 52.9877L67.0581 52.9843L67.0454 53.0003Z" fill="#E3684E"/>
<path d="M65.9146 47.5374C65.9134 47.5405 65.9128 47.5439 65.9129 47.5473C65.913 47.5453 65.9129 47.5432 65.9126 47.5412L65.9146 47.5374Z" fill="#E3684E"/>
<path d="M64.2323 49.7254C64.3045 49.5577 64.236 49.774 64.342 49.6229L64.2662 49.7421C64.2695 49.7137 64.2734 49.6763 64.2323 49.7254Z" fill="#E3684E"/>
<path d="M64.5619 49.2462C64.6014 49.2155 64.6111 49.2081 64.5871 49.2612C64.536 49.3181 64.5708 49.2479 64.5619 49.2462Z" fill="#E3684E"/>
<path d="M66.4795 46.7357L66.4476 46.7215C66.4868 46.6774 66.4585 46.7289 66.4795 46.7357Z" fill="#E3684E"/>
<path d="M66.9823 45.946L67.051 45.8749L67.0016 45.9283L66.9823 45.946Z" fill="#E3684E"/>
<path d="M66.2 28.7745L66.1439 28.8005C66.1112 28.7565 66.1463 28.7017 66.2 28.7745Z" fill="#E3684E"/>
<path d="M68.6555 30.7008C68.6033 30.6806 68.5528 30.6561 68.5046 30.6278C68.5337 30.627 68.5626 30.6333 68.5889 30.646C68.6151 30.6587 68.638 30.6775 68.6555 30.7008V30.7008Z" fill="#E3684E"/>
<path d="M65.1853 37.6008L65.1048 37.6829L65.1344 37.6384L65.1853 37.6008Z" fill="#E3684E"/>
<path d="M87.2444 24.0934L86.93 33.1526L82.0106 44.7024C82.0106 44.7024 83.2939 50.6912 80.7273 50.4773C78.1607 50.2634 80.5134 44.4885 80.5134 44.4885L82.8662 32.297L83.2939 22.2444L87.2444 24.0934Z" fill="#A0616A"/>
<path d="M85.4328 17.7529L85.3153 16.9449L84.3635 17.3253L81.369 22.0306L87.5718 25.2389L85.4328 17.7529Z" fill="#CFCCE0"/>
</svg>
