<svg width="84" height="87" viewBox="0 0 84 87" fill="none" xmlns="http://www.w3.org/2000/svg">
<path d="M43.1445 86.2121C43.1445 86.2121 55.7505 80.697 63.9051 60.3303C72.0596 39.9636 68.6324 10.8121 73.0839 0.333328C73.0839 0.333328 49.7233 18.297 40.7808 41.5788C29.7505 70.297 43.1445 86.2121 43.1445 86.2121Z" fill="#008981"/>
<path d="M61.3448 65.9636C51.6539 71.7545 44.957 76.1272 44.8782 76.206L45.0751 76.5212C45.1539 76.4818 51.5751 72.2272 60.9509 66.6333C61.1085 66.3969 61.2267 66.1606 61.3448 65.9636Z" fill="#041E1D"/>
<path d="M46.1388 70.2182L46.4934 70.0606C46.4146 69.903 42.2782 60.3697 37.6691 51.7818C37.6298 51.9788 37.5904 52.1757 37.551 52.3727C42.0813 60.8424 46.0994 70.0606 46.1388 70.2182Z" fill="#041E1D"/>
<path d="M47.675 63.7576L47.872 64.0727C47.9901 63.9939 57.7598 57.7697 66.072 53.5939C66.1114 53.4364 66.1507 53.2394 66.1901 53.0818C57.7992 57.297 47.7932 63.6788 47.675 63.7576Z" fill="#041E1D"/>
<path d="M48.8571 58.9515L49.251 58.8727C49.2116 58.7545 47.1238 48.4333 41.9631 38.6636C41.8844 38.8212 41.845 38.9788 41.7662 39.1363C46.7692 48.7485 48.8571 58.7939 48.8571 58.9515Z" fill="#041E1D"/>
<path d="M52.2842 47.2909L52.4024 47.6454C52.4812 47.6061 59.8873 45.1242 68.16 43.7454C68.1994 43.6273 68.1994 43.4697 68.2388 43.3515C59.8479 44.7303 52.363 47.2515 52.2842 47.2909Z" fill="#041E1D"/>
<path d="M54.4115 40.5151L54.8055 40.4757C54.8055 40.3575 53.9782 30.1545 51.3388 22.8272C51.26 22.9454 51.1418 23.0636 51.063 23.2212C53.5843 30.4697 54.4115 40.3969 54.4115 40.5151Z" fill="#041E1D"/>
<path d="M57.4841 33.1091C57.5629 33.0697 63.6296 30.2333 69.7356 28.5788C69.7356 28.4212 69.7356 28.303 69.775 28.1848C63.5902 29.8394 57.4053 32.7151 57.3265 32.7545L57.4841 33.1091Z" fill="#041E1D"/>
<path d="M59.5326 27.2L59.9265 27.2788C59.9265 27.2 60.872 22.0788 60.3993 12.0727C60.2811 12.1909 60.1629 12.3485 60.0053 12.4666C60.4387 22.1576 59.5326 27.1606 59.5326 27.2Z" fill="#041E1D"/>
<path d="M61.9358 21.9606L62.1328 22.3151C62.2115 22.2757 65.7964 20.0697 70.4055 17.6272C70.4055 17.4697 70.4449 17.3121 70.4449 17.1545C65.7176 19.6363 62.0146 21.9212 61.9358 21.9606Z" fill="#041E1D"/>
<path d="M39.7962 102.088C39.7962 102.088 39.8356 101.733 39.9144 101.103C39.9932 100.473 40.1114 99.5273 40.3083 98.3455C40.4659 97.1636 40.7023 95.7061 40.978 94.0909C41.2538 92.4364 41.5689 90.5848 41.9235 88.5758C42.278 86.5667 42.672 84.3606 43.1447 82.0758C43.3811 80.9333 43.578 79.7515 43.8538 78.5303C44.1295 77.3091 44.3659 76.0879 44.6417 74.8273C44.9174 73.5667 45.1932 72.3061 45.5083 71.0061C45.8235 69.7061 46.0992 68.4061 46.4144 67.1061C46.7295 65.8061 47.0841 64.5061 47.4386 63.1667C47.7932 61.8667 48.1083 60.5273 48.4629 59.1879C48.8174 57.8879 49.2114 56.5485 49.5659 55.2485C49.7629 54.5788 49.9204 53.9485 50.1174 53.2788C50.3144 52.6485 50.5114 51.9788 50.7083 51.3485C51.1023 50.0485 51.4962 48.7879 51.8901 47.5273C52.0871 46.897 52.2841 46.2667 52.4811 45.6364C52.678 45.0061 52.9144 44.4152 53.1114 43.8242C53.978 41.4212 54.7265 39.0576 55.5932 36.8909C56.0265 35.7879 56.4204 34.7242 56.8144 33.7C57.0114 33.1879 57.2083 32.6758 57.4053 32.1636C57.6023 31.6515 57.8386 31.1788 58.0356 30.7061C58.8629 28.8152 59.6114 27.1212 60.2811 25.5849C60.5962 24.797 60.9901 24.1273 61.3053 23.497C61.6204 22.8667 61.9356 22.2758 62.172 21.7242C63.2356 19.597 63.8265 18.3758 63.8265 18.3758C63.8265 18.3758 63.2356 19.597 62.2507 21.7636C62.0144 22.3152 61.6992 22.9061 61.4235 23.5364C61.1477 24.2061 60.7538 24.8758 60.478 25.6636C59.8477 27.2 59.1386 28.9333 58.3507 30.8242C58.1538 31.297 57.9568 31.7697 57.7598 32.2818C57.5629 32.7939 57.4053 33.3061 57.2083 33.8182C56.8144 34.8424 56.4598 35.9061 56.0659 37.0091C55.2386 39.2152 54.5295 41.5788 53.7417 43.9818C53.5447 44.5727 53.3477 45.203 53.1507 45.8333C52.9538 46.4636 52.7962 47.0939 52.5992 47.7242C52.2447 48.9849 51.8507 50.2849 51.4962 51.5455C51.2992 52.1758 51.1023 52.8455 50.9447 53.4758C50.7871 54.1455 50.5901 54.7758 50.4326 55.4455C50.078 56.7455 49.7629 58.0849 49.4083 59.3848C49.0538 60.6848 48.778 62.0242 48.4629 63.3636C48.1477 64.703 47.8326 66.003 47.5568 67.303C47.2811 68.603 47.0053 69.903 46.7295 71.203C46.4538 72.503 46.178 73.7636 45.9417 75.0242C45.7053 76.2849 45.4689 77.5061 45.2326 78.7273C44.9962 79.9485 44.7992 81.1303 44.6023 82.2727C44.1689 84.5576 43.8538 86.7636 43.5386 88.7727C43.2235 90.7818 42.9477 92.6333 42.7114 94.2879C42.5144 95.9424 42.278 97.3606 42.1598 98.5424C42.0023 99.7242 41.9235 100.63 41.8447 101.261C41.7659 101.891 41.7265 102.245 41.7265 102.245L39.7962 102.088Z" fill="#0B3720"/>
<path d="M51.2509 103.233C51.2509 103.233 70.6327 108.512 84.4206 86.2543C96.5539 66.6755 96.8297 35.8301 96.8297 35.8301C96.8297 35.8301 66.8115 37.6028 50.7387 64.1937C35.966 88.5786 51.2509 103.233 51.2509 103.233Z" fill="#276B65"/>
<path d="M96.8296 35.7879C96.8296 35.7879 96.5539 66.6333 84.4206 86.2121C70.6327 108.47 51.2509 103.191 51.2509 103.191C51.2509 103.191 60.8236 60.8818 96.8296 35.7879Z" fill="#1D7169"/>
<path d="M79.3384 40.6728C79.2202 40.6728 79.0627 40.6334 78.9445 40.6334C78.4324 46.4637 79.2202 51.2303 79.2596 51.2697L79.299 51.4273H79.4566C79.5354 51.4273 86.1142 51.4667 95.8051 49.1819C95.8051 49.0243 95.8445 48.9061 95.8445 48.7485C86.9414 50.8364 80.6778 50.994 79.6142 50.994C79.4566 50.1667 78.8657 45.8334 79.3384 40.6728Z" fill="#0C504B"/>
<path d="M75.4386 55.4061L75.478 55.4455H75.5568C75.6355 55.4455 77.684 55.6031 80.8749 55.7606C84.4598 55.9182 89.5022 56.1152 94.781 56.0364C94.8204 55.9182 94.8204 55.7606 94.8598 55.6424C85.3265 55.7606 76.5022 55.1303 75.6749 55.0515C75.2022 54.6182 71.4204 51.1515 68.6234 45.7152C68.5053 45.794 68.3871 45.8727 68.3083 45.9121C71.2628 51.7818 75.3992 55.3667 75.4386 55.4061Z" fill="#0C504B"/>
<path d="M69.6082 62.6545C69.2143 62.4576 63.6597 59.7394 57.9476 54.6182C57.8688 54.697 57.7901 54.8152 57.6719 54.8939C63.581 60.2121 69.3325 62.9697 69.4506 63.0091H69.4901C69.6476 63.0485 80.5597 65.3333 92.4567 66.5152C92.4961 66.397 92.5355 66.2394 92.5749 66.1212C80.9143 65.0182 70.1991 62.7727 69.6082 62.6545Z" fill="#0C504B"/>
<path d="M64.2113 71.1243C64.0932 71.0849 57.081 69.5879 49.5962 66.1213C49.5174 66.2394 49.478 66.3576 49.3992 66.4758C56.9235 69.9425 64.0144 71.4788 64.1325 71.5182C64.3295 71.5576 77.0932 74.5516 89.2265 76.5607C89.2659 76.4425 89.3053 76.3243 89.3841 76.1667C77.2114 74.1576 64.4083 71.1637 64.2113 71.1243Z" fill="#0C504B"/>
<path d="M60.39 78.5697H60.3112C60.0354 78.5697 53.4567 78.2152 45.4203 76.4425C45.3809 76.5606 45.3415 76.6788 45.3021 76.8364C53.2203 78.5697 59.6809 78.9637 60.2324 78.9637C60.9021 79.2394 71.5385 83.7697 83.7112 87.3152C83.79 87.197 83.8688 87.0788 83.9476 86.9606C71.4597 83.3364 60.5476 78.6485 60.39 78.5697Z" fill="#0C504B"/>
<path d="M56.805 86.803L56.7656 86.7636H56.7262C56.608 86.7636 51.1323 87.3152 44.4353 87.394C44.4353 87.5121 44.4747 87.6697 44.4747 87.7879C50.8171 87.7091 56.0959 87.2364 56.6868 87.1576C57.4353 87.5515 66.2595 91.8455 77.3292 95.0364C77.4474 94.9182 77.5656 94.8394 77.6444 94.7212C66.102 91.4121 56.9626 86.8818 56.805 86.803Z" fill="#0C504B"/>
<path d="M47.7842 119.658C47.7842 119.658 47.7842 119.539 47.8236 119.382C47.8236 119.185 47.863 118.909 47.9024 118.515C47.9811 117.767 48.0993 116.703 48.2963 115.324C48.4933 113.945 48.769 112.33 49.163 110.439C49.5175 108.548 50.0296 106.461 50.5812 104.176C51.1721 101.891 51.8418 99.4485 52.7084 96.8879C53.1024 95.5879 53.5751 94.2879 54.0478 92.9879C54.2842 92.3182 54.5599 91.6485 54.7963 90.9788C54.9145 90.6242 55.0327 90.3091 55.1902 89.9545C55.3084 89.6 55.466 89.2848 55.5842 88.9303C55.8599 88.2606 56.1357 87.5515 56.4115 86.8818C56.6872 86.2121 57.0024 85.503 57.3175 84.8333C57.9084 83.4545 58.5781 82.0758 59.2478 80.697C59.563 79.9879 59.9175 79.3182 60.2721 78.6091C60.6266 77.9394 60.9812 77.2303 61.3357 76.5212C61.7296 75.8515 62.0842 75.1424 62.4781 74.4727C62.8721 73.803 63.2266 73.0939 63.6205 72.4242C64.4084 71.0848 65.1963 69.7061 66.063 68.4455C66.4963 67.7758 66.8903 67.1455 67.3236 66.4758C67.7569 65.8061 68.1902 65.2151 68.6236 64.5848C69.0569 63.9545 69.4902 63.3242 69.9236 62.6939C70.3963 62.103 70.8296 61.4727 71.263 60.8818C71.6963 60.2909 72.169 59.7 72.6024 59.0697C73.0751 58.4788 73.5478 57.9273 73.9811 57.3364C74.4539 56.7848 74.8872 56.1939 75.3599 55.6424C75.8327 55.0909 76.3054 54.5788 76.7781 54.0273C77.2509 53.5152 77.6842 52.9636 78.1569 52.4515C78.5903 51.9394 79.1024 51.4667 79.5357 50.9545C80.0084 50.4818 80.4418 49.9697 80.9145 49.5364C81.3478 49.0636 81.7811 48.5909 82.2539 48.1576C83.1599 47.2909 84.0266 46.4242 84.8539 45.6364C85.7206 44.8485 86.5478 44.1 87.3357 43.3909C88.1236 42.6818 88.8721 42.0121 89.6205 41.4212C90.369 40.8303 91.0387 40.2394 91.669 39.7273C91.9842 39.4515 92.2993 39.2152 92.5751 38.9788C92.8508 38.7424 93.166 38.5455 93.4418 38.3485C95.6084 36.7333 96.869 35.7879 96.869 35.7879C96.869 35.7879 95.6478 36.7333 93.4811 38.4273C93.2054 38.6242 92.9296 38.8606 92.6539 39.097C92.3781 39.3333 92.063 39.6091 91.7478 39.8455C91.1175 40.3576 90.4478 40.9485 89.7387 41.5788C88.9902 42.1697 88.2811 42.8788 87.4933 43.5879C86.7054 44.297 85.8781 45.0455 85.0509 45.8727C84.2236 46.7 83.3963 47.5667 82.4902 48.4727C82.0569 48.9061 81.6236 49.3788 81.1902 49.8515C80.7569 50.3242 80.3236 50.8364 79.8509 51.3091C79.4175 51.8212 78.9448 52.2939 78.5114 52.8061C78.0781 53.3182 77.6448 53.8697 77.1721 54.3818C76.7387 54.9333 76.266 55.4455 75.7933 55.997C75.3599 56.5485 74.9266 57.1394 74.4539 57.6909C74.0205 58.2818 73.5478 58.8333 73.1145 59.4242C72.6811 60.0152 72.2478 60.6455 71.8145 61.2364C71.3811 61.8273 70.9478 62.4576 70.5145 63.0879C70.0812 63.7182 69.6872 64.3485 69.2539 64.9788C68.8205 65.6091 68.3872 66.2394 67.9933 66.9091C67.5993 67.5788 67.2054 68.2091 66.7721 68.8788C65.9448 70.1788 65.1963 71.5576 64.4478 72.897C64.0539 73.5667 63.6993 74.2758 63.3448 74.9454C62.9902 75.6151 62.6357 76.3242 62.2811 76.9939C61.9266 77.703 61.6115 78.3727 61.2569 79.0818C60.9418 79.7909 60.5872 80.4606 60.2721 81.1697C59.6418 82.5485 59.0115 83.9273 58.46 85.3061C58.1842 86.0151 57.869 86.6848 57.6327 87.3545C57.3569 88.0242 57.1205 88.7333 56.8448 89.403C56.7266 89.7576 56.569 90.0727 56.4508 90.4273C56.3327 90.7818 56.2145 91.097 56.0963 91.4515C55.86 92.1212 55.6236 92.7909 55.3872 93.4606C54.9539 94.8 54.5205 96.1 54.166 97.3606C53.3781 99.8818 52.7872 102.324 52.2357 104.57C51.7236 106.815 51.2902 108.903 50.9357 110.755C50.6205 112.606 50.3448 114.221 50.1872 115.561C50.0296 116.9 49.9115 117.964 49.8327 118.673C49.7933 119.027 49.7933 119.303 49.7539 119.461C49.7539 119.658 49.7539 119.736 49.7539 119.736L47.7842 119.658Z" fill="#093D38"/>
<path d="M38.9138 20.4365H40.3075V20.1794H38.9138V20.4365Z" fill="#AEC7EB"/>
<path d="M6.08704 48.1958C6.87599 47.4172 8.79128 44.7862 9.00883 44.851C9.22639 44.9158 8.56473 45.8501 8.75348 45.8699C8.94198 45.8899 10.0573 44.5211 10.2573 44.6438C10.5284 44.8101 9.31099 46.1507 9.31099 46.1507C9.31099 46.1507 10.7176 44.7489 10.9108 44.9611C11.0481 45.1115 10.0238 46.2309 9.68593 46.7077C10.1179 46.2374 10.9077 45.5585 11.0468 45.7176C11.1844 45.8753 10.5037 46.6521 10.0135 47.2752C10.3556 46.915 11.0136 46.2932 11.1489 46.4341C11.2839 46.5747 9.63603 49.0835 8.12679 50.9142" fill="#F466BA"/>
<path d="M2.35461 44.6366C2.35461 32.1919 12.4433 22.1032 24.8881 22.1032C37.3328 22.1032 47.4215 32.1919 47.4215 44.6366C47.4215 49.5974 45.8172 54.1827 43.1008 57.9048C39.8843 62.7516 31.527 68.2239 31.527 71.5024V75.2478C31.527 75.9954 30.9209 76.6015 30.1734 76.6015H26.5521H23.2243H19.6028C18.8552 76.6015 18.2494 75.9954 18.2494 75.2478V71.5024C18.2494 68.2239 9.89183 62.7516 6.67533 57.9048C3.959 54.1827 2.35461 49.5974 2.35461 44.6366Z" fill="#F9AF0B"/>
<path d="M14.7335 45.3643C14.2133 45.3643 13.7293 45.4927 13.3038 45.7472C12.1586 46.432 11.5109 48.3844 11.7971 50.2891C12.3093 53.6967 15.1748 57.3064 21.5769 58.229C21.212 54.4671 20.5866 51.0243 19.5405 48.9802C18.6474 47.2357 17.2261 45.9396 15.7385 45.5127C15.3929 45.4135 15.0563 45.3643 14.7335 45.3643ZM35.0421 45.3643C34.7194 45.3643 34.3828 45.4135 34.0371 45.5127C32.5495 45.9396 31.1279 47.2357 30.2351 48.9802C29.189 51.0243 28.5636 54.4671 28.1984 58.229C34.6008 57.3064 37.4663 53.6967 37.9785 50.2891C38.2648 48.3844 37.6172 46.432 36.4721 45.7472C36.0463 45.4927 35.5626 45.3643 35.0421 45.3643ZM27.4465 76.2283C27.4203 75.6634 27.0168 66.6179 27.7412 58.6906C26.8538 58.7958 25.9033 58.8516 24.8878 58.8516C23.8721 58.8516 22.9221 58.7958 22.0347 58.6906C22.7588 66.6179 22.3554 75.6634 22.3289 76.2283L21.9316 76.2093C21.938 76.0702 22.3559 66.7144 21.6155 58.6366C14.9323 57.7075 11.9408 53.9212 11.4036 50.348C11.0899 48.2596 11.803 46.1811 13.0996 45.4057C13.8862 44.9354 14.8367 44.84 15.8483 45.1303C17.4398 45.587 18.9524 46.9584 19.8946 48.7989C20.9824 50.9245 21.6255 54.4537 21.9964 58.2851C22.8928 58.3952 23.8553 58.454 24.8878 58.454C25.9206 58.454 26.8831 58.3952 27.779 58.2851C28.1501 54.4537 28.793 50.9245 29.8813 48.7989C30.8232 46.9584 32.3358 45.587 33.9273 45.1303C34.939 44.8403 35.8897 44.9354 36.6763 45.4057C37.9726 46.1811 38.686 48.2596 38.372 50.348C37.8348 53.9212 34.8433 57.7075 28.1601 58.6366C27.4198 66.7144 27.8376 76.0702 27.8441 76.2093L27.4465 76.2283Z" fill="white"/>
<path d="M43.6695 45.9295C42.9557 45.9295 42.3768 45.3507 42.3768 44.6365C42.3768 36.6187 36.956 29.6465 29.1945 27.6815C28.5023 27.5064 28.0831 26.8031 28.2582 26.1108C28.4336 25.4183 29.1364 24.9989 29.8289 25.1748C38.7394 27.4306 44.9623 35.4335 44.9623 44.6365C44.9623 45.3507 44.3834 45.9295 43.6695 45.9295Z" fill="#F9CA98"/>
<path d="M24.4539 25.8192C24.4539 26.5333 25.0327 27.1122 25.7466 27.1122C26.4607 27.1122 27.0393 26.5333 27.0393 25.8192C27.0393 25.1051 26.4607 24.5265 25.7466 24.5265C25.0327 24.5265 24.4539 25.1051 24.4539 25.8192Z" fill="#F9CA98"/>
<path d="M38.9414 62.594C40.5571 61.0276 42.0851 59.4351 43.1006 57.9048C43.1058 57.8978 43.1107 57.8909 43.1158 57.8839C43.1107 57.8909 43.1058 57.8978 43.1006 57.9048C42.0851 59.4351 40.5571 61.0276 38.9414 62.594Z" fill="#E2CB82"/>
<path d="M18.2492 71.5023C18.2492 68.2239 9.89163 62.7516 6.67513 57.9048C6.67025 57.8981 6.6651 57.8911 6.66022 57.8842C6.6651 57.8911 6.67025 57.8981 6.67513 57.9048C9.89163 62.7516 18.2492 68.2239 18.2492 71.5023Z" fill="#FCDA83"/>
<path d="M6.65541 57.8734C6.65242 57.8689 6.64869 57.8641 6.64532 57.8596C6.64869 57.8641 6.65205 57.8689 6.65541 57.8734Z" fill="#FCDA83"/>
<path d="M6.63719 57.8503C6.6351 57.8475 6.63301 57.8443 6.63092 57.8415C6.63301 57.8443 6.6351 57.8475 6.63719 57.8503Z" fill="#FCDA83"/>
<path d="M6.62355 57.8281C6.62168 57.825 6.61919 57.8213 6.6167 57.8182C6.61919 57.8213 6.62168 57.8244 6.62355 57.8281Z" fill="#FCDA83"/>
<path d="M6.60787 57.8065C6.60609 57.8047 6.60431 57.802 6.60254 57.7994C6.60431 57.802 6.60609 57.8047 6.60787 57.8065Z" fill="#FCDA83"/>
<path d="M30.1733 76.6015H19.6026C18.8551 76.6015 18.2492 75.9954 18.2492 75.2478V71.5024C18.2492 68.2239 9.8917 62.7516 6.67521 57.9048C6.67032 57.8981 6.66518 57.8912 6.66029 57.8842C6.65746 57.8806 6.65515 57.8773 6.65233 57.8734C6.65001 57.8703 6.6477 57.867 6.64538 57.8639C6.6423 57.8593 6.63895 57.8549 6.63561 57.8503C6.63406 57.8482 6.63252 57.8459 6.63098 57.8438C6.62712 57.8384 6.62352 57.8336 6.61941 57.8282C6.61864 57.8266 6.61761 57.8253 6.61658 57.824C6.61246 57.8181 6.60809 57.8125 6.60398 57.8066C6.60346 57.806 6.60295 57.8053 6.60243 57.8045C4.17386 54.4378 2.6551 50.3732 2.39795 45.9692C3.80896 54.1192 10.0823 63.3187 21.9734 64.6183C22.1768 70.7271 21.9366 76.1042 21.9317 76.2093L22.329 76.2284C22.3488 75.8038 22.5818 70.5902 22.3889 64.6602C23.1961 64.7353 24.0296 64.7742 24.888 64.7742C25.7453 64.7742 26.5785 64.7371 27.387 64.6656C27.1944 70.5928 27.4268 75.8038 27.4466 76.2284L27.8442 76.2093C27.8393 76.1042 27.5991 70.7312 27.8023 64.6255C39.7299 63.3817 46.2249 54.5353 47.378 45.9692C47.1216 50.3552 45.6144 54.4049 43.2028 57.7636C43.2023 57.7646 43.2015 57.7657 43.2007 57.7667C43.1971 57.7718 43.1933 57.7772 43.1894 57.7824C43.1881 57.7844 43.1866 57.7865 43.185 57.7886C43.1817 57.7929 43.1786 57.7976 43.1753 57.8022C43.1735 57.8048 43.1717 57.8073 43.1699 57.8096C43.1668 57.814 43.1637 57.8181 43.1606 57.8222C43.1583 57.8253 43.1562 57.8284 43.1539 57.8318C43.1511 57.8354 43.1485 57.839 43.146 57.8426C43.1434 57.8464 43.1408 57.85 43.138 57.8536C43.1357 57.857 43.1334 57.8598 43.131 57.8631C43.1277 57.8678 43.1246 57.8721 43.1213 57.8768C43.1195 57.8791 43.1177 57.8816 43.1159 57.884C43.1107 57.8909 43.1058 57.8978 43.1007 57.9048C42.0852 59.4351 40.5572 61.0277 38.9415 62.594C35.4401 65.9885 31.5269 69.259 31.5269 71.5024V75.2478C31.5269 75.9954 30.9208 76.6015 30.1733 76.6015Z" fill="#BB8919"/>
<path d="M27.4466 76.2283C27.4268 75.8038 27.1943 70.5928 27.3869 64.6656C27.5258 64.6533 27.6649 64.6399 27.8022 64.6255C27.5991 70.7311 27.8393 76.1041 27.8441 76.2093L27.4466 76.2283ZM22.3289 76.2283L21.9316 76.2093C21.9365 76.1041 22.1767 70.727 21.9733 64.6183C22.1109 64.6335 22.2495 64.6474 22.3889 64.6602C22.5817 70.5902 22.3487 75.8038 22.3289 76.2283Z" fill="#FCDA83"/>
<path d="M32.0593 73.1016H17.7162V79.9373C17.7162 81.0536 18.034 82.1467 18.6322 83.0892C19.7629 84.8708 21.7265 85.9498 23.8365 85.9498H25.9392C28.0492 85.9498 30.0126 84.8708 31.1433 83.0892C31.7414 82.1467 32.0593 81.0536 32.0593 79.9373V73.1016Z" fill="#85A2FB"/>
<path d="M17.7156 77.7113C17.7567 77.7126 17.7978 77.7113 17.8398 77.707L32.1826 76.2201C32.6722 76.1694 33.014 75.7292 32.9461 75.2372C32.8782 74.7453 32.4256 74.3871 31.9367 74.4385L17.5939 75.9254C17.1043 75.976 16.7623 76.416 16.8304 76.908C16.8921 77.358 17.2758 77.6959 17.7156 77.7113Z" fill="#4F68BC"/>
<path d="M17.7156 80.8399C17.7567 80.8412 17.7978 80.8399 17.8398 80.8355L32.1826 79.3487C32.6722 79.298 33.014 78.858 32.9461 78.3658C32.8782 77.8739 32.4256 77.5164 31.9367 77.5671L17.5939 79.054C17.1043 79.1046 16.7623 79.5446 16.8304 80.0365C16.8921 80.4868 17.2758 80.8245 17.7156 80.8399Z" fill="#4F68BC"/>
<path d="M24.5022 12.5373V19.6183C24.5022 19.8312 24.675 20.004 24.8879 20.004C25.1009 20.004 25.2737 19.8312 25.2737 19.6183V12.5373C25.2737 12.3243 25.1009 12.1515 24.8879 12.1515C24.675 12.1515 24.5022 12.3243 24.5022 12.5373Z" fill="#E8AE54"/>
<path d="M37.6575 15.3577L34.7977 21.8354L37.6575 15.3577Z" fill="#F3BC76"/>
<path d="M37.3048 15.2019L34.445 21.6796C34.3589 21.8745 34.4471 22.1024 34.642 22.1882C34.8369 22.2744 35.0648 22.1862 35.1506 21.9913L38.0105 15.5133C38.0966 15.3186 38.0084 15.0908 37.8135 15.0046C37.6186 14.9187 37.391 15.0069 37.3048 15.2019Z" fill="#E8AE54"/>
<path d="M12.1185 15.3577L14.9783 21.8354L12.1185 15.3577Z" fill="#F3BC76"/>
<path d="M11.7653 15.5133L14.6252 21.9913C14.7111 22.186 14.9389 22.2744 15.1338 22.1883C15.3287 22.1024 15.417 21.8745 15.3308 21.6796L12.471 15.2019C12.3851 15.007 12.1573 14.9188 11.9623 15.0047C11.7677 15.0908 11.6792 15.3186 11.7653 15.5133Z" fill="#E8AE54"/>
<path d="M1.35559 23.1922L6.58793 27.9632L1.35559 23.1922Z" fill="#F3BC76"/>
<path d="M1.09557 23.4771L6.3279 28.2481C6.48528 28.3916 6.72932 28.3803 6.87281 28.2229C7.0163 28.0655 7.00525 27.8215 6.84787 27.678L1.61528 22.907C1.4579 22.7635 1.21386 22.7748 1.07037 22.9322C0.926876 23.0898 0.93819 23.3336 1.09557 23.4771Z" fill="#E8AE54"/>
</svg>
