<svg width="180" height="100" viewBox="0 0 180 100" fill="none" xmlns="http://www.w3.org/2000/svg">
<path d="M19.9999 83C73.2083 42.1485 99.0377 53.8286 180 20.5V99.6364H0.121094C0.121094 99.6364 11.9704 89.1647 19.9999 83Z" fill="#2E51AC"/>
<circle cx="86.7879" cy="32.6666" r="31.5152" fill="#FFD3AE"/>
<path d="M69.3854 41.047C72.2769 41.047 74.6242 38.6963 74.6242 35.8117C74.6242 32.9203 72.2769 30.5727 69.3854 30.5727C66.4974 30.5727 64.1498 32.9203 64.1498 35.8117C64.1498 38.6963 66.4974 41.047 69.3854 41.047" fill="#A13F30"/>
<path d="M69.3854 41.047C72.2769 41.047 74.6242 38.6963 74.6242 35.8117C74.6242 32.9203 72.2769 30.5727 69.3854 30.5727C66.4974 30.5727 64.1498 32.9203 64.1498 35.8117C64.1498 38.6963 66.4974 41.047 69.3854 41.047" stroke="#A13F30" stroke-width="0.4"/>
<path d="M103.26 22.9552C105.876 22.9552 108.008 25.084 108.008 27.7001C108.008 30.3196 105.876 32.4484 103.26 32.4484C100.64 32.4484 98.5147 30.3196 98.5147 27.7001C98.5147 25.084 100.64 22.9552 103.26 22.9552ZM86.7571 1.84398C98.6838 1.84398 109.049 8.6477 114.182 18.5751C112.975 17.0763 111.483 15.8894 109.646 15.0175C107.292 13.8968 104.52 13.0612 101.897 12.9716C99.1248 12.8755 96.28 14.0226 93.9524 15.4352C91.5848 16.8741 90.0597 18.9664 88.8957 21.4401C87.6556 24.086 86.8135 27.0139 86.6147 29.9317C86.3793 33.4034 87.0191 36.8649 86.681 40.3464C86.1138 46.1556 83.3418 51.6996 77.7085 53.9908C75.5598 54.8629 72.8906 55.4729 70.5663 55.1378C66.7135 54.5809 63.3878 51.7196 60.6523 49.1133C57.6482 44.3551 55.9074 38.7218 55.9074 32.6936C55.9074 15.6837 69.7474 1.84398 86.7571 1.84398ZM118.092 29.5022C117.485 25.4235 116.561 21.3877 114.501 17.7767C112.477 14.2293 109.942 10.8269 106.702 8.31426C100.334 3.37624 92.2781 0.479104 84.1531 1.28531C82.9631 1.40367 81.7866 1.65866 80.6148 1.88862C72.5814 3.50779 65.4756 8.04981 60.8847 14.8775C56.3387 21.6383 54.2316 29.838 55.7733 37.9258C56.5653 42.0806 57.7827 45.8052 60.1185 49.3621C62.3397 52.7446 64.7843 55.6988 68.1341 58.022C71.5839 60.4146 75.084 62.3186 79.2171 63.2154C83.1471 64.0683 86.9975 64.5312 90.9954 63.8633C95.1015 63.1779 99.0203 62.1063 102.578 59.8848C105.961 57.7719 109.096 55.3966 111.488 52.1677C116.203 45.8025 119.289 37.5359 118.092 29.5022Z" fill="#A13F30" stroke="#A13F30" stroke-width="0.4"/>
</svg>
