<svg width="108" height="75" viewBox="0 0 108 75" fill="none" xmlns="http://www.w3.org/2000/svg">
<path d="M92.0293 31.9707H88.8379V17.6089H92.0293V31.9707Z" fill="#6F4323"/>
<path d="M100.806 10.8269C100.806 16.5556 96.1621 21.1992 90.4334 21.1992C84.705 21.1992 80.061 16.5556 80.061 10.8269C80.061 5.09846 84.705 0.454528 90.4334 0.454528C96.1621 0.454528 100.806 5.09846 100.806 10.8269Z" fill="#1B957A"/>
<path d="M58.4035 22.2847C58.4035 28.0173 52.6166 32.6648 45.478 32.6648C38.3395 32.6648 32.553 28.0173 32.553 22.2847C32.553 16.5521 38.3395 11.905 45.478 11.905C52.6166 11.905 58.4035 16.5521 58.4035 22.2847Z" fill="#FFB856"/>
<path d="M31.2191 20.5654C31.2191 20.5654 27.4478 16.9121 26.5051 19.6228C25.5621 22.3331 30.1584 21.6261 31.2191 20.5654Z" fill="#FFB856"/>
<path d="M34.8725 14.2014C34.8725 14.2014 36.0078 8.54483 32.553 10.3125C29.0979 12.0801 34.8725 14.2014 34.8725 14.2014Z" fill="#FFB856"/>
<path d="M44.1828 10.6658C44.1828 10.6658 40.5295 6.65913 44.1828 5.48047C47.8361 4.30215 44.1828 10.6658 44.1828 10.6658Z" fill="#FFB856"/>
<path d="M53.8464 13.1702C53.8464 13.1702 53.8464 7.24817 57.1464 9.25183C60.446 11.2551 53.8464 13.1702 53.8464 13.1702Z" fill="#FFB856"/>
<path d="M59.6216 20.5654C59.6216 20.5654 63.3925 16.8553 63.7462 20.0657C64.0999 23.276 59.6216 20.5654 59.6216 20.5654Z" fill="#FFB856"/>
<path d="M3.43637 48.0852C-5.73619 53.8466 11.0698 71.1481 52.523 71.9826C93.9766 72.817 108.296 43.4345 107.995 35.6826C107.695 27.9304 82.4626 27.3584 75.5538 32.652C68.6447 37.9458 45.6407 8.38083 3.43637 48.0852Z" fill="#1B957A"/>
<path d="M84.3157 43.4037C70.3083 53.5513 63.7517 41.3031 47.0624 36.1192C33.0829 31.7768 4.41339 51.3617 1.313 53.3737C-3.01788 64.0829 25.5841 73.1257 61.9634 74.1359C103.091 75.2782 107.86 46.7303 107.562 36.1192C101.303 29.7426 98.3228 33.2566 84.3157 43.4037Z" fill="#146251"/>
<path d="M70.5623 32.3069C72.6346 39.8975 76.9052 61.1356 64.3475 74.1359L64.3198 74.1653C75.7238 74.1664 84.1817 71.7982 90.4333 68.1855C89.8618 61.4742 87.1375 39.901 75.3746 31.9707C74.0163 33.4068 72.4577 33.2467 70.5623 32.3069" fill="#F9CA8A"/>
</svg>
