<svg width="68" height="65" viewBox="0 0 68 65" fill="none" xmlns="http://www.w3.org/2000/svg">
<path d="M34.5763 7.94941C34.2855 7.94941 33.9629 7.94941 33.7418 7.96661C33.6431 7.97221 33.5457 7.99221 33.4528 8.02597L31.9594 8.56622C33.1637 8.59633 34.4232 8.58687 35.6585 8.57741L42.5898 8.52407C43.2969 8.51891 44.0394 8.51203 44.6295 8.46987C45.0244 8.44148 45.3177 8.40019 45.679 8.3675C46.991 8.2505 48.9042 8.27287 50.6127 8.28147C52.3212 8.29008 54.3842 8.24276 54.9855 8.07157H51.3182C50.9224 8.07157 50.5078 8.07157 50.1585 8.05178C49.7507 8.02855 49.5013 7.98296 49.1425 7.95199C48.5489 7.90123 47.7299 7.89521 46.9686 7.89177C42.7885 7.87284 38.66 7.97091 34.5763 7.94941Z" fill="#F4F4F4"/>
<path d="M4.32971 45.7035C4.32971 45.7035 7.34068 32.0251 16.2876 35.6383C25.2344 39.2514 37.3643 37.3588 38.6548 36.5846C39.9452 35.8103 55.8603 29.1862 60.5918 36.4125C65.3233 43.6388 63.2587 45.7035 63.2587 45.7035H4.32971Z" fill="#3960D8"/>
<path d="M10.9537 46.5638C10.9537 46.5638 14.4809 35.0687 17.4058 38.7877C20.3308 42.5067 30.482 40.8163 32.3746 40.6476C34.2672 40.479 58.527 46.5646 58.527 46.5646L10.9537 46.5638Z" fill="#F0E4E4"/>
<path d="M54.0786 24.3144C53.7603 21.8196 54.7573 19.2517 54.1646 16.8094C53.7086 14.9228 52.358 13.3476 51.9141 11.4576C51.262 8.65653 52.7537 5.77976 54.6575 3.62907C55.9669 2.14681 57.61 0.801339 59.5688 0.532072C60.7784 0.360017 62.0215 0.625843 63.1381 1.11878C64.2737 1.62788 65.2921 2.36555 66.1298 3.28575C66.9676 4.20595 67.6067 5.28894 68.0073 6.46712C68.2654 7.23277 68.4142 8.03369 68.7317 8.77611C69.2779 10.0553 70.2802 11.0877 70.9039 12.3316C71.3196 13.1749 71.5545 14.0958 71.5935 15.0352C71.6324 15.9746 71.4746 16.9118 71.1301 17.7866C70.4083 19.5881 68.8934 21.0953 68.6697 23.0231C68.5071 24.4125 69.0285 25.9343 68.3514 27.1585C67.8404 28.0824 66.7883 28.5487 65.7921 28.898C63.4745 29.7101 60.2381 31.0168 57.9128 29.772C55.8826 28.6778 54.3728 26.6174 54.0786 24.3144Z" fill="#3960D8"/>
<path d="M60.5789 26.0875C60.5789 26.0875 63.9907 24.7111 64.4209 23.9368C64.851 23.1626 65.4532 18.6031 65.4532 18.6031" stroke="#333333" stroke-width="0.0755924" stroke-miterlimit="10"/>
<path d="M60.5497 47.166V17.4864" stroke="#333333" stroke-width="0.0755924" stroke-miterlimit="10"/>
<path d="M2.54804 23.9703C2.22974 21.4755 3.2268 18.9076 2.63407 16.4653C2.17812 14.5787 0.827487 13.0035 0.383584 11.1135C-0.268506 8.31244 1.22321 5.43568 3.12701 3.28498C4.43635 1.80273 6.07948 0.457253 8.03833 0.187987C9.24788 0.0159313 10.491 0.281757 11.6076 0.774696C12.7431 1.2838 13.7616 2.02146 14.5993 2.94166C15.4371 3.86186 16.0762 4.94485 16.4768 6.12304C16.7349 6.88868 16.8837 7.6896 17.2011 8.43202C17.7474 9.71125 18.7496 10.7436 19.3733 11.9875C19.7891 12.8308 20.024 13.7517 20.0629 14.6911C20.1019 15.6306 19.9441 16.5677 19.5996 17.4426C18.8778 19.244 17.3629 20.7512 17.1392 22.6791C16.9766 24.0684 17.4979 25.5902 16.8209 26.8144C16.3099 27.7384 15.2578 28.2046 14.2616 28.5539C11.944 29.366 8.70762 30.6728 6.38229 29.4279C4.35204 28.3337 2.84225 26.2733 2.54804 23.9703Z" fill="#3960D8"/>
<path opacity="0.2" d="M2.54804 23.9703C2.22974 21.4755 3.2268 18.9076 2.63407 16.4653C2.17812 14.5787 0.827487 13.0035 0.383584 11.1135C-0.268506 8.31244 1.22321 5.43568 3.12701 3.28498C4.43635 1.80273 6.07948 0.457253 8.03833 0.187987C9.24788 0.0159313 10.491 0.281757 11.6076 0.774696C12.7431 1.2838 13.7616 2.02146 14.5993 2.94166C15.4371 3.86186 16.0762 4.94485 16.4768 6.12304C16.7349 6.88868 16.8837 7.6896 17.2011 8.43202C17.7474 9.71125 18.7496 10.7436 19.3733 11.9875C19.7891 12.8308 20.024 13.7517 20.0629 14.6911C20.1019 15.6306 19.9441 16.5677 19.5996 17.4426C18.8778 19.244 17.3629 20.7512 17.1392 22.6791C16.9766 24.0684 17.4979 25.5902 16.8209 26.8144C16.3099 27.7384 15.2578 28.2046 14.2616 28.5539C11.944 29.366 8.70762 30.6728 6.38229 29.4279C4.35204 28.3337 2.84225 26.2733 2.54804 23.9703Z" fill="black"/>
<path d="M9.04828 25.7434C9.04828 25.7434 12.4601 24.3669 12.8903 23.5927C13.3204 22.8184 13.9226 18.259 13.9226 18.259" stroke="#333333" stroke-width="0.0755924" stroke-miterlimit="10"/>
<path d="M9.0191 46.8219V17.1423" stroke="#333333" stroke-width="0.0755924" stroke-miterlimit="10"/>
<path d="M13.4521 57.2226C14.5111 57.2923 15.6303 57.6597 16.5938 57.2149C16.8424 57.1005 17.0678 56.9353 17.3259 56.8432C17.9186 56.6316 18.5698 56.8372 19.1669 57.0351C23.8409 58.5822 28.6454 59.7031 33.5215 60.3842C34.5263 60.5244 35.5749 60.6422 36.5324 60.3153C37.2327 60.077 37.8392 59.6168 38.5326 59.3587C39.6664 58.938 40.919 59.0946 42.1259 59.1608C45.2873 59.3331 48.4502 58.8514 51.4169 57.7457L51.5735 57.688C52.3108 57.4033 53.108 57.3092 53.8913 57.4145C54.6746 57.5197 55.4187 57.821 56.0547 58.2902C56.5588 58.66 57.0935 58.9861 57.6531 59.2649C58.5592 59.7209 59.2515 60.5125 59.5826 61.4713C59.9138 62.4301 59.8576 63.4802 59.4261 64.3982L59.4055 64.4429C58.9134 65.5157 58.503 66.7166 57.5387 67.398C56.6294 68.0406 55.4362 68.0673 54.323 68.0699L47.4898 68.0862C46.7809 68.0862 46.0634 68.0862 45.3752 67.9193C44.7567 67.767 44.1811 67.4814 43.6108 67.1975L40.5525 65.6774C39.3214 65.0658 37.9717 64.4361 36.6245 64.7174C35.248 65.0047 34.2561 66.1618 33.0569 66.8913C31.1961 68.0243 28.722 68.069 26.8216 67.0023C25.9115 66.4913 25.1209 65.7463 24.1281 65.4254C22.4884 64.8946 20.7463 65.6293 19.0593 65.9811C15.7774 66.665 11.907 65.7282 9.39156 63.4631C6.15089 60.5442 9.95762 56.9938 13.4521 57.2226Z" fill="#F0E4E4"/>
<g opacity="0.7">
<path opacity="0.7" d="M16.7523 35.2612V35.2503C16.7516 35.2539 16.7516 35.2576 16.7523 35.2612Z" fill="#808080"/>
</g>
<path d="M43.5867 56.7504L43.6968 58.8494L43.5867 60.5063C43.5867 60.5063 43.0344 62.6054 44.361 62.7714C45.6875 62.9375 45.4656 60.6207 45.4656 60.6207V58.3531L45.2987 57.6881L45.1327 56.4725L43.5867 56.7504Z" fill="#333333"/>
<path d="M50.9335 56.5301L50.8234 58.6292L50.9335 60.2861C50.9335 60.2861 51.4858 62.3852 50.1593 62.5512C48.8327 62.7172 49.0547 60.4005 49.0547 60.4005V58.132L49.2207 57.4687L49.3867 56.2531L50.9335 56.5301Z" fill="#333333"/>
<path d="M55.1593 37.4156L54.7868 40.5126V41.1097C54.7844 41.5728 54.6812 42.0299 54.4844 42.4491C54.2875 42.8684 54.0017 43.2397 53.6469 43.5374C53.2598 43.8686 52.8615 44.0587 52.6146 43.7713C51.9934 43.053 52.9251 40.2907 53.6701 39.9595L53.9824 37.1945L55.1593 37.4156Z" fill="#FDB797"/>
<path d="M44.083 37.3605C44.083 37.3605 42.8124 38.7972 43.8069 43.9348L44.083 49.0723L43.4206 57.0858L45.1885 56.9138L46.5142 50.0083C46.5142 50.0083 47.0114 48.5166 47.1774 47.9093C47.3435 47.3019 48.1719 42.3295 48.1719 42.3295L48.6141 48.1854C48.6141 48.1854 48.6691 49.456 48.9453 49.8423L49.2765 56.6385L50.9334 56.7486C50.9334 56.7486 51.5967 52.3844 51.5967 49.0147C51.5967 45.645 53.3086 42.7192 53.3086 42.7192C53.3086 42.7192 54.0269 40.2889 52.9215 38.1339C51.816 35.9789 44.083 37.3605 44.083 37.3605Z" fill="#1B957A"/>
<g opacity="0.1">
<path opacity="0.1" d="M47.84 42.3321C47.84 42.3321 47.0141 47.3045 46.8421 47.9119C46.67 48.5192 46.1788 50.0109 46.1788 50.0109L44.8566 56.9138L43.4225 57.048V57.079L45.1886 56.9138L46.5143 50.0084C46.5143 50.0084 47.0116 48.5166 47.1776 47.9093C47.2869 47.5084 47.6852 45.2072 47.9432 43.6879L47.84 42.3321Z" fill="black"/>
<path opacity="0.1" d="M52.9225 38.134C52.4227 37.1593 50.5671 36.9081 48.6848 36.9296C50.4492 36.9451 52.1208 37.2212 52.5913 38.134C53.6959 40.2847 52.9785 42.7192 52.9785 42.7192C52.9785 42.7192 51.2656 45.6442 51.2656 49.0165C51.2656 52.2494 50.6557 56.3976 50.6058 56.7288L50.9336 56.7504C50.9336 56.7504 51.5969 52.3862 51.5969 49.0165C51.5969 45.6468 53.3088 42.7192 53.3088 42.7192C53.3088 42.7192 54.0271 40.289 52.9225 38.134Z" fill="black"/>
</g>
<path d="M22.2072 57.2476L21.931 59.0155C21.931 59.0155 19.1136 62.5512 19.9421 63.0484C20.7705 63.5457 22.0412 63.7668 23.2567 61.8879C23.4214 61.4463 23.6865 61.049 24.031 60.7274C24.1677 60.6078 24.2739 60.4572 24.3406 60.2883C24.4073 60.1194 24.4327 59.9369 24.4147 59.7562L24.142 57.0256L22.2072 57.2476Z" fill="#333333"/>
<path d="M28.2291 57.2476L27.9529 59.0155C27.9529 59.0155 25.1355 62.5512 25.9639 63.0484C26.7924 63.5457 28.063 63.7668 29.2786 61.8879C29.4433 61.4463 29.7083 61.049 30.0528 60.7274C30.1896 60.6078 30.2957 60.4572 30.3624 60.2883C30.4292 60.1194 30.4546 59.9369 30.4365 59.7562L30.1638 57.0256L28.2291 57.2476Z" fill="#333333"/>
<path d="M19.1136 38.7413L20.1081 43.6578L20.9365 47.2486L21.8209 57.688H24.4748C24.4748 57.688 23.9225 55.9202 24.2537 54.4284C24.5849 52.9367 24.4748 49.6797 24.4748 49.6797L25.1381 43.7137C25.1381 43.7137 26.1326 49.6797 26.5748 50.1769L27.7353 57.4136L30.4383 57.688C30.4383 57.688 30.6594 51.722 29.886 50.0092C29.886 50.0092 29.5548 46.9122 29.886 44.9267C30.2172 42.9412 30.1071 37.7451 30.1071 37.7451L19.1136 38.7413Z" fill="#535461"/>
<g opacity="0.1">
<path opacity="0.1" d="M24.4748 49.6522L25.0296 44.6626C24.9264 44.0776 24.8576 43.6896 24.8576 43.6896L24.1943 49.6556C24.1943 49.6556 24.3044 52.9152 23.9732 54.4061C23.642 55.8969 24.1943 57.6657 24.1943 57.6657H24.4748C24.4748 57.6657 23.9225 55.8978 24.2537 54.4061C24.5849 52.9144 24.4748 49.6522 24.4748 49.6522Z" fill="black"/>
<path opacity="0.1" d="M29.8858 49.9834C29.8858 49.9834 29.5546 46.8864 29.8858 44.9009C30.217 42.9154 30.1069 37.7193 30.1069 37.7193L29.8316 37.7442C29.8394 38.1279 29.9288 42.9919 29.6105 44.9009C29.2793 46.8898 29.6105 49.9834 29.6105 49.9834C30.3538 51.6283 30.1792 57.1985 30.1637 57.6338L30.439 57.6622C30.439 57.6622 30.6592 51.6962 29.8858 49.9834Z" fill="black"/>
</g>
<path d="M23.4227 19.7386C23.4227 19.7386 23.6438 23.1634 22.3732 23.5505C22.3732 23.5505 22.042 25.9257 24.0301 26.423C26.0182 26.9202 27.1787 22.8872 27.1787 22.8872L26.7365 22.7212C26.7365 22.7212 26.0732 21.1727 26.2943 20.5705L23.4227 19.7386Z" fill="#FDA57D"/>
<path d="M40.5482 34.5982L37.3996 37.5231L38.7803 39.3461C38.7803 39.3461 39.3877 39.0149 39.4436 38.3516L42.095 35.4266L40.5482 34.5982Z" fill="#FDB797"/>
<path d="M35.4106 36.145C35.4106 36.145 36.2941 36.5872 36.239 37.7468C36.184 38.9065 36.4051 40.5685 36.4051 40.5685C36.4051 40.5685 36.7363 40.8998 36.9574 39.7943C36.9574 39.7943 37.261 40.3741 37.5372 40.4825C37.8133 40.5909 39.3601 40.4825 39.0289 39.3779C39.0289 39.3779 38.062 37.9696 37.8409 37.0302L36.7363 35.4284L35.4106 36.145Z" fill="#FDA57D"/>
<path opacity="0.1" d="M22.0419 23.6606L23.9199 25.7597L27.7911 23.437L29.9968 38.5211C30.0748 38.6029 30.1183 38.7117 30.1183 38.8247C30.1183 38.9378 30.0748 39.0465 29.9968 39.1284C29.9968 39.1284 23.8097 41.2791 20.1088 39.2385L22.0419 23.6606Z" fill="black"/>
<path opacity="0.1" d="M22.042 23.8267L23.9199 25.9257L27.7912 23.603L30.0012 38.6845C30.0792 38.7664 30.1227 38.8751 30.1227 38.9882C30.1227 39.1012 30.0792 39.21 30.0012 39.2919C30.0012 39.2919 23.8141 41.4425 20.1132 39.402L22.042 23.8267Z" fill="black"/>
<path d="M22.042 23.7157L23.9199 25.8148L27.7912 23.492L30.0012 38.5735C30.0792 38.6554 30.1227 38.7642 30.1227 38.8772C30.1227 38.9903 30.0792 39.099 30.0012 39.1809C30.0012 39.1809 23.8141 41.3316 20.1132 39.291L22.042 23.7157Z" fill="#E0E0E0"/>
<path opacity="0.1" d="M19.6108 24.1579C19.6108 24.1579 22.152 23.2184 22.9805 22.8322C22.9805 22.8322 21.7649 38.355 22.3731 39.8467C22.3731 39.8467 19.9428 39.3495 19.6108 38.9073C19.6108 38.9073 20.3291 35.1505 19.6108 27.3615V24.1579Z" fill="black"/>
<path d="M19.5558 24.1029C19.5558 24.1029 22.097 23.1634 22.9255 22.7772C22.9255 22.7772 21.7099 38.3 22.3181 39.7917C22.3181 39.7917 19.8879 39.2945 19.5558 38.8523C19.5558 38.8523 20.2741 35.0955 19.5558 27.3065V24.1029Z" fill="#4D8AF0"/>
<path d="M18.064 36.256L18.3401 38.6312C18.3401 38.6312 19.0034 40.7303 19.4447 40.8412C19.886 40.9522 21.1016 39.9018 21.1016 39.9018L19.5531 37.9679L19.2271 35.1488L18.064 36.256Z" fill="#FDA57D"/>
<path opacity="0.1" d="M37.1209 36.0349C37.1209 36.0349 35.6842 36.422 35.2429 37.0844L33.586 36.0349L34.3044 35.4826C34.3044 35.4826 32.4264 33.0523 32.2603 32.2789C32.2603 32.2789 30.4925 30.511 30.3823 29.4615C30.3823 29.4615 29.9402 29.5166 29.8301 31.1184C29.7199 32.7202 29.664 33.9909 30.0511 35.2064C30.4383 36.422 30.3824 38.1314 30.3273 38.355C30.2722 38.5787 28.5594 40.233 25.8539 40.4541L25.5226 24.213L26.875 22.6369C26.875 22.6369 28.174 23.5497 30.3841 23.9368C30.3841 23.9368 30.9364 24.379 31.3235 25.2625C31.7106 26.146 31.3235 25.4285 31.3235 25.4285L33.9198 30.456L36.7372 34.6541L37.4555 34.4881L37.1209 36.0349Z" fill="black"/>
<path opacity="0.1" d="M19.2272 35.2065L18.0667 36.3111L18.1106 36.6879C18.4306 36.478 18.9709 36.404 19.3649 36.379L19.2272 35.2065Z" fill="black"/>
<path d="M37.1785 35.9798C37.1785 35.9798 35.7418 36.367 35.3005 37.0294L33.6436 35.9798L34.3619 35.4275C34.3619 35.4275 32.4822 32.9981 32.317 32.2239C32.317 32.2239 30.5492 30.456 30.4391 29.4065C30.4391 29.4065 29.9969 29.4615 29.8868 31.0634C29.7766 32.6652 29.7224 33.9358 30.107 35.1488C30.4915 36.3618 30.4382 38.0738 30.3831 38.2974C30.3281 38.5211 28.6153 40.1754 25.9097 40.3965L25.5785 24.1553L26.9308 22.5793C26.9308 22.5793 28.2299 23.4921 30.4399 23.8792C30.4399 23.8792 30.9922 24.3214 31.3793 25.2049C31.7665 26.0884 31.3793 25.3709 31.3793 25.3709L33.9757 30.3984L36.7931 34.5965L37.5114 34.4305L37.1785 35.9798Z" fill="#4D8AF0"/>
<path d="M48.2271 23.8267C48.2271 23.8267 48.7794 25.2074 47.4529 25.3184C46.1264 25.4294 49.1657 29.0176 49.1657 29.0176C49.1657 29.0176 51.9831 28.4102 52.4253 27.1947C52.8675 25.9791 52.7565 25.4819 52.0941 24.9296C51.4317 24.3773 50.3813 24.6534 50.3813 24.6534C50.3813 24.6534 49.663 24.2663 49.884 23.6589C50.1051 23.0516 48.2271 23.8267 48.2271 23.8267Z" fill="#FDB797"/>
<path opacity="0.1" d="M49.3316 25.4836C49.3316 25.4836 48.2821 25.6496 47.9509 25.0414C47.9509 25.0414 47.1225 25.7597 45.8002 25.4836C44.478 25.2074 43.314 30.345 43.314 30.345L40.2755 34.7092L41.7664 36.145C41.7664 36.145 42.871 35.5927 43.9764 33.7697C45.0819 31.9468 45.4131 31.1184 45.4131 31.1184L44.4737 33.9908L44.3076 36.1415C44.3076 36.1415 43.0921 37.2461 44.1416 39.18C44.1416 39.18 45.081 40.1195 46.8489 38.7378L48.9996 38.3507C48.9996 38.3507 50.4913 40.1186 51.3223 40.0635C52.1534 40.0085 52.9792 39.7323 53.3113 38.848C53.6434 37.9636 53.0902 33.9865 53.0902 33.9865H53.4214L53.5849 38.2458C53.5849 38.2458 55.4628 38.1357 55.6289 37.4173C55.7949 36.699 55.0766 27.1422 55.0766 27.1422C55.0766 27.1422 53.5281 25.2642 52.5353 24.767C51.5426 24.2697 50.7133 27.1405 50.7133 27.1405L49.4418 28.301L49.3316 25.4836Z" fill="black"/>
<path opacity="0.1" d="M49.3867 25.3176C49.3867 25.3176 48.6409 25.4561 48.3097 24.8478C48.3097 24.8478 47.1775 25.5937 45.851 25.3176C44.5244 25.0414 43.3648 30.179 43.3648 30.179L40.3271 34.5466L41.8189 35.9833C41.8189 35.9833 42.9235 35.431 44.0289 33.608C45.1344 31.7851 45.4656 30.9524 45.4656 30.9524L44.5262 33.8248L44.3601 35.9755C44.3601 35.9755 43.1428 37.0844 44.1941 39.02C44.1941 39.02 45.1335 39.9595 46.9014 38.5779L49.0521 38.1907C49.0521 38.1907 50.5438 39.9586 51.3748 39.9036C52.2059 39.8485 53.0317 39.5723 53.3638 38.688C53.6958 37.8036 53.1427 33.8266 53.1427 33.8266H53.4739L53.6382 38.0789C53.6382 38.0789 55.5162 37.9688 55.6822 37.2505C55.8483 36.5321 55.1317 26.9762 55.1317 26.9762C55.1317 26.9762 53.5832 25.0982 52.5904 24.6009C51.5976 24.1037 50.7675 26.9762 50.7675 26.9762L49.4968 28.1367L49.3867 25.3176Z" fill="black"/>
<path d="M49.3317 25.3734C49.3317 25.3734 48.5859 25.512 48.2547 24.9037C48.2547 24.9037 47.1225 25.6496 45.796 25.3734C44.4694 25.0973 43.3098 30.2349 43.3098 30.2349L40.2722 34.5982L41.7665 36.0349C41.7665 36.0349 42.8711 35.4826 43.9765 33.6596C45.082 31.8367 45.4132 31.0083 45.4132 31.0083L44.4737 33.8807L44.3077 36.0314C44.3077 36.0314 43.0921 37.136 44.1417 39.0699C44.1417 39.0699 45.0811 40.0093 46.849 38.6277L48.9997 38.2406C48.9997 38.2406 50.4914 40.0085 51.3224 39.9534C52.1534 39.8984 52.9793 39.6222 53.3114 38.7378C53.6434 37.8535 53.0903 33.8764 53.0903 33.8764H53.4215L53.5875 38.1305C53.5875 38.1305 55.4655 38.0204 55.6315 37.302C55.7976 36.5837 55.0792 27.0269 55.0792 27.0269C55.0792 27.0269 53.5307 25.1489 52.538 24.6517C51.5452 24.1544 50.7133 27.0303 50.7133 27.0303L49.4427 28.1909L49.3317 25.3734Z" fill="#252A62"/>
<path opacity="0.1" d="M23.3402 21.9203C23.3402 21.9203 21.821 22.6085 21.987 23.5497L22.8516 23.8121L23.3402 21.9203Z" fill="black"/>
<path d="M23.3402 21.8652C23.3402 21.8652 21.821 22.5535 21.987 23.4946L22.8516 23.757L23.3402 21.8652Z" fill="#3A68B4"/>
<path opacity="0.1" d="M26.1575 23.5772L27.3456 24.213V22.8314L26.6255 22.4941L26.1575 23.5772Z" fill="black"/>
<path d="M26.1575 23.5221L27.3456 24.1579V22.7763L26.6255 22.4382L26.1575 23.5221Z" fill="#3A68B4"/>
<path d="M19.8292 36.311C19.8292 36.311 17.8953 36.256 17.8403 37.0294C17.8403 37.0294 16.9568 35.0955 17.3981 33.3302C17.8394 31.5649 18.1723 26.0385 18.1723 26.0385C18.1723 26.0385 18.2824 24.1046 20.1062 23.7734C21.93 23.4422 20.1062 29.3531 20.1062 29.3531L19.609 33.3861V34.8228L19.9402 34.8778L19.8292 36.311Z" fill="#4D8AF0"/>
<path opacity="0.1" d="M19.5291 40.7578L21.186 39.8743L21.6832 40.2055L19.6943 41.4761L19.5291 40.7578Z" fill="black"/>
<path d="M19.4733 40.7027L21.131 39.8183L21.6283 40.1504L19.6393 41.4202L19.4733 40.7027Z" fill="#3E3F49"/>
<path opacity="0.1" d="M30.1355 40.7578L28.4777 39.8743L27.9805 40.2055L29.9694 41.4761L30.1355 40.7578Z" fill="black"/>
<path d="M30.1904 40.7027L28.5327 39.8183L28.0363 40.1504L30.0244 41.4202L30.1904 40.7027Z" fill="#3E3F49"/>
<path opacity="0.1" d="M23.4227 19.7937C23.4227 19.7937 23.4399 20.0595 23.4374 20.4518C23.6895 20.811 24.0244 21.1043 24.4136 21.307C24.8029 21.5098 25.2352 21.6159 25.6741 21.6166C25.8959 21.6167 26.117 21.5895 26.3322 21.5358C26.2539 21.1873 26.2169 20.8432 26.2978 20.623L23.4227 19.7937Z" fill="black"/>
<path d="M25.6724 21.5607C27.1965 21.5607 28.4321 20.2993 28.4321 18.7433C28.4321 17.1873 27.1965 15.9259 25.6724 15.9259C24.1482 15.9259 22.9126 17.1873 22.9126 18.7433C22.9126 20.2993 24.1482 21.5607 25.6724 21.5607Z" fill="#FDA57D"/>
<path opacity="0.1" d="M34.3337 35.3991L36.7442 34.5268L36.7648 34.5707L34.3887 35.4542L34.3337 35.3991Z" fill="black"/>
<path opacity="0.1" d="M17.3294 35.1488L19.6109 34.7479L19.5833 34.7892C19.5833 34.7892 17.2967 35.1841 17.363 35.3733L17.3294 35.1488Z" fill="black"/>
<path d="M19.8594 27.5001C19.8594 27.5001 19.6933 30.2074 20.0805 30.9807L19.8594 27.5001Z" fill="#4D8AF0"/>
<g opacity="0.1">
<path opacity="0.1" d="M31.3227 25.3735L33.919 30.4009L36.7364 34.5991L36.7846 34.5879L33.9741 30.4001L31.456 25.524C31.592 25.8724 31.3227 25.3735 31.3227 25.3735Z" fill="black"/>
<path opacity="0.1" d="M37.4513 34.446L37.1209 35.9798C37.1209 35.9798 35.7204 36.3575 35.2601 37.0053L35.298 37.0294C35.7402 36.3661 37.176 35.9798 37.176 35.9798L37.5072 34.4313L37.4513 34.446Z" fill="black"/>
<path opacity="0.1" d="M30.3832 23.8792C30.3832 23.8792 30.9355 24.3214 31.3226 25.2049C31.376 25.327 31.4147 25.4182 31.4414 25.4853C31.5317 25.6445 31.6582 25.8458 31.3777 25.2049C30.9906 24.3214 30.4383 23.8792 30.4383 23.8792C28.2282 23.4921 26.9292 22.5793 26.9292 22.5793L26.9086 22.6025C27.1297 22.7505 28.3839 23.5351 30.3832 23.8792Z" fill="black"/>
<path opacity="0.1" d="M29.886 31.0634C29.972 29.7996 30.2662 29.4985 30.3867 29.4288C30.3867 29.4219 30.3867 29.4142 30.3867 29.4073C30.3867 29.4004 29.9445 29.4624 29.8344 31.0642C29.7243 32.666 29.6683 33.9367 30.0555 35.1522C30.4426 36.3678 30.3867 38.0772 30.3316 38.3009C30.2766 38.5245 28.5835 40.1548 25.9089 40.3965C28.6162 40.1754 30.3282 38.5185 30.3824 38.2974C30.4366 38.0763 30.4925 36.3635 30.1062 35.1488C29.72 33.9341 29.7759 32.6652 29.886 31.0634Z" fill="black"/>
</g>
<path opacity="0.1" d="M29.0851 26.4505C29.0851 26.4505 30.2457 28.9367 30.1897 29.0469L29.0851 26.4505Z" fill="black"/>
<path opacity="0.1" d="M28.3116 34.1844C28.4776 34.1294 29.6502 33.3242 29.8369 32.623L28.3116 34.1844Z" fill="black"/>
<path opacity="0.1" d="M28.3116 34.9578C28.4776 34.9027 29.6502 34.0975 29.8369 33.3964L28.3116 34.9578Z" fill="black"/>
<path d="M26.1575 26.6157C26.2492 26.6157 26.3235 26.5414 26.3235 26.4497C26.3235 26.358 26.2492 26.2836 26.1575 26.2836C26.0658 26.2836 25.9915 26.358 25.9915 26.4497C25.9915 26.5414 26.0658 26.6157 26.1575 26.6157Z" fill="white"/>
<path d="M26.1575 29.1019C26.2492 29.1019 26.3235 29.0276 26.3235 28.9359C26.3235 28.8442 26.2492 28.7698 26.1575 28.7698C26.0658 28.7698 25.9915 28.8442 25.9915 28.9359C25.9915 29.0276 26.0658 29.1019 26.1575 29.1019Z" fill="white"/>
<path d="M26.1575 27.6102C26.2492 27.6102 26.3235 27.5359 26.3235 27.4442C26.3235 27.3525 26.2492 27.2781 26.1575 27.2781C26.0658 27.2781 25.9915 27.3525 25.9915 27.4442C25.9915 27.5359 26.0658 27.6102 26.1575 27.6102Z" fill="white"/>
<path d="M26.2133 30.5936C26.305 30.5936 26.3794 30.5193 26.3794 30.4276C26.3794 30.3359 26.305 30.2615 26.2133 30.2615C26.1216 30.2615 26.0473 30.3359 26.0473 30.4276C26.0473 30.5193 26.1216 30.5936 26.2133 30.5936Z" fill="white"/>
<path d="M26.2133 33.0789C26.305 33.0789 26.3794 33.0046 26.3794 32.9129C26.3794 32.8212 26.305 32.7469 26.2133 32.7469C26.1216 32.7469 26.0473 32.8212 26.0473 32.9129C26.0473 33.0046 26.1216 33.0789 26.2133 33.0789Z" fill="white"/>
<path d="M26.2133 31.5881C26.305 31.5881 26.3794 31.5138 26.3794 31.4221C26.3794 31.3304 26.305 31.2561 26.2133 31.2561C26.1216 31.2561 26.0473 31.3304 26.0473 31.4221C26.0473 31.5138 26.1216 31.5881 26.2133 31.5881Z" fill="white"/>
<path d="M26.2684 34.5707C26.3601 34.5707 26.4344 34.4964 26.4344 34.4047C26.4344 34.313 26.3601 34.2386 26.2684 34.2386C26.1767 34.2386 26.1024 34.313 26.1024 34.4047C26.1024 34.4964 26.1767 34.5707 26.2684 34.5707Z" fill="white"/>
<path d="M26.2684 37.0569C26.3601 37.0569 26.4344 36.9825 26.4344 36.8908C26.4344 36.7991 26.3601 36.7248 26.2684 36.7248C26.1767 36.7248 26.1024 36.7991 26.1024 36.8908C26.1024 36.9825 26.1767 37.0569 26.2684 37.0569Z" fill="white"/>
<path d="M26.2684 35.5652C26.3601 35.5652 26.4344 35.4908 26.4344 35.3991C26.4344 35.3074 26.3601 35.2331 26.2684 35.2331C26.1767 35.2331 26.1024 35.3074 26.1024 35.3991C26.1024 35.4908 26.1767 35.5652 26.2684 35.5652Z" fill="white"/>
<path opacity="0.1" d="M45.8784 29.3781C45.8784 29.3781 45.7124 31.6432 46.2096 32.3615L45.8784 29.3781Z" fill="black"/>
<path opacity="0.1" d="M52.6738 29.6542C52.6738 29.6542 53.3922 31.8643 52.95 33.411L52.6738 29.6542Z" fill="black"/>
<path opacity="0.1" d="M43.3098 30.345C43.3098 30.345 44.17 32.1955 44.4978 32.1955L43.3098 30.345Z" fill="black"/>
<path opacity="0.1" d="M27.2207 18.4594C27.5473 18.6046 27.9093 18.6504 28.2617 18.591C28.3728 18.5831 28.4804 18.5489 28.5757 18.4912C28.8647 18.2899 28.7908 17.803 29.0497 17.569C29.1684 17.4606 29.343 17.4176 29.4368 17.2868C29.4882 17.2022 29.5192 17.1068 29.5271 17.0081C29.5925 16.59 29.6132 16.0868 29.2777 15.8261C28.8845 15.5181 28.3021 15.7728 27.8152 15.654C27.6079 15.6041 27.4246 15.482 27.2345 15.3891C26.4603 14.9959 25.5699 14.9366 24.7044 14.9366C24.2743 14.9366 23.8304 14.9503 23.414 15.0699C22.9976 15.1895 22.5976 15.4243 22.3593 15.7874C22.2349 15.9924 22.1424 16.2152 22.0849 16.4481C21.8246 17.3681 21.7426 18.3293 21.8432 19.2801C21.881 19.6371 21.9593 20.0191 22.226 20.2591C22.4026 20.4064 22.6198 20.4964 22.8488 20.5172C23.1663 20.5568 23.5568 20.4613 23.6558 20.1576C23.7375 19.9072 23.611 19.5554 23.833 19.4178C23.9269 19.3719 24.0328 19.3568 24.1358 19.3747L24.984 19.4332C25.1036 19.4418 25.2352 19.4461 25.3281 19.3713C25.41 19.29 25.4564 19.1796 25.4572 19.0642C25.4942 18.7149 25.2997 17.5458 25.7927 17.4959C26.2856 17.446 26.8181 18.2624 27.2207 18.4594Z" fill="black"/>
<path d="M27.1658 18.4052C27.4923 18.5504 27.8543 18.5962 28.2067 18.5368C28.3178 18.5289 28.4254 18.4947 28.5207 18.437C28.8097 18.2357 28.7358 17.7488 28.9947 17.5148C29.1134 17.4064 29.2881 17.3634 29.3818 17.2327C29.4332 17.1481 29.4642 17.0526 29.4722 16.9539C29.5375 16.5358 29.5582 16.0326 29.2227 15.7719C28.8295 15.4639 28.2471 15.7186 27.7602 15.5999C27.5529 15.55 27.3696 15.4278 27.1795 15.3349C26.4053 14.9417 25.5149 14.8824 24.6494 14.8824C24.2193 14.8824 23.7754 14.8961 23.359 15.0157C22.9427 15.1353 22.5426 15.3702 22.3043 15.7332C22.1799 15.9383 22.0874 16.161 22.0299 16.3939C21.7696 17.3139 21.6876 18.2751 21.7882 19.2259C21.826 19.5829 21.9043 19.9649 22.171 20.2049C22.3476 20.3522 22.5648 20.4422 22.7938 20.463C23.1113 20.5026 23.5018 20.4071 23.6008 20.1034C23.6825 19.8531 23.556 19.5012 23.778 19.3636C23.8719 19.3177 23.9779 19.3027 24.0808 19.3206L24.929 19.3791C25.0486 19.3877 25.1802 19.392 25.2731 19.3171C25.355 19.2358 25.4014 19.1254 25.4022 19.01C25.4392 18.6607 25.2448 17.4916 25.7377 17.4417C26.2306 17.3918 26.7631 18.2074 27.1658 18.4052Z" fill="#6D65C9"/>
<path opacity="0.1" d="M49.9391 23.7157C50.1602 23.1083 48.2822 23.8817 48.2822 23.8817C48.3712 24.1206 48.4074 24.376 48.388 24.6302C48.9719 24.7765 49.5878 24.7241 50.1386 24.4813C49.9726 24.3041 49.8203 24.0417 49.9391 23.7157Z" fill="black"/>
<path d="M49.1511 24.6543C50.6752 24.6543 51.9108 23.3929 51.9108 21.8369C51.9108 20.2809 50.6752 19.0195 49.1511 19.0195C47.6269 19.0195 46.3913 20.2809 46.3913 21.8369C46.3913 23.3929 47.6269 24.6543 49.1511 24.6543Z" fill="#FDB797"/>
<path opacity="0.1" d="M48.0826 20.2763C48.5687 20.3735 49.0917 20.5912 49.2259 20.999C49.2896 21.1934 49.2561 21.4119 49.3756 21.5865C49.4565 21.6855 49.5529 21.7707 49.6612 21.8386C50.1146 22.1741 50.463 22.6842 50.3254 23.1815C50.2239 23.5488 49.8755 23.843 49.7903 24.2138C49.6888 24.6543 49.977 25.0835 50.2247 25.481C50.4725 25.8784 50.6919 26.3568 50.463 26.7619C50.3546 26.9538 50.1533 27.1061 50.0922 27.3134C49.9735 27.7143 50.4252 28.0653 50.8484 28.27C51.3592 28.5165 51.8947 28.708 52.446 28.8412C52.7324 28.9109 53.0284 28.9668 53.2847 29.0993C53.4482 29.1853 53.5893 29.2929 53.7493 29.3798C54.1776 29.6027 54.6749 29.6535 55.1395 29.5217L54.6999 28.898C55.1865 29.0433 55.7072 29.0258 56.183 28.8481C55.9988 28.7735 55.8345 28.6569 55.7033 28.5075C55.5722 28.3582 55.4778 28.1802 55.4277 27.9878C55.8855 27.8769 56.2983 27.6283 56.6106 27.2755C56.7723 27.0863 56.8927 26.8308 56.7654 26.6234C56.6381 26.4161 56.3619 26.3654 56.1262 26.2673C55.5928 26.0531 55.21 25.5903 55.1524 25.0922C55.1137 24.7549 55.2031 24.379 54.9743 24.1011C54.8754 23.9807 54.7274 23.8964 54.6044 23.7923C54.342 23.5703 54.2026 23.2658 54.0822 22.969C53.7408 22.1292 53.4913 21.255 53.3381 20.3615C53.2701 19.9623 53.2193 19.5528 53.0198 19.1864C52.5604 18.3433 51.4248 17.9235 50.3452 17.7721C49.9193 17.7127 49.4771 17.686 49.0608 17.7807C48.6964 17.8775 48.3515 18.0368 48.0413 18.2512C47.5424 18.5721 46.9161 19.0349 46.7354 19.5683C46.5298 20.1714 47.6009 20.18 48.0826 20.2763Z" fill="black"/>
<path d="M48.1375 20.2213C48.6236 20.3185 49.1466 20.5361 49.2808 20.9439C49.3445 21.1383 49.311 21.3568 49.4305 21.5315C49.5114 21.6305 49.6078 21.7156 49.7161 21.7835C50.1695 22.119 50.5179 22.6292 50.3803 23.1264C50.2788 23.4938 49.9304 23.788 49.8452 24.1587C49.7437 24.5992 50.0319 25.0285 50.2796 25.4259C50.5274 25.8234 50.7468 26.3017 50.5179 26.7069C50.4095 26.8987 50.2082 27.051 50.1471 27.2583C50.0284 27.6592 50.4801 28.0102 50.9033 28.215C51.414 28.4602 51.9492 28.6505 52.5 28.7827C52.7865 28.8524 53.0824 28.9083 53.3388 29.0408C53.5022 29.1268 53.6433 29.2344 53.8033 29.3213C54.2317 29.5442 54.729 29.595 55.1935 29.4632L54.7565 28.8395C55.2431 28.9848 55.7639 28.9673 56.2396 28.7896C56.0554 28.715 55.8911 28.5984 55.76 28.449C55.6288 28.2997 55.5344 28.1217 55.4843 27.9293C55.9421 27.8184 56.355 27.5698 56.6672 27.217C56.8289 27.0278 56.9494 26.7723 56.822 26.5649C56.6947 26.3576 56.4186 26.3069 56.1829 26.2088C55.6495 25.9946 55.2667 25.5318 55.209 25.0337C55.1703 24.6964 55.2598 24.3205 55.0309 24.0426C54.932 23.9222 54.784 23.8379 54.661 23.7338C54.3986 23.5118 54.2593 23.2073 54.1388 22.9105C53.7974 22.0707 53.5479 21.1965 53.3947 20.303C53.3267 19.9038 53.276 19.4943 53.0764 19.1278C52.617 18.2848 51.4814 17.865 50.4018 17.7136C49.976 17.6542 49.5338 17.6275 49.1174 17.7222C48.753 17.819 48.4081 17.9783 48.098 18.1927C47.599 18.5136 46.9727 18.9764 46.7921 19.5098C46.5839 20.1163 47.6558 20.1249 48.1375 20.2213Z" fill="#E3684E"/>
<path d="M21.1326 4.14955C20.9606 4.14955 20.767 4.14955 20.6345 4.15816C20.5761 4.161 20.5184 4.17111 20.4625 4.18827L19.5712 4.45753C20.2913 4.47302 21.0414 4.46786 21.7778 4.46355L25.9123 4.43689C26.3339 4.43689 26.7769 4.43086 27.1288 4.40936C27.3645 4.39559 27.5383 4.37409 27.755 4.35774C28.5379 4.29924 29.6786 4.31042 30.6981 4.31301C31.7175 4.31559 32.9477 4.29322 33.3064 4.20719H31.1187C30.883 4.20719 30.6352 4.20719 30.4305 4.19687C30.187 4.18482 30.0391 4.16246 29.8283 4.14697C29.4747 4.12116 28.9861 4.11858 28.5319 4.11686C26.031 4.11084 23.5681 4.15988 21.1326 4.14955Z" fill="#F4F4F4"/>
<path d="M23.0253 12.0641C22.8533 12.0641 22.6597 12.0641 22.5272 12.0727C22.4688 12.0756 22.4111 12.0857 22.3552 12.1028L21.4639 12.3721C22.184 12.3876 22.9341 12.3824 23.6705 12.3781L27.805 12.3515C28.2266 12.3515 28.6696 12.3454 29.0215 12.3239C29.2572 12.3102 29.431 12.2887 29.6477 12.2723C30.4306 12.2138 31.5713 12.225 32.5908 12.2276C33.6102 12.2302 34.8404 12.2078 35.1991 12.1218H33.0114C32.7757 12.1218 32.5279 12.1218 32.3232 12.1115C32.0797 12.0994 31.9318 12.077 31.721 12.0616C31.3674 12.0357 30.8788 12.0332 30.4246 12.0314C27.9237 12.0254 25.4608 12.0745 23.0253 12.0641Z" fill="#F4F4F4"/>
</svg>
