<svg width="142" height="107" viewBox="0 0 142 107" fill="none" xmlns="http://www.w3.org/2000/svg">
<path fill-rule="evenodd" clip-rule="evenodd" d="M86.9584 78.3329C87.2893 78.1443 87.8966 77.789 88.4518 77.0826C89.007 76.3762 89.504 75.3175 89.8601 74.1961C90.2161 73.0746 90.4252 71.8891 90.331 70.5553C90.243 69.2225 89.8519 67.7413 89.4211 66.557C88.9902 65.3728 88.5198 64.4855 87.8013 63.5672C87.0829 62.6489 86.1167 61.6996 85.4096 61.1126C84.7097 60.5205 84.2628 60.2897 83.6677 60.4318C83.0727 60.5739 82.3173 61.0867 81.7621 61.9007C81.2019 62.7076 80.8335 63.8269 80.571 65.1359C80.3035 66.4377 80.1397 67.9413 80.3744 69.5914C80.6091 71.2413 81.2485 73.0386 81.8676 74.3764C82.4866 75.7142 83.0876 76.5801 83.6552 77.1679C84.228 77.7629 84.7746 78.0746 85.2426 78.2584C85.7166 78.4433 86.118 78.5014 86.3485 78.5231C86.5729 78.5436 86.6275 78.5215 86.9584 78.3329Z" fill="#3B7B49"/>
<path fill-rule="evenodd" clip-rule="evenodd" d="M89.5137 75.1547C89.5566 75.0546 89.6007 74.9483 89.6387 74.841C89.5082 74.9701 89.3634 75.1091 89.199 75.2512C88.9302 75.4825 88.608 75.7296 88.284 75.9511C87.9516 76.1838 87.6247 76.3859 87.3661 76.5239C86.9188 76.7617 86.6941 76.7791 86.491 76.7812C86.3952 76.1754 86.277 75.4452 86.1226 74.5251C86.2664 74.4997 86.4112 74.4683 86.5666 74.4133C86.7537 74.3577 86.9546 74.2601 87.1959 74.1127C87.4249 73.9631 87.6811 73.7676 87.956 73.5374C88.2465 73.291 88.5567 73.0037 88.8403 72.7244C89.1167 72.4501 89.3674 72.1777 89.5946 71.8948C89.828 71.6129 90.0255 71.3185 90.1884 71.0052C90.2448 70.9011 90.2961 70.7898 90.3412 70.6775C90.3354 70.6385 90.3369 70.5943 90.3311 70.5553C90.3308 70.4856 90.3232 70.4209 90.3156 70.3562C90.243 70.5524 90.157 70.7525 90.061 70.9383C89.9053 71.2465 89.7098 71.5287 89.4899 71.8065C89.2638 72.0833 89.0131 72.3558 88.7439 72.625C88.4542 72.9032 88.1512 73.1854 87.8607 73.4319C87.5991 73.658 87.343 73.8536 87.1223 73.9919C86.8944 74.1354 86.7007 74.2279 86.5258 74.2857C86.3716 74.3345 86.2401 74.362 86.1024 74.3884L86.0005 73.7814C85.8685 72.9855 85.7141 72.0653 85.5391 71.0465C85.7403 70.9111 85.9354 70.7744 86.1554 70.6042C86.3971 70.4189 86.6648 70.1938 86.9906 69.8902C87.3464 69.5603 87.7636 69.1336 88.1563 68.7025C88.4868 68.3365 88.7928 67.9662 89.0132 67.6503C89.2585 67.301 89.3986 67.009 89.4882 66.7524C89.4683 66.6856 89.4423 66.6177 89.4213 66.557L89.4134 66.5302C89.3296 66.8258 89.1891 67.1557 88.9012 67.5672C88.6809 67.883 88.376 68.2472 88.0527 68.6082C87.6672 69.0343 87.2439 69.4599 86.8942 69.7909C86.5694 70.0883 86.309 70.3084 86.0735 70.4948C85.869 70.6487 85.6884 70.7752 85.515 70.8966C85.3331 69.8449 85.1368 68.6957 84.9277 67.4746C85.349 67.1688 85.7651 66.8559 86.1726 66.3768C86.3749 66.1275 86.5775 65.8402 86.7661 65.5251C86.9474 65.2151 87.1208 64.8784 87.2624 64.5424C87.426 64.1532 87.5455 63.7626 87.6517 63.3761C87.6152 63.3317 87.5787 63.2872 87.5421 63.2428C87.4317 63.6539 87.3078 64.0691 87.1316 64.494C86.9921 64.8177 86.826 65.1494 86.6446 65.4595C86.4583 65.7622 86.2629 66.0444 86.0616 66.2876C85.6852 66.7342 85.2969 67.0331 84.9045 67.3185C84.7256 66.2864 84.5379 65.1956 84.3473 64.0854C84.7386 63.6984 85.1308 63.3053 85.444 62.8222C85.677 62.4706 85.8612 62.0725 86.0292 61.6588L85.9204 61.5573C85.7442 61.9821 85.5578 62.3926 85.3299 62.7514C85.0438 63.1886 84.6815 63.5554 84.3202 63.916L83.8892 61.4398C83.9586 61.3697 84.029 61.2934 84.1006 61.211C84.1804 61.1175 84.2573 61.0044 84.3346 60.8533C84.3909 60.7493 84.4433 60.6319 84.4928 60.4949C84.4509 60.4812 84.404 60.4602 84.3621 60.4465C84.3136 60.5773 84.2613 60.6947 84.2122 60.7937C84.1381 60.9263 84.0684 61.0343 83.9958 61.1229C83.9481 61.1778 83.9026 61.2204 83.8621 61.2703L83.7142 60.421C83.7008 60.425 83.6813 60.4278 83.6679 60.4318C83.6412 60.4397 83.6083 60.4467 83.5744 60.4597L84.0278 63.0601C83.6658 62.9583 83.2998 62.8432 82.9233 62.6438C82.7263 62.5394 82.5215 62.4083 82.3422 62.2754C82.1395 62.1319 81.9697 61.9817 81.8508 61.8657C81.8345 61.8502 81.8244 61.8357 81.8132 61.8274C81.7966 61.8499 81.78 61.8723 81.7623 61.9008L81.7302 61.9395L81.7515 61.9623C81.8754 62.0854 82.0564 62.244 82.2581 62.3936C82.4496 62.5287 82.6545 62.6598 82.8575 62.7652C83.2676 62.9895 83.6593 63.103 84.052 63.2102C84.2505 64.3471 84.44 65.4635 84.6247 66.5347C84.3895 66.4678 84.1554 66.3949 83.9162 66.3147C83.6352 66.2208 83.35 66.1135 83.0509 65.9785C82.7455 65.8423 82.4261 65.6783 82.1223 65.4981C81.8184 65.3179 81.5218 65.1326 81.2703 64.9426C81.0626 64.792 80.8815 64.6334 80.7117 64.4831C80.7019 64.5384 80.6871 64.5864 80.6774 64.6417C80.831 64.7764 80.9957 64.9195 81.1872 65.0545C81.4448 65.2457 81.7404 65.4371 82.0504 65.6184C82.3604 65.7997 82.6849 65.9709 82.9902 66.1071C83.2955 66.2432 83.5867 66.3516 83.8678 66.4455C84.1305 66.5361 84.3892 66.6134 84.6541 66.6918C84.8515 67.8348 85.0381 68.9317 85.212 69.9567C84.9027 69.9148 84.5935 69.8729 84.2701 69.8032C83.9149 69.7343 83.5344 69.6292 83.1197 69.4674C82.7222 69.315 82.2894 69.112 81.8782 68.8938C81.4211 68.6486 80.993 68.383 80.6598 68.1533C80.508 68.0443 80.3798 67.9457 80.2627 67.8553C80.2591 67.9117 80.2606 67.9753 80.2631 68.0327C80.3578 68.1064 80.4637 68.1885 80.5768 68.2654C80.915 68.5023 81.3493 68.7689 81.8125 69.0152C82.2287 69.2406 82.6677 69.4447 83.0713 69.5982C83.4922 69.761 83.8788 69.8672 84.239 69.9434C84.588 70.0113 84.9158 70.0564 85.2373 70.1004C85.4532 71.3544 85.6444 72.4964 85.8086 73.469C85.2146 73.3896 84.6156 73.3029 83.9385 73.1202C83.5631 73.0223 83.1726 72.9028 82.7802 72.7576C82.4124 72.6168 82.0467 72.4637 81.7038 72.2892C81.4242 72.1512 81.1539 71.9959 80.8909 71.8355C80.9169 71.9034 80.9368 71.9703 80.9567 72.0371C81.1799 72.1715 81.4043 72.2997 81.6432 72.4178C81.9871 72.5861 82.3579 72.7465 82.7318 72.8884C83.1303 73.0347 83.5259 73.1614 83.9013 73.2593C84.6041 73.4402 85.2215 73.53 85.834 73.6127L85.864 73.8016C86.0086 74.6694 86.1229 75.3862 86.2249 75.9932C85.5879 75.9062 84.9582 75.8142 84.3811 75.6744C84.0762 75.608 83.7941 75.5202 83.5017 75.418C83.2167 75.3107 82.9287 75.184 82.6266 75.0293C82.4286 74.9312 82.2267 74.8195 82.0208 74.6945C82.058 74.7708 82.0952 74.847 82.1324 74.9232C82.2763 75.0055 82.4211 75.0818 82.5598 75.1569C82.868 75.3126 83.1622 75.4404 83.4534 75.5488C83.7446 75.6571 84.0401 75.7409 84.3502 75.8145C84.9456 75.9575 85.5948 76.0466 86.2441 76.1359C86.337 76.7222 86.4115 77.1976 86.4722 77.6074C85.9859 77.5279 85.4996 77.4485 85.1159 77.3619C84.9143 77.32 84.7383 77.2763 84.5707 77.2214C84.3969 77.1654 84.2314 77.0983 84.0436 77.0145C83.7812 76.8859 83.4691 76.7168 83.1804 76.5583L83.0998 76.5124C83.1717 76.6074 83.2498 76.7035 83.3227 76.7924C83.5482 76.9145 83.7787 77.0438 83.9839 77.137C84.1769 77.228 84.3485 77.2963 84.5284 77.3533C84.7022 77.4093 84.8771 77.4591 85.0848 77.5021C85.4819 77.5848 85.9855 77.6736 86.4964 77.7573C86.5369 78.0304 86.5756 78.2779 86.6053 78.5048C86.6454 78.4929 86.6855 78.481 86.7411 78.4528C86.6764 78.0297 86.6102 77.5431 86.5115 76.9177C86.7268 76.9177 86.966 76.8902 87.4327 76.6495C87.6914 76.5115 88.0266 76.2983 88.3651 76.0666C88.6903 75.8389 89.0186 75.5928 89.2885 75.3554C89.3699 75.2876 89.4443 75.2248 89.5137 75.1547Z" fill="#133124"/>
<path fill-rule="evenodd" clip-rule="evenodd" d="M126.352 52.9297C126.201 52.8525 126.005 52.8876 125.786 52.7286C125.566 52.5758 125.329 52.2301 125.125 51.3392C124.921 50.4483 124.756 49.0133 124.786 47.5872C124.815 46.1674 125.038 44.7565 125.739 43.1512C126.446 41.547 127.625 39.7472 128.783 38.3871C129.941 37.027 131.067 36.0984 131.834 35.6319C132.593 35.1704 132.988 35.1578 133.252 35.2361C133.523 35.3155 133.659 35.4789 133.732 35.5677C133.799 35.6555 133.797 35.6677 133.887 35.6583C133.979 35.6427 134.163 35.6056 134.377 35.6814C134.591 35.7634 134.835 35.9584 135.136 36.8728C135.432 37.78 135.786 39.4003 135.717 40.9777C135.642 42.554 135.149 44.0885 134.471 45.5648C133.793 47.0411 132.93 48.4531 131.937 49.7348C130.951 51.0175 129.837 52.1636 128.943 52.7469C128.048 53.3301 127.367 53.3494 126.982 53.2689C126.597 53.1884 126.497 53.006 126.352 52.9297Z" fill="#3B7B49"/>
<path fill-rule="evenodd" clip-rule="evenodd" d="M126.352 52.9298C126.317 52.911 126.275 52.8973 126.232 52.8897C126.217 52.868 126.196 52.8453 126.176 52.8164C126.12 52.7369 126.033 52.6202 125.921 52.4613C125.81 52.3023 125.679 52.1145 125.54 51.8937C125.395 51.6781 125.246 51.4429 125.094 51.1943C125.071 51.0701 125.044 50.9386 125.017 50.8009L125.189 51.0845C125.358 51.3486 125.515 51.6044 125.656 51.8128C125.8 52.0346 125.932 52.2225 126.038 52.3742C126.144 52.5259 126.23 52.6487 126.292 52.7293C126.307 52.751 126.318 52.7654 126.328 52.7799C126.585 52.0399 126.85 51.2888 127.188 50.3794C127.139 50.3328 127.07 50.2572 126.961 50.124C126.828 49.9801 126.638 49.7631 126.412 49.4636C126.185 49.1703 125.928 48.7957 125.672 48.3451C125.392 47.8524 125.116 47.2591 124.841 46.6281C124.846 46.5276 124.856 46.4344 124.868 46.335C125.178 47.0547 125.484 47.7231 125.799 48.2725C126.049 48.7219 126.302 49.0832 126.523 49.3754C126.744 49.6677 126.939 49.8859 127.065 50.0348C127.149 50.1319 127.208 50.193 127.246 50.2312C127.521 49.4945 127.847 48.6527 128.269 47.6251C128.592 46.8335 128.966 45.9367 129.365 45.0002C129.291 44.9554 129.234 44.8821 129.147 44.7654C129.028 44.6115 128.858 44.3915 128.659 44.0841C128.46 43.7767 128.243 43.3901 128.035 42.9165C127.743 42.2381 127.477 41.3804 127.224 40.4808C127.258 40.4298 127.293 40.3727 127.328 40.3218C127.591 41.2676 127.865 42.1582 128.166 42.8572C128.369 43.3236 128.587 43.7041 128.781 44.0043C128.969 44.3034 129.144 44.5306 129.257 44.6773C129.324 44.7651 129.371 44.8239 129.423 44.8521C129.646 44.3405 129.873 43.8105 130.098 43.2865C130.452 42.4624 130.812 41.6454 131.148 40.8878C131.088 40.8329 131.044 40.7238 130.985 40.5551C130.908 40.3451 130.792 40.0334 130.668 39.6569C130.55 39.2877 130.425 38.8477 130.326 38.3997C130.23 37.9394 130.168 37.4661 130.114 36.9817C130.158 36.9452 130.204 36.9025 130.248 36.866C130.298 37.3751 130.366 37.8874 130.47 38.3743C130.563 38.8151 130.683 39.2479 130.803 39.611C130.922 39.9802 131.038 40.292 131.115 40.5019C131.153 40.6099 131.184 40.6851 131.221 40.7233C131.459 40.2015 131.678 39.7145 131.883 39.2694C132.239 38.5088 132.54 37.8779 132.807 37.3298C132.749 37.2688 132.708 37.1412 132.642 36.9397C132.569 36.7052 132.454 36.3555 132.323 35.9462L132.164 35.4494C132.212 35.4263 132.254 35.4021 132.296 35.384L132.464 35.9013C132.593 36.3168 132.709 36.6665 132.783 36.8948C132.823 37.0285 132.852 37.1159 132.892 37.1737C133.207 36.5389 133.479 36.0359 133.731 35.5738C133.789 35.641 133.798 35.6616 133.848 35.6641C133.598 36.1139 133.332 36.618 133.021 37.2344C133.09 37.234 133.19 37.2073 133.344 37.1585L133.364 37.1556C133.619 37.0739 134.005 36.9647 134.46 36.8296L135.061 36.6506C135.078 36.698 135.09 36.7381 135.107 36.7854L134.499 36.9694C134.051 37.0995 133.665 37.2086 133.403 37.2893L133.383 37.2982C133.169 37.3618 133.029 37.4005 132.941 37.3977C132.668 37.9386 132.367 38.5694 132.011 39.33C131.813 39.7701 131.589 40.2499 131.366 40.7615C131.483 40.7442 131.675 40.6639 132.031 40.5114L135.608 38.9762C135.618 39.0224 135.622 39.0737 135.627 39.1189L132.09 40.6422C131.659 40.8258 131.432 40.9251 131.286 40.931C130.948 41.6948 130.588 42.5178 130.227 43.3409C130.003 43.8586 129.785 44.3775 129.562 44.8891C129.676 44.8902 129.846 44.8569 130.143 44.789C130.512 44.7084 131.059 44.5894 131.649 44.4401C132.24 44.2847 132.873 44.105 133.416 43.8969C133.965 43.6959 134.417 43.4653 134.827 43.2211C135.046 43.0949 135.246 42.9655 135.446 42.8362C135.428 42.9027 135.409 42.9753 135.391 43.0418C135.233 43.1469 135.07 43.2449 134.9 43.3479C134.484 43.5911 134.025 43.8206 133.468 44.0327C132.919 44.2398 132.278 44.4246 131.681 44.5789C131.091 44.7282 130.545 44.8471 130.176 44.9278C129.82 45.0044 129.629 45.0467 129.504 45.0373C129.104 45.98 128.722 46.888 128.399 47.6796C127.983 48.7082 127.651 49.549 127.375 50.2857C127.492 50.2684 127.726 50.2398 128.403 50.0995C128.745 50.0269 129.194 49.9223 129.679 49.7926C130.158 49.6618 130.674 49.4995 131.146 49.3039C131.815 49.0293 132.388 48.687 132.939 48.3282C132.87 48.4301 132.809 48.5269 132.74 48.6288C132.27 48.9258 131.765 49.2041 131.198 49.4397C130.726 49.6352 130.204 49.7964 129.712 49.9313C129.226 50.061 128.771 50.1644 128.429 50.2371C127.751 50.3835 127.512 50.411 127.395 50.4283C127.363 50.4291 127.343 50.432 127.324 50.4348C126.978 51.3555 126.713 52.1005 126.455 52.8466C126.499 52.848 126.564 52.8404 126.66 52.8321C126.821 52.8223 127.052 52.7999 127.35 52.7637C127.643 52.7203 127.995 52.6622 128.381 52.5591C128.772 52.4571 129.201 52.3237 129.646 52.168L129.735 52.133C129.629 52.2283 129.532 52.3125 129.429 52.3957C129.073 52.5102 128.738 52.6158 128.419 52.6989C128.028 52.8009 127.668 52.8641 127.369 52.9064C127.072 52.9425 126.833 52.9639 126.673 52.9737C126.57 52.9871 126.493 52.9925 126.436 52.9889C126.409 52.9652 126.38 52.9475 126.352 52.9298Z" fill="#133124"/>
<path fill-rule="evenodd" clip-rule="evenodd" d="M94.0782 24.1236C94.2667 23.2702 94.6303 21.675 94.6047 19.8086C94.5731 17.9411 94.1584 15.8034 93.1928 14.0246C92.2333 12.2468 90.7168 10.8268 89.3896 9.76944C88.0624 8.71216 86.9236 8.02367 85.6861 7.3558C84.4486 6.68794 83.1186 6.04179 82.2984 5.48554C81.4843 4.93036 81.1789 4.47117 81.0287 4.31803C80.8794 4.15873 80.8863 4.29926 80.9584 5.68625C81.0355 7.08046 81.1729 9.71389 81.834 11.9266C82.494 14.1456 83.6667 15.9356 85.2858 17.4561C86.9038 18.9827 88.9623 20.2386 90.3581 21.3016C91.759 22.3719 92.5023 23.2566 92.9626 23.8065C93.4241 24.3502 93.5953 24.564 93.6972 24.7403C93.7992 24.9166 93.8317 25.0553 93.8541 25.072C93.8764 25.0886 93.8897 24.977 94.0782 24.1236Z" fill="#2F8463"/>
<path fill-rule="evenodd" clip-rule="evenodd" d="M94.0788 24.1237C94.2672 23.2703 94.6308 21.6751 94.6053 19.8087C94.5736 17.9412 94.1589 15.8035 93.1933 14.0247C92.2339 12.2469 90.7173 10.8269 89.3902 9.76954C88.063 8.71226 86.9242 8.02376 85.6866 7.35589C84.4491 6.68803 83.1191 6.04189 82.2989 5.48564C81.495 4.94487 81.1886 4.49188 81.0343 4.32536C81.0889 4.6263 81.1608 4.93664 81.6794 5.83873C82.2019 6.75412 83.1975 8.29132 84.4055 9.80888C85.6135 11.3265 87.0339 12.8246 88.2727 14.2399C89.5114 15.6552 90.56 16.9991 91.4045 18.3513C92.249 19.7035 92.8811 21.0752 93.2592 22.1996C93.6322 23.3166 93.7428 24.1974 93.7993 24.6317C93.8257 24.877 93.8391 24.9807 93.8485 25.071L93.8546 25.0721C93.8769 25.0887 93.8903 24.9771 94.0788 24.1237Z" fill="#1F553F"/>
<path fill-rule="evenodd" clip-rule="evenodd" d="M87.0981 12.532C87.0457 12.5418 86.9373 12.0793 86.999 11.6215C87.0607 11.1638 87.2937 10.7045 87.4002 10.4954C87.514 10.2811 87.4952 10.3158 87.4378 10.5337C87.3742 10.7505 87.2649 11.1555 87.2115 11.602C87.158 12.0486 87.1567 12.5233 87.0981 12.532Z" fill="#133124"/>
<path fill-rule="evenodd" clip-rule="evenodd" d="M88.8406 14.2515C88.7882 14.2613 88.6797 13.7988 88.7414 13.341C88.8031 12.8832 89.035 12.4302 89.1427 12.2149C89.2554 12.0067 89.2377 12.0353 89.1803 12.2532C89.1167 12.47 89.0063 12.8811 88.9539 13.3215C88.8943 13.7669 88.898 14.2489 88.8406 14.2515Z" fill="#133124"/>
<path fill-rule="evenodd" clip-rule="evenodd" d="M90.888 16.8987C90.8295 16.9074 90.7211 16.445 90.7828 15.9872C90.8506 15.5305 91.0825 15.0774 91.1902 14.8621C91.2967 14.6529 91.2852 14.6825 91.2216 14.8993C91.1641 15.1172 91.0537 15.5283 91.0013 15.9687C90.9418 16.4142 90.9393 16.8952 90.888 16.8987Z" fill="#133124"/>
<path fill-rule="evenodd" clip-rule="evenodd" d="M92.4993 19.792C92.4469 19.8018 92.3384 19.3394 92.4002 18.8816C92.4619 18.4239 92.6938 17.9708 92.8014 17.7554C92.9141 17.5473 92.8964 17.5758 92.8389 17.7937C92.7754 18.0105 92.6649 18.4217 92.6126 18.8621C92.5531 19.3076 92.5567 19.7895 92.4993 19.792Z" fill="#133124"/>
<path fill-rule="evenodd" clip-rule="evenodd" d="M88.0486 14.6122C87.9391 14.5866 87.7834 14.5718 87.6056 14.6101C87.4279 14.6484 87.2241 14.7265 86.7396 14.6727C86.2562 14.6128 85.4859 14.42 85.4949 14.4406C85.504 14.4612 86.2902 14.7074 86.8021 14.785C87.3079 14.8616 87.5384 14.7755 87.7418 14.7354C87.9453 14.6953 88.1154 14.6999 88.1689 14.6841C88.2224 14.6682 88.1591 14.6317 88.0486 14.6122Z" fill="#133124"/>
<path fill-rule="evenodd" clip-rule="evenodd" d="M90.5315 16.9815C90.422 16.9559 90.2653 16.9472 90.0824 16.9783C89.9047 17.0166 89.6999 17.1008 89.2164 17.041C88.733 16.981 87.9689 16.7893 87.9779 16.8099C87.9858 16.8366 88.767 17.0757 89.279 17.1533C89.7848 17.2298 90.0215 17.1449 90.2238 17.1109C90.4211 17.0697 90.5974 17.0754 90.6508 17.0595C90.7042 17.0437 90.641 17.0072 90.5315 16.9815Z" fill="#133124"/>
<path fill-rule="evenodd" clip-rule="evenodd" d="M92.311 19.6385C92.2016 19.6129 92.0448 19.6043 91.8671 19.6426C91.6842 19.6737 91.4856 19.759 91.0021 19.6991C90.5176 19.6453 89.7484 19.4463 89.7574 19.4669C89.7654 19.4937 90.5527 19.7338 91.0585 19.8103C91.5705 19.888 91.7999 19.8081 92.0033 19.7679C92.2067 19.7278 92.3769 19.7324 92.4303 19.7166C92.4838 19.7006 92.4206 19.6641 92.311 19.6385Z" fill="#133124"/>
<path fill-rule="evenodd" clip-rule="evenodd" d="M91.7744 53.7865C92.4977 53.6354 93.8875 53.3676 95.2506 52.9999C96.6086 52.625 97.9472 52.1454 99.08 51.3952C100.22 50.64 101.16 49.6214 101.785 48.446C102.417 47.2656 102.729 45.9273 103.016 44.192C103.304 42.4506 103.568 40.312 103.806 38.885C104.053 37.4528 104.281 36.7331 104.173 36.448C104.064 36.1691 103.617 36.331 102.2 37.0437C100.788 37.7574 98.3984 39.0269 96.5621 40.1028C94.7258 41.1786 93.4481 42.0679 92.5092 43.1183C91.5715 44.1626 90.9726 45.3679 90.6169 46.3438C90.2622 47.3135 90.1374 48.0579 90.2267 49.0235C90.311 49.982 90.6024 51.167 90.7449 52.0471C90.8873 52.9272 90.8809 53.5024 90.8896 53.7762C90.8972 54.0562 90.9251 54.0421 90.9623 54.0106C90.9994 53.9792 91.0511 53.9377 91.7744 53.7865Z" fill="#2F8463"/>
<path fill-rule="evenodd" clip-rule="evenodd" d="M91.7745 53.7865C92.4978 53.6354 93.8876 53.3675 95.2507 52.9998C96.6087 52.625 97.9473 52.1453 99.0801 51.3952C100.22 50.6399 101.16 49.6213 101.785 48.4459C102.418 47.2656 102.729 45.9273 103.016 44.192C103.305 42.4505 103.568 40.312 103.807 38.8849C104.03 37.5817 104.239 36.8649 104.195 36.5404C103.583 37.0976 103.016 37.7321 102.542 38.4403C101.721 39.6887 101.218 41.1769 100.427 42.5701C99.637 43.9633 98.5583 45.2678 97.3872 46.4862C96.2161 47.7046 94.9503 48.8494 93.8196 50.1256C92.6817 51.4069 91.6851 52.8207 91.0931 53.736C91.0317 53.8328 90.9714 53.9235 90.9172 54.0153C90.9262 54.0359 90.9407 54.0257 90.9624 54.0106C90.9995 53.9792 91.0512 53.9377 91.7745 53.7865Z" fill="#1F553F"/>
<path fill-rule="evenodd" clip-rule="evenodd" d="M99.4588 44.3627C99.4245 44.3059 99.8789 43.9555 100.415 43.7903C100.95 43.6251 101.566 43.6514 101.855 43.6643C102.144 43.6773 102.107 43.677 101.832 43.7236C101.559 43.764 101.056 43.8526 100.54 44.015C100.023 44.1772 99.4931 44.4194 99.4588 44.3627Z" fill="#133124"/>
<path fill-rule="evenodd" clip-rule="evenodd" d="M97.2376 47.3338C97.2094 47.2782 97.6902 46.9577 98.2368 46.8387C98.7846 46.7137 99.398 46.7901 99.6827 46.8277C99.9685 46.859 99.9306 46.8587 99.6545 46.8797C99.3847 46.9018 98.8695 46.9503 98.3474 47.0735C97.8192 47.1957 97.2708 47.3967 97.2376 47.3338Z" fill="#133124"/>
<path fill-rule="evenodd" clip-rule="evenodd" d="M94.7643 50.1909C94.7373 50.1292 95.217 49.8148 95.7647 49.6897C96.3113 49.5708 96.9258 49.6411 97.2105 49.6786C97.4952 49.7162 97.4584 49.7097 97.1824 49.7307C96.9125 49.7528 96.3973 49.8012 95.8753 49.9245C95.3471 50.0467 94.7987 50.2476 94.7643 50.1909Z" fill="#133124"/>
<path fill-rule="evenodd" clip-rule="evenodd" d="M98.8283 43.8082C98.8937 43.8323 99.1262 43.3034 99.1489 42.7438C99.1727 42.178 98.9916 41.5888 98.907 41.3142C98.8225 41.0396 98.8355 41.0736 98.8626 41.3507C98.8847 41.6205 98.927 42.1347 98.9015 42.6748C98.8697 43.2138 98.769 43.7851 98.8283 43.8082Z" fill="#133124"/>
<path fill-rule="evenodd" clip-rule="evenodd" d="M96.261 46.8386C96.3275 46.8566 96.5529 46.3328 96.5829 45.7681C96.6055 45.2084 96.4245 44.6192 96.3399 44.3446C96.2564 44.0639 96.2683 44.104 96.2893 44.3801C96.3175 44.651 96.3599 45.1651 96.3282 45.7042C96.3025 46.2443 96.2018 46.8155 96.261 46.8386Z" fill="#133124"/>
<path fill-rule="evenodd" clip-rule="evenodd" d="M94.0093 49.2281C94.0685 49.2513 94.3011 48.7223 94.3238 48.1627C94.3465 47.603 94.1726 47.0088 94.0881 46.7342C93.9973 46.4585 94.0092 46.4986 94.0375 46.7696C94.0646 47.0467 94.1019 47.5536 94.0763 48.0937C94.0435 48.6389 93.9428 49.2101 94.0093 49.2281Z" fill="#133124"/>
<path fill-rule="evenodd" clip-rule="evenodd" d="M115.117 20.2464C116.151 19.6244 117.936 18.4066 118.958 17.2124C119.98 16.0121 120.234 14.8219 120.282 13.9057C120.335 12.9906 120.171 12.341 119.699 11.3584C119.225 10.3818 118.442 9.07231 118.02 8.26959C117.603 7.47409 117.545 7.19157 117.378 7.24436C117.21 7.29714 116.932 7.69135 116.245 8.27962C115.565 8.86896 114.471 9.65133 113.538 10.4496C112.613 11.2427 111.849 12.0579 111.321 13.1491C110.793 14.2402 110.499 15.6196 110.532 16.6894C110.565 17.7592 110.925 18.5193 111.473 19.1796C112.028 19.8411 112.766 20.3956 113.285 20.6516C113.796 20.9128 114.081 20.8744 115.117 20.2464Z" fill="#668FDE"/>
<path fill-rule="evenodd" clip-rule="evenodd" d="M115.117 20.2463C116.151 19.6244 117.936 18.4066 118.958 17.2124C119.98 16.012 120.234 14.8219 120.282 13.9057C120.319 13.298 120.254 12.8052 120.071 12.26C119.865 12.2806 119.645 12.3053 119.424 12.3422C118.279 12.514 116.965 12.8902 115.889 13.3907C114.812 13.8913 113.987 14.5121 113.574 14.9522C113.161 15.3923 113.167 15.6466 112.679 15.1427C112.348 14.793 111.783 14.0854 111.165 13.4951C110.736 14.5277 110.505 15.7283 110.532 16.6893C110.565 17.7591 110.925 18.5191 111.473 19.1795C112.028 19.841 112.766 20.3954 113.285 20.6515C113.796 20.9128 114.081 20.8744 115.117 20.2463Z" fill="#4A79D8"/>
<path fill-rule="evenodd" clip-rule="evenodd" d="M111.976 16.1143C111.61 15.4229 111.052 14.3871 110.294 13.6581C109.536 12.9291 108.579 12.5008 107.402 12.458C106.219 12.4141 104.825 12.7444 103.834 12.9751C102.85 13.2068 102.276 13.3338 101.796 13.3631C101.323 13.3874 100.936 13.3192 100.984 13.5493C101.027 13.7722 101.494 14.2852 101.793 14.8191C102.086 15.3458 102.211 15.8935 102.365 16.7819C102.519 17.6703 102.7 18.9055 102.958 19.8502C103.215 20.795 103.542 21.4543 104.168 21.8939C104.787 22.3324 105.704 22.5574 106.809 22.6826C107.914 22.8078 109.207 22.8394 110.347 22.6922C111.487 22.5512 112.468 22.2302 112.996 21.6773C113.524 21.1244 113.598 20.3459 113.468 19.6136C113.343 18.8823 113.014 18.2035 112.763 17.6844C112.513 17.1653 112.341 16.8119 111.976 16.1143Z" fill="#668FDE"/>
<path fill-rule="evenodd" clip-rule="evenodd" d="M111.976 16.1143C111.61 15.4229 111.052 14.3872 110.294 13.6582L110.24 13.6044C110.405 14.8241 110.661 16.5665 110.58 17.4958C110.492 18.4937 110.014 18.5486 109.054 18.6073C108.093 18.666 106.651 18.7283 105.506 19.1154C104.523 19.4487 103.751 20.0218 103.183 20.5486C103.409 21.1331 103.711 21.5727 104.168 21.8939C104.787 22.3324 105.704 22.5574 106.809 22.6825C107.914 22.8078 109.207 22.8394 110.347 22.6922C111.487 22.5512 112.468 22.2302 112.996 21.6773C113.524 21.1244 113.598 20.3459 113.468 19.6136C113.343 18.8823 113.013 18.2035 112.763 17.6844C112.512 17.1653 112.34 16.812 111.976 16.1143Z" fill="#4A79D8"/>
<path fill-rule="evenodd" clip-rule="evenodd" d="M105.432 23.2377C104.671 23.3885 103.348 23.9595 102.514 24.6992C101.682 25.4328 101.334 26.3277 101.111 27.27C100.893 28.2195 100.793 29.2152 100.59 29.8634C100.381 30.5105 100.063 30.809 100.084 30.9394C100.106 31.0637 100.469 31.0199 101.027 31.1943C101.586 31.3626 102.346 31.7563 103.338 32.1655C104.33 32.5747 105.551 33.0117 106.49 33.2214C107.428 33.4313 108.083 33.4138 108.692 32.9766C109.301 32.5393 109.866 31.67 110.212 30.572C110.552 29.4667 110.668 28.1318 110.375 27.0985C110.076 26.0642 109.368 25.3378 108.676 24.8103C107.976 24.288 107.299 23.9597 106.852 23.6591C106.411 23.3597 106.199 23.0881 105.432 23.2377Z" fill="#668FDE"/>
<path fill-rule="evenodd" clip-rule="evenodd" d="M105.432 23.2377C104.67 23.3885 103.348 23.9595 102.514 24.6992C102.492 24.7144 102.471 24.7295 102.454 24.752C102.937 24.9257 103.485 25.1554 103.991 25.517C104.88 26.1488 105.638 27.169 105.983 28.1924C106.328 29.2159 106.266 30.2499 106.024 31.3345C105.901 31.8891 105.731 32.4607 105.571 32.9709C105.895 33.0724 106.204 33.1521 106.49 33.2214C107.428 33.4313 108.083 33.4138 108.692 32.9766C109.301 32.5393 109.866 31.67 110.212 30.572C110.552 29.4667 110.668 28.1318 110.375 27.0985C110.076 26.0642 109.368 25.3378 108.676 24.8103C107.976 24.288 107.299 23.9597 106.852 23.6591C106.411 23.3597 106.199 23.0881 105.432 23.2377Z" fill="#4A79D8"/>
<path fill-rule="evenodd" clip-rule="evenodd" d="M120.647 18.0486C121.093 17.3165 121.627 16.0809 122.25 15.209C122.879 14.3321 123.603 13.82 124.315 13.5149C125.029 13.2038 125.736 13.1068 126.727 13.1613C127.718 13.2157 128.984 13.4327 130.001 13.4473C131.012 13.4609 131.759 13.2823 132.123 13.3401C132.48 13.3968 132.447 13.6948 132.002 14.8893C131.551 16.0827 130.695 18.1675 129.805 19.4798C128.908 20.7971 127.988 21.3443 126.542 21.7542C125.101 22.1652 123.14 22.4401 121.837 22.3242C120.529 22.2012 119.865 21.6915 119.588 21.1106C119.304 20.5286 119.4 19.8743 119.623 19.4385C119.851 19.0039 120.201 18.7806 120.647 18.0486Z" fill="#668FDE"/>
<path fill-rule="evenodd" clip-rule="evenodd" d="M120.647 18.0486C121.093 17.3165 121.627 16.0809 122.249 15.209C122.837 14.388 123.509 13.8857 124.184 13.5742C124.267 14.1461 124.197 14.9001 123.991 15.6744C123.71 16.733 123.183 17.818 123.574 18.4C123.971 18.9831 125.288 19.057 126.95 19.293C127.797 19.4107 128.732 19.5692 129.604 19.7609C128.768 20.8738 127.881 21.3761 126.542 21.7542C125.101 22.1652 123.14 22.4401 121.837 22.3243C120.529 22.2013 119.865 21.6916 119.587 21.1106C119.304 20.5287 119.4 19.8743 119.623 19.4386C119.851 19.0039 120.201 18.7805 120.647 18.0486Z" fill="#4A79D8"/>
<path fill-rule="evenodd" clip-rule="evenodd" d="M122.039 28.7245C122.986 29.5311 124.334 30.7188 124.973 31.9081C125.606 33.0963 125.534 34.2932 125.277 35.2486C125.021 36.1977 124.581 36.899 124.35 37.5613C124.113 38.2225 124.086 38.8446 124.06 39.3151C124.034 39.7854 124.016 40.0991 123.931 40.2233C123.845 40.3538 123.691 40.2949 123.065 40.1086C122.444 39.9294 121.353 39.6167 120.114 39.3857C118.871 39.1474 117.468 38.9886 116.282 38.4187C115.091 37.8476 114.118 36.8654 113.469 36.0924C112.826 35.3204 112.509 34.7514 112.666 33.5696C112.83 32.3889 113.469 30.5954 114.285 29.4156C115.1 28.2421 116.079 27.6862 117.061 27.3971C118.044 27.1018 119.023 27.0782 119.785 27.2822C120.547 27.4862 121.092 27.9179 122.039 28.7245Z" fill="#668FDE"/>
<path fill-rule="evenodd" clip-rule="evenodd" d="M122.039 28.7245C122.986 29.5311 124.334 30.7189 124.973 31.9081C125.182 32.3059 125.314 32.7029 125.392 33.0902C125.15 33.0223 124.915 32.9555 124.673 32.8937C123.233 32.5131 121.815 32.2947 120.811 32.1684C119.814 32.0371 119.225 32.0028 118.856 32.3746C118.487 32.7403 118.332 33.511 117.948 34.1841C117.57 34.8522 116.968 35.43 116.42 36.0237C115.885 36.6133 115.399 37.2179 115.04 37.6359C114.406 37.1378 113.872 36.575 113.469 36.0924C112.826 35.3204 112.509 34.7514 112.666 33.5696C112.83 32.3889 113.47 30.5953 114.286 29.4156C115.1 28.2421 116.079 27.6862 117.061 27.3971C118.044 27.1018 119.023 27.0782 119.785 27.2822C120.547 27.4862 121.092 27.9179 122.039 28.7245Z" fill="#4A79D8"/>
<path fill-rule="evenodd" clip-rule="evenodd" d="M113.278 22.3096C112.946 21.7507 112.496 20.7785 111.714 20.1846C110.934 19.5846 109.819 19.3691 108.779 19.3758C107.741 19.3763 106.777 19.5989 105.997 20.215C105.217 20.8312 104.627 21.8417 104.16 22.4054C103.687 22.968 103.344 23.0847 103.423 23.2824C103.502 23.4799 104.005 23.7523 104.503 24.1948C105.002 24.6374 105.496 25.2439 105.949 25.7988C106.403 26.3537 106.815 26.8507 107.375 27.1584C107.928 27.4712 108.628 27.5947 109.31 27.5375C109.996 27.4875 110.664 27.257 111.354 26.8974C112.044 26.5378 112.753 26.042 113.203 25.3931C113.653 24.7441 113.839 23.941 113.833 23.4713C113.821 23.0006 113.61 22.8684 113.278 22.3096Z" fill="#3D83D9"/>
<path fill-rule="evenodd" clip-rule="evenodd" d="M113.277 22.3096C112.945 21.7507 112.496 20.7785 111.714 20.1847C111.38 19.9231 110.976 19.7378 110.548 19.6118C110.582 19.6747 110.613 19.7498 110.651 19.8199C110.859 20.2935 111.086 20.9478 111.105 21.6985C111.131 22.4504 110.95 23.2987 110.126 24.4517C109.403 25.4641 108.181 26.7179 107.845 27.3679C108.304 27.525 108.809 27.5759 109.309 27.5375C109.996 27.4876 110.663 27.257 111.354 26.8974C112.044 26.5378 112.752 26.042 113.202 25.3931C113.652 24.7441 113.838 23.941 113.832 23.4713C113.82 23.0007 113.609 22.8684 113.277 22.3096Z" fill="#2874CC"/>
<path fill-rule="evenodd" clip-rule="evenodd" d="M113.673 19.5612C113.744 18.6933 113.739 17.6412 114.159 16.6957C114.573 15.7491 115.412 14.9089 116.505 14.348C117.604 13.7883 118.952 13.5066 120.014 13.3391C121.075 13.1779 121.854 13.138 122.208 13.289C122.567 13.441 122.507 13.785 122.585 14.5271C122.657 15.2681 122.873 16.4144 122.788 17.7548C122.703 19.1014 122.322 20.6492 121.848 21.6168C121.366 22.5894 120.796 22.983 119.896 23.2421C118.988 23.5064 117.754 23.6434 116.79 23.6888C115.826 23.7279 115.134 23.6691 114.654 23.5149C114.174 23.3669 113.902 23.11 113.716 22.8047C113.528 22.5056 113.425 22.1519 113.447 21.6364C113.463 21.1137 113.603 20.4289 113.673 19.5612Z" fill="#55A6DE"/>
<path fill-rule="evenodd" clip-rule="evenodd" d="M113.673 19.5612C113.732 18.8368 113.736 17.9827 113.981 17.1709C114.523 17.5451 115.112 18.0479 115.632 18.6906C116.268 19.4677 116.804 20.4489 117.117 21.0424C117.435 21.6432 117.537 21.8574 118.007 21.668C118.484 21.4798 119.322 20.8929 120.409 20.2233C121.128 19.7737 121.954 19.2924 122.645 18.9646C122.471 19.9535 122.185 20.929 121.848 21.6169C121.366 22.5896 120.796 22.9831 119.896 23.2423C118.988 23.5065 117.754 23.6436 116.79 23.6889C115.827 23.7281 115.134 23.6693 114.655 23.5151C114.174 23.367 113.903 23.1102 113.716 22.8049C113.528 22.5058 113.426 22.1521 113.447 21.6366C113.463 21.1137 113.603 20.429 113.673 19.5612Z" fill="#3996D9"/>
<path fill-rule="evenodd" clip-rule="evenodd" d="M110.536 25.5753C109.643 26.0068 108.709 26.5641 108.103 27.4136C107.496 28.2692 107.21 29.4221 107.114 30.4691C107.017 31.5223 107.109 32.4757 107.564 33.3792C108.019 34.2827 108.843 35.1374 109.334 35.8383C109.825 36.5391 109.987 37.0933 110.092 37.4665C110.196 37.8458 110.249 38.0514 110.535 37.8993C110.814 37.7522 111.329 37.2413 112.006 36.7021C112.683 36.1691 113.517 35.6069 114.352 35.1778C115.188 34.7489 116.019 34.4522 116.605 33.8967C117.189 33.3475 117.528 32.5396 117.696 31.5875C117.869 30.6428 117.878 29.5488 117.453 28.4415C117.035 27.3291 116.188 26.2046 115.397 25.5522C114.602 24.8926 113.856 24.7041 113.06 24.7663C112.265 24.8225 111.423 25.1427 110.536 25.5753Z" fill="#55A6DE"/>
<path fill-rule="evenodd" clip-rule="evenodd" d="M110.536 25.5753C109.643 26.0068 108.709 26.564 108.103 27.4135C107.9 27.7008 107.737 28.0141 107.597 28.3439C108.327 28.2636 109.275 28.0572 109.913 28.1001C110.666 28.1441 110.991 28.5244 111.253 29.0519C111.508 29.5782 111.694 30.2506 111.827 30.6097C111.961 30.9626 112.043 30.9962 112.443 30.8831C112.843 30.77 113.559 30.5162 114.162 30.2932C114.758 30.0753 115.246 29.8953 116.008 30.0234C116.537 30.1166 117.204 30.3546 117.804 30.5427C117.822 29.8682 117.732 29.1557 117.453 28.4416C117.035 27.3292 116.188 26.2046 115.397 25.5522C114.602 24.8926 113.856 24.7042 113.06 24.7664C112.264 24.8225 111.423 25.1427 110.536 25.5753Z" fill="#55A6DE"/>
<path fill-rule="evenodd" clip-rule="evenodd" d="M120.65 22.0516C121.32 21.3084 122.051 20.538 122.977 20.1694C123.903 19.8007 125.024 19.8399 126.579 20.2852C128.128 20.7294 130.105 21.5846 131.566 22.7857C133.027 23.9806 133.959 25.5192 134.483 26.3526C135.008 27.1861 135.113 27.306 134.986 27.5242C134.854 27.7353 134.483 28.0435 133.654 28.5053C132.82 28.9599 131.53 29.562 130.429 30.2038C129.328 30.8456 128.417 31.521 127.259 31.8044C126.107 32.0828 124.703 31.9681 123.669 31.6908C122.634 31.4196 121.962 30.9908 121.404 30.3098C120.847 29.6289 120.402 28.7019 119.98 27.6459C119.559 26.5898 119.166 25.406 119.27 24.4554C119.374 23.505 119.981 22.7949 120.65 22.0516Z" fill="#55A6DE"/>
<path fill-rule="evenodd" clip-rule="evenodd" d="M120.65 22.0517C121.32 21.3084 122.051 20.538 122.977 20.1694C122.998 20.1604 123.024 20.1524 123.045 20.1434C122.972 20.2319 122.874 20.3222 122.765 20.474C122.553 20.7786 122.301 21.3104 122.25 21.7068C122.192 22.1082 122.336 22.3679 122.944 22.8361C123.558 23.3053 124.642 23.9779 125.523 24.8741C126.402 25.7765 127.079 26.8964 127.531 27.926C127.975 28.9607 128.197 29.8928 128.385 30.4072C128.565 30.8949 128.722 31.0112 128.661 31.2475C128.214 31.4853 127.761 31.6841 127.258 31.8045C126.107 32.0828 124.703 31.9681 123.669 31.6908C122.633 31.4196 121.962 30.9908 121.404 30.3099C120.847 29.6289 120.402 28.7019 119.98 27.6459C119.559 26.5899 119.166 25.406 119.27 24.4555C119.374 23.505 119.981 22.7949 120.65 22.0517Z" fill="#3996D9"/>
<path fill-rule="evenodd" clip-rule="evenodd" d="M116.049 23.1148C116.983 22.9883 118.631 22.8735 119.882 22.8914C121.132 22.9093 121.992 23.0609 122.826 23.5373C123.66 24.0198 124.462 24.82 125.065 25.9966C125.661 27.1783 126.058 28.7365 126.297 29.5703C126.53 30.403 126.611 30.5186 126.436 30.5447C126.254 30.5696 125.821 30.5122 125.214 30.5762C124.609 30.6342 123.83 30.8134 123.016 30.974C122.195 31.1396 121.341 31.2802 120.254 30.905C119.167 30.5359 117.849 29.6386 116.801 28.8331C115.753 28.0214 114.976 27.2953 114.563 26.6209C114.149 25.9525 114.097 25.3481 114.175 24.8362C114.251 24.3303 114.45 23.9221 114.669 23.6504C114.881 23.3776 115.108 23.2403 116.049 23.1148Z" fill="#3D83D9"/>
<path fill-rule="evenodd" clip-rule="evenodd" d="M116.049 23.1149C116.691 23.0255 117.675 22.9455 118.63 22.9114C118.62 22.9349 118.603 22.9573 118.586 22.9859C118.361 23.2883 117.869 23.6764 117.851 24.2053C117.84 24.7354 118.297 25.4113 118.529 26.0348C118.76 26.6645 118.754 27.2397 118.538 27.6386C118.317 28.0302 117.888 28.2333 117.729 28.5979C117.616 28.8439 117.641 29.1713 117.563 29.3982C117.298 29.2121 117.041 29.0149 116.801 28.8332C115.754 28.0216 114.976 27.2955 114.563 26.621C114.149 25.9526 114.097 25.3482 114.175 24.8363C114.251 24.3305 114.45 23.9222 114.669 23.6505C114.882 23.3777 115.108 23.2404 116.049 23.1149Z" fill="#2874CC"/>
<path fill-rule="evenodd" clip-rule="evenodd" d="M114.11 23.6217C114.387 23.6325 114.833 23.6162 115.271 23.3957C115.709 23.1752 116.137 22.7568 116.312 22.2304C116.495 21.6989 116.418 21.0584 115.898 20.308C115.37 19.5628 114.4 18.7077 113.861 18.2454C113.322 17.783 113.216 17.701 113.096 17.8445C112.969 17.9868 112.831 18.3423 112.624 18.9772C112.417 19.612 112.149 20.521 112.112 21.1984C112.075 21.8759 112.274 22.3228 112.56 22.6772C112.847 23.0254 113.226 23.2823 113.473 23.4271C113.72 23.5719 113.832 23.617 114.11 23.6217Z" fill="#86BDE8"/>
<path fill-rule="evenodd" clip-rule="evenodd" d="M114.11 23.6217C114.387 23.6325 114.833 23.6161 115.271 23.3957C115.709 23.1752 116.137 22.7568 116.312 22.2304C116.38 22.027 116.412 21.8109 116.395 21.5801C116.156 21.8229 115.854 22.1369 115.493 22.314C115.058 22.5221 114.532 22.5244 114.045 22.3373C113.553 22.1491 113.094 21.7705 112.751 21.4187C112.505 21.1601 112.319 20.9184 112.163 20.7641C112.136 20.9177 112.123 21.0611 112.112 21.1984C112.075 21.8759 112.275 22.3227 112.56 22.6771C112.847 23.0254 113.226 23.2822 113.473 23.427C113.72 23.5719 113.832 23.617 114.11 23.6217Z" fill="#6DB1E3"/>
<path fill-rule="evenodd" clip-rule="evenodd" d="M114.848 23.5302C115.617 23.9444 116.564 24.7193 116.956 25.4028C117.348 26.0924 117.192 26.6857 116.952 27.15C116.705 27.6193 116.365 27.9648 115.803 28.2774C115.234 28.595 114.431 28.8777 113.937 29.1263C113.439 29.3678 113.249 29.5813 113.128 29.5853C113.007 29.5893 112.967 29.3859 112.755 28.8292C112.542 28.2786 112.157 27.3686 111.905 26.5705C111.654 25.7724 111.528 25.0853 111.705 24.5087C111.889 23.9331 112.374 23.4803 112.918 23.2722C113.466 23.0711 114.072 23.1209 114.848 23.5302Z" fill="#86BDE8"/>
<path fill-rule="evenodd" clip-rule="evenodd" d="M114.848 23.5302C115.617 23.9444 116.564 24.7193 116.956 25.4028C117.348 26.0924 117.192 26.6857 116.952 27.15C116.903 27.249 116.85 27.3346 116.791 27.4192C116.636 27.1132 116.427 26.5698 116.04 26.2166C115.648 25.856 115.062 25.6957 114.371 25.6625C113.681 25.6233 112.892 25.7184 112.28 25.7055C112.053 25.6972 111.847 25.6799 111.67 25.6423C111.598 25.2244 111.602 24.845 111.705 24.5086C111.889 23.933 112.374 23.4803 112.918 23.2721C113.466 23.0711 114.072 23.1209 114.848 23.5302Z" fill="#6DB1E3"/>
<path fill-rule="evenodd" clip-rule="evenodd" d="M109.374 67.0734C108.176 66.7228 107.127 65.7716 105.917 64.4816C104.706 63.1978 103.322 61.5667 102.584 60.0372C101.841 58.5065 101.745 57.0773 102.093 55.8214C102.448 54.5604 103.249 53.4667 104.266 52.6201C105.289 51.7745 106.523 51.1688 107.968 50.8788C109.417 50.5961 111.083 50.6301 112.584 51.0595C114.091 51.49 115.434 52.3157 116.266 53.1654C117.097 54.0212 117.411 54.8936 117.31 56.3323C117.202 57.7699 116.672 59.7726 116.055 61.4751C115.445 63.1725 114.741 64.5809 114.266 65.4408C113.79 66.3069 113.538 66.6234 112.736 66.8999C111.932 67.1825 110.573 67.4241 109.374 67.0734Z" fill="#FFC073"/>
<path fill-rule="evenodd" clip-rule="evenodd" d="M109.374 67.0734C108.176 66.7228 107.127 65.7716 105.917 64.4816C104.706 63.1978 103.322 61.5667 102.585 60.0372C102.357 59.5665 102.186 59.0993 102.076 58.6492C102.881 58.9685 103.679 59.3245 104.388 59.6839C105.767 60.3767 106.784 61.0753 107.525 61.6114C108.267 62.1474 108.727 62.5198 108.824 62.0747C108.922 61.6296 108.652 60.3597 108.374 59.386C108.101 58.4196 107.821 57.7434 108.048 57.9987C108.283 58.2491 109.026 59.425 109.563 60.3303C110.106 61.2367 110.437 61.8714 110.76 61.5864C111.082 61.3012 111.389 60.1014 111.625 58.9397C111.868 57.7793 112.04 56.6571 112.208 56.674C112.376 56.691 112.534 57.846 112.659 59.0776C112.783 60.3093 112.87 61.6164 113.296 61.4953C113.724 61.368 114.492 59.8126 115.143 58.0274C115.688 56.5149 116.153 54.849 116.661 53.6212C117.198 54.343 117.392 55.1498 117.31 56.3322C117.202 57.7698 116.672 59.7725 116.055 61.475C115.445 63.1724 114.741 64.5808 114.266 65.4408C113.791 66.3069 113.538 66.6234 112.736 66.8999C111.932 67.1825 110.573 67.424 109.374 67.0734Z" fill="#F99B07"/>
<path fill-rule="evenodd" clip-rule="evenodd" d="M117.392 55.4348C117.704 54.9579 118.083 54.2836 118.93 53.8948C119.771 53.5048 121.083 53.3941 122.498 53.8083C123.913 54.2225 125.426 55.1606 126.399 56.5734C127.371 57.9924 127.804 59.8862 127.66 61.4188C127.517 62.9515 126.81 64.1189 125.774 65.0382C124.746 65.9524 123.393 66.6195 121.63 67.2079C119.861 67.7952 117.681 68.3039 116.331 68.4901C114.982 68.6702 114.468 68.5352 114.004 68.2191C113.548 67.898 113.141 67.4021 113.249 66.5407C113.35 65.6782 113.966 64.4505 114.607 62.7145C115.249 60.9784 115.917 58.7339 116.369 57.4647C116.826 56.2026 117.073 55.9168 117.392 55.4348Z" fill="#FBA907"/>
<path fill-rule="evenodd" clip-rule="evenodd" d="M127.524 59.2797C127.673 60.0152 127.721 60.7519 127.66 61.4188C127.628 61.7805 127.562 62.1172 127.469 62.4301C126.751 63.1647 125.791 63.9391 124.677 64.6167C122.335 66.0466 119.326 67.055 117.062 67.7576C116.063 68.0692 115.209 68.3175 114.517 68.4679C114.319 68.4076 114.163 68.3231 114.004 68.2191C113.548 67.898 113.141 67.402 113.249 66.5407C113.35 65.6782 113.966 64.4505 114.607 62.7144C115.009 61.62 115.429 60.3197 115.792 59.1931C116.004 58.7111 116.203 58.2649 116.382 57.8913C117.203 56.1804 117.599 55.9463 117.54 56.6451C117.48 57.3438 116.951 58.9794 116.562 60.2154C116.167 61.4504 115.899 62.2836 116.067 62.3005C116.235 62.3175 116.832 61.5171 117.612 60.5781C118.386 59.6379 119.343 58.5589 119.913 58.1972C120.477 57.8343 120.663 58.1837 120.5 58.7123C120.338 59.2347 119.829 59.9303 119.258 60.6909C118.694 61.4465 118.068 62.267 118.14 62.4317C118.219 62.5976 118.994 62.1137 119.972 61.564C120.943 61.0132 122.109 60.3957 123.198 59.967C124.292 59.5456 125.308 59.3132 126.489 59.2617C126.834 59.2465 127.195 59.2468 127.524 59.2797Z" fill="#F99003"/>
<path fill-rule="evenodd" clip-rule="evenodd" d="M102.3 59.4613C101.766 59.0759 101.193 58.6645 100.268 58.6281C99.3384 58.5845 98.0588 58.9098 96.9891 59.8042C95.9267 60.6935 95.0681 62.1507 94.5578 63.5363C94.0475 64.9219 93.8916 66.237 94.2137 67.3197C94.5419 68.4036 95.353 69.2623 96.5042 69.8452C97.6626 70.4231 99.1609 70.7253 100.747 70.815C102.334 70.9047 104.013 70.7893 105.569 70.4429C107.131 70.0976 108.576 69.5165 109.285 68.7613C110.001 68.0072 109.988 67.074 109.724 66.2738C109.461 65.4675 108.947 64.7879 107.922 63.8534C106.895 62.925 105.35 61.7344 104.333 60.9662C103.323 60.1928 102.834 59.8406 102.3 59.4613Z" fill="#FBA907"/>
<path fill-rule="evenodd" clip-rule="evenodd" d="M102.3 59.4613C101.766 59.0759 101.193 58.6645 100.268 58.6281C99.5968 58.5921 98.7442 58.7584 97.9158 59.1823C99.3375 59.775 101.021 60.5342 102.4 61.3726C104.375 62.5631 105.743 63.9253 106.406 64.7262C107.068 65.5332 107.025 65.7789 106.45 65.5571C105.881 65.3364 104.782 64.6361 103.909 64.1972C103.036 63.7645 102.383 63.5862 102.508 63.8108C102.633 64.0355 103.532 64.65 104.277 65.1994C105.022 65.7488 105.604 66.2249 105.575 66.4225C105.545 66.6263 104.901 66.5444 103.506 66.3426C102.111 66.1347 99.9587 65.8059 99.6686 65.9067C99.3846 66.0086 100.956 66.5453 102.134 66.9368C103.308 67.3211 104.088 67.5662 104.347 67.8209C104.601 68.0683 104.334 68.3253 103.569 68.5703C102.811 68.8103 101.561 69.0395 100.154 69.3678C99.1817 69.6017 98.1322 69.879 97.0863 70.0999C98.1467 70.5149 99.412 70.738 100.747 70.8151C102.334 70.9049 104.013 70.7894 105.569 70.443C107.131 70.0978 108.576 69.5166 109.285 68.7614C110.001 68.0073 109.988 67.0741 109.724 66.2739C109.461 65.4676 108.947 64.788 107.922 63.8535C106.895 62.9251 105.35 61.7345 104.333 60.9663C103.323 60.1928 102.834 59.8406 102.3 59.4613Z" fill="#F99003"/>
<path fill-rule="evenodd" clip-rule="evenodd" d="M107.858 69.5991C106.392 69.7965 104.121 70.3207 102.116 70.8474C100.116 71.3751 98.3766 71.9043 97.325 72.5168C96.2672 73.1283 95.8977 73.8231 95.7153 74.6775C95.5258 75.537 95.5256 76.544 95.9433 77.479C96.3622 78.4078 97.194 79.2574 98.2321 79.9788C99.2713 80.6939 100.504 81.2787 101.949 81.5968C103.388 81.9138 105.037 81.9703 106.256 81.5583C107.476 81.1401 108.265 80.2596 108.889 78.9827C109.513 77.7058 109.972 76.0388 110.284 74.5549C110.602 73.0721 110.775 71.7725 110.811 70.9936C110.848 70.2085 110.755 69.9451 110.372 69.7446C109.996 69.5453 109.329 69.4088 107.858 69.5991Z" fill="#FBBA08"/>
<path fill-rule="evenodd" clip-rule="evenodd" d="M107.858 69.599C106.392 69.7965 104.121 70.3207 102.116 70.8473C100.807 71.1929 99.6134 71.5334 98.6492 71.9017C99.7963 71.8253 101.052 71.7807 101.753 71.8283C102.892 71.9025 102.562 72.2306 102.027 72.5732C101.491 72.9158 100.746 73.2656 100.774 73.4289C100.808 73.5933 101.61 73.5701 102.118 73.5267C102.619 73.4883 102.832 73.4309 102.605 73.6758C102.379 73.9147 101.72 74.457 101.047 75.0034C100.368 75.5486 99.6711 76.0907 99.1564 76.9625C98.6543 77.7986 98.3206 78.9368 98.1311 79.904L98.2319 79.9787C99.1518 80.6159 100.231 81.1418 101.475 81.4816C101.543 81.4556 101.611 81.4295 101.68 81.3974C102.782 80.9647 103.636 80.4693 105.194 78.4957C106.759 76.517 109.032 73.0675 109.84 71.0377C110.066 70.4759 110.177 70.0268 110.19 69.6619C109.786 69.5146 109.116 69.4345 107.858 69.599Z" fill="#E7AE60"/>
<path fill-rule="evenodd" clip-rule="evenodd" d="M124.334 61.2123C125.845 60.6492 127.351 60.2307 128.494 60.9642C129.633 61.6906 130.404 63.5682 130.459 65.4779C130.508 67.3928 129.836 69.3387 128.977 70.5427C128.12 71.7405 127.078 72.1901 125.822 72.2408C124.565 72.2916 123.101 71.9384 120.931 71.2454C118.761 70.5524 115.878 69.5185 114.525 68.5327C113.172 67.553 113.342 66.6205 114.479 65.7442C115.609 64.8669 117.704 64.0457 119.506 63.2741C121.313 62.5036 122.827 61.7826 124.334 61.2123Z" fill="#FFC073"/>
<path fill-rule="evenodd" clip-rule="evenodd" d="M128.039 71.5173C127.385 71.9972 126.651 72.2097 125.822 72.2409C124.565 72.2917 123.101 71.9386 120.931 71.2455C118.76 70.5525 115.878 69.5186 114.525 68.5328C113.531 67.8128 113.361 67.1242 113.789 66.4587C114.008 66.2187 114.279 65.9752 114.611 65.7107C114.86 65.5203 115.142 65.323 115.443 65.1228C116.595 64.4774 118.135 63.8623 119.505 63.2742L119.759 63.1669C119.762 63.2182 119.732 63.2825 119.668 63.3598C119.431 63.6601 118.724 64.1118 118.627 64.3795C118.529 64.6473 119.026 64.735 120.078 64.6229C121.124 64.5097 122.72 64.1894 123.283 64.1557C123.846 64.122 123.386 64.3638 122.356 64.7078C121.332 65.053 119.754 65.4904 119.154 65.7329C118.553 65.9816 118.93 66.0353 120.09 66.0626C121.256 66.0971 123.206 66.099 124.399 66.1953C125.591 66.2917 126.025 66.4885 125.681 66.5734C125.337 66.6584 124.213 66.6376 123.12 66.7298C122.022 66.8149 120.954 67.0192 120.807 67.2782C120.66 67.5374 121.438 67.8646 122.454 68.1387C123.469 68.4127 124.723 68.6337 125.648 69.0248C126.579 69.417 127.182 69.9856 127.53 70.4524C127.838 70.8612 127.944 71.1965 128.039 71.5173Z" fill="#F99B07"/>
<path fill-rule="evenodd" clip-rule="evenodd" d="M122.577 70.459C124.368 71.2879 125.728 72.3763 126.218 73.9446C126.701 75.5118 126.316 77.5528 125.077 79.0505C123.837 80.5482 121.745 81.4965 120.033 81.7583C118.315 82.0191 116.984 81.5944 116.005 80.7885C115.033 79.9837 114.419 78.7926 113.981 76.6824C113.537 74.5649 113.269 71.5222 113.689 70.0065C114.109 68.4847 115.224 68.4849 116.889 68.7723C118.561 69.0607 120.785 69.6301 122.577 70.459Z" fill="#E7AE60"/>
<path fill-rule="evenodd" clip-rule="evenodd" d="M111.709 70.6073C112.367 72.4396 113.381 75.9559 113.941 78.1319C114.494 80.3129 114.592 81.1536 114.456 81.8896C114.319 82.6317 113.947 83.269 112.894 83.9256C111.841 84.5822 110.102 85.2508 108.439 85.3439C106.776 85.437 105.195 84.9557 103.762 84.247C102.329 83.5384 101.051 82.5974 100.35 81.8341C99.6473 81.077 99.5265 80.5047 99.7247 79.7037C99.928 78.9099 100.445 77.8801 102.097 76.0182C103.742 74.1613 106.517 71.4588 108.087 70.0637C109.663 68.6696 110.041 68.5716 110.384 68.6005C110.727 68.6294 111.044 68.7738 111.709 70.6073Z" fill="#FBA907"/>
<path fill-rule="evenodd" clip-rule="evenodd" d="M111.708 70.6072C112.367 72.4396 113.381 75.9558 113.941 78.1318C114.494 80.3129 114.592 81.1536 114.456 81.8895C114.395 82.2396 114.274 82.5666 114.058 82.8897C113.85 82.8846 113.636 82.8406 113.417 82.7893C112.566 82.5885 111.757 82.2559 111.23 81.7259C110.696 81.2011 110.45 80.4738 110.266 79.257C110.08 78.0464 109.956 76.3462 109.882 75.9723C109.802 75.6033 109.778 76.5619 109.535 77.6527C109.298 78.7445 108.848 79.9697 108.624 80.1266C108.399 80.2895 108.406 79.3852 108.397 78.5033C108.388 77.6214 108.37 76.7568 108.037 76.8501C107.71 76.9444 107.08 77.9987 106.551 78.6275C106.023 79.2562 105.599 79.4665 105.61 79.0124C105.619 78.5644 106.055 77.457 106.307 76.6401C106.557 75.8293 106.611 75.3068 105.93 75.4337C105.243 75.5595 103.815 76.3337 102.817 76.8226C101.825 77.3127 101.268 77.5248 101.329 77.0353C101.33 76.9912 101.339 76.942 101.354 76.8939C101.573 76.6222 101.819 76.3364 102.097 76.0181C103.742 74.1611 106.517 71.4587 108.087 70.0636C109.663 68.6695 110.041 68.5715 110.384 68.6004C110.727 68.6293 111.044 68.7738 111.708 70.6072Z" fill="#F99003"/>
<path fill-rule="evenodd" clip-rule="evenodd" d="M114.184 68.3839C115.181 68.3697 116.358 68.5202 117.946 68.5658C119.528 68.6043 121.53 68.5328 122.886 68.6706C124.241 68.8146 124.953 69.1617 125.294 70.0959C125.636 71.0301 125.602 72.5567 125.249 73.9447C124.903 75.3339 124.232 76.5899 123.085 77.6353C121.937 78.6868 120.307 79.5266 118.837 80.0656C117.368 80.6045 116.059 80.8485 114.791 80.7453C113.516 80.6473 112.29 80.203 111.601 79.5116C110.907 78.8191 110.743 77.8783 110.75 76.2203C110.763 74.5697 110.94 72.2006 111.098 70.8353C111.263 69.4711 111.397 69.1083 111.875 68.8379C112.353 68.5677 113.182 68.3908 114.184 68.3839Z" fill="#FFC073"/>
<path fill-rule="evenodd" clip-rule="evenodd" d="M114.184 68.3838C115.181 68.3696 116.358 68.5201 117.945 68.5658C118.545 68.5765 119.203 68.5786 119.862 68.5807C119.756 68.6064 119.644 68.6309 119.539 68.6505C118.682 68.8035 118.128 68.6803 117.763 68.9199C117.397 69.1594 117.214 69.7668 117.88 70.1945C118.545 70.6222 120.048 70.8619 121.104 71.124C122.154 71.3851 122.745 71.6603 122.293 71.7453C121.835 71.8291 120.335 71.7166 119.114 71.6344C117.894 71.5522 116.966 71.4964 116.898 71.9212C116.828 72.3523 117.617 73.2641 118.281 74.1665C118.947 75.0628 119.482 75.9424 119.379 76.0952C119.276 76.2481 118.535 75.6741 117.741 74.8945C116.953 74.1222 116.111 73.1505 115.713 73.0042C115.314 72.8579 115.359 73.5372 115.473 74.3995C115.588 75.2557 115.765 76.3002 115.666 76.6818C115.561 77.0622 115.179 76.7859 114.539 76.141C113.898 75.5024 113.005 74.4963 112.537 74.4201C112.069 74.344 112.027 75.1916 111.826 76.1884C111.652 77.0696 111.349 78.0675 111.078 78.7417C110.819 78.1323 110.743 77.34 110.75 76.2203C110.763 74.5697 110.94 72.2007 111.098 70.8353C111.263 69.4711 111.396 69.1083 111.875 68.838C112.353 68.5677 113.182 68.3908 114.184 68.3838Z" fill="#F99B07"/>
<path fill-rule="evenodd" clip-rule="evenodd" d="M111.437 65.5752C111.058 65.6035 110.724 65.5255 110.278 65.6813C109.828 65.8298 109.266 66.2121 108.788 66.6598C108.317 67.1086 107.929 67.6167 107.801 68.164C107.68 68.7064 107.819 69.2819 108.138 69.7749C108.456 70.268 108.955 70.6726 109.5 70.8828C110.04 71.0919 110.627 71.1005 111.293 71.0216C111.96 70.9427 112.703 70.7826 113.33 70.3927C113.948 70.0078 114.441 69.4044 114.699 68.8418C114.956 68.2793 114.985 67.7587 114.89 67.2922C114.799 66.833 114.586 66.4281 114.199 66.1066C113.807 65.7839 113.243 65.5326 112.746 65.4767C112.249 65.4209 111.82 65.5543 111.437 65.5752Z" fill="#A84815"/>
<path fill-rule="evenodd" clip-rule="evenodd" d="M107.687 68.9166C107.521 68.8874 107.41 68.7284 107.44 68.5564C107.47 68.3906 107.629 68.2793 107.794 68.3085C107.96 68.3377 108.072 68.4967 108.042 68.6625C108.012 68.8346 107.853 68.9458 107.687 68.9166Z" fill="#572009"/>
<path fill-rule="evenodd" clip-rule="evenodd" d="M107.7 69.9575C107.534 69.9282 107.423 69.7693 107.452 69.6034C107.481 69.4376 107.64 69.3263 107.806 69.3555C107.972 69.3848 108.089 69.5448 108.06 69.7107C108.031 69.8765 107.866 69.9867 107.7 69.9575Z" fill="#572009"/>
<path fill-rule="evenodd" clip-rule="evenodd" d="M108.361 70.6312C108.195 70.6019 108.083 70.443 108.113 70.2771C108.142 70.1112 108.301 70 108.467 70.0292C108.633 70.0584 108.744 70.2174 108.715 70.3832C108.685 70.5491 108.526 70.6604 108.361 70.6312Z" fill="#572009"/>
<path fill-rule="evenodd" clip-rule="evenodd" d="M109.773 71.4945C109.607 71.4652 109.495 71.3063 109.525 71.1404C109.554 70.9746 109.713 70.8633 109.879 70.8925C110.051 70.9228 110.162 71.0818 110.133 71.2476C110.103 71.4135 109.944 71.5248 109.773 71.4945Z" fill="#572009"/>
<path fill-rule="evenodd" clip-rule="evenodd" d="M110.915 71.4426C110.743 71.4123 110.632 71.2534 110.661 71.0875C110.69 70.9217 110.849 70.8104 111.021 70.8407C111.187 70.8699 111.298 71.0289 111.269 71.1947C111.24 71.3606 111.081 71.4719 110.915 71.4426Z" fill="#572009"/>
<path fill-rule="evenodd" clip-rule="evenodd" d="M112.204 71.2835C112.038 71.2543 111.927 71.0953 111.956 70.9295C111.985 70.7636 112.144 70.6523 112.31 70.6816C112.476 70.7108 112.587 70.8698 112.558 71.0356C112.529 71.2015 112.37 71.3128 112.204 71.2835Z" fill="#572009"/>
<path fill-rule="evenodd" clip-rule="evenodd" d="M113.975 70.2532C113.809 70.224 113.698 70.065 113.727 69.8992C113.756 69.7333 113.915 69.622 114.081 69.6513C114.247 69.6805 114.364 69.8406 114.335 70.0064C114.306 70.1723 114.14 70.2825 113.975 70.2532Z" fill="#572009"/>
<path fill-rule="evenodd" clip-rule="evenodd" d="M109.108 71.1684C108.942 71.1391 108.831 70.9802 108.86 70.8144C108.889 70.6485 109.048 70.5372 109.214 70.5665C109.386 70.5968 109.497 70.7557 109.468 70.9216C109.439 71.0874 109.28 71.1987 109.108 71.1684Z" fill="#572009"/>
<path fill-rule="evenodd" clip-rule="evenodd" d="M114.743 68.7358C114.577 68.7065 114.466 68.5476 114.496 68.3756C114.525 68.2097 114.684 68.0985 114.85 68.1277C115.016 68.157 115.127 68.3159 115.098 68.4817C115.067 68.6537 114.909 68.765 114.743 68.7358Z" fill="#572009"/>
<path fill-rule="evenodd" clip-rule="evenodd" d="M112.632 71.0424C112.466 71.0132 112.355 70.8543 112.384 70.6884C112.414 70.5225 112.573 70.4113 112.738 70.4405C112.904 70.4698 113.015 70.6287 112.986 70.7946C112.957 70.9604 112.798 71.0717 112.632 71.0424Z" fill="#572009"/>
<path fill-rule="evenodd" clip-rule="evenodd" d="M113.518 70.616C113.352 70.5868 113.241 70.4278 113.27 70.262C113.299 70.0961 113.458 69.9848 113.624 70.0141C113.79 70.0433 113.901 70.2023 113.872 70.3681C113.843 70.534 113.684 70.6453 113.518 70.616Z" fill="#572009"/>
<path fill-rule="evenodd" clip-rule="evenodd" d="M114.412 69.7856C114.246 69.7563 114.129 69.5963 114.158 69.4304C114.188 69.2585 114.353 69.1483 114.519 69.1775C114.685 69.2068 114.796 69.3657 114.766 69.5377C114.737 69.7035 114.578 69.8148 114.412 69.7856Z" fill="#572009"/>
<path fill-rule="evenodd" clip-rule="evenodd" d="M114.859 69.3325C114.693 69.3033 114.582 69.1444 114.611 68.9785C114.64 68.8126 114.799 68.7013 114.965 68.7306C115.131 68.7598 115.242 68.9188 115.213 69.0846C115.184 69.2505 115.025 69.3618 114.859 69.3325Z" fill="#572009"/>
<path fill-rule="evenodd" clip-rule="evenodd" d="M114.704 68.0955C114.538 68.0663 114.426 67.9073 114.456 67.7415C114.485 67.5756 114.644 67.4643 114.81 67.4936C114.976 67.5228 115.087 67.6818 115.058 67.8476C115.028 68.0135 114.869 68.1248 114.704 68.0955Z" fill="#572009"/>
<path fill-rule="evenodd" clip-rule="evenodd" d="M114.853 67.4252C114.688 67.396 114.576 67.2371 114.606 67.0712C114.635 66.9053 114.794 66.7941 114.96 66.8233C115.125 66.8525 115.237 67.0115 115.207 67.1773C115.178 67.3432 115.019 67.4545 114.853 67.4252Z" fill="#572009"/>
<path fill-rule="evenodd" clip-rule="evenodd" d="M114.693 66.827C114.527 66.7977 114.417 66.6326 114.446 66.4668C114.475 66.301 114.634 66.1896 114.8 66.2189C114.966 66.2481 115.077 66.4071 115.048 66.5729C115.019 66.7388 114.859 66.8562 114.693 66.827Z" fill="#572009"/>
<path fill-rule="evenodd" clip-rule="evenodd" d="M113.732 65.8849C113.566 65.8556 113.454 65.6967 113.484 65.5308C113.513 65.365 113.673 65.2476 113.839 65.2768C114.005 65.3061 114.115 65.4712 114.086 65.637C114.056 65.8028 113.897 65.9141 113.732 65.8849Z" fill="#572009"/>
<path fill-rule="evenodd" clip-rule="evenodd" d="M112.664 65.8359C112.498 65.8067 112.387 65.6477 112.416 65.4819C112.445 65.316 112.604 65.2047 112.77 65.234C112.936 65.2632 113.047 65.4221 113.018 65.588C112.988 65.7538 112.83 65.8652 112.664 65.8359Z" fill="#572009"/>
<path fill-rule="evenodd" clip-rule="evenodd" d="M111.574 65.8021C111.408 65.7728 111.297 65.6139 111.326 65.448C111.355 65.2822 111.514 65.1709 111.68 65.2001C111.852 65.2304 111.963 65.3894 111.934 65.5552C111.905 65.7211 111.746 65.8324 111.574 65.8021Z" fill="#572009"/>
<path fill-rule="evenodd" clip-rule="evenodd" d="M110.644 65.6888C110.478 65.6595 110.367 65.5006 110.396 65.3347C110.425 65.1689 110.584 65.0576 110.75 65.0868C110.916 65.1161 111.027 65.275 110.998 65.4409C110.969 65.6067 110.81 65.718 110.644 65.6888Z" fill="#572009"/>
<path fill-rule="evenodd" clip-rule="evenodd" d="M109.914 65.8768C109.749 65.8475 109.637 65.6886 109.666 65.5228C109.696 65.3569 109.855 65.2456 110.021 65.2749C110.186 65.3041 110.304 65.4641 110.275 65.63C110.245 65.7958 110.08 65.906 109.914 65.8768Z" fill="#572009"/>
<path fill-rule="evenodd" clip-rule="evenodd" d="M109.283 66.4051C109.117 66.3758 109.006 66.2169 109.036 66.0449C109.065 65.8791 109.224 65.7678 109.39 65.797C109.562 65.8274 109.673 65.9863 109.644 66.1522C109.614 66.3241 109.455 66.4354 109.283 66.4051Z" fill="#572009"/>
<path fill-rule="evenodd" clip-rule="evenodd" d="M108.704 66.8477C108.539 66.8185 108.427 66.6595 108.457 66.4937C108.486 66.3278 108.645 66.2165 108.811 66.2458C108.976 66.275 109.088 66.4339 109.059 66.5998C109.029 66.7657 108.87 66.877 108.704 66.8477Z" fill="#572009"/>
<path fill-rule="evenodd" clip-rule="evenodd" d="M108.107 67.2553C107.941 67.2261 107.83 67.0671 107.86 66.8952C107.889 66.7293 108.048 66.618 108.214 66.6473C108.38 66.6765 108.491 66.8354 108.462 67.0013C108.432 67.1733 108.273 67.2846 108.107 67.2553Z" fill="#572009"/>
<path fill-rule="evenodd" clip-rule="evenodd" d="M107.956 67.9317C107.79 67.9024 107.679 67.7435 107.708 67.5777C107.737 67.4118 107.897 67.2944 108.063 67.3236C108.229 67.3529 108.339 67.518 108.31 67.6838C108.281 67.8496 108.122 67.9609 107.956 67.9317Z" fill="#572009"/>
<path fill-rule="evenodd" clip-rule="evenodd" d="M107.598 69.4264C107.432 69.3972 107.32 69.2383 107.35 69.0724C107.379 68.9065 107.538 68.7953 107.704 68.8245C107.869 68.8537 107.981 69.0126 107.952 69.1786C107.922 69.3444 107.763 69.4557 107.598 69.4264Z" fill="#572009"/>
<path fill-rule="evenodd" clip-rule="evenodd" d="M108.679 70.9469C108.513 70.9177 108.401 70.7587 108.432 70.5868C108.461 70.4209 108.62 70.3096 108.786 70.3389C108.952 70.3681 109.063 70.527 109.034 70.6929C109.003 70.8648 108.844 70.9761 108.679 70.9469Z" fill="#572009"/>
<path fill-rule="evenodd" clip-rule="evenodd" d="M110.284 71.5023C110.118 71.4731 110.007 71.3141 110.036 71.1483C110.066 70.9763 110.225 70.865 110.391 70.8943C110.557 70.9235 110.668 71.0824 110.638 71.2544C110.609 71.4202 110.45 71.5316 110.284 71.5023Z" fill="#572009"/>
<path fill-rule="evenodd" clip-rule="evenodd" d="M111.52 71.3909C111.354 71.3616 111.243 71.2027 111.272 71.0368C111.301 70.871 111.46 70.7597 111.626 70.7889C111.792 70.8181 111.903 70.9771 111.874 71.1429C111.844 71.3088 111.686 71.4201 111.52 71.3909Z" fill="#572009"/>
<path fill-rule="evenodd" clip-rule="evenodd" d="M112.904 70.3621C112.738 70.3329 112.627 70.174 112.656 70.0081C112.686 69.8422 112.844 69.731 113.01 69.7602C113.176 69.7895 113.287 69.9484 113.258 70.1143C113.229 70.2801 113.07 70.3914 112.904 70.3621Z" fill="#572009"/>
<path fill-rule="evenodd" clip-rule="evenodd" d="M113.466 70.0496C113.3 70.0204 113.189 69.8614 113.218 69.6956C113.247 69.5297 113.407 69.4123 113.573 69.4415C113.739 69.4708 113.849 69.6359 113.82 69.8017C113.791 69.9675 113.632 70.0789 113.466 70.0496Z" fill="#572009"/>
<path fill-rule="evenodd" clip-rule="evenodd" d="M113.852 69.6933C113.686 69.664 113.575 69.5051 113.604 69.3392C113.633 69.1733 113.792 69.062 113.958 69.0913C114.13 69.1216 114.241 69.2806 114.212 69.4464C114.183 69.6123 114.024 69.7236 113.852 69.6933Z" fill="#572009"/>
<path fill-rule="evenodd" clip-rule="evenodd" d="M114.283 69.2246C114.117 69.1954 114.007 69.0303 114.036 68.8645C114.065 68.6987 114.224 68.5873 114.39 68.6166C114.562 68.6469 114.673 68.8058 114.644 68.9717C114.615 69.1375 114.455 69.2549 114.283 69.2246Z" fill="#572009"/>
<path fill-rule="evenodd" clip-rule="evenodd" d="M114.238 68.5771C114.073 68.5478 113.961 68.3889 113.991 68.2231C114.02 68.0572 114.18 67.9398 114.346 67.969C114.512 67.9983 114.628 68.1645 114.599 68.3303C114.569 68.4961 114.404 68.6063 114.238 68.5771Z" fill="#572009"/>
<path fill-rule="evenodd" clip-rule="evenodd" d="M114.319 67.692C114.153 67.6627 114.042 67.5039 114.071 67.338C114.1 67.1721 114.259 67.0609 114.425 67.0901C114.591 67.1193 114.702 67.2782 114.673 67.4441C114.644 67.61 114.485 67.7212 114.319 67.692Z" fill="#572009"/>
<path fill-rule="evenodd" clip-rule="evenodd" d="M114.165 67.1963C113.999 67.1671 113.888 67.0081 113.917 66.8423C113.948 66.6703 114.107 66.559 114.273 66.5882C114.438 66.6175 114.55 66.7764 114.519 66.9484C114.49 67.1143 114.331 67.2256 114.165 67.1963Z" fill="#572009"/>
<path fill-rule="evenodd" clip-rule="evenodd" d="M114.055 66.5308C113.889 66.5016 113.778 66.3427 113.807 66.1768C113.836 66.0109 113.995 65.8997 114.161 65.9289C114.327 65.9582 114.438 66.1171 114.409 66.283C114.38 66.4488 114.221 66.5601 114.055 66.5308Z" fill="#572009"/>
<path fill-rule="evenodd" clip-rule="evenodd" d="M113.276 66.1338C113.11 66.1046 112.993 65.9446 113.022 65.7787C113.051 65.6128 113.216 65.5026 113.382 65.5319C113.548 65.5611 113.659 65.7201 113.63 65.8859C113.601 66.0518 113.442 66.1631 113.276 66.1338Z" fill="#572009"/>
<path fill-rule="evenodd" clip-rule="evenodd" d="M112.189 66.0878C112.023 66.0586 111.912 65.8997 111.941 65.7338C111.97 65.5679 112.13 65.4505 112.296 65.4798C112.462 65.509 112.572 65.6741 112.543 65.84C112.513 66.0058 112.355 66.1171 112.189 66.0878Z" fill="#572009"/>
<path fill-rule="evenodd" clip-rule="evenodd" d="M113.183 65.6552C113.017 65.626 112.906 65.467 112.935 65.3012C112.965 65.1353 113.125 65.0179 113.29 65.0472C113.456 65.0764 113.566 65.2415 113.537 65.4073C113.508 65.5731 113.349 65.6845 113.183 65.6552Z" fill="#572009"/>
<path fill-rule="evenodd" clip-rule="evenodd" d="M111.187 66.1328C111.021 66.1035 110.91 65.9384 110.94 65.7726C110.969 65.6068 111.128 65.4954 111.294 65.5247C111.46 65.5539 111.571 65.7129 111.542 65.8787C111.512 66.0446 111.352 66.162 111.187 66.1328Z" fill="#572009"/>
<path fill-rule="evenodd" clip-rule="evenodd" d="M110.613 66.2217C110.448 66.1924 110.336 66.0335 110.365 65.8676C110.395 65.7018 110.554 65.5905 110.72 65.6197C110.885 65.649 110.997 65.8079 110.967 65.9738C110.938 66.1396 110.779 66.2509 110.613 66.2217Z" fill="#572009"/>
<path fill-rule="evenodd" clip-rule="evenodd" d="M110.03 66.4038C109.858 66.3735 109.747 66.2146 109.776 66.0487C109.807 65.8767 109.965 65.7655 110.138 65.7958C110.303 65.825 110.415 65.9839 110.384 66.1559C110.355 66.3217 110.196 66.4331 110.03 66.4038Z" fill="#572009"/>
<path fill-rule="evenodd" clip-rule="evenodd" d="M109.254 67.0333C109.089 67.004 108.977 66.8451 109.007 66.6792C109.036 66.5134 109.196 66.396 109.362 66.4252C109.527 66.4545 109.638 66.6196 109.608 66.7854C109.579 66.9512 109.42 67.0625 109.254 67.0333Z" fill="#572009"/>
<path fill-rule="evenodd" clip-rule="evenodd" d="M108.667 67.5251C108.502 67.4959 108.39 67.3369 108.419 67.1711C108.449 67.0052 108.608 66.8939 108.774 66.9232C108.939 66.9524 109.051 67.1114 109.021 67.2772C108.992 67.4431 108.833 67.5544 108.667 67.5251Z" fill="#572009"/>
<path fill-rule="evenodd" clip-rule="evenodd" d="M108.34 68.2337C108.174 68.2044 108.063 68.0455 108.092 67.8796C108.121 67.7138 108.28 67.6025 108.446 67.6318C108.612 67.661 108.723 67.8199 108.694 67.9858C108.665 68.1517 108.506 68.2629 108.34 68.2337Z" fill="#572009"/>
<path fill-rule="evenodd" clip-rule="evenodd" d="M107.647 68.3902C107.481 68.3609 107.37 68.202 107.399 68.0361C107.429 67.8703 107.588 67.759 107.753 67.7882C107.919 67.8175 108.031 67.9764 108.001 68.1423C107.972 68.3081 107.813 68.4194 107.647 68.3902Z" fill="#572009"/>
<path fill-rule="evenodd" clip-rule="evenodd" d="M108.354 68.7618C108.182 68.7315 108.072 68.5663 108.101 68.4005C108.131 68.2347 108.29 68.1234 108.461 68.1537C108.627 68.183 108.739 68.3419 108.709 68.5077C108.68 68.6736 108.52 68.791 108.354 68.7618Z" fill="#572009"/>
<path fill-rule="evenodd" clip-rule="evenodd" d="M108.176 69.3447C108.01 69.3154 107.899 69.1565 107.928 68.9907C107.957 68.8248 108.116 68.7135 108.282 68.7427C108.448 68.772 108.565 68.932 108.536 69.0979C108.507 69.2637 108.341 69.3739 108.176 69.3447Z" fill="#572009"/>
<path fill-rule="evenodd" clip-rule="evenodd" d="M108.335 69.9111C108.169 69.8819 108.058 69.7229 108.087 69.5571C108.117 69.3912 108.277 69.2738 108.442 69.3031C108.608 69.3323 108.718 69.4974 108.689 69.6632C108.66 69.829 108.501 69.9404 108.335 69.9111Z" fill="#572009"/>
<path fill-rule="evenodd" clip-rule="evenodd" d="M108.795 70.2836C108.63 70.2543 108.518 70.0954 108.548 69.9295C108.578 69.7575 108.737 69.6462 108.903 69.6755C109.069 69.7047 109.18 69.8636 109.149 70.0356C109.12 70.2015 108.961 70.3128 108.795 70.2836Z" fill="#572009"/>
<path fill-rule="evenodd" clip-rule="evenodd" d="M109.214 70.5664C109.048 70.5372 108.937 70.3782 108.966 70.2124C108.995 70.0465 109.154 69.9352 109.32 69.9645C109.486 69.9937 109.597 70.1527 109.568 70.3185C109.539 70.4844 109.38 70.5957 109.214 70.5664Z" fill="#572009"/>
<path fill-rule="evenodd" clip-rule="evenodd" d="M109.687 70.8272C109.522 70.798 109.41 70.6391 109.439 70.4732C109.469 70.3073 109.628 70.1961 109.794 70.2253C109.959 70.2545 110.071 70.4135 110.041 70.5793C110.012 70.7452 109.853 70.8565 109.687 70.8272Z" fill="#572009"/>
<path fill-rule="evenodd" clip-rule="evenodd" d="M110.377 70.9044C110.211 70.8752 110.1 70.7162 110.129 70.5504C110.158 70.3845 110.317 70.2732 110.483 70.3025C110.649 70.3317 110.766 70.4917 110.737 70.6576C110.708 70.8235 110.543 70.9337 110.377 70.9044Z" fill="#572009"/>
<path fill-rule="evenodd" clip-rule="evenodd" d="M111.079 70.8003C110.907 70.77 110.796 70.611 110.825 70.4452C110.854 70.2793 111.014 70.1619 111.186 70.1922C111.352 70.2214 111.462 70.3866 111.433 70.5524C111.404 70.7182 111.245 70.8295 111.079 70.8003Z" fill="#572009"/>
<path fill-rule="evenodd" clip-rule="evenodd" d="M111.656 70.7943C111.491 70.7651 111.379 70.6062 111.408 70.4403C111.438 70.2744 111.597 70.1632 111.763 70.1924C111.928 70.2217 112.046 70.3816 112.017 70.5475C111.987 70.7134 111.822 70.8236 111.656 70.7943Z" fill="#572009"/>
<path fill-rule="evenodd" clip-rule="evenodd" d="M112.194 70.6549C112.028 70.6256 111.918 70.4605 111.947 70.2947C111.977 70.1289 112.135 70.0175 112.301 70.0468C112.467 70.076 112.578 70.235 112.549 70.4008C112.52 70.5667 112.36 70.6841 112.194 70.6549Z" fill="#572009"/>
<path d="M43.173 67.7443L40.0242 52.4319L44.9534 67.2673L55.8559 96.4958C55.8559 96.4958 52.606 99.5537 48.3461 98.5081L43.173 67.7443Z" fill="#38251E"/>
<path d="M52.1862 98.4509C54.4113 97.8547 55.8564 96.4958 55.8564 96.4958L50.6804 82.6201C50.6804 82.6201 50.6804 82.6201 50.68 82.6209L55.8558 96.4959C55.8558 96.4959 54.4113 97.8547 52.1862 98.4509" fill="#A7A48E"/>
<path d="M52.1861 98.4509C54.4112 97.8547 55.8557 96.4959 55.8557 96.4959L50.6799 82.6209C49.9976 83.1549 49.2129 83.5789 48.3139 83.8198C47.5882 84.0142 46.7879 84.0892 45.9077 84.0074L48.3459 98.5081C48.3677 98.5137 48.39 98.5191 48.4124 98.5245C49.807 98.8534 51.0909 98.7451 52.1861 98.4509" fill="#2A1D1A"/>
<path d="M37.7797 53.065C30.3976 54.1061 6.99788 55.8942 5.4201 48.5792C3.58184 40.0579 13.0294 37.839 15.861 37.37C15.0689 34.6103 13.0163 25.1259 21.5001 23.1265C29.3614 21.2737 38.5649 46.9344 39.8608 51.8228C38.5395 46.9412 33.6797 20.1166 41.4135 17.7907C49.761 15.2802 52.7251 24.5204 53.4189 27.3063C56.1057 26.2967 65.3969 23.4946 68.0656 31.7934C70.3573 38.9171 49.1985 49.0684 42.2849 51.8579C49.6671 50.8174 73.0669 49.0293 74.644 56.3445C76.4823 64.8658 67.0348 67.0847 64.2032 67.5538C64.995 70.3126 67.0483 79.7971 58.5639 81.7966C50.7032 83.6493 41.4998 57.9891 40.2033 53.1009C41.5252 57.9823 46.3849 84.8064 38.6504 87.1324C30.3036 89.6428 27.3389 80.4026 26.6452 77.6174C23.9585 78.627 14.6672 81.4291 11.9985 73.1303C9.70745 66.0064 30.8662 55.8551 37.7797 53.065Z" fill="#1B957A"/>
<path d="M68.0657 31.7934C68.0642 31.7878 68.0619 31.7817 68.0604 31.7762C68.0619 31.7817 68.0642 31.7878 68.0657 31.7934ZM68.0563 31.7633C68.056 31.7621 68.0556 31.7608 68.0545 31.7591C68.0548 31.7604 68.056 31.7621 68.0563 31.7633Z" fill="#A8D4A2"/>
<path d="M42.2849 51.8578C49.144 49.09 70.0275 39.0751 68.1149 31.9608C68.1 31.9052 68.0836 31.8487 68.0656 31.7933C68.0642 31.788 68.062 31.7823 68.0606 31.7769C68.0589 31.773 68.0578 31.7688 68.0566 31.7647C68.0563 31.7635 68.0553 31.7619 68.0549 31.7607C67.2008 29.1312 65.6765 27.6302 63.912 26.8269C63.5382 33.4616 59.2737 42.8257 42.2849 51.8578" fill="#1F553F"/>
<path d="M5.41449 48.5553C5.41462 48.5532 5.41408 48.5512 5.41356 48.5493C5.41408 48.5512 5.41462 48.5532 5.41449 48.5553ZM5.40884 48.529C5.40879 48.5262 5.40826 48.5243 5.40773 48.5224C5.40826 48.5243 5.40879 48.5262 5.40884 48.529ZM5.40312 48.4999C5.40277 48.4986 5.40243 48.4974 5.40225 48.4967C5.40243 48.4974 5.40277 48.4986 5.40312 48.4999Z" fill="#A8D4A2"/>
<path d="M37.7798 53.065C37.7798 53.065 21.0269 52.904 14.408 49.8331C9.76251 47.6775 8.57995 43.7869 9.10678 39.8219C6.53299 41.4802 4.49929 44.1653 5.40387 48.5018C5.40403 48.5024 5.40435 48.5035 5.40466 48.5047C5.40581 48.5114 5.40756 48.5179 5.40887 48.5251C5.40934 48.5269 5.40983 48.5287 5.40988 48.5312C5.41146 48.5371 5.4126 48.5438 5.41418 48.5497C5.41466 48.5515 5.41515 48.5533 5.41503 48.5552C5.41725 48.5635 5.41872 48.5713 5.42019 48.5792C5.43288 48.636 5.4463 48.6933 5.46119 48.7488C7.36257 55.8662 30.455 54.0977 37.7798 53.065" fill="#1F553F"/>
<path d="M41.5527 50.1522C43.3066 47.1541 44.7909 44.0984 46.3205 41.0602L50.898 31.8994C48.3851 34.3218 46.5321 37.3172 44.9747 40.3907C44.2218 41.9459 43.5219 43.5262 42.945 45.154C42.361 46.7787 41.8567 48.4359 41.5527 50.1522" fill="#488355"/>
<path d="M41.5527 50.1522C50.1928 42.107 50.898 31.8994 50.898 31.8994L46.3205 41.0602C44.7909 44.0984 43.3066 47.1541 41.5527 50.1522" fill="#1F553F"/>
<path d="M38.3694 51.0052C37.2479 49.6708 35.9826 48.4877 34.6651 47.3726C33.351 46.2514 31.9553 45.2327 30.5257 44.2623C27.6396 42.3795 24.5378 40.7117 21.1497 39.8705L29.695 45.515C32.5381 47.3815 35.3514 49.2857 38.3694 51.0052Z" fill="#488355"/>
<path d="M38.3694 51.0052C35.3514 49.2857 32.5381 47.3815 29.695 45.515L21.1497 39.8705C21.1497 39.8705 29.822 48.7762 38.3694 51.0052" fill="#1F553F"/>
<path d="M42.4603 53.5396C43.5818 54.874 44.8471 56.057 46.1651 57.1714C47.4787 58.2933 48.875 59.3119 50.3046 60.2823C53.19 62.1645 56.2925 63.8328 59.6797 64.673L51.1354 59.0295C48.2913 57.1621 45.4783 55.259 42.4603 53.5396" fill="#488355"/>
<path d="M58.8998 81.7122C66.6847 79.6263 65.1226 70.9715 64.2969 67.8923C65.1226 70.9715 66.6847 79.6263 58.8998 81.7122C58.7898 81.7417 58.6775 81.7698 58.5636 81.7966C57.7057 81.9992 56.8314 81.8734 55.9526 81.4825C56.8308 81.8736 57.7057 81.9992 58.5636 81.7966C58.6775 81.7698 58.7898 81.7417 58.8998 81.7122ZM55.9476 81.4801C55.9462 81.4797 55.9447 81.4789 55.944 81.4786C55.9453 81.4787 55.9461 81.4792 55.9476 81.4801ZM55.9347 81.4746C55.9346 81.4742 55.9338 81.4736 55.9332 81.4738C55.9338 81.4736 55.934 81.4743 55.9347 81.4746ZM66.2482 67.1097C70.046 66.0921 76.1539 63.3454 74.6438 56.3444C74.6436 56.3413 74.6427 56.3378 74.6419 56.3348C74.6427 56.3378 74.6436 56.3413 74.6438 56.3444C76.1539 63.3454 70.046 66.0921 66.2482 67.1097C65.4237 67.3307 64.7081 67.4704 64.203 67.5537C64.7081 67.4704 65.4237 67.3307 66.2482 67.1097ZM74.6409 56.3313C74.6403 56.329 74.6404 56.327 74.6399 56.3251C74.6404 56.327 74.6405 56.3295 74.6409 56.3313ZM74.6388 56.321C74.6384 56.3194 74.6379 56.3175 74.6374 56.3157C74.6379 56.3175 74.6384 56.3194 74.6388 56.321ZM74.6367 56.3109C74.6361 56.3084 74.6353 56.3056 74.6345 56.3026C74.6353 56.3056 74.6361 56.3084 74.6367 56.3109ZM74.6338 56.2976C74.6334 56.296 74.6329 56.2941 74.6326 56.2929C74.6329 56.2941 74.6334 56.296 74.6338 56.2976ZM74.631 56.287C74.6306 56.2858 74.6305 56.2853 74.6302 56.2842C74.6303 56.2847 74.6308 56.2865 74.631 56.287ZM74.629 56.2773C74.6289 56.2769 74.6287 56.2762 74.6287 56.2762C74.6287 56.2762 74.6289 56.2769 74.629 56.2773Z" fill="#A8D4A2"/>
<path d="M58.9 81.7122C66.6849 79.6263 65.1227 70.9715 64.297 67.8923C64.2644 67.7706 64.2329 67.6579 64.2031 67.5537C64.7082 67.4704 65.4239 67.3306 66.2484 67.1097C70.0462 66.0921 76.1541 63.3454 74.644 56.3444C74.6438 56.3413 74.6428 56.3378 74.642 56.3348C74.6417 56.3336 74.6414 56.3324 74.6411 56.3313C74.6406 56.3295 74.6406 56.327 74.6401 56.3251C74.6398 56.324 74.6393 56.3221 74.639 56.321C74.6386 56.3194 74.638 56.3175 74.6376 56.3157C74.6377 56.3139 74.6373 56.3125 74.6369 56.3109C74.6362 56.3084 74.6355 56.3056 74.6347 56.3026C74.6342 56.3007 74.6339 56.2996 74.634 56.2975C74.6335 56.296 74.6331 56.2941 74.6327 56.2929C74.6322 56.2911 74.6318 56.2895 74.6311 56.287C74.631 56.2865 74.6305 56.2847 74.6304 56.2842C74.6297 56.2816 74.6297 56.2792 74.6292 56.2773C74.6291 56.2769 74.6289 56.2762 74.6289 56.2762C73.9566 53.4312 69.9464 51.9834 64.8846 51.3333C63.7922 54.8863 61.6162 59.309 57.3097 63.1078L59.6797 64.673C56.3115 63.8373 53.2255 62.1838 50.3531 60.3143C50.3522 60.3133 50.3507 60.3124 50.3492 60.3115C50.343 60.3075 50.3369 60.3034 50.3309 60.3C50.3223 60.294 50.3131 60.2882 50.3046 60.2823C48.8749 59.3119 47.4787 58.2933 46.1651 57.1714C44.8471 56.057 43.5818 54.874 42.4603 53.5396C42.4603 53.5396 45.93 61.4944 56.1703 64.0533C54.7989 65.1339 53.2485 66.154 51.4672 67.0676C49.8632 67.8904 48.1961 68.5603 46.4885 69.1028C49.2636 74.7423 52.6254 79.9854 55.9334 81.4738C55.934 81.4736 55.9347 81.4742 55.9348 81.4746C55.9377 81.4758 55.9413 81.4774 55.9442 81.4786C55.9449 81.4789 55.9464 81.4797 55.9477 81.4801C55.9492 81.4809 55.9513 81.4816 55.9528 81.4825C56.8316 81.8734 57.7059 81.9992 58.5638 81.7966C58.6777 81.7698 58.79 81.7417 58.9 81.7122" fill="#1F553F"/>
<path d="M59.6797 64.673L57.3097 63.1078C57.0928 63.2989 56.8715 63.4882 56.6436 63.6761C54.4305 62.7888 52.3393 61.6065 50.3531 60.3143C53.2256 62.1838 56.3115 63.8374 59.6797 64.673ZM50.3492 60.3115C50.343 60.3075 50.3369 60.3034 50.3309 60.3C50.3369 60.3034 50.343 60.3075 50.3492 60.3115Z" fill="#23492B"/>
<path d="M38.6622 87.1293C38.664 87.1288 38.6658 87.1283 38.667 87.128C38.6652 87.1285 38.664 87.1288 38.6622 87.1293ZM38.6738 87.1254C38.6756 87.1249 38.678 87.1243 38.6798 87.1238C38.6774 87.1244 38.6762 87.1248 38.6738 87.1254ZM38.685 87.1219C38.6873 87.1213 38.6891 87.1208 38.6915 87.1202C38.6891 87.1208 38.6873 87.1213 38.685 87.1219ZM38.6968 87.1187C38.699 87.1175 38.7007 87.117 38.7031 87.1164C38.7007 87.117 38.6984 87.1176 38.6968 87.1187ZM38.7085 87.1149C38.71 87.1137 38.7124 87.1131 38.7142 87.1126C38.7124 87.1131 38.71 87.1137 38.7085 87.1149ZM38.7195 87.1112C38.7211 87.1102 38.7241 87.1095 38.7259 87.109C38.7241 87.1095 38.7213 87.1107 38.7195 87.1112ZM38.7312 87.1076C38.7328 87.1064 38.7351 87.1057 38.7369 87.1053C38.7345 87.1059 38.7334 87.1062 38.7312 87.1076ZM38.7423 87.1038C38.7445 87.1027 38.7468 87.1021 38.7492 87.1015C38.7468 87.1021 38.7445 87.1027 38.7423 87.1038ZM38.7532 87.0997C38.7561 87.0989 38.7579 87.0984 38.7603 87.0978C38.7579 87.0984 38.7556 87.0991 38.7532 87.0997ZM38.7649 87.0961C38.7672 87.0954 38.7696 87.0948 38.7718 87.0934C38.7696 87.0948 38.7672 87.0954 38.7649 87.0961ZM38.7765 87.0922C38.7783 87.0917 38.7805 87.0906 38.7829 87.09C38.7811 87.0904 38.7783 87.0917 38.7765 87.0922ZM38.7876 87.0887C38.7898 87.0874 38.7922 87.0868 38.7946 87.0861C38.7922 87.0868 38.7898 87.0874 38.7876 87.0887ZM38.7985 87.0843C38.8009 87.0837 38.8038 87.0829 38.8055 87.0819C38.8032 87.0831 38.8009 87.0837 38.7985 87.0843ZM38.8102 87.0807C38.8124 87.0793 38.8148 87.0787 38.8171 87.0781C38.8148 87.0787 38.8124 87.0793 38.8102 87.0807ZM38.8211 87.0765C38.8235 87.0759 38.8259 87.0753 38.8281 87.0739C38.8259 87.0753 38.8235 87.0759 38.8211 87.0765ZM38.8322 87.0728C38.8344 87.0717 38.8374 87.0709 38.8396 87.0696C38.8374 87.0709 38.8344 87.0717 38.8322 87.0728ZM38.8425 87.0688C38.8455 87.068 38.8483 87.0668 38.8513 87.066C38.8477 87.0669 38.8461 87.0678 38.8425 87.0688ZM38.8535 87.0647C38.8564 87.0639 38.8592 87.0624 38.8621 87.0616C38.8594 87.0631 38.857 87.0637 38.8535 87.0647ZM38.8639 87.0611C38.8667 87.0598 38.8703 87.0589 38.8731 87.0574C38.8703 87.0589 38.8667 87.0598 38.8639 87.0611ZM38.8749 87.057C38.9036 87.046 38.9319 87.0355 38.9598 87.024C38.9319 87.0355 38.9036 87.046 38.8749 87.057ZM38.9609 87.0232C38.9645 87.0223 38.9672 87.0208 38.9707 87.0194C38.9672 87.0208 38.9645 87.0223 38.9609 87.0232ZM38.9718 87.019C38.9746 87.0175 38.9781 87.0166 38.981 87.0154C38.9781 87.0166 38.9752 87.0174 38.9718 87.019ZM38.9828 87.0149C38.9855 87.0134 38.9889 87.0118 38.9918 87.011C38.9883 87.0119 38.9861 87.0133 38.9828 87.0149ZM38.9941 87.0099C38.9964 87.0092 38.9992 87.0078 39.0021 87.0065C38.9992 87.0078 38.9969 87.0084 38.9941 87.0099ZM39.005 87.0057C39.0078 87.0042 39.0106 87.003 39.0136 87.0022C39.0106 87.003 39.0078 87.0042 39.005 87.0057ZM39.0158 87.0009C39.0186 86.9996 39.0216 86.9988 39.0243 86.9973C39.0214 86.9981 39.018 86.9998 39.0158 87.0009ZM39.0265 86.996C39.0295 86.9952 39.0323 86.9939 39.0351 86.9925C39.0323 86.9939 39.0295 86.9952 39.0265 86.996ZM39.0373 86.9914C39.0403 86.9906 39.043 86.9891 39.0459 86.9878C39.043 86.9891 39.0403 86.9906 39.0373 86.9914ZM39.0482 86.9872C39.051 86.9857 39.0538 86.9842 39.0566 86.983C39.0538 86.9842 39.051 86.9857 39.0482 86.9872ZM39.059 86.9823C39.0617 86.9808 39.0646 86.9796 39.0674 86.9781C39.0646 86.9796 39.0612 86.981 39.059 86.9823ZM39.0697 86.9775C39.0726 86.9762 39.0753 86.9747 39.0777 86.9741C39.0753 86.9747 39.0726 86.9762 39.0697 86.9775ZM39.0805 86.9726C39.0833 86.9714 39.0861 86.9699 39.0889 86.9686C39.0861 86.9699 39.0833 86.9714 39.0805 86.9726ZM39.0913 86.968C39.094 86.9665 39.0969 86.9653 39.0997 86.9638C39.0963 86.9654 39.0946 86.9664 39.0913 86.968ZM39.1014 86.9633C39.1043 86.962 39.1076 86.9604 39.1105 86.9591C39.107 86.9606 39.1048 86.9619 39.1014 86.9633ZM39.1122 86.9587C39.115 86.9572 39.1178 86.9557 39.1212 86.9542C39.1178 86.9557 39.115 86.9572 39.1122 86.9587ZM39.1224 86.9539C39.1252 86.9525 39.1286 86.9511 39.1319 86.9494C39.1284 86.9504 39.1252 86.9525 39.1224 86.9539ZM39.1318 86.9489C39.1561 86.938 39.1803 86.9263 39.2037 86.9143C39.1797 86.9265 39.1561 86.938 39.1318 86.9489ZM39.2055 86.9139C39.2077 86.9127 39.2105 86.9113 39.2133 86.9098C39.2105 86.9113 39.2083 86.9126 39.2055 86.9139ZM39.2161 86.9085C39.2182 86.9072 39.2211 86.906 39.2233 86.9046C39.2205 86.9061 39.2188 86.907 39.2161 86.9085ZM39.2267 86.9032C39.2289 86.9019 39.2317 86.9007 39.2341 86.9C39.2317 86.9007 39.2289 86.9019 39.2267 86.9032ZM39.2372 86.8977C39.2395 86.8966 39.2417 86.8953 39.244 86.8946C39.2417 86.8953 39.2395 86.8966 39.2372 86.8977ZM39.2479 86.8923C39.2501 86.8912 39.2525 86.8906 39.2541 86.8895C39.2519 86.8908 39.2501 86.8912 39.2479 86.8923ZM39.2585 86.887C39.2607 86.8857 39.2629 86.8846 39.2647 86.8841C39.2623 86.8847 39.2607 86.8857 39.2585 86.887ZM39.2691 86.8817C39.2713 86.8804 39.2729 86.8794 39.2751 86.8781C39.2729 86.8794 39.2713 86.8804 39.2691 86.8817ZM39.2797 86.8762C39.2819 86.875 39.2835 86.8739 39.2857 86.8728C39.2841 86.8737 39.2813 86.8752 39.2797 86.8762ZM39.2902 86.8704C39.2919 86.8699 39.2941 86.8685 39.2958 86.8677C39.2941 86.8685 39.2919 86.8699 39.2902 86.8704ZM39.3007 86.8648C39.303 86.8637 39.3046 86.8626 39.3063 86.8621C39.3046 86.8626 39.303 86.8637 39.3007 86.8648ZM39.3118 86.8589C39.3136 86.8584 39.3146 86.8574 39.3168 86.8561C39.3152 86.8573 39.3136 86.8584 39.3118 86.8589ZM39.3224 86.8533C39.324 86.8524 39.3258 86.8519 39.3274 86.8508C39.3258 86.8519 39.324 86.8524 39.3224 86.8533ZM39.3329 86.8475C39.3346 86.847 39.3356 86.8461 39.3372 86.8449C39.3356 86.8461 39.3346 86.847 39.3329 86.8475ZM39.3434 86.842C39.3451 86.8411 39.3461 86.84 39.3478 86.8396C39.3461 86.84 39.3451 86.8411 39.3434 86.842ZM39.3539 86.8362C39.3555 86.835 39.3567 86.8347 39.3583 86.8335C39.3573 86.8346 39.3555 86.835 39.3539 86.8362ZM39.3643 86.8302C39.3661 86.8297 39.3671 86.8287 39.3688 86.8278C39.3677 86.8285 39.3655 86.8299 39.3643 86.8302ZM39.3748 86.8242C39.3765 86.8237 39.3775 86.8227 39.3792 86.8217C39.3775 86.8227 39.3765 86.8237 39.3748 86.8242ZM39.387 86.8177C39.3876 86.8175 39.3886 86.8167 39.3892 86.8166C39.3886 86.8167 39.3874 86.817 39.387 86.8177ZM11.9947 73.1186C11.9944 73.1175 11.9941 73.1163 11.9938 73.1152C11.9941 73.1163 11.9944 73.1175 11.9947 73.1186ZM11.9917 73.1073C11.9908 73.1063 11.9903 73.1045 11.99 73.1033C11.9903 73.1045 11.9906 73.1059 11.9917 73.1073ZM11.9879 73.0957C11.9876 73.0945 11.9865 73.0929 11.9862 73.0917C11.9871 73.0927 11.9876 73.0945 11.9879 73.0957ZM11.984 73.0834C11.9839 73.0829 11.9834 73.0811 11.9832 73.0804C11.9834 73.0811 11.9839 73.0829 11.984 73.0834ZM11.9799 73.0706C11.9797 73.0699 11.9796 73.0694 11.9794 73.0688C11.9796 73.0694 11.9797 73.0699 11.9799 73.0706Z" fill="#A8D4A2"/>
<path d="M38.3172 87.2274C38.4273 87.1979 38.5391 87.1659 38.6506 87.1324C38.6547 87.1313 38.6583 87.1303 38.6624 87.1292C38.6642 87.1288 38.6654 87.1284 38.6671 87.128C38.6693 87.1266 38.6717 87.126 38.674 87.1254C38.6764 87.1247 38.6776 87.1244 38.6799 87.1238C38.6817 87.1233 38.6834 87.1223 38.6852 87.1219C38.6875 87.1212 38.6893 87.1208 38.6917 87.1201C38.6934 87.1196 38.6952 87.1192 38.697 87.1187C38.6986 87.1176 38.7009 87.1169 38.7033 87.1163C38.7051 87.1158 38.7069 87.1153 38.7086 87.1149C38.7102 87.1137 38.7126 87.113 38.7144 87.1126C38.7161 87.1121 38.7179 87.1116 38.7197 87.1112C38.7215 87.1107 38.7243 87.1094 38.7261 87.1089C38.7278 87.1085 38.7296 87.108 38.7314 87.1075C38.7336 87.1062 38.7347 87.1058 38.7371 87.1052C38.7389 87.1047 38.7407 87.1043 38.7424 87.1038C38.7447 87.1027 38.747 87.102 38.7494 87.1014C38.7506 87.1011 38.7524 87.1006 38.7534 87.0997C38.7557 87.099 38.7581 87.0984 38.7605 87.0977C38.7623 87.0973 38.7633 87.0965 38.7651 87.096C38.7674 87.0954 38.7698 87.0947 38.772 87.0934C38.7738 87.0929 38.7749 87.0926 38.7767 87.0921C38.7785 87.0917 38.7813 87.0904 38.7831 87.0899C38.7843 87.0896 38.7866 87.089 38.7878 87.0886C38.79 87.0874 38.7924 87.0867 38.7948 87.0861C38.7959 87.0858 38.7975 87.0846 38.7987 87.0843C38.8011 87.0836 38.8034 87.083 38.8057 87.0819C38.8074 87.0814 38.8086 87.0811 38.8104 87.0806C38.8126 87.0793 38.815 87.0787 38.8173 87.078C38.8185 87.0777 38.8202 87.0768 38.8213 87.0765C38.8237 87.0759 38.8261 87.0752 38.8283 87.0739C38.83 87.0734 38.8312 87.0731 38.8324 87.0728C38.8346 87.0717 38.8376 87.0709 38.8397 87.0695C38.8409 87.0692 38.8421 87.0689 38.8427 87.0687C38.8463 87.0678 38.8479 87.0669 38.8515 87.0659C38.8521 87.0658 38.8533 87.0655 38.8537 87.0646C38.8572 87.0637 38.8596 87.063 38.8623 87.0615C38.8629 87.0614 38.8635 87.0612 38.8641 87.061C38.8669 87.0598 38.8705 87.0588 38.8733 87.0574C38.8744 87.0571 38.8745 87.0571 38.8751 87.0569C38.9038 87.046 38.9321 87.0354 38.96 87.0239C38.9606 87.0238 38.9612 87.0236 38.9611 87.0232C38.9647 87.0222 38.9674 87.0207 38.9708 87.0193C38.9714 87.0192 38.9714 87.0192 38.972 87.019C38.9754 87.0173 38.9783 87.0166 38.9812 87.0153C38.9818 87.0152 38.9824 87.015 38.983 87.0149C38.9863 87.0132 38.9885 87.0119 38.992 87.0109C38.9925 87.0103 38.9931 87.0101 38.9943 87.0098C38.9971 87.0084 38.9994 87.0077 39.0023 87.0065C39.0034 87.0062 39.004 87.006 39.0052 87.0057C39.008 87.0042 39.0108 87.0029 39.0138 87.0021C39.0142 87.0013 39.0148 87.0011 39.016 87.0008C39.0182 86.9997 39.0216 86.9981 39.0245 86.9973C39.0251 86.9971 39.0255 86.9962 39.0267 86.9959C39.0297 86.9951 39.0325 86.9939 39.0353 86.9924C39.0359 86.9923 39.037 86.9919 39.0375 86.9913C39.0405 86.9905 39.0432 86.989 39.0461 86.9878C39.0466 86.9876 39.0478 86.9873 39.0484 86.9871C39.0512 86.9857 39.054 86.9842 39.0568 86.9829C39.0574 86.9828 39.058 86.9826 39.0592 86.9823C39.0613 86.9809 39.0648 86.9796 39.0675 86.9781C39.0681 86.9779 39.0693 86.9776 39.0699 86.9774C39.0727 86.9762 39.0755 86.9747 39.0779 86.974C39.0789 86.9731 39.0801 86.9728 39.0807 86.9726C39.0835 86.9713 39.0863 86.9698 39.0891 86.9686C39.0897 86.9684 39.0903 86.9682 39.0914 86.9679C39.0948 86.9663 39.0965 86.9654 39.0998 86.9637C39.1004 86.9635 39.101 86.9634 39.1016 86.9632C39.105 86.9618 39.1072 86.9605 39.1107 86.9591C39.1112 86.9589 39.1118 86.9588 39.1124 86.9586C39.1152 86.9571 39.118 86.9556 39.1214 86.9542C39.1214 86.9542 39.122 86.954 39.1226 86.9539C39.1253 86.9524 39.1286 86.9503 39.1321 86.9494C39.132 86.9489 39.1321 86.9494 39.132 86.9489C39.1563 86.9379 39.1799 86.9264 39.2039 86.9143C39.2044 86.9141 39.2051 86.914 39.2056 86.9138C39.2085 86.9125 39.2107 86.9113 39.2134 86.9098C39.2146 86.9094 39.2151 86.9088 39.2163 86.9085C39.219 86.907 39.2207 86.9061 39.2235 86.9046C39.2246 86.9043 39.2258 86.904 39.2269 86.9032C39.2291 86.9018 39.2319 86.9006 39.2343 86.9C39.2353 86.899 39.2364 86.8986 39.2374 86.8976C39.2397 86.8965 39.2419 86.8952 39.2442 86.8946C39.2459 86.8936 39.2471 86.8933 39.2481 86.8923C39.2503 86.8912 39.2521 86.8907 39.2543 86.8894C39.2559 86.8882 39.257 86.8879 39.2587 86.887C39.2609 86.8856 39.2625 86.8847 39.2649 86.8841C39.2665 86.8829 39.2681 86.882 39.2693 86.8817C39.2715 86.8803 39.2731 86.8794 39.2753 86.8781C39.2771 86.8776 39.2781 86.8766 39.2799 86.8761C39.2815 86.8752 39.2843 86.8737 39.2859 86.8728C39.2877 86.8723 39.2887 86.8713 39.2904 86.8703C39.2921 86.8698 39.2943 86.8685 39.296 86.8676C39.2981 86.8663 39.2993 86.8659 39.3009 86.8648C39.3031 86.8637 39.3048 86.8625 39.3065 86.8621C39.3082 86.8611 39.3104 86.8598 39.312 86.8588C39.3138 86.8583 39.3154 86.8572 39.317 86.856C39.3187 86.8555 39.3204 86.8546 39.3226 86.8533C39.3242 86.8523 39.326 86.8518 39.3276 86.8507C39.3292 86.8498 39.3314 86.8484 39.333 86.8475C39.3348 86.847 39.3358 86.846 39.3374 86.8448C39.3397 86.8437 39.3414 86.8433 39.3436 86.8419C39.3453 86.841 39.3463 86.84 39.348 86.8395C39.3503 86.8384 39.3524 86.8371 39.3541 86.8362C39.3557 86.835 39.3575 86.8345 39.3585 86.8335C39.3607 86.8324 39.3623 86.8313 39.3645 86.8302C39.3657 86.8298 39.3679 86.8285 39.3689 86.8277C39.3711 86.8264 39.3734 86.8253 39.375 86.8241C39.3767 86.8237 39.3777 86.8226 39.3794 86.8217C39.3816 86.8204 39.3844 86.8191 39.3872 86.8176C39.3876 86.817 39.3888 86.8167 39.3894 86.8165C42.761 84.9013 43.2569 77.5181 42.76 70.0733C39.3856 70.7524 35.903 70.9541 32.4359 70.7571C39.6715 64.2865 39.2772 54.3925 39.2772 54.3925C38.9732 56.1089 38.4689 57.7661 37.8853 59.39C37.308 61.0185 36.6087 62.5987 35.8558 64.1538C34.6904 66.4522 33.3603 68.7067 31.7128 70.7107C25.8887 70.2865 20.1338 68.7412 15.0428 66.3899C12.6853 68.6996 11.3574 71.0092 11.9796 73.0687C11.9798 73.0694 11.9799 73.0698 11.9801 73.0706C11.9809 73.0736 11.9824 73.0768 11.9834 73.0803C11.9836 73.081 11.984 73.0829 11.9842 73.0834C11.985 73.0864 11.9858 73.0893 11.9864 73.0916C11.9867 73.0928 11.9878 73.0945 11.9881 73.0957C11.9887 73.098 11.9894 73.1005 11.9902 73.1033C11.9905 73.1044 11.9909 73.1063 11.9919 73.1073C11.9925 73.1096 11.9933 73.1126 11.994 73.1152C11.9943 73.1163 11.9946 73.1175 11.9949 73.1186C11.9966 73.1226 11.9975 73.1261 11.9987 73.1303C14.1915 79.949 20.8549 79.2729 24.6521 78.2555C25.4766 78.0345 26.1662 77.7977 26.6453 77.6174C26.6722 77.7248 26.7022 77.8415 26.7358 77.967C27.5636 81.0538 30.5389 89.3116 38.3172 87.2274" fill="#1F553F"/>
<path d="M39.277 54.3925C37.5231 57.3906 36.0385 60.4452 34.5099 63.4843L29.9314 72.644C32.4452 70.2227 34.2974 67.2268 35.8557 64.1539C36.6086 62.5987 37.3079 61.0186 37.8853 59.3906C38.4687 57.7661 38.9731 56.1089 39.277 54.3925" fill="#488355"/>
<path d="M19.1167 36.3074C19.925 36.0902 19.4983 33.421 20.0173 30.8698C20.5669 28.1703 21.7081 26.5479 21.2278 25.8176C21.0663 25.5724 20.6708 25.4946 20.1764 25.6271C19.2016 25.8882 17.8405 26.9668 17.1217 29.1886C16.0373 32.5372 17.9465 36.2368 18.9621 36.3197C19.0185 36.3242 19.0693 36.3201 19.1167 36.3074Z" fill="#1F553F"/>
<path d="M40.3487 26.5706C41.3207 26.3108 42.5154 22.5649 43.2545 21.6442C43.6275 21.1791 44.1583 20.9222 44.7102 20.7743C45.1774 20.6491 45.66 20.6022 46.0749 20.5728C46.4906 20.5438 46.8387 20.5323 47.0375 20.4791C47.3243 20.4022 47.3006 20.238 46.7199 19.8073C46.7199 19.8073 44.4484 18.7918 42.4912 19.3162C42.454 19.3262 42.4169 19.3368 42.3799 19.3479C40.3981 19.9436 38.6868 23.9712 39.7109 26.0968C39.9054 26.5011 40.121 26.6316 40.3487 26.5706" fill="#1F553F"/>
<path d="M19.8887 65.9219C21.5826 65.468 26.015 62.9053 27.8904 62.0523C30.0652 61.0625 36.9302 55.6052 35.5722 55.9691C35.4853 55.9924 35.3659 56.039 35.2092 56.112C35.2092 56.112 31.3467 57.8392 26.4619 60.2721C21.5772 62.7055 19.0611 64.9366 19.218 65.8461C19.2478 66.0188 19.4942 66.0276 19.8887 65.9219" fill="#1F553F"/>
</svg>
