<svg width="150" height="67" viewBox="0 0 150 67" fill="none" xmlns="http://www.w3.org/2000/svg">
<path d="M161.722 45.3333L161.722 72.9091L-5.90912 82.7576L2 82.2929C2 82.2929 15.7158 53.8217 31.5151 55.1818C62.1895 57.8224 77.5458 37.602 108.333 37.4545C129.409 37.3536 161.722 45.3333 161.722 45.3333Z" fill="#4163B9"/>
<path fill-rule="evenodd" clip-rule="evenodd" d="M75.1384 19.2391L77.8293 39.7312L87.9719 41.1388L75.1384 19.2391Z" fill="#FFFFCC"/>
<path fill-rule="evenodd" clip-rule="evenodd" d="M75.1383 19.239L74.8485 18.9492L96.1686 32.1139L87.9717 41.1387L75.1383 19.239Z" fill="#FF8B37"/>
<path fill-rule="evenodd" clip-rule="evenodd" d="M75.1384 19.2391L94.1816 24.7451L96.1688 32.1139L75.1384 19.2391Z" fill="#B5501A"/>
<path fill-rule="evenodd" clip-rule="evenodd" d="M77.8288 39.7311L91.6558 58.7743L101.384 63.0383L87.9714 41.1386L77.8288 39.7311Z" fill="#FF8B37"/>
<path fill-rule="evenodd" clip-rule="evenodd" d="M87.9725 41.1387L96.1694 32.1139L108.009 53.7237L101.386 63.0383L87.9725 41.1387Z" fill="#E3684E"/>
<path fill-rule="evenodd" clip-rule="evenodd" d="M94.1807 24.7449L105.648 43.5397L108.008 53.7237L96.1679 32.1138L94.1807 24.7449Z" fill="#A13F30"/>
<path fill-rule="evenodd" clip-rule="evenodd" d="M105.649 43.5397L106.477 13.4432L110.161 17.9556L108.009 53.7237L105.649 43.5397Z" fill="#FF8B37"/>
<path fill-rule="evenodd" clip-rule="evenodd" d="M110.161 17.9557L123.284 18.6595L119.186 54.5517L108.008 53.7238L110.161 17.9557Z" fill="#E3684E"/>
<path fill-rule="evenodd" clip-rule="evenodd" d="M123.285 18.6593L132.02 13.319L125.107 44.409L119.187 54.5516L123.285 18.6593Z" fill="#A13F30"/>
<path fill-rule="evenodd" clip-rule="evenodd" d="M123.284 18.6596L119.889 0.030365L110.161 17.9558L123.284 18.6596Z" fill="#FF8B37"/>
<path fill-rule="evenodd" clip-rule="evenodd" d="M119.89 0.030365L106.477 13.4434L110.161 17.9558L119.89 0.030365Z" fill="#FFFFCC"/>
<path fill-rule="evenodd" clip-rule="evenodd" d="M119.889 0.030365L123.284 18.6596L132.019 13.3192L119.889 0.030365Z" fill="#E3684E"/>
<path fill-rule="evenodd" clip-rule="evenodd" d="M125.107 44.4092L141.045 33.0661L139.513 37.4543L119.187 54.5518L125.107 44.4092Z" fill="#FF8B37"/>
<path fill-rule="evenodd" clip-rule="evenodd" d="M139.513 37.4543L149.697 35.9226L141.045 33.0661L139.513 37.4543Z" fill="#FFFFCC"/>
<path fill-rule="evenodd" clip-rule="evenodd" d="M139.513 37.4543L147.255 43.1259L149.697 35.9226L139.513 37.4543Z" fill="#FF8B37"/>
<path fill-rule="evenodd" clip-rule="evenodd" d="M147.255 43.1258L126.68 57.9464L119.187 54.5518L139.513 37.4543L147.255 43.1258Z" fill="#E3684E"/>
<path fill-rule="evenodd" clip-rule="evenodd" d="M149.407 41.4285L138.685 53.2683L126.679 57.9464L147.254 43.1258L149.407 41.4285Z" fill="#80290C"/>
<path fill-rule="evenodd" clip-rule="evenodd" d="M138.685 53.2683L141.748 60.9269L126.679 57.9463L138.685 53.2683Z" fill="#B5501A"/>
<path fill-rule="evenodd" clip-rule="evenodd" d="M138.685 53.2683L144.026 57.7807L141.749 60.9269L138.685 53.2683Z" fill="#A13F30"/>
<path fill-rule="evenodd" clip-rule="evenodd" d="M108.008 53.7237L111.693 64.4459L101.385 63.0383L108.008 53.7237Z" fill="#FFFFCC"/>
<path fill-rule="evenodd" clip-rule="evenodd" d="M91.656 58.7743L84.4527 65.5636L87.9715 68.6685L91.656 58.7743Z" fill="#FFFFCC"/>
<path fill-rule="evenodd" clip-rule="evenodd" d="M91.657 58.7743L101.386 63.0383L97.7011 70.7798L87.9725 68.6685L91.657 58.7743Z" fill="#E3684E"/>
<path fill-rule="evenodd" clip-rule="evenodd" d="M97.7003 70.7797L101.095 75.9959L101.385 63.0382L97.7003 70.7797Z" fill="#FFFFCC"/>
<path fill-rule="evenodd" clip-rule="evenodd" d="M101.384 63.0382L111.692 64.4458L107.346 76.8653L101.095 75.9959L101.384 63.0382Z" fill="#E3684E"/>
<path fill-rule="evenodd" clip-rule="evenodd" d="M107.345 76.8654L114.093 80.7982L111.692 64.4459L107.345 76.8654Z" fill="#FFFFCC"/>
<path fill-rule="evenodd" clip-rule="evenodd" d="M111.693 64.4459L119.724 64.5701L119.186 54.5517L108.008 53.7237L111.693 64.4459Z" fill="#B5501A"/>
<path fill-rule="evenodd" clip-rule="evenodd" d="M119.725 64.5701L126.68 57.9463L119.187 54.5517L119.725 64.5701Z" fill="#A13F30"/>
<path fill-rule="evenodd" clip-rule="evenodd" d="M119.724 64.5701L121.877 80.5498L114.094 80.7982L111.693 64.4459L119.724 64.5701Z" fill="#E3684E"/>
<path fill-rule="evenodd" clip-rule="evenodd" d="M119.724 64.5702L126.804 70.2417L121.877 80.5499L119.724 64.5702Z" fill="#80290C"/>
<path fill-rule="evenodd" clip-rule="evenodd" d="M119.724 64.57L126.679 57.9463L126.804 70.2416L119.724 64.57Z" fill="#B5501A"/>
<path fill-rule="evenodd" clip-rule="evenodd" d="M126.803 70.2416L138.809 71.4835L141.748 60.927L126.679 57.9463L126.803 70.2416Z" fill="#E3684E"/>
<path fill-rule="evenodd" clip-rule="evenodd" d="M138.809 71.4836L143.446 70.3659L141.748 60.927L138.809 71.4836Z" fill="#B5501A"/>
</svg>
