<svg width="96" height="99" viewBox="0 0 96 99" fill="none" xmlns="http://www.w3.org/2000/svg">
<path d="M58.6997 101.293C58.6997 101.293 63.181 91.9656 53.2283 82.8987C44.4741 74.9261 28.8415 71.9038 28.8415 71.9038C28.8415 71.9038 26.9135 87.2759 38.8984 97.906C49.8412 107.65 58.6997 101.293 58.6997 101.293Z" fill="#054F50"/>
<path d="M35.3553 80.658C34.5215 80.2412 31.6034 78.6779 28.8417 76.9062C28.8417 77.0104 28.8417 77.1146 28.8938 77.2189C32.0203 79.2511 35.251 80.8665 35.5116 81.0228L35.72 81.127L34.7299 73.467C34.6257 73.4149 34.5215 73.4149 34.4694 73.3628L35.3553 80.658Z" fill="#0B3530"/>
<path d="M38.5335 84.7224H38.6377V84.6182C38.6377 84.5661 39.5757 80.189 39.3151 74.9781C39.2109 74.926 39.1588 74.926 39.0546 74.8739C39.3673 79.6679 38.5856 83.7845 38.4293 84.4619C35.8239 84.514 32.6452 83.7845 29.8835 82.9507C29.8835 83.0549 29.9356 83.1592 29.9877 83.2634C32.6452 84.045 35.6675 84.7224 38.2209 84.7224C38.273 84.7224 38.3772 84.7224 38.5335 84.7224Z" fill="#0B3530"/>
<path d="M32.1763 89.2038C32.2284 89.3081 32.2806 89.3602 32.2806 89.4644C35.0423 89.3602 38.273 88.9954 41.5559 88.0574H41.608V88.0053C41.6601 87.9532 43.9008 82.5339 44.6303 77.3752C44.5261 77.3231 44.474 77.271 44.3697 77.271C43.6923 82.1171 41.608 87.2758 41.3475 87.849C38.2209 88.7349 34.9381 89.0996 32.1763 89.2038Z" fill="#0B3530"/>
<path d="M34.8861 93.5288C34.9382 93.633 34.9903 93.6851 35.0945 93.7893C38.2732 93.633 42.3897 93.2161 45.9331 92.1219H45.9852V92.0697C45.9852 91.9655 47.9654 85.2435 48.5386 79.5116C48.4343 79.4595 48.3822 79.4073 48.278 79.3552C47.7048 84.8266 45.9331 91.236 45.7247 91.9134C42.1813 93.0077 38.0647 93.4246 34.8861 93.5288Z" fill="#0B3530"/>
<path d="M52.9156 97.6975L53.0198 97.6454V97.5412C53.0198 97.437 53.124 89.2559 52.5508 82.2734C52.4466 82.1692 52.3424 82.117 52.2903 82.0128C52.8635 88.6306 52.8113 96.499 52.8113 97.437C49.3722 98.8439 44.005 98.7918 39.6279 98.3749C39.7321 98.4792 39.8363 98.5834 39.9926 98.6876C41.4517 98.7918 43.0149 98.896 44.6303 98.896C47.6005 98.9481 50.6749 98.6355 52.9156 97.6975Z" fill="#0B3530"/>
<path d="M56.2506 99.8861C54.1141 101.137 50.675 102.127 47.7048 102.856C47.9132 102.908 48.0695 102.961 48.278 103.013C51.196 102.283 54.3747 101.345 56.459 100.147L56.5111 100.095V100.042C56.5111 99.9903 57.5533 94.102 57.5012 88.1617C57.397 88.0053 57.3449 87.849 57.2406 87.6927C57.3449 93.4246 56.4069 99.2608 56.2506 99.8861Z" fill="#0B3530"/>
<path d="M65.7865 64.296C65.7865 64.296 72.5085 57.4698 66.4639 46.527C61.1488 36.8869 48.3822 29.5396 48.3822 29.5396C48.3822 29.5396 42.077 42.4625 49.4244 55.3855C56.1464 67.2662 65.7865 64.296 65.7865 64.296Z" fill="#0B5F55"/>
<path d="M47.0273 33.3435C46.9752 33.4478 46.9752 33.552 46.9231 33.6562C48.3821 35.8969 50.4665 38.7107 52.8635 40.8472L53.0719 41.0556V40.743C53.0719 40.6909 52.9677 36.8348 52.4466 32.1972C52.3424 32.145 52.2382 32.0408 52.1861 31.9887C52.655 35.949 52.8114 39.4403 52.8114 40.4824C50.4665 38.2939 48.4863 35.5842 47.0273 33.3435Z" fill="#0B3530"/>
<path d="M54.4269 44.7032L54.4791 44.599C54.5312 44.5469 56.5634 40.8472 57.5535 36.1053C57.5014 36.0532 57.3971 36.0011 57.345 35.8969C56.4592 40.274 54.6354 43.8174 54.3227 44.3906C51.4567 43.8174 48.3823 42.5147 45.9332 41.2641C45.9332 41.3683 45.9332 41.4725 45.9332 41.5767C48.4344 42.8273 51.5089 44.13 54.3748 44.6511L54.4269 44.7032Z" fill="#0B3530"/>
<path d="M56.0942 48.7156H56.1463L56.1984 48.6635C56.2505 48.6113 59.4813 44.0779 61.6698 40.0134C61.6177 39.9613 61.5656 39.8571 61.4614 39.805C59.4292 43.6089 56.4069 47.9339 56.0421 48.455C55.99 48.455 55.99 48.455 55.9379 48.455C53.124 48.455 49.268 47.5692 46.3499 46.7875C46.3499 46.8918 46.402 46.996 46.402 47.0481C49.3201 47.8297 53.124 48.7156 55.9379 48.7156C55.9379 48.7156 55.99 48.7156 56.0942 48.7156Z" fill="#0B3530"/>
<path d="M59.6897 55.5417H59.7418L59.7939 55.4896C59.846 55.4375 63.181 49.8619 65.2653 44.4947C65.2132 44.3905 65.1611 44.3384 65.109 44.2342C63.181 49.2887 60.0023 54.6559 59.6376 55.2812C55.2084 55.3333 51.665 54.9685 48.9553 54.4996C49.0074 54.6038 49.0595 54.708 49.1116 54.8122C51.6129 55.2291 54.8436 55.5939 58.856 55.5939C59.1165 55.5417 59.377 55.5417 59.6897 55.5417Z" fill="#0B3530"/>
<path d="M68.0272 49.914C66.7244 55.5938 64.4317 61.3258 64.119 62.1074C59.8461 61.6384 55.5732 60.6484 52.7072 59.8667C52.8114 59.971 52.9678 60.1273 53.072 60.2315C55.9901 61.0131 60.1066 61.9511 64.1711 62.368H64.2753L64.3274 62.2637C64.3796 62.1595 66.7765 56.2713 68.1835 50.3309C68.1314 50.2267 68.0793 50.0703 68.0272 49.914Z" fill="#0B3530"/>
<path d="M76.99 39.3881C76.99 39.3881 67.871 36.4179 68.1836 23.9118C68.4442 12.9169 76.4168 0.515045 76.4168 0.515045C76.4168 0.515045 87.9328 9.06086 87.4638 23.9118C86.8906 37.5122 76.99 39.3881 76.99 39.3881Z" fill="#105A5D"/>
<path d="M87.4116 23.2866C87.4116 23.0782 87.4116 22.9219 87.4116 22.7135C81.8359 32.8746 76.9898 35.949 76.3645 36.3138C72.4564 34.021 69.851 30.0087 68.2356 26.7258C68.2356 26.9864 68.2877 27.2469 68.3398 27.4553C70.0073 30.634 72.5606 34.3858 76.3124 36.5744L76.3645 36.6265L76.4166 36.5744C76.4687 36.5744 81.5233 33.8126 87.4116 23.2866Z" fill="#0B3530"/>
<path d="M76.6772 30.7381L76.7815 30.7902L76.8336 30.686C76.8857 30.6339 82.8782 23.964 86.7342 16.8772C86.6821 16.773 86.6821 16.6167 86.63 16.5125C83.0345 23.2345 77.4589 29.6438 76.7294 30.4776C73.1339 27.8721 70.32 23.6513 68.4962 20.3685C68.4962 20.5248 68.4441 20.629 68.4441 20.7854C70.2679 24.0161 73.0818 28.1848 76.6772 30.7381Z" fill="#0B3530"/>
<path d="M76.9377 24.8498L76.9898 24.9019L77.0419 24.8498C77.094 24.7977 80.8458 22.2444 85.4835 12.8648C85.4314 12.7606 85.3793 12.6564 85.3272 12.5522C81.0543 21.3064 77.5109 24.1724 76.9898 24.5892C74.3323 22.9739 71.4142 19.0136 69.434 15.9913C69.3819 16.0955 69.3819 16.1998 69.3298 16.304C71.3621 19.3784 74.2801 23.2865 76.9377 24.8498Z" fill="#0B3530"/>
<path d="M77.0419 18.8573L77.1461 18.9615L77.1982 18.8573C77.2503 18.8052 80.5853 12.6564 82.6175 7.60185C82.5654 7.49763 82.5133 7.44553 82.4612 7.34131C80.5853 12.0311 77.563 17.7109 77.0419 18.5968C74.5407 16.6687 72.6648 12.9169 71.5184 9.89463C71.4663 9.99885 71.4142 10.1552 71.3621 10.2594C72.6127 13.2817 74.4886 16.9814 77.0419 18.8573Z" fill="#0B3530"/>
<path d="M77.3545 12.031C77.3545 11.9789 78.8657 8.27922 79.8558 3.84999C79.8036 3.74577 79.6994 3.69366 79.6473 3.58945C78.8136 7.44548 77.563 10.7804 77.1982 11.6663L73.5506 5.62168C73.4985 5.7259 73.4464 5.83011 73.3943 5.88222L77.2503 12.2395L77.3545 12.031Z" fill="#0B3530"/>
<path d="M82.5655 52.1025C82.5655 52.1025 78.032 43.6609 86.8905 34.8546C94.6546 27.0904 108.985 23.5991 108.985 23.5991C108.985 23.5991 111.434 37.7727 100.803 48.1423C91.0592 57.626 82.5655 52.1025 82.5655 52.1025Z" fill="#00726F"/>
<path d="M85.7962 51.0082C85.4315 47.1 86.3173 39.4921 86.9426 34.8024C86.9426 34.8024 86.9426 34.8024 86.8905 34.8545C86.7863 34.9587 86.7342 35.0629 86.63 35.1671C86.0047 39.9611 85.1709 47.3605 85.5357 51.1645V51.2687H85.6399C85.692 51.2687 89.4959 51.8419 94.6547 51.8419C95.0195 51.8419 95.4363 51.8419 95.8532 51.8419C96.0095 51.7377 96.1659 51.6856 96.3743 51.5813C90.8508 51.6856 86.4736 51.1124 85.7962 51.0082Z" fill="#0B3530"/>
<path d="M90.7464 46.8395C90.0689 41.6808 90.2774 35.6362 90.4858 31.7801C90.3816 31.8322 90.3295 31.8844 90.2253 31.9886C90.0168 35.8967 89.8605 41.8892 90.5379 46.9959V47.1001H90.6422C90.6943 47.1001 92.2575 47.2043 94.6545 47.2043C96.6346 47.2043 99.2401 47.1001 102.002 46.7874C102.106 46.6832 102.158 46.579 102.262 46.4748C96.5825 47.2043 91.528 46.8916 90.7464 46.8395Z" fill="#0B3530"/>
<path d="M94.4461 43.3483C94.8109 37.7206 95.5404 31.9886 96.1136 28.4452C96.0094 28.4973 95.9051 28.5494 95.853 28.6015C95.332 32.197 94.5503 37.8769 94.2377 43.4525V43.5567H94.3419C94.394 43.5567 98.0416 44.0778 102.523 44.0778C103.096 44.0778 103.669 44.0778 104.243 44.0257C104.295 43.9215 104.347 43.8694 104.399 43.7652C99.6049 44.0257 95.2277 43.4525 94.4461 43.3483Z" fill="#0B3530"/>
<path d="M77.7714 83.6282C77.7714 83.6282 76.9377 73.5191 89.2353 68.7251C100.022 64.5043 115.394 67.214 115.394 67.214C115.394 67.214 111.746 81.9086 97.1037 87.4321C83.6076 92.5388 77.7714 83.6282 77.7714 83.6282Z" fill="#005C5A"/>
<path d="M80.7938 83.2115C81.1586 80.1892 82.0965 75.9684 82.9302 72.5292C82.826 72.6334 82.7218 72.7376 82.5655 72.8419C81.7839 76.2289 80.898 80.2934 80.5333 83.2636V83.3157L80.5854 83.3678C80.6375 83.4199 84.1288 86.1296 89.1312 89.0476C89.2875 89.0476 89.4959 89.0476 89.6523 89.0476C84.7541 86.2859 81.2628 83.5762 80.7938 83.2115Z" fill="#0B3530"/>
<path d="M84.5977 82.4298C86.2652 77.4274 88.8706 72.0602 90.9029 68.2041C90.7987 68.2563 90.6423 68.2563 90.5381 68.3084C88.5059 72.1644 85.9005 77.5316 84.2851 82.4819L84.233 82.5861L84.3372 82.6382C84.4414 82.6903 91.0592 85.6084 98.146 87.0675C98.3023 87.0154 98.4065 86.9632 98.5628 86.9111C91.945 85.5563 85.4836 82.7946 84.5977 82.4298Z" fill="#0B3530"/>
<path d="M89.9649 81.0229C91.4761 76.4374 94.4984 70.4449 96.3222 66.9536C96.218 66.9536 96.1137 67.0057 96.0095 67.0057C94.1336 70.5491 91.1634 76.5416 89.7044 81.0229L89.6523 81.1272L89.7565 81.1793C89.8607 81.2314 95.8011 83.3157 102.263 84.879C102.367 84.8269 102.471 84.7227 102.575 84.6705C96.4785 83.2636 90.8508 81.3356 89.9649 81.0229Z" fill="#0B3530"/>
<path d="M58.7519 122.189C58.7519 122.189 58.9082 121.772 59.1688 120.938C59.4293 120.104 59.8462 118.906 60.3152 117.343C60.7841 115.779 61.3573 113.903 61.9826 111.715C62.6079 109.526 63.3375 107.077 64.0149 104.42C64.7444 101.71 65.4739 98.7919 66.2555 95.7175C66.6724 94.1542 66.9851 92.5909 67.4019 90.9235C67.7667 89.3081 68.1836 87.6406 68.5483 85.921C68.9131 84.2014 69.2778 82.4819 69.6426 80.7102C69.7989 79.8243 70.0074 78.9385 70.2158 78.0526C70.3721 77.1668 70.5284 76.2809 70.7369 75.343C71.0495 73.5192 71.4143 71.7475 71.7269 69.9237C72.0396 68.0999 72.3001 66.2761 72.6128 64.4523C72.9254 62.6285 73.2381 60.8047 73.4986 58.9288C73.7592 57.105 73.9676 55.2812 74.2282 53.4574C74.3324 52.5715 74.4887 51.6336 74.5929 50.7477C74.6971 49.8619 74.8535 48.976 74.9056 48.0381C75.114 46.2664 75.2703 44.4947 75.4788 42.7751C75.583 41.8893 75.6351 41.0555 75.7393 40.1697C75.8435 39.3359 75.8956 38.4501 75.9477 37.6163C76.052 35.9489 76.2083 34.2814 76.3125 32.7181C76.4167 31.1028 76.5209 29.5916 76.6252 28.0805C76.7294 26.5693 76.7294 25.1103 76.7815 23.7555C76.8857 20.9416 76.9899 18.3883 77.042 16.1476C77.042 13.8548 77.042 11.9268 77.042 10.2593C77.042 6.97648 77.042 5.15268 77.042 5.15268C77.042 5.15268 77.0941 7.02859 77.1462 10.2593C77.1984 11.8747 77.2505 13.8548 77.3026 16.1476C77.3026 18.4404 77.2504 20.9937 77.1983 23.7555C77.1462 25.1624 77.1462 26.6214 77.1462 28.1326C77.0941 29.6437 76.9899 31.207 76.9378 32.7702C76.8336 34.3856 76.7815 36.001 76.6773 37.6685C76.6251 38.5022 76.573 39.3359 76.5209 40.2218C76.4688 41.0555 76.3646 41.9414 76.3125 42.8272C76.1562 44.5468 75.9998 46.3185 75.8956 48.1423C75.8435 49.0281 75.7393 49.914 75.6351 50.8519C75.5309 51.7378 75.4267 52.6757 75.3224 53.5616C75.114 55.3854 74.9056 57.2092 74.6971 59.0851C74.4887 60.9089 74.176 62.7848 73.9676 64.6086C73.7071 66.4324 73.4986 68.3083 73.186 70.1321C72.8733 71.9559 72.6128 73.7797 72.3001 75.6035C72.1438 76.4894 71.9875 77.4273 71.8833 78.3132C71.7269 79.199 71.5706 80.0849 71.4143 80.9707C71.1016 82.7424 70.7369 84.5141 70.4242 86.2337C70.1116 87.9533 69.7468 89.6208 69.382 91.2882C69.0173 92.9557 68.7046 94.5711 68.3399 96.1343C67.6104 99.2608 66.9851 102.231 66.3076 104.941C65.6823 107.65 65.0049 110.152 64.4317 112.34C63.8585 114.529 63.2853 116.457 62.8685 118.02C62.3995 119.583 62.0347 120.834 61.7742 121.668C61.5137 122.501 61.3573 122.97 61.3573 122.97L58.7519 122.189Z" fill="#0D3932"/>
<path d="M73.8112 57.6782C73.8112 57.6782 73.9676 57.6261 74.2281 57.4697C74.4886 57.3655 74.8534 57.1571 75.3745 56.8965C75.8435 56.636 76.4688 56.3233 77.0941 55.9586C77.7715 55.5938 78.501 55.177 79.2826 54.6559C80.1164 54.1869 80.9501 53.6137 81.836 53.0405C82.7218 52.4152 83.6598 51.7899 84.6498 51.1125C85.5878 50.4351 86.5778 49.7055 87.5679 48.9239C88.0369 48.5592 88.558 48.1423 89.0269 47.7775C89.4959 47.3607 89.9649 46.9438 90.4339 46.579C91.4239 45.7974 92.3098 44.9116 93.1956 44.0778C94.1336 43.2441 94.9152 42.3582 95.7489 41.5245C96.5827 40.6908 97.3122 39.8049 98.0417 39.0233C98.4065 38.6064 98.7712 38.2417 99.0839 37.8248C99.3965 37.4079 99.7092 37.0432 100.022 36.6784C100.595 35.9489 101.168 35.2715 101.637 34.6462C102.106 34.0209 102.471 33.4998 102.784 33.0308C103.409 32.1449 103.774 31.6239 103.774 31.6239C103.774 31.6239 103.409 32.1449 102.836 33.0829C102.523 33.5519 102.158 34.1251 101.741 34.7504C101.325 35.3757 100.803 36.0531 100.23 36.8347C99.9697 37.1995 99.6571 37.6163 99.3444 38.0332C99.0318 38.4501 98.667 38.8148 98.3544 39.2838C97.677 40.1176 96.9475 41.0555 96.1658 41.8893C95.3842 42.7751 94.5505 43.7131 93.6646 44.5468C92.7788 45.4326 91.8929 46.3706 90.955 47.2043C90.486 47.6212 90.017 48.0902 89.548 48.507C89.079 48.9239 88.6101 49.3408 88.1411 49.7577C87.2031 50.5914 86.2131 51.3209 85.2751 52.1025C84.3372 52.8321 83.3992 53.5095 82.5134 54.1348C81.6275 54.7601 80.7938 55.3854 79.96 55.8544C79.1784 56.3755 78.3968 56.8444 77.7715 57.2613C77.0941 57.6782 76.5209 57.9908 76.0519 58.3035C75.5829 58.564 75.166 58.7724 74.9055 58.9288C74.645 59.0851 74.4886 59.1372 74.4886 59.1372L73.8112 57.6782Z" fill="#0D3932"/>
<path d="M71.6228 72.008C71.6228 72.008 71.5186 71.9038 71.3102 71.6953C71.1018 71.4869 70.7891 71.1742 70.3722 70.7574C70.0075 70.3405 69.5385 69.8715 69.0174 69.2462C68.4963 68.673 67.9231 67.9956 67.3499 67.2661C66.7246 66.5366 66.0993 65.7028 65.4219 64.8691C64.7966 63.9833 64.0671 63.0453 63.3897 62.1073C62.7123 61.1173 62.0349 60.1272 61.3574 59.0329C61.0448 58.5118 60.68 57.9908 60.3674 57.4176C60.0547 56.8444 59.7421 56.3233 59.4294 55.7501C58.8041 54.6558 58.2309 53.5094 57.6577 52.4151C57.0845 51.3209 56.6156 50.1745 56.0945 49.1323C55.5734 48.0901 55.2086 46.9958 54.7918 46.0058C54.5833 45.4847 54.3749 45.0157 54.2186 44.5467C54.0622 44.0778 53.9059 43.6088 53.7496 43.1398C53.4369 42.254 53.1243 41.4202 52.9159 40.6907C52.7074 39.9612 52.499 39.2838 52.3948 38.7627C52.0821 37.7205 51.9258 37.0952 51.9258 37.0952C51.9258 37.0952 52.1342 37.7205 52.4469 38.7627C52.6032 39.2838 52.8116 39.9091 53.0722 40.6386C53.3327 41.3681 53.6454 42.1497 54.0101 43.0356C54.1665 43.4525 54.3749 43.9214 54.5312 44.3904C54.7396 44.8594 54.9481 45.3284 55.1565 45.8495C55.6255 46.8395 56.0424 47.8817 56.6156 48.9239C57.1888 49.966 57.6577 51.0603 58.283 52.1546C58.9083 53.2489 59.4815 54.3432 60.159 55.3853C60.4716 55.9064 60.8364 56.4275 61.149 57.0007C61.5138 57.5218 61.8264 58.0429 62.1912 58.564C62.8686 59.6061 63.5981 60.5441 64.2755 61.5341C64.9529 62.4721 65.6825 63.358 66.3599 64.1917C67.0373 65.0254 67.7147 65.8071 68.34 66.4845C68.9653 67.214 69.5385 67.8393 70.0596 68.3604C70.5807 68.9336 71.0497 69.4025 71.4144 69.7673C71.7792 70.1321 72.0918 70.4447 72.3003 70.6532C72.5087 70.8616 72.6129 70.9658 72.6129 70.9658L71.6228 72.008Z" fill="#0D3932"/>
<path d="M69.6946 83.7846C69.6946 83.7846 69.851 83.7846 70.1636 83.7846C70.4763 83.7846 70.9453 83.7325 71.5706 83.7325C72.1959 83.6804 72.9254 83.6283 73.7591 83.5762C74.5929 83.472 75.5308 83.4199 76.573 83.2635C77.6152 83.1593 78.7094 83.003 79.9079 82.7946C81.1064 82.6382 82.3049 82.3777 83.6076 82.1171C84.8583 81.8045 86.2131 81.5961 87.5158 81.2313C88.8185 80.8665 90.1733 80.5539 91.5282 80.137C92.2056 79.9286 92.8309 79.7201 93.5083 79.5117C94.1857 79.3033 94.811 79.0427 95.4363 78.8343C96.0616 78.6259 96.739 78.4174 97.3643 78.1569C97.9896 77.8963 98.6149 77.6358 99.1881 77.4274C99.8134 77.1668 100.387 76.9584 100.96 76.6978C101.533 76.4373 102.106 76.1768 102.627 75.9162C103.148 75.6557 103.669 75.3951 104.191 75.1867C104.712 74.9261 105.181 74.6656 105.65 74.4051C106.588 73.884 107.421 73.4671 108.151 73.0502C108.88 72.5813 109.506 72.2165 110.027 71.8517C111.069 71.1743 111.642 70.8096 111.642 70.8096C111.642 70.8096 111.069 71.2264 110.079 71.9038C109.558 72.2686 108.985 72.6855 108.255 73.1545C107.526 73.5713 106.692 74.0924 105.806 74.6135C105.337 74.874 104.868 75.1867 104.399 75.4472C103.878 75.7078 103.357 75.9683 102.836 76.2289C102.315 76.4894 101.741 76.8021 101.168 77.0626C100.595 77.3231 100.022 77.5837 99.3966 77.8442C98.8234 78.1048 98.1981 78.3653 97.5728 78.678C96.9475 78.9385 96.3221 79.1991 95.6968 79.4075C95.0715 79.668 94.3941 79.9286 93.7688 80.137C93.0914 80.3454 92.4661 80.606 91.7887 80.8144C90.486 81.2834 89.1312 81.6482 87.7763 82.065C86.4736 82.4819 85.1188 82.7424 83.8682 83.1072C82.5655 83.3677 81.367 83.6804 80.1685 83.8888C78.97 84.0973 77.8757 84.3057 76.8335 84.462C75.7914 84.6184 74.8534 84.7747 73.9676 84.8789C73.1338 84.9831 72.3522 85.0873 71.779 85.1394C71.1537 85.1915 70.6847 85.2437 70.32 85.2437C70.0073 85.2437 69.7989 85.2958 69.7989 85.2958L69.6946 83.7846Z" fill="#0D3932"/>
<path d="M64.7966 105.722C64.7966 105.722 64.6402 105.618 64.3276 105.514C64.0149 105.358 63.5981 105.149 63.077 104.836C62.5559 104.524 61.8785 104.159 61.149 103.742C60.4194 103.273 59.5857 102.804 58.6998 102.231C57.814 101.658 56.876 101.033 55.886 100.355C54.8959 99.6777 53.8538 98.8961 52.8116 98.1666C51.7694 97.3328 50.6751 96.5512 49.6329 95.6653C48.5908 94.7795 47.4965 93.8937 46.4543 92.9557C45.9332 92.4867 45.4121 92.0177 44.8911 91.5488C44.37 91.0798 43.901 90.5587 43.432 90.0897C42.963 89.6207 42.442 89.1518 41.973 88.6307C41.504 88.1096 41.0871 87.6406 40.6182 87.1716C40.2013 86.7027 39.7323 86.2337 39.3154 85.7647C38.8986 85.2957 38.5338 84.8268 38.1169 84.3578C37.7522 83.8888 37.3874 83.4198 37.0227 83.003C36.6579 82.5861 36.3452 82.1171 36.0326 81.7002C35.4073 80.8665 34.8341 80.0849 34.3651 79.4075C33.8962 78.6779 33.5314 78.0526 33.1666 77.5315C32.4892 76.4894 32.1245 75.9162 32.1245 75.9162C32.1245 75.9162 32.5413 76.4894 33.2187 77.4794C33.5835 78.0005 34.0004 78.5737 34.4693 79.3032C34.9904 79.9807 35.5636 80.7102 36.241 81.5439C36.5537 81.9608 36.8663 82.3777 37.2311 82.7945C37.5959 83.2114 38.0127 83.6283 38.3775 84.0972C38.7944 84.5662 39.1591 84.9831 39.576 85.4521C39.9929 85.921 40.4618 86.3379 40.9308 86.8069C41.3998 87.2759 41.8688 87.7448 42.3377 88.2138C42.8067 88.6828 43.3278 89.1518 43.8489 89.6207C44.37 90.0897 44.839 90.5587 45.3601 91.0277C45.8811 91.4967 46.4022 91.9135 46.9754 92.3825C48.0176 93.2684 49.1119 94.1021 50.2061 94.9358C51.3004 95.7696 52.3947 96.5512 53.4369 97.2807C54.5312 98.0102 55.5212 98.7398 56.5634 99.3651C57.5535 99.9904 58.5435 100.616 59.4294 101.085C60.3152 101.606 61.149 102.075 61.8785 102.492C62.608 102.908 63.2854 103.221 63.8065 103.482C64.3276 103.742 64.7444 103.951 65.0571 104.107C65.3698 104.263 65.5261 104.315 65.5261 104.315L64.7966 105.722Z" fill="#0D3932"/>
<path d="M30.0471 47.7839C32.1843 48.1925 34.2008 48.9338 36.042 49.9578C33.7126 53.6034 32.345 57.9231 32.345 62.5703C32.345 70.0711 35.8753 76.7346 41.3507 81.0331C42.8531 82.2123 44.4988 83.2126 46.2637 84.0013C49.1865 85.3075 52.4162 86.0496 55.8245 86.0496C68.7917 86.0496 79.3038 75.5375 79.3038 62.5703C79.3038 49.6029 68.7917 39.0908 55.8245 39.0908C49.5692 39.0908 43.9 41.553 39.6917 45.5409C37.8086 44.3912 35.7657 43.48 33.6063 42.8387C39.0506 36.7131 46.9844 32.8496 55.8245 32.8496C72.2388 32.8496 85.5453 46.1558 85.5453 62.5703C85.5453 78.9846 72.2388 92.2908 55.8245 92.2908C50.5985 92.2908 45.6903 90.9376 41.4235 88.5692C39.6365 87.5772 37.9651 86.4045 36.4282 85.0787C30.1094 79.6285 26.1038 71.5697 26.1038 62.5703C26.1038 57.1853 27.5429 52.1399 30.0471 47.7839Z" fill="#F9AB16"/>
<path d="M19.9955 42.5271L18.4531 39.5861H33.7539L32.2344 42.4835C32.6949 42.5933 33.1552 42.7047 33.6061 42.8387C35.7654 43.4801 37.8084 44.3912 39.6914 45.5409C47.1325 50.0841 52.1003 58.2794 52.1003 67.6357C52.1003 73.8455 49.9105 79.5426 46.2634 84.0013C44.4985 83.2126 42.8528 82.2123 41.3505 81.0331C44.5154 77.4636 46.4533 72.7814 46.4533 67.6357C46.4533 60.0291 42.2488 53.4107 36.0418 49.9579C34.2006 48.9339 32.1841 48.1925 30.0469 47.7839C28.8098 47.5474 27.5364 47.4126 26.2302 47.4126C15.0614 47.4126 6.00712 56.4669 6.00712 67.6357C6.00712 78.8045 15.0614 87.8588 26.2302 87.8588C29.9542 87.8588 33.4315 86.8348 36.4279 85.0788C37.9648 86.4045 39.6362 87.5772 41.4233 88.5692C37.1567 91.6712 31.909 93.5058 26.2302 93.5058C11.9426 93.5058 0.360123 81.9234 0.360123 67.6357C0.360123 55.4983 8.72068 45.3177 19.9955 42.5271Z" fill="#FBC713"/>
<path d="M33.7542 39.5861H18.4534L13.621 30.3728H38.5865L33.7542 39.5861Z" fill="#E5F7FD"/>
<path d="M26.1038 25.3203H31.8498L38.5865 30.3728H13.621L20.3578 25.3203H26.1038Z" fill="#CCEFFC"/>
</svg>
