<svg width="118" height="147" viewBox="0 0 118 147" fill="none" xmlns="http://www.w3.org/2000/svg">
    <path
        d="M108.834 0.413849L108.834 113.862H0.292358C0.292358 113.862 29.5611 104.138 32.3381 80.368C35.1151 56.5979 50.2416 41.4714 71.62 39.3105C92.9985 37.1495 108.834 0.413849 108.834 0.413849Z"
        fill="#85A2FB" />
    <path
        d="M117.726 32.8278L117.726 146.276H9.18402C9.18402 146.276 38.4528 136.552 41.2298 112.782C44.0068 89.0118 59.1332 73.8853 80.5117 71.7244C101.89 69.5635 117.726 32.8278 117.726 32.8278Z"
        fill="#6382E1" />
    <path
        d="M55.5853 35.9211C52.4818 42.3533 50.7299 46.3327 49.3784 52.89C49.1031 54.4668 49.2532 59.4724 49.8038 66.8806C50.2543 72.8873 59.0642 79.1193 59.79 79.4697C60.7911 79.9202 61.8172 80.2705 62.9185 80.4958L70.9774 41.2771C66.1721 40.276 59.1893 37.573 55.5853 35.9211Z"
        fill="#0C6360" />
    <path
        d="M65.1207 53.9662C61.1663 57.5452 55.7853 54.7671 55.2097 49.4612C57.0867 52.3394 60.4155 55.1926 65.1207 53.9662Z"
        fill="#313F46" />
    <path
        d="M87.1953 42.4283C87.4956 49.5612 87.5457 53.9161 86.2192 60.4734C85.8438 62.0501 83.7414 66.5552 80.3126 73.1625C77.5345 78.5185 66.9727 80.746 66.1718 80.796C65.0956 80.8211 63.9944 80.721 62.8932 80.4957L70.9522 41.277C75.7575 42.2531 83.2409 42.5284 87.1953 42.4283Z"
        fill="#0D413E" />
    <path
        d="M71.3027 55.2426C73.5302 60.098 79.5619 59.6475 82.1898 55.0173C79.3366 56.9195 75.157 58.2209 71.3027 55.2426Z"
        fill="#1D262B" />
    <path
        d="M73.0546 75.6153C69.801 72.2365 64.8204 71.1353 64.8204 71.1353L65.296 68.8828C69.7259 69.7838 73.9556 73.2126 73.0546 75.6153Z"
        fill="#3B4D57" />
    <path
        d="M55.485 72.0113C59.7898 70.1842 64.8205 71.1353 64.8205 71.1353L65.296 68.8828C60.841 67.9568 55.5852 69.4584 55.485 72.0113Z"
        fill="#2C3A41" />
    <path
        d="M13.7632 47.2837C13.1125 55.8433 12.8622 61.0741 14.2388 68.9829C14.6142 70.885 16.9668 76.3912 20.8211 84.4752C23.9496 91.0075 36.5386 94.1109 37.4897 94.186C38.7911 94.2611 40.1176 94.186 41.4441 93.9608L33.31 46.5329C27.5035 47.534 18.5185 47.5841 13.7632 47.2837Z"
        fill="#E3684E" />
    <path
        d="M19.77 65.5291C22.6482 59.7977 29.8812 60.5485 32.8345 66.2298C29.4808 63.8522 24.5002 62.1002 19.77 65.5291Z"
        fill="#3B4D57" />
    <path
        d="M51.9808 40.7514C55.4347 48.6102 57.4119 53.4405 58.7634 61.3744C59.0387 63.3015 58.6633 69.2832 57.7122 78.1681C56.9363 85.3761 46.0993 92.4841 45.2233 92.8845C44.0219 93.3851 42.7455 93.7605 41.419 93.9857L33.285 46.5579C39.1165 45.5568 47.6009 42.5784 51.9808 40.7514Z"
        fill="#A13F30" />
    <path
        d="M52.4062 59.9479C47.7761 55.4929 41.2188 58.6214 40.3177 64.9785C42.6954 61.5747 46.8 58.296 52.4062 59.9479Z"
        fill="#2C3A41" />
    <path
        d="M27.904 78.7688C33.0097 81.1215 39.0664 80.1954 39.0664 80.1954L39.542 82.9235C34.161 83.8495 27.929 81.8473 27.904 78.7688Z"
        fill="#3B4D57" />
    <path
        d="M49.1278 75.1398C45.0983 79.0441 39.0666 80.1954 39.0666 80.1954L39.5421 82.9234C44.9231 82.0224 50.1289 78.043 49.1278 75.1398Z"
        fill="#2C3A41" />
</svg>
