<svg width="87" height="83" viewBox="0 0 87 83" fill="none" xmlns="http://www.w3.org/2000/svg">
<path d="M91.2599 57.3072C87.0425 78.6795 66.7065 91.7969 49.067 94.047C44.2506 94.6613 34.5601 95.8971 25.6297 90.4459C8.47951 79.9774 4.67888 51.2827 14.8164 31.7587C16.1219 29.2445 25.2594 12.3158 44.2884 8.47126C58.2203 5.65669 69.6478 11.4357 71.0421 12.1622C72.804 13.0793 76.7338 15.3139 80.7036 19.3395C90.0313 28.7996 93.8956 43.9518 91.2599 57.3072Z" fill="#DAE3FE"/>
<path d="M73.5823 43.3045C73.5823 43.3045 72.5746 35.5923 75.9159 33.1431C79.2561 30.6942 85.8896 28.6787 84.9603 17.5498C84.4165 11.034 84.2747 8.17503 84.2503 6.92456C84.2408 6.43646 83.7699 6.09174 83.3023 6.2327C79.9974 7.22739 69.3193 11.0102 67.8192 18.7334C66.0406 27.8894 73.5823 43.3045 73.5823 43.3045Z" fill="#91B3FA"/>
<path d="M81.0233 9.5993C77.6729 13.2956 74.0147 19.5959 72.3555 25.6827C72.1648 26.6768 71.5265 28.8167 71.5422 32.4948C71.5331 35.5659 72.0403 38.755 72.6693 40.8352C72.7092 40.9663 72.8478 41.041 72.9795 41.001C73.2052 40.9327 73.1483 40.6878 73.147 40.6959C72.3002 37.1178 72.0102 32.5828 72.6311 28.3969C73.4453 23.2522 75.9332 18.0824 78.603 13.6388L78.8793 13.1997C80.9581 9.85094 81.4623 9.77374 81.2144 9.58264C81.1556 9.53704 81.0724 9.54574 81.0233 9.5993Z" fill="#BDD0FB"/>
<path d="M69.4433 58.78C68.987 59.0673 73.3545 52.188 73.873 42.0592C74.1176 37.2862 73.5007 31.4047 75.9328 28.8534C77.9571 26.7302 85.6561 27.1138 88.1817 27.3026C88.4978 27.3259 88.6437 27.7063 88.4244 27.9339C87.3423 29.0587 85.0515 31.6828 84.6419 34.1258C84.1018 37.3452 81.3417 39.6508 78.7378 40.4726C76.1339 41.2943 74.7094 41.9742 73.8662 46.3681C73.0236 50.7621 70.7413 57.9626 69.4433 58.78Z" fill="#BDD0FB"/>
<path d="M84.8383 28.9951C81.6915 29.464 78.4517 31.2678 77.0181 34.1562L76.8832 34.4312C76.5722 35.0763 74.903 39.6052 74.1015 43.2977C74.0917 43.3438 74.1204 43.3894 74.1665 43.3993C74.2452 43.4165 74.2735 43.3289 74.2675 43.3368C74.8763 41.2348 75.7858 38.5542 76.5241 36.5437C77.312 34.3519 77.8683 32.8651 80.0278 31.2672C82.4362 29.5384 84.8694 29.1271 84.8622 29.1298C84.8992 29.122 84.923 29.0854 84.9151 29.0484C84.9076 29.0131 84.8734 28.9894 84.8383 28.9951Z" fill="#DAE3FE"/>
<path d="M21.9074 19.1596C19.9095 19.7687 18.7114 21.8056 19.1397 23.8497C21.76 36.3517 30.862 79.4603 34.9188 94.5408C35.3484 96.1384 36.9431 97.1263 38.5651 96.7998C46.5869 95.1847 69.643 90.4494 82.5347 86.8354C85.2201 86.0828 86.8596 83.3777 86.2764 80.6506C83.4728 67.5408 75.4249 30.7066 70.0456 14.2311C69.4005 12.2572 67.4423 11.0257 65.3833 11.2983C56.5097 12.4737 32.9845 15.779 21.9074 19.1596Z" fill="#09005D"/>
<path d="M23.0485 26.4407C25.1631 37.1624 32.2728 72.8111 35.8435 85.7672C36.3653 87.661 38.1771 88.8587 40.0301 88.5317C47.6607 87.1857 67.1925 83.5678 78.0014 79.9977C79.9477 79.3548 81.1033 77.3037 80.7121 75.2006C78.6703 64.235 72.3799 30.9618 68.8622 18.1472C68.3009 16.1031 66.3689 14.7875 64.3578 15.0752C56.0393 16.2659 34.7086 19.468 25.4637 22.2523C23.7282 22.7749 22.6824 24.5849 23.0485 26.4407Z" fill="#B3B4FF"/>
<path d="M40.2137 17.2104C40.2831 17.5043 40.5692 17.6932 40.8663 17.6393C42.3332 17.3738 46.4657 16.6266 48.3149 16.3029C48.6787 16.2388 48.8855 15.8492 48.7334 15.5116C48.725 15.5018 48.5814 15.0577 48.1112 15.1242C46.8517 15.3017 43.0569 15.865 40.6126 16.5336C40.1106 16.671 40.206 17.2548 40.2137 17.2104Z" fill="#1F5AA9"/>
<path d="M78.9555 76.763L37.197 85.639C36.7573 85.7325 36.3249 85.4517 36.2314 85.0119L21.3184 14.8515C21.2738 14.642 21.4074 14.4358 21.6172 14.3912L63.992 5.3842C64.3215 5.31416 64.6454 5.52453 64.7155 5.85408L79.5824 75.7974C79.6759 76.2371 79.3951 76.6696 78.9555 76.763Z" fill="#FE7062"/>
<path d="M77.9178 75.6107L37.6763 84.1643C37.2365 84.2577 36.8041 83.9769 36.7106 83.5372L22.3232 15.8497C22.2812 15.6521 22.4072 15.4582 22.6044 15.4163L63.2852 6.76933C63.7257 6.67569 64.1577 6.95625 64.2513 7.39623L78.5454 74.6449C78.6389 75.0847 78.3584 75.517 77.9178 75.6107Z" fill="#FEBBBA"/>
<path d="M58.6421 20.1597L33.3268 25.5407C33.2291 25.5614 33.132 25.4985 33.1113 25.401L31.8252 19.3504C31.8043 19.2524 31.8675 19.1554 31.9652 19.1346L57.2805 13.7537C57.3785 13.7329 57.4755 13.7958 57.4963 13.8939L58.7824 19.9445C58.8031 20.0419 58.7402 20.1389 58.6421 20.1597Z" fill="white"/>
<path d="M68.7666 50.7277L44.3541 55.9167C44.263 55.9361 44.1722 55.8771 44.1528 55.7861L43.4733 52.5892C43.454 52.4981 43.513 52.4078 43.6041 52.3884L68.0166 47.1994C68.1077 47.18 68.1979 47.2386 68.2173 47.3297L68.8968 50.5266C68.9162 50.6176 68.8576 50.7083 68.7666 50.7277Z" fill="white"/>
<path d="M42.0312 57.8017L36.0191 59.0796C35.9214 59.1004 35.8254 59.0383 35.8046 58.9404L34.5639 53.1033C34.5431 53.0057 34.6056 52.9099 34.7032 52.8892L40.7154 51.6113C40.8127 51.5906 40.9087 51.6527 40.9295 51.7503L42.1702 57.5873C42.191 57.6853 42.1285 57.781 42.0312 57.8017Z" fill="#FE7062"/>
<path d="M66.9414 41.703L42.5291 46.892C42.4379 46.9114 42.3476 46.8527 42.3282 46.7615L41.6487 43.5648C41.6293 43.4736 41.688 43.3832 41.7792 43.3639L66.1915 38.1749C66.2826 38.1555 66.373 38.2142 66.3924 38.3053L67.0719 41.5021C67.0912 41.5933 67.0325 41.6836 66.9414 41.703Z" fill="white"/>
<path d="M40.206 48.7767L34.1941 50.0546C34.0964 50.0754 34.0007 50.0135 33.9799 49.9155L32.7392 44.0786C32.7185 43.981 32.7806 43.8851 32.8783 43.8644L38.8902 42.5865C38.9878 42.5658 39.0836 42.6281 39.1044 42.7256L40.3451 48.5626C40.3659 48.6605 40.3035 48.756 40.206 48.7767Z" fill="#FE7062"/>
<path d="M72.5949 68.739L48.1824 73.9281C48.0913 73.9474 48.0006 73.8889 47.9812 73.7977L47.3017 70.6007C47.2823 70.5095 47.3413 70.4191 47.4324 70.3997L71.8449 65.2107C71.936 65.1913 72.0263 65.25 72.0456 65.3412L72.7252 68.5382C72.7446 68.6294 72.6859 68.7197 72.5949 68.739Z" fill="white"/>
<path d="M45.8595 75.8132L39.8474 77.0911C39.75 77.1118 39.6539 77.0494 39.6331 76.9517L38.3924 71.1147C38.3717 71.0173 38.4341 70.9212 38.5315 70.9005L44.5437 69.6226C44.6411 69.6019 44.7372 69.6643 44.7579 69.7617L45.9986 75.5987C46.0194 75.6964 45.957 75.7925 45.8595 75.8132Z" fill="#FE7062"/>
<path d="M70.7699 59.7143L46.3577 64.9033C46.2665 64.9227 46.1761 64.864 46.1567 64.7729L45.4772 61.5759C45.4578 61.4848 45.5165 61.3944 45.6077 61.375L70.02 56.186C70.1111 56.1667 70.2015 56.2253 70.2209 56.3165L70.9004 59.5134C70.9198 59.6046 70.8611 59.6949 70.7699 59.7143Z" fill="white"/>
<path d="M44.0343 66.7885L38.0224 68.0664C37.9247 68.0871 37.8289 68.0247 37.8082 67.9273L36.5675 62.0903C36.5468 61.9926 36.6089 61.8965 36.7066 61.8758L42.7184 60.5979C42.8162 60.5771 42.912 60.6396 42.9327 60.7373L44.1734 66.5743C44.1941 66.6717 44.132 66.7677 44.0343 66.7885Z" fill="#FE7062"/>
<path d="M65.0272 32.6974L40.6149 37.8864C40.5238 37.9058 40.4334 37.8471 40.414 37.756L39.7344 34.5588C39.715 34.4676 39.7737 34.3772 39.8649 34.3579L64.2772 29.1689C64.3683 29.1495 64.4587 29.2082 64.4781 29.2993L65.1577 32.4965C65.1771 32.5877 65.1184 32.6781 65.0272 32.6974Z" fill="white"/>
<path d="M38.292 39.7716L32.28 41.0495C32.1822 41.0703 32.0865 41.0081 32.0657 40.9103L30.8251 35.0737C30.8043 34.976 30.8664 34.8798 30.9641 34.859L36.9761 33.5811C37.0739 33.5603 37.1693 33.6231 37.1901 33.7208L38.4307 39.5574C38.4514 39.6552 38.3897 39.7509 38.292 39.7716Z" fill="#FE7062"/>
</svg>
