<svg width="112" height="91" viewBox="0 0 112 91" fill="none" xmlns="http://www.w3.org/2000/svg">
<path d="M71.1445 86.2727C71.1445 86.2727 83.7505 80.7576 91.9051 60.3909C100.06 40.0242 96.6324 10.8727 101.084 0.393936C101.084 0.393936 77.7233 18.3576 68.7808 41.6394C57.7505 70.3576 71.1445 86.2727 71.1445 86.2727Z" fill="#297B77"/>
<path d="M89.3448 66.0242C79.6539 71.8151 72.957 76.1878 72.8782 76.2666L73.0751 76.5818C73.1539 76.5424 79.5751 72.2878 88.9509 66.6939C89.1085 66.4575 89.2267 66.2212 89.3448 66.0242Z" fill="#041E1D"/>
<path d="M74.1388 70.2788L74.4934 70.1212C74.4146 69.9636 70.2782 60.4303 65.6691 51.8424C65.6298 52.0394 65.5904 52.2364 65.551 52.4333C70.0813 60.903 74.0994 70.1212 74.1388 70.2788Z" fill="#041E1D"/>
<path d="M75.675 63.8182L75.872 64.1333C75.9901 64.0545 85.7598 57.8303 94.072 53.6545C94.1114 53.4969 94.1507 53.3 94.1901 53.1424C85.7992 57.3575 75.7932 63.7394 75.675 63.8182Z" fill="#041E1D"/>
<path d="M76.8571 59.0121L77.251 58.9333C77.2116 58.8151 75.1238 48.4939 69.9631 38.7242C69.8844 38.8818 69.845 39.0393 69.7662 39.1969C74.7692 48.809 76.8571 58.8545 76.8571 59.0121Z" fill="#041E1D"/>
<path d="M80.2842 47.3515L80.4024 47.706C80.4812 47.6666 87.8873 45.1848 96.16 43.806C96.1994 43.6878 96.1994 43.5303 96.2388 43.4121C87.8479 44.7909 80.363 47.3121 80.2842 47.3515Z" fill="#041E1D"/>
<path d="M82.4115 40.5758L82.8055 40.5364C82.8055 40.4182 81.9782 30.2152 79.3388 22.8879C79.26 23.0061 79.1418 23.1242 79.063 23.2818C81.5843 30.5303 82.4115 40.4576 82.4115 40.5758Z" fill="#041E1D"/>
<path d="M85.4841 33.1697C85.5629 33.1303 91.6296 30.2939 97.7356 28.6394C97.7356 28.4818 97.7356 28.3636 97.775 28.2454C91.5902 29.9 85.4053 32.7757 85.3265 32.8151L85.4841 33.1697Z" fill="#041E1D"/>
<path d="M87.5326 27.2606L87.9265 27.3394C87.9265 27.2606 88.872 22.1394 88.3993 12.1333C88.2811 12.2515 88.1629 12.4091 88.0053 12.5273C88.4387 22.2182 87.5326 27.2212 87.5326 27.2606Z" fill="#041E1D"/>
<path d="M89.9358 22.0212L90.1328 22.3757C90.2115 22.3363 93.7964 20.1303 98.4055 17.6878C98.4055 17.5303 98.4449 17.3727 98.4449 17.2151C93.7176 19.6969 90.0146 21.9818 89.9358 22.0212Z" fill="#041E1D"/>
<path d="M67.7962 102.148C67.7962 102.148 67.8356 101.794 67.9144 101.164C67.9932 100.533 68.1114 99.5879 68.3083 98.4061C68.4659 97.2242 68.7023 95.7667 68.978 94.1515C69.2538 92.497 69.5689 90.6455 69.9235 88.6364C70.278 86.6273 70.672 84.4212 71.1447 82.1364C71.3811 80.9939 71.578 79.8121 71.8538 78.5909C72.1295 77.3697 72.3659 76.1485 72.6417 74.8879C72.9174 73.6273 73.1932 72.3667 73.5083 71.0667C73.8235 69.7667 74.0992 68.4667 74.4144 67.1667C74.7295 65.8667 75.0841 64.5667 75.4386 63.2273C75.7932 61.9273 76.1083 60.5879 76.4629 59.2485C76.8174 57.9485 77.2114 56.6091 77.5659 55.3091C77.7629 54.6394 77.9204 54.0091 78.1174 53.3394C78.3144 52.7091 78.5114 52.0394 78.7083 51.4091C79.1023 50.1091 79.4962 48.8485 79.8901 47.5879C80.0871 46.9576 80.2841 46.3273 80.4811 45.697C80.678 45.0667 80.9144 44.4758 81.1114 43.8849C81.978 41.4818 82.7265 39.1182 83.5932 36.9515C84.0265 35.8485 84.4204 34.7849 84.8144 33.7606C85.0114 33.2485 85.2083 32.7364 85.4053 32.2242C85.6023 31.7121 85.8386 31.2394 86.0356 30.7667C86.8629 28.8758 87.6114 27.1818 88.2811 25.6455C88.5962 24.8576 88.9901 24.1879 89.3053 23.5576C89.6204 22.9273 89.9356 22.3364 90.172 21.7849C91.2356 19.6576 91.8265 18.4364 91.8265 18.4364C91.8265 18.4364 91.2356 19.6576 90.2507 21.8242C90.0144 22.3758 89.6992 22.9667 89.4235 23.597C89.1477 24.2667 88.7538 24.9364 88.478 25.7242C87.8477 27.2606 87.1386 28.9939 86.3507 30.8849C86.1538 31.3576 85.9568 31.8303 85.7598 32.3424C85.5629 32.8546 85.4053 33.3667 85.2083 33.8788C84.8144 34.903 84.4598 35.9667 84.0659 37.0697C83.2386 39.2758 82.5295 41.6394 81.7417 44.0424C81.5447 44.6333 81.3477 45.2636 81.1507 45.8939C80.9538 46.5242 80.7962 47.1546 80.5992 47.7849C80.2447 49.0455 79.8507 50.3455 79.4962 51.6061C79.2992 52.2364 79.1023 52.9061 78.9447 53.5364C78.7871 54.2061 78.5901 54.8364 78.4326 55.5061C78.078 56.8061 77.7629 58.1455 77.4083 59.4455C77.0538 60.7455 76.778 62.0849 76.4629 63.4242C76.1477 64.7636 75.8326 66.0636 75.5568 67.3636C75.2811 68.6636 75.0053 69.9636 74.7295 71.2636C74.4538 72.5636 74.178 73.8242 73.9417 75.0849C73.7053 76.3455 73.4689 77.5667 73.2326 78.7879C72.9962 80.0091 72.7992 81.1909 72.6023 82.3333C72.1689 84.6182 71.8538 86.8242 71.5386 88.8333C71.2235 90.8424 70.9477 92.6939 70.7114 94.3485C70.5144 96.003 70.278 97.4212 70.1598 98.603C70.0023 99.7848 69.9235 100.691 69.8447 101.321C69.7659 101.952 69.7265 102.306 69.7265 102.306L67.7962 102.148Z" fill="#0B3720"/>
<path d="M79.2509 95.4149C79.2509 95.4149 98.6327 100.694 112.421 78.4361C124.554 58.8573 124.83 28.0119 124.83 28.0119C124.83 28.0119 94.8115 29.7846 78.7387 56.3755C63.966 80.7604 79.2509 95.4149 79.2509 95.4149Z" fill="#24655F"/>
<path d="M124.83 27.9697C124.83 27.9697 124.554 58.8152 112.421 78.3939C98.6327 100.652 79.2509 95.3727 79.2509 95.3727C79.2509 95.3727 88.8236 53.0636 124.83 27.9697Z" fill="#1D6B64"/>
<path d="M107.338 32.8546C107.22 32.8546 107.063 32.8152 106.944 32.8152C106.432 38.6455 107.22 43.4122 107.26 43.4516L107.299 43.6091H107.457C107.535 43.6091 114.114 43.6485 123.805 41.3637C123.805 41.2061 123.844 41.0879 123.844 40.9303C114.941 43.0182 108.678 43.1758 107.614 43.1758C107.457 42.3485 106.866 38.0152 107.338 32.8546Z" fill="#0C504B"/>
<path d="M103.439 47.5879L103.478 47.6273H103.557C103.636 47.6273 105.684 47.7849 108.875 47.9424C112.46 48.1 117.502 48.297 122.781 48.2182C122.82 48.1 122.82 47.9424 122.86 47.8243C113.326 47.9424 104.502 47.3121 103.675 47.2333C103.202 46.8 99.4204 43.3334 96.6234 37.897C96.5053 37.9758 96.3871 38.0546 96.3083 38.094C99.2628 43.9637 103.399 47.5485 103.439 47.5879Z" fill="#0C504B"/>
<path d="M97.6082 54.8364C97.2143 54.6394 91.6597 51.9212 85.9476 46.8C85.8688 46.8788 85.7901 46.997 85.6719 47.0758C91.581 52.394 97.3325 55.1515 97.4506 55.1909H97.4901C97.6476 55.2303 108.56 57.5152 120.457 58.697C120.496 58.5788 120.536 58.4212 120.575 58.3031C108.914 57.2 98.1991 54.9546 97.6082 54.8364Z" fill="#0C504B"/>
<path d="M92.2113 63.3061C92.0932 63.2667 85.081 61.7697 77.5962 58.303C77.5174 58.4212 77.478 58.5394 77.3992 58.6576C84.9235 62.1243 92.0144 63.6606 92.1325 63.7C92.3295 63.7394 105.093 66.7334 117.226 68.7424C117.266 68.6243 117.305 68.5061 117.384 68.3485C105.211 66.3394 92.4083 63.3455 92.2113 63.3061Z" fill="#0C504B"/>
<path d="M88.39 70.7515H88.3112C88.0354 70.7515 81.4567 70.397 73.4203 68.6242C73.3809 68.7424 73.3415 68.8606 73.3021 69.0182C81.2203 70.7515 87.6809 71.1455 88.2324 71.1455C88.9021 71.4212 99.5385 75.9515 111.711 79.497C111.79 79.3788 111.869 79.2606 111.948 79.1424C99.4597 75.5182 88.5476 70.8303 88.39 70.7515Z" fill="#0C504B"/>
<path d="M84.805 78.9849L84.7656 78.9455H84.7262C84.608 78.9455 79.1323 79.497 72.4353 79.5758C72.4353 79.694 72.4747 79.8516 72.4747 79.9697C78.8171 79.8909 84.0959 79.4182 84.6868 79.3394C85.4353 79.7334 94.2595 84.0273 105.329 87.2182C105.447 87.1 105.566 87.0212 105.644 86.9031C94.102 83.594 84.9626 79.0637 84.805 78.9849Z" fill="#0C504B"/>
<path d="M82.5992 85.2485L82.5204 85.1303L82.4022 85.1697C82.3234 85.2091 78.9355 86.194 74.1295 86.9818C74.1688 87.1 74.2083 87.2182 74.287 87.3364C78.581 86.6273 81.7719 85.7606 82.4022 85.5636C82.9931 86.2727 86.4992 90.3697 92.0931 94.8606C92.2507 94.8212 92.4083 94.7818 92.5658 94.7424C86.3416 89.8576 82.6779 85.3273 82.5992 85.2485Z" fill="#0C504B"/>
<path d="M75.7842 111.839C75.7842 111.839 75.7842 111.721 75.8236 111.564C75.8236 111.367 75.863 111.091 75.9024 110.697C75.9811 109.948 76.0993 108.885 76.2963 107.506C76.4933 106.127 76.769 104.512 77.163 102.621C77.5175 100.73 78.0296 98.6424 78.5812 96.3576C79.1721 94.0727 79.8418 91.6303 80.7084 89.0697C81.1024 87.7697 81.5751 86.4697 82.0478 85.1697C82.2842 84.5 82.5599 83.8303 82.7963 83.1606C82.9145 82.8061 83.0327 82.4909 83.1902 82.1364C83.3084 81.7818 83.466 81.4667 83.5842 81.1121C83.8599 80.4424 84.1357 79.7333 84.4115 79.0636C84.6872 78.3939 85.0024 77.6848 85.3175 77.0151C85.9084 75.6364 86.5781 74.2576 87.2478 72.8788C87.563 72.1697 87.9175 71.5 88.2721 70.7909C88.6266 70.1212 88.9812 69.4121 89.3357 68.703C89.7296 68.0333 90.0842 67.3242 90.4781 66.6545C90.8721 65.9848 91.2266 65.2758 91.6205 64.6061C92.4084 63.2667 93.1963 61.8879 94.063 60.6273C94.4963 59.9576 94.8903 59.3273 95.3236 58.6576C95.7569 57.9879 96.1902 57.397 96.6236 56.7667C97.0569 56.1364 97.4902 55.5061 97.9236 54.8758C98.3963 54.2848 98.8296 53.6545 99.263 53.0636C99.6963 52.4727 100.169 51.8818 100.602 51.2515C101.075 50.6606 101.548 50.1091 101.981 49.5182C102.454 48.9667 102.887 48.3758 103.36 47.8242C103.833 47.2727 104.305 46.7606 104.778 46.2091C105.251 45.697 105.684 45.1455 106.157 44.6333C106.59 44.1212 107.102 43.6485 107.536 43.1364C108.008 42.6636 108.442 42.1515 108.914 41.7182C109.348 41.2455 109.781 40.7727 110.254 40.3394C111.16 39.4727 112.027 38.6061 112.854 37.8182C113.721 37.0303 114.548 36.2818 115.336 35.5727C116.124 34.8636 116.872 34.1939 117.621 33.603C118.369 33.0121 119.039 32.4212 119.669 31.9091C119.984 31.6333 120.299 31.397 120.575 31.1606C120.851 30.9242 121.166 30.7273 121.442 30.5303C123.608 28.9152 124.869 27.9697 124.869 27.9697C124.869 27.9697 123.648 28.9151 121.481 30.6091C121.205 30.8061 120.93 31.0424 120.654 31.2788C120.378 31.5151 120.063 31.7909 119.748 32.0273C119.118 32.5394 118.448 33.1303 117.739 33.7606C116.99 34.3515 116.281 35.0606 115.493 35.7697C114.705 36.4788 113.878 37.2273 113.051 38.0545C112.224 38.8818 111.396 39.7485 110.49 40.6545C110.057 41.0879 109.624 41.5606 109.19 42.0333C108.757 42.5061 108.324 43.0182 107.851 43.4909C107.418 44.003 106.945 44.4758 106.511 44.9879C106.078 45.5 105.645 46.0515 105.172 46.5636C104.739 47.1151 104.266 47.6273 103.793 48.1788C103.36 48.7303 102.927 49.3212 102.454 49.8727C102.021 50.4636 101.548 51.0152 101.114 51.6061C100.681 52.197 100.248 52.8273 99.8145 53.4182C99.3811 54.0091 98.9478 54.6394 98.5145 55.2697C98.0812 55.9 97.6872 56.5303 97.2539 57.1606C96.8205 57.7909 96.3872 58.4212 95.9933 59.0909C95.5993 59.7606 95.2054 60.3909 94.7721 61.0606C93.9448 62.3606 93.1963 63.7394 92.4478 65.0788C92.0539 65.7485 91.6993 66.4576 91.3448 67.1273C90.9902 67.797 90.6357 68.5061 90.2811 69.1758C89.9266 69.8848 89.6115 70.5545 89.2569 71.2636C88.9418 71.9727 88.5872 72.6424 88.2721 73.3515C87.6418 74.7303 87.0115 76.1091 86.46 77.4879C86.1842 78.197 85.869 78.8667 85.6327 79.5364C85.3569 80.2061 85.1205 80.9151 84.8448 81.5848C84.7266 81.9394 84.569 82.2545 84.4508 82.6091C84.3327 82.9636 84.2145 83.2788 84.0963 83.6333C83.86 84.303 83.6236 84.9727 83.3872 85.6424C82.9539 86.9818 82.5205 88.2818 82.166 89.5424C81.3781 92.0636 80.7872 94.5061 80.2357 96.7515C79.7236 98.997 79.2902 101.085 78.9357 102.936C78.6205 104.788 78.3448 106.403 78.1872 107.742C78.0296 109.082 77.9115 110.145 77.8327 110.855C77.7933 111.209 77.7933 111.485 77.7539 111.642C77.7539 111.839 77.7539 111.918 77.7539 111.918L75.7842 111.839Z" fill="#093D38"/>
<path d="M15.783 26H5.77718C2.59157 26 0 28.5916 0 31.7772V42.1861H15.783V26Z" fill="#FFB13B"/>
<path d="M35.4036 78H46.2228C49.4084 78 52 75.4084 52 72.2228V61.8068H35.4036V78Z" fill="#FFB13B"/>
<path d="M0 61.8068V72.2228C0 75.4084 2.59157 78 5.77718 78H15.7829V61.8068H0Z" fill="#FFB13B"/>
<path d="M46.2228 26H35.4036V42.1861H52V31.7772C52 28.5916 49.4084 26 46.2228 26Z" fill="#FFB13B"/>
<path d="M32.357 26H18.8295V42.1861H32.357V26Z" fill="#FF9500"/>
<path d="M52 45.2327H35.4036V58.7602H52V45.2327Z" fill="#FF9500"/>
<path d="M32.357 61.8068H18.8295V78H32.357V61.8068Z" fill="#FF9500"/>
<path d="M15.783 45.2327H0V58.7602H15.783V45.2327Z" fill="#FF9500"/>
<path d="M32.357 45.2327H18.8295V58.7602H32.357V45.2327Z" fill="#FFB13B"/>
</svg>
