<svg width="131" height="95" viewBox="0 0 131 95" fill="none" xmlns="http://www.w3.org/2000/svg">
<path d="M158.273 73.3334L148.245 116.667L0.69696 104.849C0.69696 104.849 36.646 97.5742 55.8485 85.1517C70.926 75.3977 75.9337 70.8025 91.303 61.5151C111.686 49.1983 158.273 73.3334 158.273 73.3334Z" fill="#85A2FB"/>
<path fill-rule="evenodd" clip-rule="evenodd" d="M85.3972 48.7616C85.271 48.5618 85.049 48.2805 84.8445 48.0331C84.4591 48.1976 83.9777 48.367 83.6262 48.4382C84.1529 49.056 84.7245 49.7125 84.7245 49.7125C84.7245 49.7125 85.003 50.1069 85.1654 50.5012C85.3278 50.8955 85.606 50.9883 86.0932 51.0115C86.5802 51.0347 86.2091 50.7332 86.0235 50.246C85.838 49.7588 85.6756 49.2022 85.3972 48.7616Z" fill="#E6B39A"/>
<path fill-rule="evenodd" clip-rule="evenodd" d="M86.5166 52.5368C86.3236 52.0256 86.2555 51.429 86.2555 51.429C86.2555 51.429 86.4726 52.0422 86.5166 52.5368ZM84.7245 49.7125C84.7245 49.7125 84.1529 49.056 83.6262 48.4382C83.5387 48.4559 83.4589 48.4677 83.391 48.4718C83.1414 48.4863 82.859 48.4865 82.6157 48.4819C82.7132 49.3158 82.873 50.3149 83.0544 50.8723C83.3793 51.8697 83.4952 50.478 83.6111 50.7563C83.7271 51.0346 84.1678 51.9625 84.7476 52.8439C85.3276 53.7253 84.9564 51.2898 85.0029 51.4057C85.0492 51.5218 85.4667 53.0294 86.1858 53.1454C86.4888 53.1942 86.5488 52.8971 86.5166 52.5368C86.6423 52.869 86.8206 53.1653 87.0672 53.2382C87.6934 53.4237 87.7167 52.5887 87.3688 51.7769C87.0209 50.9651 87.137 50.6635 86.3945 49.5965C85.9874 49.0113 85.5803 48.3215 85.2956 47.8177C85.1805 47.8817 85.0227 47.9566 84.8444 48.033C85.0489 48.2804 85.2708 48.5617 85.3971 48.7615C85.6755 49.2022 85.8379 49.7586 86.0234 50.2459C86.2089 50.7331 86.58 51.0346 86.0931 51.0114C85.6059 50.9882 85.3276 50.8954 85.1652 50.5011C85.0028 50.1069 84.7245 49.7125 84.7245 49.7125Z" fill="#D3A48C"/>
<path fill-rule="evenodd" clip-rule="evenodd" d="M65.6354 75.4254C66.132 74.9025 70.126 71.0852 72.4443 68.8734C72.383 71.3217 72.828 73.6949 72.7592 76.1497L66.3405 80.546C66.3405 80.546 65.3757 79.9894 64.9304 79.2473C64.4854 78.505 64.4479 76.9466 64.4479 76.9466C64.4479 76.9466 64.9304 76.1674 65.6354 75.4254Z" fill="#425A96"/>
<path fill-rule="evenodd" clip-rule="evenodd" d="M74.448 91.3253C75.2174 91.292 75.8017 90.7884 75.8901 90.3134C75.9033 90.2419 75.9057 90.1532 75.9 90.0541C76.5833 90.7155 77.9349 91.8489 78.2352 91.9412C78.5966 92.0524 79.3716 91.5928 79.7478 91.6092C80.1239 91.6257 80.1224 92.1089 79.9597 92.4523C79.7967 92.7958 79.2744 93.0568 78.6425 93.1957C78.0104 93.3348 75.4036 92.988 75.4036 92.988L75.2398 93.317C75.2398 93.317 73.017 93.195 72.9631 93.1483C72.9092 93.1017 72.9502 92.8679 72.9502 92.8679C72.9502 92.8679 72.7719 92.7941 72.7231 92.6175C72.6743 92.4406 72.7709 91.4744 72.85 91.1658C72.9287 90.8572 73.1846 90.8633 73.1846 90.8633C73.1662 90.9498 73.1554 90.9995 73.1554 90.9995C73.1554 90.9995 73.6788 91.3589 74.448 91.3253Z" fill="#1A1A1A"/>
<path fill-rule="evenodd" clip-rule="evenodd" d="M75.89 90.3134C75.8015 90.7885 75.2173 91.292 74.4478 91.3253C73.6786 91.3589 73.1552 90.9995 73.1552 90.9995C73.1552 90.9995 73.166 90.9498 73.1845 90.8633C73.2806 90.4115 73.5826 88.9587 73.613 88.3674C73.6734 88.4164 74.2908 88.9117 74.7349 88.9895C75.078 89.0497 75.4799 88.9582 75.6697 88.905C75.7569 89.2145 75.8793 89.7007 75.8998 90.0541C75.9056 90.1531 75.9032 90.2419 75.89 90.3134Z" fill="#313B52"/>
<path fill-rule="evenodd" clip-rule="evenodd" d="M63.0517 80.3493C63.5805 80.9089 64.3436 81.0208 64.7608 80.7765C64.8234 80.7397 64.892 80.6834 64.9631 80.6143C64.9105 81.5639 64.9391 83.3274 65.0659 83.6149C65.2187 83.9607 66.073 84.2456 66.3072 84.5406C66.5411 84.8356 66.1747 85.1511 65.8087 85.2529C65.4425 85.3546 64.9031 85.1309 64.3844 84.744C63.8653 84.3575 62.4207 82.16 62.4207 82.16L62.0649 82.2518C62.0649 82.2518 60.7013 80.4916 60.7013 80.4203C60.7013 80.3493 60.9051 80.227 60.9051 80.227C60.9051 80.227 60.8438 80.0441 60.9457 79.8914C61.0472 79.7387 61.8409 79.1793 62.1256 79.0367C62.4105 78.8945 62.5737 79.0919 62.5737 79.0919C62.4962 79.1347 62.4514 79.1587 62.4514 79.1587C62.4514 79.1587 62.5225 79.7897 63.0517 80.3493Z" fill="#1A1A1A"/>
<path fill-rule="evenodd" clip-rule="evenodd" d="M64.7609 80.7765C64.3436 81.0208 63.5805 80.9089 63.0517 80.3493C62.5226 79.7897 62.4515 79.1588 62.4515 79.1588C62.4515 79.1588 62.4962 79.1348 62.5737 79.092C62.9782 78.869 64.2741 78.1455 64.7405 77.7816C64.743 77.8592 64.7729 78.6503 65.0049 79.0368C65.1842 79.3355 65.5167 79.5793 65.681 79.6881C65.5043 79.9567 65.2171 80.3675 64.9631 80.6144C64.8921 80.6835 64.8235 80.7398 64.7609 80.7765Z" fill="#313B52"/>
<path fill-rule="evenodd" clip-rule="evenodd" d="M82.1109 49.4875C82.1109 49.4875 82.8529 64.8496 82.7046 66.3342C82.556 67.8184 78.4447 71.7269 78.4447 71.7269L82.1109 49.4875Z" fill="#425A96"/>
<path fill-rule="evenodd" clip-rule="evenodd" d="M78.9197 71.529L77.4354 88.0787C77.4354 88.0787 76.3222 89.1176 74.3185 89.1176C72.3147 89.1176 71.8694 88.9693 71.8694 88.9693C71.8694 88.9693 72.8342 58.4673 72.6115 56.538C72.389 54.6085 71.35 53.1984 71.35 51.0463C71.35 48.894 71.4242 48.5231 71.4242 48.5231L82.111 49.4876L78.9197 71.529Z" fill="#5C74B2"/>
<path fill-rule="evenodd" clip-rule="evenodd" d="M69.5696 50.276C69.5696 50.276 69.9946 52.9091 69.8712 53.4717C69.7479 54.0339 69.6933 54.1436 69.6933 54.1436L69.3227 53.9377C69.3227 53.9377 68.8291 54.8018 68.637 54.9938C68.445 55.1859 68.1295 55.3367 67.9924 54.9801C67.8553 54.6235 67.8826 54.4726 67.8826 54.4726C67.8826 54.4726 67.7457 54.788 67.485 54.4864C67.2244 54.1846 67.2518 54.0749 67.2518 54.0749C67.2518 54.0749 67.2383 54.1984 66.9638 54.02C66.6895 53.8417 66.6759 53.6634 66.6759 53.6634C66.6759 53.6634 66.5388 54.1572 66.3743 53.5948C66.2095 53.0325 66.2507 52.3195 66.4564 51.7708C66.6623 51.2223 67.4577 49.9331 67.4577 49.9331L69.5696 50.276Z" fill="#D3A48C"/>
<path fill-rule="evenodd" clip-rule="evenodd" d="M62.0609 51.3799C62.0609 51.3799 73.0599 58.1824 73.4438 58.4018C73.828 58.6212 73.7731 58.9506 73.7731 58.9506L72.4565 59.0328L60.6619 51.5996L62.0609 51.3799Z" fill="#16224A"/>
<path fill-rule="evenodd" clip-rule="evenodd" d="M55.9169 60.9253L60.662 51.5996L72.4566 59.0328C72.5801 59.2933 72.4566 59.4169 72.4566 59.4169C72.4566 59.4169 68.0406 67.9059 67.766 68.3312C67.4919 68.7564 67.2315 68.5506 67.2315 68.5506C67.2315 68.5506 56.3146 61.4876 56.013 61.3368C55.7113 61.186 55.9169 60.9253 55.9169 60.9253Z" fill="#0F1D24"/>
<path fill-rule="evenodd" clip-rule="evenodd" d="M73.7733 58.9506C73.7733 58.9506 68.9322 68.0021 68.8223 68.1118C68.7125 68.2215 68.5618 68.3174 68.4383 68.3517C68.3148 68.386 67.6137 68.64 67.4601 68.5919C67.5496 68.5699 67.6569 68.5008 67.7661 68.3312C68.0406 67.9059 72.4567 59.4169 72.4567 59.4169C72.4567 59.4169 72.5802 59.2933 72.4567 59.0328L73.7733 58.9506Z" fill="#233880"/>
<path fill-rule="evenodd" clip-rule="evenodd" d="M76.3324 13.2255C76.3324 13.2255 81.6758 21.9085 82.8262 24.0606C83.9763 26.2129 84.7557 28.6248 84.7557 28.6248C84.7557 28.6248 81.7871 24.4133 80.3771 22.1496C78.967 19.8862 78.596 18.9027 78.596 18.9027L78.7442 17.9937C78.7442 17.9937 78.1319 17.7711 77.9094 17.5299C77.6867 17.2887 76.4065 15.3406 75.9985 15.0994C75.5904 14.8583 74.9778 14.7098 74.9778 14.7098C74.9778 14.7098 75.9241 12.9471 76.3324 13.2255Z" fill="#4B67C2"/>
<path fill-rule="evenodd" clip-rule="evenodd" d="M81.4531 17.6226C81.6276 18.0879 80.3779 18.7126 79.829 18.9612C78.3747 16.5523 76.8849 14.1242 76.4553 13.425L76.7589 13.0028C76.7589 13.0028 77.1859 13.207 78.2434 13.9305C79.3007 14.654 81.2305 17.0289 81.4531 17.6226Z" fill="#8EA4EB"/>
<path fill-rule="evenodd" clip-rule="evenodd" d="M79.8289 18.9612C79.9864 18.8898 80.2019 18.7874 80.4247 18.6667C80.7203 19.3759 81.1158 20.4307 81.381 21.5522C80.9062 20.7512 80.3698 19.8576 79.8289 18.9612Z" fill="#667DCC"/>
<path fill-rule="evenodd" clip-rule="evenodd" d="M80.4247 18.6667C80.9627 18.3752 81.5445 17.9769 81.4617 17.6501C81.6564 17.7972 81.8057 17.9978 81.8425 18.2719C81.9724 19.2367 81.9724 19.5892 81.9724 19.5892C81.9724 19.5892 82.7885 22.7247 82.8073 23.3927C82.8133 23.6094 82.8254 23.8534 82.8387 24.0842C82.8343 24.0764 82.8302 24.0684 82.8262 24.0606C82.5464 23.5376 82.0191 22.6285 81.381 21.5523C81.1159 20.4307 80.7204 19.3759 80.4247 18.6667Z" fill="#1A1A1A"/>
<path fill-rule="evenodd" clip-rule="evenodd" d="M84.7558 28.6248C84.7558 28.6248 85.3306 37.5304 84.8852 41.3894C84.44 45.2485 83.5494 50.2209 80.8778 51.2599C78.2063 52.2988 71.4528 50.5176 71.4528 50.5176C71.4528 50.5176 70.7847 50.6659 70.3393 47.6233C69.894 44.5805 69.7457 20.1644 70.2652 18.9027C70.7847 17.641 74.9779 14.7097 74.9779 14.7097C74.9779 14.7097 75.5905 14.8581 75.9986 15.0993C76.4066 15.3405 77.6868 17.2886 77.9095 17.5298C78.132 17.771 78.7444 17.9936 78.7444 17.9936L78.5961 18.9026C78.5961 18.9026 78.9672 19.8861 80.3772 22.1495C81.7872 24.4132 84.7558 28.6248 84.7558 28.6248Z" fill="#7690E6"/>
<path fill-rule="evenodd" clip-rule="evenodd" d="M70.2652 18.9027C70.2652 18.9027 73.9943 15.7301 75.1818 18.9212C76.3691 22.1124 77.2598 23.6708 75.6271 28.3463C73.9943 33.0218 70.8266 49.7277 70.8266 49.7277C70.8266 49.7277 70.3948 49.9056 68.9847 49.8684C67.5749 49.8311 66.4246 49.3489 66.4246 49.3489C66.4246 49.3489 69.2817 22.8545 70.2652 18.9027Z" fill="#4B67C2"/>
<path fill-rule="evenodd" clip-rule="evenodd" d="M68.9848 49.8684C69.8129 49.8902 70.3033 49.8379 70.5674 49.7911C70.5532 49.9283 70.523 50.0921 70.4599 50.1746C70.3393 50.3321 70.0054 50.4157 68.5304 50.3693C67.0552 50.3229 66.74 50.0259 66.74 50.0259L66.8093 49.4862C67.2618 49.6321 68.0685 49.8442 68.9848 49.8684Z" fill="#CFD9FC"/>
<path fill-rule="evenodd" clip-rule="evenodd" d="M84.9396 5.21323C84.9396 5.21323 85.4199 6.99784 85.4199 7.75293C85.4199 8.50785 85.3856 9.50314 85.4886 10.6358C85.5914 11.7683 84.9669 13.8507 84.8709 14.6167C84.7747 15.3826 84.5264 16.3479 83.8069 16.5729C83.0875 16.7976 80.1292 16.2098 78.3503 14.9255C76.5716 13.6412 76.9431 12.386 76.9431 12.386C76.9431 12.386 75.8793 12.2486 75.5362 10.8072C75.1928 9.36581 74.541 8.16474 75.5705 8.30201C76.6 8.43922 77.1834 9.77767 77.2865 10.361C77.3892 10.9445 77.4238 11.219 77.4238 11.219L78.2817 11.2876C78.2817 11.2876 77.6639 9.67469 78.2817 8.67953C78.8993 7.68412 80.0662 7.40964 79.8602 6.9292C79.6543 6.4487 78.9679 6.31138 79.2424 5.69361C79.5171 5.0759 81.5419 4.90428 82.8116 4.93869C84.0815 4.97315 84.9396 5.21323 84.9396 5.21323Z" fill="#D3A48C"/>
<path fill-rule="evenodd" clip-rule="evenodd" d="M78.1186 9.03209C78.1592 8.90892 78.2126 8.79043 78.2817 8.67959C78.8992 7.68418 80.0661 7.4097 79.8601 6.92926C79.6543 6.44877 78.9679 6.31144 79.2423 5.69367C79.5171 5.07596 81.5418 4.90435 82.8116 4.93875C84.0815 4.97316 84.9395 5.21323 84.9395 5.21323C84.9395 5.21323 85.4198 6.99784 85.4198 7.75293C85.4198 7.75293 85.5917 5.93404 85.626 5.35062C85.6601 4.76719 85.9348 3.11991 85.4885 2.53649C85.0424 1.95301 82.5371 0.23715 79.9975 0.477458C77.4581 0.717591 75.8449 2.2791 75.4848 2.89675C75.1243 3.51457 76.0338 2.72519 76.1884 2.63947C76.3425 2.55363 75.1415 4.08067 74.987 5.19614C74.8771 5.98964 74.9583 7.30426 75.2369 8.3181C75.3199 8.28945 75.4294 8.28316 75.5706 8.30207C76.0364 8.36419 76.4109 8.67225 76.6909 9.04501C77.0297 9.49604 77.23 10.0417 77.2866 10.3611C77.3893 10.9446 77.4238 11.2191 77.4238 11.2191L78.2818 11.2877C78.2817 11.2877 77.7939 10.0141 78.1186 9.03209Z" fill="#0F1D24"/>
<path fill-rule="evenodd" clip-rule="evenodd" d="M69.6933 54.1435C69.6933 54.1435 69.981 54.3492 69.9127 54.9938C69.844 55.6384 69.3914 56.1869 69.3914 56.1869C69.3914 56.1869 69.3295 56.3925 69.069 56.2623C68.8084 56.132 68.6714 56.132 68.6644 55.9948C68.6576 55.8578 68.7329 55.7138 68.7329 55.7138C68.7329 55.7138 69.0417 55.1377 69.0417 55.0006C69.0417 54.9381 68.9594 54.8065 68.8697 54.6812C69.0809 54.3613 69.3228 53.9377 69.3228 53.9377L69.6933 54.1435Z" fill="#0F1D24"/>
<path fill-rule="evenodd" clip-rule="evenodd" d="M66.3016 52.4022C66.2519 52.7719 66.265 53.1599 66.3492 53.5016C66.2454 53.5599 66.136 53.6357 66.0998 53.7116C66.0245 53.8691 66.093 54.0269 65.9215 53.972C65.7502 53.9172 65.4965 53.7937 65.4347 53.6362C65.373 53.4784 65.4827 53.2452 65.6543 52.9983C65.7761 52.8226 66.0749 52.5501 66.3016 52.4022Z" fill="#0F1D24"/>
<path fill-rule="evenodd" clip-rule="evenodd" d="M80.2348 15.9125C81.225 16.2952 82.2405 16.5269 82.9619 16.5969C82.7102 16.7301 82.4474 16.8852 82.3235 17.0089C82.1921 17.1404 81.9194 17.5074 81.6703 17.8548C81.6111 17.7771 81.54 17.7093 81.4618 17.6501C81.4596 17.641 81.4565 17.6317 81.4531 17.6226C81.3461 17.3371 80.8444 16.64 80.2348 15.9125Z" fill="#BA8266"/>
<path fill-rule="evenodd" clip-rule="evenodd" d="M76.9431 12.386C76.9431 12.386 76.8581 12.6733 76.9641 13.1137C76.8233 13.0335 76.7587 13.0028 76.7587 13.0028C76.7587 13.0028 76.8509 12.6908 76.9212 12.3822C76.9354 12.3848 76.9431 12.386 76.9431 12.386Z" fill="#BA8266"/>
<path fill-rule="evenodd" clip-rule="evenodd" d="M83.6355 38.5158C83.9901 38.5158 84.2797 38.2265 84.2797 37.872C84.2797 37.5172 83.9901 37.2279 83.6355 37.2279C83.2807 37.2279 82.9915 37.5172 82.9915 37.872C82.9915 38.2266 83.2807 38.5158 83.6355 38.5158Z" fill="#4B67C2"/>
<path fill-rule="evenodd" clip-rule="evenodd" d="M82.9459 45.3237C83.3005 45.3237 83.5898 45.0345 83.5898 44.6797C83.5898 44.325 83.3005 44.0356 82.9459 44.0356C82.5911 44.0356 82.3019 44.325 82.3019 44.6797C82.3019 45.0345 82.5911 45.3237 82.9459 45.3237Z" fill="#4B67C2"/>
<path fill-rule="evenodd" clip-rule="evenodd" d="M86.1853 47.3647C86.0769 46.7872 85.4204 42.569 84.9488 40.7171C84.9305 40.9547 84.9092 41.1794 84.885 41.3893C84.5993 43.8662 84.1301 46.8015 83.1241 48.8613C83.7119 48.9163 84.4224 48.6636 84.4224 48.6636C84.4224 48.6636 86.3245 48.107 86.1853 47.3647Z" fill="#4B67C2"/>
<path fill-rule="evenodd" clip-rule="evenodd" d="M85.992 47.8571C85.5283 48.3399 84.4226 48.6636 84.4226 48.6636C84.4226 48.6636 83.7119 48.9164 83.1243 48.8613C83.0845 48.943 83.0439 49.0231 83.0023 49.1022C83.2545 49.1078 83.5553 49.1083 83.8194 49.0928C84.411 49.058 85.8723 48.4432 85.9186 48.2925C85.941 48.2196 85.9692 48.0314 85.992 47.8571Z" fill="#CFD9FC"/>
<path d="M161.909 39.4542C161.909 59.0355 146.035 74.9091 126.455 74.9091C106.874 74.9091 91 59.0355 91 39.4542C91 19.8743 106.874 3.99999 126.455 3.99999C146.035 3.99999 161.909 19.8743 161.909 39.4542Z" fill="#D79F52"/>
<path d="M154.662 39.454C154.662 55.0327 142.033 67.6623 126.455 67.6623C110.876 67.6623 98.2464 55.0327 98.2464 39.454C98.2464 23.876 110.876 11.2464 126.455 11.2464C142.033 11.2464 154.662 23.876 154.662 39.454Z" fill="#F9AF0B"/>
<path d="M142.791 39.0161C141.876 42.6289 140.169 45.6441 138.258 48.2689C136.319 50.8747 134.101 53.0391 131.737 54.8027C126.963 58.2959 121.831 60.3675 116.399 61.2463L116.28 56.8043C121.184 56.5682 126.322 55.1466 130.943 52.3662C133.258 50.9597 135.47 49.1503 137.434 46.8983C139.365 44.656 141.169 41.8808 142.173 38.7211L142.791 39.0161Z" fill="#533816"/>
<path d="M116.797 57.9101C121.815 57.5373 127.039 55.9241 131.699 52.9051C134.032 51.3788 136.251 49.4322 138.203 47.0336C140.011 44.7835 141.689 42.043 142.67 38.9585L142.173 38.7211C141.169 41.8808 139.365 44.656 137.434 46.8983C135.47 49.1503 133.258 50.9597 130.943 52.3662C126.322 55.1466 121.184 56.5682 116.28 56.8043L116.399 61.2463C116.587 61.2169 116.775 61.1809 116.964 61.1469L116.797 57.9101Z" fill="#523816"/>
<path d="M113.471 34.376C113.89 36.9524 114.852 39.2698 115.935 41.1707C117.04 43.0802 118.334 44.6535 119.727 45.9103C120.11 46.2536 120.503 46.5753 120.903 46.8781L120.67 49.4185C120.115 48.9189 119.57 48.3814 119.037 47.804C117.637 46.2601 116.364 44.4043 115.303 42.2137C114.261 40.0094 113.378 37.5063 113.051 34.5741L113.471 34.376Z" fill="#533816"/>
<path d="M119.727 45.9103C118.334 44.6535 117.04 43.0802 115.935 41.1707C114.852 39.2698 113.89 36.9524 113.471 34.376L113.051 34.5741C113.057 34.6382 113.069 34.6984 113.076 34.7605L113.096 34.7507C113.515 37.3264 114.478 39.6445 115.561 41.5448C116.664 43.4555 117.96 45.0275 119.351 46.2843C119.736 46.6276 120.129 46.95 120.528 47.2534L120.356 49.1236C120.461 49.2204 120.565 49.3237 120.67 49.4185L120.903 46.8781C120.503 46.5753 120.11 46.2536 119.727 45.9103Z" fill="#523816"/>
<path d="M129.047 35.1959C120.106 51.2552 120.826 68.6393 126.031 84.9948H114.614C113.283 75.4164 113.089 69.084 115.175 59.6481C117.23 50.2142 121.391 41.3452 127.125 33.9161L129.047 35.1959Z" fill="#533816"/>
<path d="M116.452 59.8619C118.468 50.6045 122.515 41.8971 128.083 34.555L127.125 33.9161C121.391 41.3452 117.23 50.2142 115.175 59.6481C113.089 69.084 113.283 75.4164 114.614 84.9948H115.862C114.558 75.5348 114.381 69.2272 116.452 59.8619Z" fill="#523816"/>
</svg>
