<svg width="98" height="84" viewBox="0 0 98 84" fill="none" xmlns="http://www.w3.org/2000/svg">
<ellipse cx="58.303" cy="74.1515" rx="55.1515" ry="21.6667" fill="#F99746"/>
<ellipse cx="64.2122" cy="78.0909" rx="49.2424" ry="17.7273" fill="#FFC99C"/>
<path d="M82.5113 30.5716C82.5485 30.5781 82.5873 30.5785 82.6266 30.5714C82.9974 30.5065 83.3696 30.4253 83.7329 30.329C83.9102 30.2827 84.016 30.1009 83.9693 29.9232C83.9351 29.7943 83.8292 29.7028 83.7056 29.681C83.6808 29.6766 83.6553 29.6752 83.6295 29.6763C83.6076 29.6777 83.5855 29.6812 83.5634 29.6869C83.2183 29.7781 82.8646 29.8552 82.5121 29.9172C82.3314 29.949 82.2105 30.1211 82.2422 30.3015C82.267 30.4427 82.3777 30.548 82.5113 30.5716Z" fill="#C4D5FD"/>
<path d="M56.3697 13.8282L56.6682 13.8717C56.7487 13.8067 56.7686 13.6903 56.7115 13.6016C56.5241 13.31 56.3531 13.0042 56.2031 12.6924C56.1734 12.6305 56.1163 12.5904 56.0535 12.5793C56.0381 12.5766 56.0224 12.5755 56.0063 12.5764C55.9805 12.5777 55.9543 12.5843 55.9292 12.5965C55.8271 12.6454 55.7844 12.7679 55.8333 12.8702C55.9904 13.1972 56.1699 13.5184 56.3666 13.8239C56.3676 13.8251 56.3687 13.827 56.3697 13.8282ZM55.5815 11.994C55.6141 11.9998 55.6486 11.9978 55.6821 11.9866C55.7896 11.9504 55.8472 11.8348 55.8112 11.7273C55.7016 11.3991 55.611 11.0609 55.542 10.7212C55.5246 10.6362 55.4573 10.574 55.3767 10.5598C55.3613 10.5571 55.3457 10.5559 55.3296 10.5569C55.3196 10.5578 55.31 10.5588 55.3002 10.5608C55.1892 10.5835 55.1171 10.6917 55.1398 10.8028C55.2121 11.1592 55.3072 11.5137 55.4223 11.8573C55.4471 11.9313 55.5098 11.9814 55.5815 11.994ZM55.164 9.90675C55.179 9.90941 55.1938 9.91041 55.2089 9.90986C55.3218 9.90087 55.4061 9.80226 55.3973 9.68937C55.3927 9.62913 55.3885 9.56844 55.3851 9.50844C55.3686 9.2229 55.3666 8.93352 55.3795 8.64782C55.384 8.54369 55.3104 8.45417 55.2102 8.4365C55.2013 8.43494 55.193 8.434 55.1839 8.43348C55.1765 8.43324 55.1695 8.4336 55.1624 8.43397C55.0587 8.43976 54.9743 8.52338 54.9695 8.62958C54.9563 8.92914 54.9585 9.23249 54.9753 9.53198C54.9792 9.59476 54.9835 9.65815 54.9885 9.72112C54.996 9.81825 55.0742 9.89092 55.164 9.90675Z" fill="#C4D5FD"/>
<path d="M81.9859 69.1528C82.9029 57.0657 85.1583 27.0408 85.2753 22.6148C85.4224 17.0521 78.5696 17.0767 78.5696 17.0767L67.4755 71.6771L76.7364 73.31C77.981 73.5295 79.2626 73.2022 80.2626 72.4085C81.2626 71.6149 81.8886 70.4358 81.9859 69.1528Z" fill="#4F6CB7"/>
<path d="M70.7511 75.1022C72.5258 75.4151 74.2275 74.2338 74.5474 72.4515L83.5836 22.0992L83.7049 21.423C84.017 19.6838 82.9703 18.0235 81.3367 17.5146C81.1972 17.4712 81.0536 17.4362 80.9061 17.4102C80.872 17.4042 80.8375 17.3981 80.803 17.3932L56.6681 13.8722L56.3696 13.8286L15.8357 7.91518C15.8139 7.91193 15.792 7.90869 15.77 7.90602C13.3259 7.58424 11.044 9.2145 10.5629 11.6403L9.19019 18.5654L5.91295 35.0944L2.61058 51.7488C5.37078 43.2432 10.3123 26.6566 12.06 12.0528C12.1557 11.2557 12.8859 10.6918 13.6803 10.8064L78.9662 20.1823C78.9839 20.1848 79.0016 20.1879 79.0191 20.191C79.8858 20.3438 80.4822 21.1556 80.3616 22.0333C79.3539 29.3625 75.0958 59.5246 71.8713 69.9447C71.6771 70.5724 71.0453 70.9547 70.4003 70.841C70.3936 70.8398 70.3869 70.8383 70.3803 70.8372L2.44335 57.7815C2.14235 57.7238 1.88137 57.5837 1.67585 57.3905C1.83038 59.7339 3.53578 61.7754 5.94923 62.2541L17.7429 64.5924L70.6814 75.089C70.7047 75.0937 70.7279 75.0981 70.7511 75.1022Z" fill="#09005D"/>
<path d="M70.4002 70.8409C71.0453 70.9547 71.677 70.5724 71.8712 69.9446C75.0958 59.5245 79.3539 29.3623 80.3616 22.0332C80.4823 21.1551 79.8859 20.3435 79.0191 20.1907C79.0016 20.1876 78.9839 20.1845 78.9663 20.182L13.6806 10.8061C12.8857 10.6916 12.1555 11.2558 12.0602 12.0529C10.3119 26.6563 5.3705 43.2431 2.61055 51.7486C2.06537 53.4278 1.60577 54.7911 1.27259 55.7631C1.06681 56.3622 1.251 56.9901 1.67559 57.3904C1.88087 57.5835 2.14191 57.7237 2.44311 57.7814L70.3803 70.8371C70.3869 70.8383 70.3936 70.8398 70.4002 70.8409ZM77.8958 21.2137C78.7299 21.3608 79.3041 22.1416 79.1879 22.9869C78.2182 30.04 74.1204 59.0663 71.0172 69.0942C70.8303 69.6981 70.2224 70.066 69.6018 69.9565C69.5953 69.9554 69.589 69.9543 69.5825 69.9528L4.20358 57.3888C3.31539 57.2182 2.78335 56.302 3.07707 55.4464C5.02377 49.7733 11.4442 30.2102 13.4578 13.3818C13.5498 12.6147 14.2529 12.0726 15.0181 12.1824L77.8451 21.2054C77.862 21.2078 77.879 21.2108 77.8958 21.2137Z" fill="#8183FF"/>
<path d="M4.20354 57.3889C3.31593 57.2183 2.7838 56.3021 3.07759 55.4466C5.02386 49.7734 11.4444 30.2104 13.4585 13.3826C13.55 12.615 14.2529 12.0723 15.0178 12.1825L77.8452 21.2055C78.7067 21.3292 79.3065 22.125 79.188 22.987C78.2183 30.0404 74.1205 59.0664 71.0174 69.0942C70.8286 69.7046 70.21 70.0736 69.5826 69.9529L4.20354 57.3889Z" fill="#91B3FA"/>
<path d="M53.5234 35.8502C54.1918 35.968 54.833 35.5299 54.9651 34.8627L55.8995 30.1503C56.0363 29.4605 55.5777 28.7981 54.8925 28.6772C54.8738 28.6739 54.8554 28.6711 54.8365 28.6686L50.1806 28.0588C49.5279 27.9732 48.9208 28.4088 48.7926 29.0545L47.904 33.5371C47.7681 34.2213 48.2193 34.8841 48.9054 35.0092L53.5162 35.8489C53.5186 35.8493 53.521 35.8497 53.5234 35.8502Z" fill="#E0EAFE"/>
<path d="M36.2663 32.7682C36.9352 32.8862 37.5764 32.4477 37.7086 31.7808L38.5033 27.7724C38.6399 27.0834 38.1819 26.4205 37.4957 26.2995C37.4806 26.2968 37.4654 26.2946 37.4502 26.2924L32.8019 25.6435C32.1461 25.5521 31.5327 25.9886 31.404 26.6383L30.6472 30.4552C30.5115 31.1393 30.9626 31.8019 31.6486 31.927L36.2592 32.767C36.2618 32.7674 36.264 32.7678 36.2663 32.7682Z" fill="#E0EAFE"/>
<path d="M30.833 59.6038C31.559 59.7318 32.261 59.2565 32.4059 58.5259L33.246 54.2875C33.3939 53.5431 32.9048 52.8214 32.1586 52.6822L27.7761 51.8658C27.7716 51.865 27.7671 51.8642 27.7626 51.8634C27.0334 51.7348 26.3334 52.2126 26.1888 52.9408L25.3767 57.0363C25.2327 57.764 25.6967 58.4736 26.4209 58.633L30.775 59.5924C30.7946 59.5964 30.8137 59.6004 30.833 59.6038Z" fill="#E0EAFE"/>
<path d="M22.2948 57.7227C23.0087 57.8486 23.6988 57.3812 23.8413 56.6634L24.6352 52.6587C24.7802 51.927 24.2996 51.2178 23.566 51.0811L19.1376 50.2557C19.1336 50.255 19.1291 50.2542 19.1246 50.2534C18.4077 50.127 17.7198 50.5968 17.5777 51.3122L16.8123 55.1729C16.6707 55.8881 17.1266 56.5853 17.8386 56.742L22.2385 57.7115C22.2574 57.7155 22.2763 57.7194 22.2948 57.7227Z" fill="#E0EAFE"/>
<path d="M25.7618 39.7238C26.5306 39.8594 27.2725 39.3558 27.4255 38.5839L28.0776 35.2965C28.2348 34.5038 27.7094 33.7365 26.9137 33.5962C26.9127 33.596 26.9117 33.5958 26.9112 33.5958L22.6734 32.8562C21.9014 32.7216 21.1636 33.2282 21.0112 33.9966L20.3879 37.1381C20.2343 37.913 20.7329 38.6672 21.5056 38.8297L25.7142 39.7145C25.7305 39.718 25.7459 39.721 25.7618 39.7238Z" fill="#E0EAFE"/>
<path d="M23.9844 49.1963C24.7022 49.3229 25.39 48.8524 25.5315 48.1372L26.5288 43.1092C26.6716 42.3893 26.208 41.6883 25.4898 41.5372L21.1823 40.6316C21.1669 40.6284 21.151 40.6252 21.1355 40.6225C20.3663 40.4869 19.6243 40.9905 19.4712 41.7621L18.4659 46.8333C18.32 47.5701 18.8079 48.2829 19.5477 48.4134L23.9844 49.1963Z" fill="#E0EAFE"/>
<path d="M40.2712 33.4976L44.8819 34.3376C45.5527 34.4599 46.198 34.0206 46.3306 33.3516L47.1965 28.9857C47.3362 28.2812 46.8547 27.6044 46.1438 27.5052L41.4953 26.8566C40.8399 26.7652 40.2262 27.2015 40.0973 27.8511L39.2697 32.0257C39.1339 32.7101 39.5849 33.3725 40.2712 33.4976Z" fill="#A97067"/>
<path d="M32.5939 50.7155C33.3244 50.8443 34.0236 50.3654 34.1679 49.6381L35.1002 44.9355C35.2459 44.203 34.7744 43.49 34.0437 43.3363L29.6812 42.4189C29.6662 42.4153 29.6515 42.4127 29.6363 42.41C28.9094 42.2819 28.2079 42.7582 28.0636 43.4878L27.1025 48.333C26.9538 49.0825 27.4503 49.8079 28.2031 49.9406L32.5939 50.7155Z" fill="#E0EAFE"/>
<path d="M43.305 43.4132C43.8567 43.5105 44.3882 43.1494 44.4983 42.5959L45.4289 37.9003C45.5417 37.3319 45.1652 36.782 44.5947 36.6814C44.5935 36.6812 44.5931 36.6811 44.5924 36.6809L39.5513 35.8014C38.9978 35.705 38.4685 36.0681 38.3593 36.6185L37.4625 41.1406C37.3524 41.6961 37.7098 42.237 38.2642 42.3538L43.2714 43.4065C43.2823 43.4088 43.2936 43.4112 43.305 43.4132Z" fill="#E0EAFE"/>
<path d="M51.627 45.1627C52.3203 45.285 52.9886 44.8313 53.1267 44.1356L54.0115 39.6739C54.153 38.9591 53.6796 38.2677 52.9625 38.1412C52.9618 38.1411 52.9608 38.1409 52.9601 38.1408L48.4418 37.3525C47.7462 37.2313 47.081 37.6872 46.9438 38.38L46.0901 42.6866C45.9513 43.3847 46.4008 44.0645 47.0971 44.2111L51.5846 45.1545C51.5988 45.1574 51.6127 45.1602 51.627 45.1627Z" fill="#E0EAFE"/>
<path d="M34.7283 41.6096C35.2801 41.7069 35.8119 41.3455 35.9214 40.7921L36.7938 36.3939C36.9065 35.825 36.5294 35.2749 35.9589 35.1743C35.9585 35.1742 35.9576 35.1741 35.9571 35.174L30.9155 34.2946C30.3621 34.198 29.8329 34.5608 29.7233 35.1119L28.886 39.3373C28.7757 39.8928 29.1332 40.4335 29.6876 40.5501L34.6946 41.6027C34.7057 41.6051 34.7172 41.6076 34.7283 41.6096Z" fill="#E0EAFE"/>
<path d="M41.2256 52.2384C41.9559 52.3672 42.6554 51.8887 42.7995 51.1611L43.6766 46.7388C43.822 46.0062 43.3509 45.2929 42.6197 45.1393L38.2572 44.2221C38.2424 44.2186 38.2278 44.2161 38.2129 44.2134C37.4857 44.0852 36.7842 44.5613 36.6397 45.2912L35.7346 49.8562C35.5859 50.6053 36.0824 51.3307 36.8348 51.4633L41.2256 52.2384Z" fill="#E0EAFE"/>
<path d="M50.0078 53.788C50.6547 53.9024 51.2741 53.4783 51.4017 52.834L52.2831 48.3908C52.4115 47.7421 51.9944 47.1106 51.3471 46.9744L46.679 45.993C46.6658 45.9903 46.6525 45.988 46.6392 45.9857C45.9953 45.8721 45.3743 46.2935 45.2464 46.9395L44.3353 51.5354C44.2035 52.1992 44.6433 52.8414 45.3096 52.9592L50.0078 53.788Z" fill="#E0EAFE"/>
<path d="M27.1909 31.0535C28.1184 31.217 29.0072 30.6095 29.1903 29.6849L29.7614 26.8059C29.9305 25.9547 29.3644 25.1356 28.5169 24.9862C28.4985 24.983 28.4796 24.9796 28.4611 24.9769L24.538 24.4301C23.6482 24.3055 22.8154 24.8973 22.6409 25.7793L22.1643 28.1833C21.9583 29.2206 22.6418 30.2247 23.6821 30.4143L27.181 31.0517C27.1845 31.0524 27.1874 31.0529 27.1909 31.0535Z" fill="#E0EAFE"/>
<path d="M13.7358 55.837C14.4491 55.9628 15.1392 55.4957 15.2814 54.7778L15.9999 51.155C16.1555 50.3673 15.6389 49.6041 14.8496 49.457L13.3262 49.1731C13.318 49.1717 13.3095 49.1698 13.3008 49.1683C12.1527 48.9659 11.0839 49.5635 10.8943 50.5183L10.3428 53.3016C10.1534 54.2552 10.9123 55.2164 12.0529 55.4675L13.6787 55.8257C13.698 55.83 13.7169 55.8336 13.7358 55.837Z" fill="#E0EAFE"/>
<path d="M63.7357 66.851C64.8779 67.0524 65.9509 66.4592 66.1406 65.501L67.0276 61.0288C67.2218 60.0482 66.4153 59.0659 65.2346 58.8458L62.239 58.2877C62.2345 58.2869 62.2301 58.2861 62.2259 58.2854C61.4956 58.1566 60.7951 58.6349 60.6507 59.3637L59.6166 64.5785C59.4724 65.3065 59.9364 66.0167 60.6613 66.1763L63.6265 66.8296C63.6629 66.8375 63.6993 66.8445 63.7357 66.851Z" fill="#E0EAFE"/>
<path d="M15.2545 47.656C16.0269 47.7921 16.7667 47.286 16.9191 46.5164L17.9328 41.4049C18.0861 40.63 17.588 39.8759 16.8147 39.7136L15.3246 39.4001C15.2961 39.3942 15.2682 39.3886 15.2401 39.3837C14.0959 39.1819 13.0244 39.7766 12.8345 40.7338L11.948 45.2058C11.7514 46.1945 12.5727 47.1828 13.7649 47.3933L15.2545 47.656Z" fill="#E0EAFE"/>
<path d="M17.5223 37.9915C18.1038 38.0941 18.6645 37.7133 18.7807 37.1296L19.5122 33.4377C19.6313 32.838 19.2339 32.2577 18.632 32.1516C18.6314 32.1515 18.6309 32.1514 18.6303 32.1513L16.736 31.8212C15.5872 31.6203 14.5228 32.2193 14.3339 33.1713L13.8877 35.4211C13.697 36.3832 14.4697 37.3504 15.6223 37.5927L17.4863 37.9846C17.4986 37.9874 17.5104 37.9894 17.5223 37.9915Z" fill="#E0EAFE"/>
<path d="M70.6627 30.8657L67.6343 30.4432C66.9522 30.3478 66.314 30.8013 66.1802 31.4772L65.1589 36.6284C65.0176 37.3399 65.4867 38.0297 66.2007 38.1593L69.2962 38.7234C70.4508 38.9336 71.5276 38.3348 71.7177 37.376L72.5718 33.0674C72.7738 32.0486 71.8974 31.0378 70.6627 30.8657Z" fill="#7D97F4"/>
<path d="M39.3923 61.4892C40.1185 61.6173 40.8205 61.142 40.9655 60.4117L41.8616 55.8929C42.0091 55.1485 41.5202 54.4265 40.774 54.2876L36.3911 53.4708C36.3868 53.47 36.3825 53.4693 36.3777 53.4684C35.6488 53.3399 34.9488 53.8177 34.8045 54.5459L33.9364 58.9221C33.7923 59.6495 34.2562 60.359 34.9805 60.5185L39.3349 61.4779C39.3541 61.4819 39.3733 61.4859 39.3923 61.4892Z" fill="#E0EAFE"/>
<path d="M67.3791 48.4741C68.523 48.6758 69.5947 48.0815 69.7846 47.124L70.5852 43.086C70.7812 42.0974 69.9596 41.1089 68.7677 40.8987C68.7662 40.8985 68.7647 40.8982 68.7632 40.8979L65.7122 40.3656C65.0166 40.244 64.3514 40.7006 64.2138 41.3929L63.2425 46.2932C63.1039 46.9917 63.553 47.6711 64.2494 47.8177L67.2946 48.4578C67.3225 48.4638 67.3509 48.4691 67.3791 48.4741Z" fill="#E0EAFE"/>
<path d="M65.7721 56.5694C66.9222 56.7725 67.9904 56.1736 68.1794 55.2198L68.7312 52.4366C68.9219 51.4749 68.1494 50.5075 66.997 50.2652L63.8316 49.5995C63.8186 49.5969 63.8053 49.5942 63.7923 49.592C63.1482 49.4784 62.5273 49.9001 62.399 50.5463L61.5989 54.5813C61.4675 55.2452 61.9068 55.8875 62.5735 56.0051L65.7721 56.5694Z" fill="#E0EAFE"/>
<path d="M58.6398 55.3111C59.2866 55.4251 59.906 55.0013 60.0337 54.3569L60.8593 50.1941C60.9878 49.5453 60.5706 48.9139 59.9234 48.7777L55.2553 47.7964C55.2421 47.7934 55.2291 47.7908 55.2158 47.7885C54.5719 47.675 53.951 48.0967 53.8227 48.7429L52.9671 53.0583C52.8354 53.7222 53.2751 54.3645 53.9414 54.482L58.6398 55.3111Z" fill="#E0EAFE"/>
<path d="M56.5115 65.2606C57.2383 65.3888 57.9408 64.913 58.0855 64.1821L59.0923 59.1051C59.2401 58.3601 58.7507 57.6374 58.0039 57.4984L53.6235 56.682C53.6193 56.6813 53.6146 56.6805 53.6104 56.6797C52.8804 56.551 52.1799 57.0293 52.0352 57.7581L51.0569 62.6926C50.9124 63.4207 51.3768 64.1307 52.1016 64.2906L56.4536 65.2492C56.473 65.2535 56.4922 65.2572 56.5115 65.2606Z" fill="#E0EAFE"/>
<path d="M19.1861 29.5954C19.7702 29.6984 20.3297 29.3156 20.4451 28.7337L21.161 25.1228C21.2804 24.5211 20.881 23.9426 20.2819 23.837C20.2684 23.8346 20.2555 23.8323 20.242 23.8305L18.285 23.5575C17.1646 23.4009 16.1525 23.997 15.9695 24.9216L15.5427 27.0753C15.3476 28.0593 16.1601 29.0441 17.3459 29.2604L19.1802 29.5944C19.1818 29.5947 19.1845 29.5952 19.1861 29.5954Z" fill="#E0EAFE"/>
<path d="M47.9511 63.3749C48.6782 63.5031 49.3805 63.0272 49.5256 62.2964L50.4767 57.4997C50.6243 56.7544 50.1353 56.0322 49.3883 55.8927L45.0816 55.0904C45.0768 55.0895 45.072 55.0887 45.0676 55.0879C44.297 54.952 43.5575 55.457 43.405 56.226L42.4966 60.8068C42.3524 61.535 42.8167 62.245 43.5418 62.4046L47.8935 63.3635C47.9129 63.3675 47.9323 63.3716 47.9511 63.3749Z" fill="#E0EAFE"/>
<path d="M62.0969 37.4118C62.7928 37.5345 63.4597 37.0787 63.5973 36.3848L64.5849 31.4043C64.7269 30.6872 64.2503 29.9976 63.5366 29.8718C63.521 29.869 63.5054 29.8667 63.4897 29.8643L58.941 29.2298C58.2585 29.1347 57.6209 29.5886 57.4869 30.2642L56.5364 35.0576C56.3949 35.769 56.8644 36.4586 57.5782 36.5886L62.0897 37.4105C62.0921 37.4109 62.0949 37.4114 62.0969 37.4118Z" fill="#E0EAFE"/>
<path d="M60.2034 46.9661C60.8963 47.0882 61.5648 46.6341 61.7028 45.9388L62.6465 41.1797C62.7882 40.4654 62.3147 39.7738 61.5974 39.6473C61.5967 39.6472 61.596 39.6471 61.595 39.6469L57.0771 38.8587C56.3813 38.7374 55.7159 39.1935 55.5791 39.8862L54.666 44.4894C54.5278 45.1882 54.9768 45.8677 55.6734 46.014L60.1607 46.9578C60.1749 46.9607 60.1892 46.9636 60.2034 46.9661Z" fill="#E0EAFE"/>
<path d="M18.5356 19.5827L18.4749 21.143C18.4554 21.6423 18.8024 22.0817 19.2929 22.1791L19.3644 22.1933C19.9154 22.3024 20.4498 21.9445 20.5593 21.3941L20.867 19.8404C20.9868 19.2384 20.5491 18.6688 19.9358 18.6287L19.6173 18.6079C19.0465 18.5709 18.558 19.0115 18.5356 19.5827Z" fill="white"/>
<path d="M25.6769 20.4377L25.6166 21.9977C25.5969 22.4976 25.9434 22.9368 26.4341 23.0343L26.506 23.0485C27.0561 23.1574 27.5911 22.7998 27.7002 22.2492L28.0082 20.6954C28.1278 20.0932 27.6899 19.5236 27.0777 19.4836L26.7582 19.4627C26.188 19.4256 25.6993 19.8663 25.6769 20.4377Z" fill="white"/>
<path d="M34.3572 22.0913L34.2962 23.6518C34.2766 24.151 34.6239 24.5908 35.1142 24.6879L35.1859 24.7023C35.7363 24.8114 36.2709 24.4537 36.3804 23.9034L36.6886 22.3495C36.8082 21.7467 36.37 21.1771 35.7576 21.1375L35.4382 21.1168C34.8679 21.0798 34.3792 21.5202 34.3572 22.0913Z" fill="white"/>
<path d="M42.9017 23.207L42.8413 24.767C42.8213 25.2667 43.1684 25.7065 43.6589 25.8035L43.7306 25.8179C44.2808 25.9272 44.8161 25.5689 44.925 25.0185L45.2332 23.4648C45.3526 22.8623 44.9146 22.2928 44.3025 22.253L43.983 22.2322C43.4129 22.1954 42.9238 22.6356 42.9017 23.207Z" fill="white"/>
<path d="M51.804 23.635L51.743 25.1951C51.7237 25.6944 52.0708 26.1344 52.5614 26.2316L52.633 26.2456C53.1833 26.3551 53.718 25.997 53.8272 25.4461L54.1355 23.8927C54.2546 23.2904 53.817 22.7208 53.2044 22.681L52.8855 22.66C52.3148 22.6232 51.8262 23.0634 51.804 23.635Z" fill="white"/>
<path d="M60.9939 25.4568L60.9331 27.0174C60.9136 27.5167 61.2604 27.9564 61.7508 28.0536L61.8225 28.068C62.373 28.1771 62.908 27.8194 63.017 27.2687L63.3252 25.7148C63.4445 25.113 63.0067 24.5429 62.3942 24.5029L62.0752 24.4827C61.5046 24.4453 61.0158 24.8858 60.9939 25.4568Z" fill="white"/>
<path d="M68.8079 26.6665L68.7472 28.2268C68.7279 28.7264 69.0747 29.1661 69.565 29.2633L69.6368 29.2773C70.1872 29.3868 70.7223 29.029 70.8314 28.4779L71.1395 26.9243C71.2589 26.3219 70.821 25.7524 70.2085 25.7126L69.8896 25.6916C69.319 25.6548 68.8301 26.0952 68.8079 26.6665Z" fill="white"/>
<path d="M74.7707 72.0918C74.6807 72.0759 74.6203 71.9904 74.6356 71.8999L79.5057 43.116C79.521 43.0256 79.6069 42.9645 79.6975 42.9798L79.6983 42.9799C79.7886 42.9959 79.8491 43.0814 79.8338 43.1714L74.9637 71.9556C74.9484 72.0461 74.8626 72.1071 74.7719 72.092L74.7707 72.0918Z" fill="#4D468E"/>
<path d="M80.7589 36.6987C80.6689 36.6828 80.6086 36.5971 80.6238 36.5069L82.3247 26.4537C82.34 26.3636 82.4259 26.3023 82.5165 26.3178L82.5173 26.3179C82.6077 26.3339 82.6681 26.4191 82.6528 26.5097L80.9519 36.5625C80.9366 36.6531 80.8507 36.714 80.7601 36.6984L80.7589 36.6987Z" fill="#4D468E"/>
<path d="M22.7739 15.976C22.6033 16.9431 21.6808 17.5895 20.7137 17.419C19.746 17.2483 19.1003 16.3254 19.2708 15.3583C19.4414 14.3906 20.3638 13.7447 21.3315 13.9154C22.2986 14.0859 22.9445 15.0083 22.7739 15.976Z" fill="#7779FF"/>
<path d="M37.1501 18.3722C36.9795 19.3395 36.0574 19.9857 35.0901 19.8151C34.1223 19.6444 33.4767 18.7219 33.6473 17.7546C33.8178 16.7873 34.74 16.1411 35.7078 16.3118C36.6751 16.4824 37.3207 17.4049 37.1501 18.3722Z" fill="#4F52FF"/>
<path d="M51.7202 20.4547C51.5496 21.4223 50.6269 22.0683 49.6597 21.8978C48.6921 21.7272 48.0461 20.8045 48.2167 19.8369C48.3872 18.8698 49.3099 18.2237 50.2775 18.3943C51.2447 18.5649 51.8907 19.4875 51.7202 20.4547Z" fill="#020073"/>
<path d="M66.191 22.312C66.0205 23.2792 65.0979 23.925 64.1306 23.7545C63.1629 23.5838 62.5172 22.6615 62.6878 21.6942C62.8584 20.7266 63.7806 20.0807 64.7483 20.2513C65.7156 20.4218 66.3616 21.3443 66.191 22.312Z" fill="#8284FF"/>
<path d="M67.9117 10.0996C64.8505 10.2231 63.7613 18.0271 63.4431 21.2174C63.3685 21.9679 63.8849 22.6484 64.6277 22.7794C64.8339 22.8157 65.0463 22.7615 65.2111 22.6326C65.376 22.5031 65.4779 22.3097 65.4922 22.1008C65.657 19.6761 66.3237 12.7274 68.5583 12.7439C68.5583 12.7439 70.1636 12.7428 69.8938 15.8042L71.5779 16.1011C71.5779 16.1011 71.7602 9.94445 67.9117 10.0996Z" fill="#9B5D54"/>
<path d="M53.4896 7.96849C50.4288 8.09168 49.3389 15.8982 49.0206 19.0888C48.9456 19.8394 49.4621 20.5209 50.2049 20.6519C50.4116 20.6884 50.6234 20.635 50.7884 20.5057C50.9529 20.3764 51.0552 20.183 51.0689 19.9739C51.2344 17.5501 51.9018 10.5961 54.1362 10.6122C54.1362 10.6122 55.7309 10.6712 55.4727 13.6669L57.1568 13.9638C57.1568 13.9638 57.3383 7.813 53.4896 7.96849Z" fill="#A66E66"/>
<path d="M39.0668 5.83839C36.0054 5.96154 34.9154 13.7704 34.5976 16.9603C34.5229 17.7111 35.0383 18.3933 35.7818 18.5244C35.988 18.5608 36.1997 18.5084 36.3647 18.3788C36.5295 18.2497 36.6314 18.0567 36.6458 17.8477C36.8105 15.423 37.479 8.46565 39.7135 8.48195C39.7135 8.48195 41.3002 8.58117 41.0391 11.592L42.7344 11.8305C42.7344 11.8305 42.915 5.683 39.0668 5.83839Z" fill="#A86D64"/>
<path d="M24.6328 3.77079C21.5719 3.89426 20.4809 11.7071 20.1634 14.897C20.0882 15.6478 20.6037 16.3323 21.3469 16.4633C21.5531 16.4997 21.7651 16.448 21.9297 16.319C22.0945 16.1894 22.1965 15.9969 22.2106 15.7879C22.3759 13.3634 23.045 6.39829 25.2794 6.41454C25.2794 6.41454 26.8764 6.46193 26.618 9.45767L28.3021 9.75463C28.3021 9.75463 28.4818 3.61575 24.6328 3.77079Z" fill="#AC6D64"/>
</svg>
