<svg width="116" height="102" viewBox="0 0 116 102" fill="none" xmlns="http://www.w3.org/2000/svg">
<path d="M1.48709 49.2753L24.025 38.7123C24.8299 38.3349 25.7886 38.6818 26.1657 39.4868L39.9839 68.9702C40.3612 69.7752 40.0143 70.7336 39.2095 71.1109L16.6716 81.6738C15.8667 82.0511 14.9081 81.7046 14.5308 80.8994L0.712708 51.416C0.335391 50.611 0.682244 49.6524 1.48709 49.2753" fill="white"/>
<path d="M17.8475 67.008L27.1086 62.5398L31.4329 71.5025L22.1717 75.9707L17.8475 67.008" fill="#85A2FB"/>
<path d="M13.2174 65.8623L29.0934 58.2025L29.7209 59.5031L13.8447 67.1628L13.2174 65.8623" fill="#85A2FB"/>
<path d="M12.1043 63.5554L27.9805 55.8956L28.6079 57.1961L12.7318 64.8559L12.1043 63.5554" fill="#85A2FB"/>
<path d="M14.7565 59.4703L23.1324 55.4291L23.7598 56.7296L15.384 60.7708L14.7565 59.4703Z" fill="#85A2FB"/>
<path d="M7.41945 56.7L25.5307 47.9618L26.1582 49.2623L8.04682 58.0005L7.41945 56.7Z" fill="#E9E8E7"/>
<path d="M6.55933 54.9178L24.6706 46.1796L25.2981 47.4801L7.18683 56.2183L6.55933 54.9178" fill="#E9E8E7"/>
<path d="M26.3373 78.4525L30.9101 76.219L34.6223 83.8192L30.0495 86.0527L26.3373 78.4525Z" fill="#A13F30"/>
<path d="M29.3247 80.8737C29.1009 80.4157 29.2909 79.8629 29.7489 79.6392C30.207 79.4154 30.7598 79.6054 30.9836 80.0634C31.2072 80.5216 31.0173 81.0743 30.5592 81.2981C30.1012 81.5219 29.5484 81.3318 29.3247 80.8737" fill="white"/>
<path d="M30.67 81.5253C31.2527 81.2407 31.4952 80.5352 31.2105 79.9525C30.926 79.3697 30.2204 79.1272 29.6379 79.412C29.0551 79.6966 28.8127 80.402 29.0973 80.9847C29.3817 81.5674 30.0874 81.8097 30.67 81.5253ZM29.5504 79.2329C30.2317 78.9 31.0568 79.1836 31.3897 79.8651C31.7224 80.5465 31.4388 81.3715 30.7575 81.7044C30.0761 82.0372 29.2509 81.7536 28.9181 81.0722C28.5853 80.3908 28.869 79.5656 29.5504 79.2329" fill="white"/>
<path d="M30.6566 85.8557L30.7516 86.0505L34.1897 84.3713C34.3908 84.2731 34.6034 84.2269 34.814 84.2267C35.3463 84.2269 35.8602 84.5236 36.1074 85.0303L36.4876 85.809C36.5859 86.0102 36.6321 86.2229 36.6321 86.4333C36.632 86.9656 36.3353 87.4795 35.8286 87.7267L32.3907 89.406C32.1894 89.5042 31.9768 89.5505 31.7662 89.5506C31.2339 89.5505 30.72 89.2538 30.4727 88.7468L30.0925 87.9684C29.9943 87.7671 29.9481 87.5545 29.9479 87.3439C29.9481 86.8116 30.2448 86.2976 30.7516 86.0505L30.6566 85.8557L30.5616 85.6611C29.8998 85.9848 29.5145 86.6523 29.5147 87.3439C29.5145 87.6182 29.5753 87.897 29.7031 88.1586L30.0834 88.937C30.4072 89.5987 31.0746 89.984 31.7662 89.9839C32.0403 89.9839 32.3192 89.9232 32.5808 89.7953L36.0187 88.116C36.6804 87.7923 37.0656 87.125 37.0654 86.4333C37.0656 86.1592 37.0048 85.8804 36.877 85.6187L36.4967 84.8402C36.173 84.1785 35.5056 83.7933 34.814 83.7935C34.5399 83.7933 34.2611 83.8541 33.9995 83.9819L30.5616 85.6611L30.6566 85.8557" fill="#6ACFF4"/>
<path d="M28.7468 83.9221L33.7431 81.4817L35.0657 84.1892L30.0692 86.6296L28.7468 83.9221" fill="#E3684E"/>
<path d="M32.398 89.3016L35.7255 87.6764L36.5796 89.4246L33.2519 91.0499L32.398 89.3016Z" fill="#E3684E"/>
<path d="M32.0147 97.7028C30.5888 94.7834 31.7995 91.2604 34.719 89.8345C37.6386 88.4085 41.1614 89.6192 42.5873 92.5387C44.0133 95.4583 42.8027 98.9811 39.8831 100.407C36.9636 101.833 33.4409 100.622 32.0147 97.7028Z" fill="#FFA96B"/>
<path d="M33.6487 96.9048C32.6634 94.8876 33.5 92.4537 35.5171 91.4684C37.5343 90.4831 39.9681 91.3197 40.9534 93.3369C41.9386 95.354 41.1022 97.788 39.085 98.7732C37.0679 99.7585 34.6339 98.9219 33.6487 96.9048" fill="#E3684E"/>
<path d="M89.1248 32.9483L85.9399 30.3758L101.894 6.94909e-06L105.071 2.56745L89.1248 32.9483Z" fill="#FFA96B"/>
<path d="M45.5647 65.5736L63.8372 80.3422C64.4899 80.8697 65.4466 80.7683 65.9741 80.1155L85.294 56.2116C85.8215 55.5591 85.7202 54.6024 85.0675 54.0749L66.7948 39.3062C66.1421 38.7787 65.1854 38.8802 64.6579 39.5329L45.338 63.4367C44.8105 64.0894 44.9119 65.0461 45.5647 65.5736Z" fill="white"/>
<path d="M75.2201 42.5023L79.9473 46.3229L86.2971 38.4665L81.57 34.6458L75.2201 42.5023Z" fill="#E3684E"/>
<path d="M79.6651 40.0837C79.2825 40.5572 79.3561 41.2514 79.8295 41.6342C80.3031 42.0167 80.9972 41.9432 81.38 41.4697C81.7627 40.9961 81.689 40.3021 81.2155 39.9193C80.7421 39.5367 80.0479 39.6103 79.6651 40.0837Z" fill="white"/>
<path d="M81.4054 39.6843C82.0076 40.1711 82.1016 41.0572 81.6149 41.6594C81.128 42.2618 80.242 42.3558 79.6398 41.8689C79.0374 41.3821 78.9434 40.4962 79.4302 39.8938C79.9171 39.2916 80.803 39.1976 81.4054 39.6843V39.6843ZM79.4901 42.054C80.1944 42.6234 81.2306 42.5135 81.8 41.8091C82.3692 41.1047 82.2593 40.0686 81.5549 39.4992C80.8507 38.93 79.8144 39.0399 79.245 39.7441C78.6758 40.4486 78.7857 41.4848 79.4901 42.054Z" fill="white"/>
<path d="M83.0773 33.981L83.2401 33.7797L86.7938 36.6521C87.1092 36.9068 87.4882 37.0302 87.8673 37.0304C88.3695 37.0302 88.8653 36.8135 89.2022 36.3966L89.8527 35.5918C90.1075 35.2764 90.2309 34.8976 90.2311 34.5183C90.2307 34.0163 90.0141 33.5203 89.5973 33.1834L86.0434 30.3111C85.728 30.0563 85.349 29.9329 84.9699 29.9328C84.4677 29.9329 83.9719 30.1496 83.635 30.5665L82.9844 31.3713C82.7298 31.6867 82.6063 32.0655 82.6061 32.4448C82.6065 32.947 82.8231 33.4428 83.2401 33.7797L83.0773 33.981L82.9146 34.1822C82.371 33.7428 82.0883 33.095 82.0887 32.4448C82.0885 31.9533 82.2501 31.4566 82.582 31.046L83.2325 30.2413C83.6719 29.6975 84.3197 29.4148 84.9699 29.4151C85.4614 29.415 85.9581 29.5768 86.3687 29.9086L89.9226 32.7809C90.4663 33.2204 90.7489 33.8681 90.7485 34.5183C90.7487 35.0098 90.5871 35.5066 90.2552 35.9171L89.6047 36.7219C89.1653 37.2656 88.5175 37.5482 87.8673 37.548C87.3758 37.5482 86.8791 37.3864 86.4685 37.0545L82.9146 34.1822L83.0773 33.981Z" fill="#6ACFF4"/>
<path d="M79.4846 36.7784L84.6494 40.9528L87.7146 37.1603L82.5498 32.986L79.4846 36.7784Z" fill="#A13F30"/>
<path d="M86.3714 30.7244L89.5557 33.2981L115.909 11.3274L112.733 8.76012L86.3714 30.7244Z" fill="#A13F30"/>
<path d="M62.5541 53.0591L72.105 60.7785L79.5757 51.5353L70.0248 43.8159L62.5541 53.0591Z" fill="#85A2FB"/>
<path d="M56.8579 53.1294L73.2307 66.3627L74.3149 65.0216L57.9417 51.7883L56.8579 53.1294Z" fill="#85A2FB"/>
<path d="M54.935 55.5086L71.308 68.7419L72.3921 67.4006L56.0191 54.1673L54.935 55.5086" fill="#85A2FB"/>
<path d="M56.9056 60.9814L65.5436 67.963L66.6277 66.6217L57.9897 59.6401L56.9056 60.9814Z" fill="#85A2FB"/>
<path d="M47.6189 62.2028L66.2971 77.2993L67.3811 75.958L48.703 60.8617L47.6189 62.2028" fill="#E9E8E7"/>
<path d="M46.1332 64.0411L64.8115 79.1374L65.8955 77.7963L47.2172 62.6998L46.1332 64.0411Z" fill="#E9E8E7"/>
</svg>
