<svg width="116" height="90" viewBox="0 0 116 90" fill="none" xmlns="http://www.w3.org/2000/svg">
<path d="M53.5972 89.7098C82.9471 89.7098 106.74 88.9239 106.74 87.9544C106.74 86.9849 82.9471 86.1989 53.5972 86.1989C24.2473 86.1989 0.45459 86.9849 0.45459 87.9544C0.45459 88.9239 24.2473 89.7098 53.5972 89.7098Z" fill="#85A2FB"/>
<path d="M52.7992 29.2262C56.4128 29.2262 59.3423 26.2968 59.3423 22.6831C59.3423 19.0695 56.4128 16.14 52.7992 16.14C49.1855 16.14 46.2561 19.0695 46.2561 22.6831C46.2561 26.2968 49.1855 29.2262 52.7992 29.2262Z" fill="#85A2FB"/>
<path d="M51.0685 37.8119L48.1077 35.546L37.508 54.7446C37.1751 54.8051 36.8674 54.9622 36.6232 55.1964C36.379 55.4306 36.2091 55.7314 36.1347 56.0615C36.0603 56.3916 36.0847 56.7362 36.2049 57.0525C36.325 57.3688 36.5356 57.6428 36.8103 57.8402C37.0851 58.0377 37.4119 58.1499 37.75 58.1629C38.0881 58.1759 38.4226 58.0891 38.7117 57.9133C39.0008 57.7375 39.2318 57.4806 39.3758 57.1744C39.5199 56.8683 39.5707 56.5265 39.5218 56.1917L51.0685 37.8119Z" fill="#FFB8B8"/>
<path d="M78.0938 48.7085C77.9728 48.3583 77.7422 48.0563 77.4361 47.8474C77.13 47.6384 76.7647 47.5336 76.3944 47.5485L59.316 34.1518L56.7544 36.8607L74.7457 49.4007C74.764 49.6452 74.8342 49.8829 74.9517 50.098C75.0692 50.3131 75.2312 50.5007 75.4269 50.6483C75.6226 50.7958 75.8475 50.9 76.0866 50.9537C76.3258 51.0075 76.5736 51.0096 76.8137 50.96C77.0537 50.9104 77.2804 50.8101 77.4786 50.666C77.6768 50.5218 77.842 50.337 77.9632 50.1239C78.0843 49.9109 78.1587 49.6744 78.1812 49.4303C78.2037 49.1863 78.1739 48.9402 78.0938 48.7086V48.7085Z" fill="#FFB8B8"/>
<path d="M58.2732 86.0737H60.2853L61.2428 78.3132H58.2732V86.0737Z" fill="#FFB8B8"/>
<path d="M64.1653 87.942H57.8418V85.4989H61.7221C62.3701 85.4989 62.9915 85.7563 63.4497 86.2144C63.9079 86.6726 64.1653 87.294 64.1653 87.942V87.942Z" fill="#A13F30"/>
<path d="M42.3303 84.2774L44.1788 85.0719L48.1229 78.3199L45.3946 77.1474L42.3303 84.2774Z" fill="#FFB8B8"/>
<path d="M47.0063 88.3204L41.1967 85.8236L42.1614 83.579L45.7264 85.1111C46.3217 85.3669 46.791 85.8488 47.031 86.4507C47.2711 87.0525 47.2622 87.7251 47.0063 88.3204V88.3204V88.3204Z" fill="#A13F30"/>
<path d="M48.6019 48.8633L39.0308 79.0149L51.5929 80.3608L52.7993 62.7396L54.4343 80.3608L64.6037 79.1644C64.6037 79.1644 62.7667 51.2561 59.423 49.4615C56.0794 47.6669 48.6019 48.8633 48.6019 48.8633Z" fill="#A13F30"/>
<path d="M53.7914 30.8034C56.104 30.8034 57.9788 28.9287 57.9788 26.616C57.9788 24.3034 56.104 22.4287 53.7914 22.4287C51.4788 22.4287 49.604 24.3034 49.604 26.616C49.604 28.9287 51.4788 30.8034 53.7914 30.8034Z" fill="#FFB8B8"/>
<path d="M53.6572 50.2149C50.7496 50.2149 47.9515 50.086 47.8072 49.836C47.795 49.815 47.7904 49.7905 47.7941 49.7665C47.7978 49.7425 47.8097 49.7205 47.8277 49.7042C48.0278 49.4096 47.5581 44.6218 46.5692 36.8995C46.4571 35.9951 46.6572 35.0796 47.1362 34.3044C47.6153 33.5293 48.3447 32.9409 49.2037 32.6367L49.2222 32.6325L57.9858 31.7671L58.084 31.7947C58.9508 32.0357 59.7099 32.5645 60.2365 33.2941C60.7631 34.0236 61.0259 34.9106 60.9817 35.8093C60.7557 40.7355 60.3765 49.0791 60.3765 49.611C60.3765 49.7558 60.1751 49.8282 59.9996 49.8753C59.1464 50.1039 56.3547 50.2149 53.6572 50.2149Z" fill="#A13F30"/>
<path d="M13.1542 79.7174C11.9557 83.7209 13.8157 87.814 13.8157 87.814C13.8157 87.814 17.6189 85.4163 18.8174 81.4128C20.0159 77.4093 18.1558 73.3162 18.1558 73.3162C18.1558 73.3162 14.3527 75.7139 13.1542 79.7174Z" fill="#1B957A"/>
<path d="M14.9738 79.8257C15.9825 83.8811 13.9318 87.8822 13.9318 87.8822C13.9318 87.8822 10.2457 85.308 9.23702 81.2526C8.22833 77.1971 10.279 73.1961 10.279 73.1961C10.279 73.1961 13.9651 75.7702 14.9738 79.8257Z" fill="#0F655F"/>
<path d="M47.9028 23.8426C50.1296 25.055 52.6361 25.6606 55.1708 25.5987C56.1416 25.5735 57.2113 25.3969 57.8261 24.6451C58.5199 23.7969 58.3463 22.4715 57.6771 21.6038C57.0079 20.7361 55.9609 20.2469 54.9165 19.9151C53.9284 19.6012 52.8695 19.3991 51.8562 19.6185C51.3214 19.7343 50.8178 19.9639 50.3797 20.2917C49.9416 20.6195 49.5792 21.0378 49.3172 21.5182C49.0552 21.9985 48.8997 22.5297 48.8613 23.0755C48.8229 23.6213 48.9025 24.169 49.0946 24.6813" fill="#85A2FB"/>
<path d="M48.1712 21.7256C50.1984 21.7256 51.8418 20.0822 51.8418 18.0551C51.8418 16.0279 50.1984 14.3846 48.1712 14.3846C46.1441 14.3846 44.5007 16.0279 44.5007 18.0551C44.5007 20.0822 46.1441 21.7256 48.1712 21.7256Z" fill="#85A2FB"/>
<path d="M114.498 18.4621L100.09 10.0644L101.938 6.89323C101.991 6.8027 102.025 6.70266 102.039 6.59883C102.053 6.49499 102.047 6.3894 102.02 6.28807C101.993 6.18674 101.947 6.09167 101.884 6.00827C101.82 5.92488 101.741 5.8548 101.65 5.80203C101.56 5.74926 101.46 5.71484 101.356 5.70074C101.252 5.68663 101.147 5.69312 101.045 5.71982C100.944 5.74653 100.849 5.79293 100.765 5.85637C100.682 5.91982 100.612 5.99907 100.559 6.08961L98.7109 9.26078L84.3026 0.863115C84.0101 0.692613 83.6618 0.645305 83.3343 0.731598C83.0069 0.81789 82.7272 1.03071 82.5567 1.32325L71.3062 20.6262C71.1357 20.9187 71.0884 21.267 71.1747 21.5944C71.261 21.9219 71.4738 22.2016 71.7664 22.3721L86.1746 30.7698L73.5581 52.4166C73.5053 52.5072 73.4708 52.6072 73.4567 52.7111C73.4426 52.8149 73.449 52.9205 73.4757 53.0219C73.5024 53.1232 73.5488 53.2183 73.6123 53.3017C73.6757 53.3852 73.755 53.4553 73.8456 53.508C73.9361 53.5608 74.0362 53.5952 74.14 53.6093C74.2439 53.6234 74.3495 53.6169 74.4508 53.5902C74.5522 53.5634 74.6473 53.517 74.7307 53.4535C74.8141 53.39 74.8841 53.3107 74.9369 53.2202L87.5534 31.5733L101.962 39.971C102.107 40.0554 102.267 40.1105 102.433 40.1331C102.599 40.1556 102.768 40.1453 102.93 40.1025C103.092 40.0598 103.244 39.9856 103.378 39.884C103.511 39.7825 103.623 39.6557 103.708 39.5109L114.958 20.2079C115.042 20.0631 115.098 19.903 115.12 19.7369C115.143 19.5708 115.132 19.4018 115.09 19.2397C115.047 19.0776 114.973 18.9255 114.871 18.792C114.77 18.6586 114.643 18.5465 114.498 18.4621V18.4621Z" fill="#F9AF0B"/>
<path opacity="0.1" d="M94.5143 30.0889C94.9581 29.3274 92.9721 27.3429 90.0785 25.6564C87.1849 23.9699 84.4794 23.22 84.0355 23.9815C83.5917 24.743 85.5777 26.7275 88.4713 28.414C91.3649 30.1005 94.0705 30.8504 94.5143 30.0889Z" fill="black"/>
<path d="M93.1324 28.0772C97.363 28.0772 100.793 24.6476 100.793 20.417C100.793 16.1864 97.363 12.7568 93.1324 12.7568C88.9018 12.7568 85.4722 16.1864 85.4722 20.417C85.4722 24.6476 88.9018 28.0772 93.1324 28.0772Z" fill="#26867D"/>
<path d="M96.4649 24.2066C96.021 24.9681 92.8907 25.4484 90.6063 24.1169C88.3218 22.7855 87.7484 20.1465 88.1922 19.385C88.636 18.6235 89.9291 20.0279 92.2135 21.3593C94.4979 22.6908 96.9087 23.4452 96.4649 24.2066Z" fill="#F2F2F2"/>
<path d="M91.465 17.9011C92.3464 17.9011 93.0609 17.1866 93.0609 16.3052C93.0609 15.4238 92.3464 14.7093 91.465 14.7093C90.5836 14.7093 89.8691 15.4238 89.8691 16.3052C89.8691 17.1866 90.5836 17.9011 91.465 17.9011Z" fill="#F2F2F2"/>
<path d="M97.256 21.2762C98.1374 21.2762 98.8519 20.5617 98.8519 19.6804C98.8519 18.799 98.1374 18.0845 97.256 18.0845C96.3747 18.0845 95.6602 18.799 95.6602 19.6804C95.6602 20.5617 96.3747 21.2762 97.256 21.2762Z" fill="#F2F2F2"/>
</svg>
