<svg width="119" height="99" viewBox="0 0 119 99" fill="none" xmlns="http://www.w3.org/2000/svg">
<path d="M26.0191 76.8626C22.9414 75.2262 18.6015 74.6798 16.6824 77.8146C14.2216 81.8356 17.9494 86.9771 18.3645 91.1295C18.8385 95.8711 21.4412 96.3385 25.5269 96.5508C30.8302 96.8221 36.1364 97.0544 41.4407 97.2981C52.1272 97.8083 62.816 98.2558 73.507 98.6403C76.717 98.7555 79.947 98.8621 83.1217 98.3281C87.8434 97.5342 92.3727 95.3285 97.1477 95.2333C102.055 95.1305 106.744 97.2476 111.491 98.6327C112.233 98.8488 113.007 99.0487 113.756 98.8755C114.562 98.6879 115.237 98.093 115.833 97.4637C115.922 97.3685 116.011 97.2733 116.097 97.1781C120.111 92.7078 118.302 85.1684 112.876 83.2902C112.528 83.1705 112.19 83.0224 111.867 82.8475C110.885 82.3154 110.033 81.5234 109.261 80.6666C103.042 73.7555 101.939 62.9375 96.7907 55.0135C95.1867 52.5508 92.8173 50.2252 90.0881 50.4965C87.494 50.7488 85.593 53.2257 84.0337 55.5418C80.8285 60.3073 77.5671 65.4145 72.7122 67.9172C71.2243 68.6854 69.4755 69.1737 67.9524 68.4836C66.8957 68.0038 66.0971 67.0214 65.3898 66.0275C61.9161 61.146 59.6647 55.2163 55.6913 50.8297C54.4509 49.4598 53.0011 48.2318 51.3009 47.7739C49.6008 47.3161 47.6131 47.7844 46.5288 49.3075C45.7082 50.4622 45.515 52.0025 45.3513 53.4618C44.9045 57.453 44.4574 61.4417 44.01 65.4278C43.6539 68.6007 43.2827 71.8401 42.0175 74.7131C40.7524 77.5861 38.4106 80.0764 35.5548 80.4724C32.1677 80.9417 29.0967 78.499 26.0191 76.8626Z" fill="#93ADFF"/>
<path d="M58.1338 40.7558C58.1338 40.7558 57.1933 40.7097 56.7078 41.4219C56.7078 41.4219 57.1491 41.6973 57.9783 41.1597L58.1338 40.7558Z" fill="#1B957A"/>
<path d="M51.9184 40.6643C52.0997 40.6645 52.2805 40.6833 52.458 40.7203C56.4136 41.5444 58.0552 51.2149 58.0552 51.2149L59.1431 51.0231C59.1431 51.0231 58.7547 46.8173 59.2046 40.6397C59.6112 35.0815 53.2547 31.2852 51.9751 30.5784C51.8313 30.4999 51.752 30.4588 51.752 30.4588C46.5567 33.4799 51.9184 40.6643 51.9184 40.6643Z" fill="#A13F30"/>
<path opacity="0.2" d="M51.3777 30.6979C51.4954 30.6164 51.6177 30.5369 51.7491 30.4608C51.7491 30.4608 51.827 30.5021 51.9722 30.5803C53.2518 31.2872 59.6083 35.0835 59.2017 40.6417C58.7518 46.8192 59.1434 51.0231 59.1434 51.0231L58.5316 51.131C58.5316 51.131 58.1398 46.9257 58.5931 40.7476C58.9986 35.215 52.6986 31.4271 51.3777 30.6979Z" fill="white"/>
<path d="M33.8053 45.1197C36.3444 50.7702 37.4122 54.8549 37.4122 54.8549L38.5022 54.6627C38.5022 54.6627 36.6536 44.5794 40.4099 42.755C40.491 42.7142 40.5746 42.6785 40.6601 42.648C40.6601 42.648 43.2433 34.0627 37.3262 33.0025C37.3262 33.0025 37.2774 33.0542 37.1904 33.1536C36.306 34.1593 31.4963 39.9768 33.8053 45.1197Z" fill="#A13F30"/>
<path opacity="0.1" d="M51.9184 40.6643C52.0997 40.6645 52.2806 40.6833 52.4581 40.7203C52.5496 37.3328 52.3883 33.9432 51.9754 30.5798C51.8316 30.5013 51.7523 30.4602 51.7523 30.4602C46.5567 33.4799 51.9184 40.6643 51.9184 40.6643Z" fill="black"/>
<path opacity="0.1" d="M37.1887 33.1553C38.0011 36.4383 39.078 39.6502 40.4087 42.7595C40.4898 42.7187 40.5734 42.6829 40.6589 42.6525C40.6589 42.6525 43.2421 34.0672 37.325 33.0069C37.3266 33.0038 37.2778 33.0555 37.1887 33.1553Z" fill="black"/>
<path d="M41.2144 44.093C41.8649 45.539 42.5884 47.0125 43.3847 48.5138C43.3847 48.5138 46.2814 50.6315 51.7428 47.04C51.7428 47.04 52.0398 45.2711 52.1902 42.3265C52.5228 35.8518 52.1466 23.6912 46.3454 12.1553C44.6118 8.68557 42.4466 5.44883 39.9013 2.52203C39.9013 2.52203 37.4119 6.65608 36.3304 13.9191C35.249 21.1821 35.5783 31.5751 41.2144 44.093Z" fill="#E3E8F4"/>
<path d="M43.8165 27.631C41.1063 28.1089 38.5218 26.2992 38.0439 23.589C37.566 20.8788 39.3757 18.2943 42.0859 17.8164C44.7961 17.3385 47.3806 19.1482 47.8584 21.8584C48.3363 24.5686 46.5267 27.1531 43.8165 27.631Z" fill="#A13F30"/>
<path d="M39.4716 23.3401C39.5878 23.9991 39.8888 24.6116 40.3395 25.1063C40.7902 25.601 41.3721 25.9576 42.0175 26.1345C42.6628 26.3114 43.3452 26.3015 43.9852 26.1058C44.6251 25.9101 45.1964 25.5368 45.6325 25.0292C45.8451 24.7804 46.0226 24.5036 46.1599 24.2065C46.2216 24.0737 46.2749 23.9371 46.3195 23.7976C46.4926 23.2534 46.531 22.6752 46.4314 22.1129C46.4265 22.0848 46.4216 22.0574 46.4168 22.03C46.2677 21.2889 45.8852 20.615 45.3253 20.1072C44.7654 19.5993 44.0576 19.2841 43.3055 19.2077C43.0187 19.1806 42.7297 19.1874 42.4445 19.2281L42.3404 19.2465C41.8832 19.3268 41.4463 19.4965 41.0547 19.7457C40.663 19.9949 40.3244 20.3188 40.058 20.699C39.7916 21.0791 39.6027 21.508 39.502 21.9612C39.4014 22.4144 39.3911 22.8829 39.4716 23.3401Z" fill="#1B957A"/>
<path d="M36.3311 13.9189C42.3688 15.6029 46.3484 12.1526 46.3484 12.1526C44.6136 8.68363 42.4474 5.44778 39.9012 2.52199C39.9012 2.52199 37.4119 6.65603 36.3311 13.9189Z" fill="#A13F30"/>
<path d="M41.2143 44.093C41.6554 45.072 42.1292 46.0633 42.6358 47.067C42.8766 47.5459 43.1264 48.0274 43.385 48.5116C43.385 48.5116 46.2816 50.6293 51.7431 47.0378C51.7431 47.0378 51.8396 46.4635 51.953 45.4241C52.0365 44.6395 52.1278 43.5913 52.1926 42.324C52.1926 42.324 50.1577 43.6512 47.0344 44.2019C45.1061 44.5488 43.1283 44.5118 41.2143 44.093V44.093Z" fill="#A13F30"/>
<path d="M42.636 47.067C42.8767 47.5459 43.1265 48.0274 43.3851 48.5116C43.3851 48.5116 46.2818 50.6293 51.7432 47.0379C51.7432 47.0379 51.8397 46.4635 51.9531 45.4242C51.9538 45.4241 46.2348 48.2196 42.636 47.067Z" fill="#E3E8F4"/>
<path opacity="0.2" d="M43.3026 19.2033L43.3111 19.2075L46.4146 22.0255C46.4194 22.0529 46.4243 22.0803 46.4292 22.1084C46.5288 22.6707 46.4904 23.2489 46.3173 23.7931L42.4403 19.224L43.3026 19.2033Z" fill="white"/>
<path opacity="0.2" d="M43.015 22.2915L45.632 25.0265C45.8447 24.7777 46.0221 24.5009 46.1594 24.2038L43.2263 21.9915L43.015 22.2915Z" fill="white"/>
<path opacity="0.2" d="M50.4204 47.2718C50.4204 47.2718 50.7173 45.5022 50.8679 42.5583C51.2003 36.0829 50.8242 23.9224 45.0229 12.3865C43.4597 9.26395 41.5476 6.32873 39.3231 3.637C39.6722 2.90508 39.9036 2.5224 39.9036 2.5224C42.449 5.44818 44.6145 8.68392 46.3486 12.1527C52.1498 23.6886 52.526 35.8491 52.1935 42.3246C52.043 45.2685 51.7461 47.0381 51.7461 47.0381C49.5881 48.4563 47.831 48.9836 46.4945 49.1035C47.6043 48.8195 48.9144 48.2614 50.4204 47.2718Z" fill="white"/>
<g opacity="0.1">
<path opacity="0.1" d="M4.25733 33.1702C4.26193 33.1814 4.26715 33.1923 4.27296 33.2028C4.29619 33.247 4.32235 33.2896 4.35124 33.3303C4.32478 33.2742 4.29335 33.2207 4.25733 33.1702V33.1702Z" fill="black"/>
</g>
</svg>
