<svg width="104" height="63" viewBox="0 0 104 63" fill="none" xmlns="http://www.w3.org/2000/svg">
<path d="M4.30928 25.1899H0.869792C0.683267 25.1897 0.504442 25.1155 0.372549 24.9836C0.240656 24.8517 0.166467 24.6729 0.16626 24.4863V21.0468C0.166467 20.8603 0.240656 20.6815 0.372549 20.5496C0.504442 20.4177 0.683267 20.3435 0.869792 20.3433H4.30928C4.49581 20.3435 4.67463 20.4177 4.80653 20.5496C4.93842 20.6815 5.01261 20.8603 5.01282 21.0468V24.4863C5.01261 24.6729 4.93842 24.8517 4.80653 24.9836C4.67463 25.1155 4.49581 25.1897 4.30928 25.1899Z" fill="#93ADFF"/>
<path d="M4.30928 34.1013H0.869792C0.683267 34.1011 0.504442 34.0269 0.372549 33.895C0.240656 33.7631 0.166467 33.5843 0.16626 33.3978V29.9583C0.166467 29.7717 0.240656 29.5929 0.372549 29.461C0.504442 29.3291 0.683267 29.2549 0.869792 29.2547H4.30928C4.49581 29.2549 4.67463 29.3291 4.80653 29.461C4.93842 29.5929 5.01261 29.7717 5.01282 29.9583V33.3978C5.01261 33.5843 4.93842 33.7631 4.80653 33.895C4.67463 34.0269 4.49581 34.1011 4.30928 34.1013V34.1013Z" fill="#A13F30"/>
<path d="M4.30928 43.0127H0.869792C0.683267 43.0125 0.504442 42.9383 0.372549 42.8064C0.240656 42.6745 0.166467 42.4957 0.16626 42.3092V38.8697C0.166467 38.6832 0.240656 38.5043 0.372549 38.3724C0.504442 38.2405 0.683267 38.1664 0.869792 38.1662H4.30928C4.49581 38.1664 4.67463 38.2405 4.80653 38.3724C4.93842 38.5043 5.01261 38.6832 5.01282 38.8697V42.3092C5.01261 42.4957 4.93842 42.6745 4.80653 42.8064C4.67463 42.9383 4.49581 43.0125 4.30928 43.0127Z" fill="#CCCCCC"/>
<path d="M26.8225 23.4701H10.2504C10.0638 23.4701 9.88487 23.396 9.75294 23.2641C9.621 23.1321 9.54688 22.9532 9.54688 22.7666C9.54688 22.58 9.621 22.4011 9.75294 22.2691C9.88487 22.1372 10.0638 22.0631 10.2504 22.0631H26.8225C27.0091 22.0631 27.188 22.1372 27.32 22.2691C27.4519 22.4011 27.526 22.58 27.526 22.7666C27.526 22.9532 27.4519 23.1321 27.32 23.2641C27.188 23.396 27.0091 23.4701 26.8225 23.4701V23.4701Z" fill="#CCCCCC"/>
<path d="M26.8225 32.3816H10.2504C10.0638 32.3816 9.88487 32.3074 9.75294 32.1755C9.621 32.0436 9.54688 31.8646 9.54688 31.678C9.54688 31.4914 9.621 31.3125 9.75294 31.1805C9.88487 31.0486 10.0638 30.9745 10.2504 30.9745H26.8225C27.0091 30.9745 27.188 31.0486 27.32 31.1805C27.4519 31.3125 27.526 31.4914 27.526 31.678C27.526 31.8646 27.4519 32.0436 27.32 32.1755C27.188 32.3074 27.0091 32.3816 26.8225 32.3816V32.3816Z" fill="#CCCCCC"/>
<path d="M26.8225 41.293H10.2504C10.0638 41.293 9.88487 41.2189 9.75294 41.0869C9.621 40.955 9.54688 40.776 9.54688 40.5894C9.54688 40.4029 9.621 40.2239 9.75294 40.092C9.88487 39.96 10.0638 39.8859 10.2504 39.8859H26.8225C27.0091 39.8859 27.188 39.96 27.32 40.092C27.4519 40.2239 27.526 40.4029 27.526 40.5894C27.526 40.776 27.4519 40.955 27.32 41.0869C27.188 41.2189 27.0091 41.293 26.8225 41.293V41.293Z" fill="#CCCCCC"/>
<path d="M83.6943 22.074C83.771 22.1091 83.8447 22.1502 83.9148 22.1971L90.9271 19.2042L91.1774 17.357L93.9792 17.3399L93.8137 21.5764L84.5584 24.0241C84.5389 24.0884 84.5155 24.1515 84.4884 24.213C84.3546 24.4985 84.1394 24.7381 83.8698 24.9018C83.6003 25.0654 83.2884 25.1457 82.9733 25.1327C82.6583 25.1197 82.3541 25.0138 82.099 24.8285C81.8439 24.6431 81.6492 24.3865 81.5395 24.0909C81.4297 23.7953 81.4098 23.4738 81.4821 23.1669C81.5545 22.86 81.7159 22.5813 81.9461 22.3658C82.1763 22.1503 82.4651 22.0077 82.7761 21.9557C83.0871 21.9038 83.4066 21.945 83.6943 22.074V22.074Z" fill="#FFB8B8"/>
<path d="M94.9982 60.465L93.0815 60.4648L92.1697 53.0718L94.9985 53.0719L94.9982 60.465Z" fill="#FFB8B8"/>
<path d="M91.7124 59.9172H95.4089V62.2446H89.385C89.385 61.939 89.4452 61.6363 89.5622 61.3539C89.6791 61.0716 89.8506 60.815 90.0667 60.5989C90.2828 60.3828 90.5394 60.2113 90.8218 60.0944C91.1041 59.9774 91.4068 59.9172 91.7124 59.9172V59.9172Z" fill="#1B957A"/>
<path d="M102.452 59.9233L100.545 60.1112L98.9126 52.8432L101.728 52.5659L102.452 59.9233Z" fill="#FFB8B8"/>
<path d="M99.129 59.7004L102.808 59.338L103.036 61.6543L97.0409 62.2447C97.0109 61.9406 97.0412 61.6335 97.1299 61.341C97.2186 61.0485 97.3641 60.7764 97.558 60.5401C97.7519 60.3038 97.9904 60.1081 98.26 59.964C98.5295 59.8199 98.8248 59.7303 99.129 59.7004V59.7004Z" fill="#1B957A"/>
<path d="M95.5318 9.51563C97.6525 9.51563 99.3717 7.79646 99.3717 5.67575C99.3717 3.55504 97.6525 1.83586 95.5318 1.83586C93.4111 1.83586 91.6919 3.55504 91.6919 5.67575C91.6919 7.79646 93.4111 9.51563 95.5318 9.51563Z" fill="#FFB8B8"/>
<path d="M92.6531 58.9698C92.4884 58.9703 92.3288 58.9125 92.2026 58.8067C92.0763 58.701 91.9914 58.554 91.9629 58.3918C90.9708 52.8846 87.728 34.8774 87.6504 34.3786C87.6487 34.3671 87.6479 34.3555 87.648 34.3439V33.0013C87.6478 32.9524 87.6631 32.9047 87.6916 32.8649L88.12 32.2649C88.1404 32.236 88.1671 32.2122 88.1981 32.1953C88.2291 32.1783 88.2635 32.1687 88.2988 32.1672C90.7412 32.0527 98.7399 31.7171 99.1263 32.1999C99.5144 32.6851 99.3773 34.1552 99.3459 34.445L99.3474 34.4752L102.941 57.4565C102.969 57.6398 102.924 57.8268 102.815 57.977C102.706 58.1272 102.543 58.2286 102.36 58.2593L100.116 58.6291C99.9485 58.6559 99.7772 58.6219 99.6331 58.5331C99.4889 58.4444 99.3813 58.3069 99.33 58.1455C98.6358 55.9273 96.3081 48.4652 95.5013 45.5778C95.4963 45.5595 95.4847 45.5437 95.4689 45.5333C95.453 45.5229 95.4339 45.5186 95.4151 45.5213C95.3964 45.5239 95.3792 45.5333 95.3668 45.5477C95.3545 45.5621 95.3478 45.5805 95.348 45.5995C95.3883 48.3519 95.4857 55.3744 95.5193 57.7999L95.523 58.0611C95.5245 58.2379 95.4596 58.4089 95.3411 58.5402C95.2226 58.6715 95.0592 58.7536 94.8831 58.7703L92.7188 58.9669C92.6968 58.9689 92.6748 58.9698 92.6531 58.9698Z" fill="#1B957A"/>
<path d="M93.0947 11.0255C92.4246 11.4239 92.0236 12.1559 91.7935 12.9008C91.3675 14.2799 91.1111 15.7058 91.0299 17.147L90.7867 21.462L87.7764 32.9014C90.3855 35.109 91.8905 34.6073 95.4027 32.8015C98.9149 30.9958 99.3163 33.4036 99.3163 33.4036L100.019 23.6701L101.022 13.0339C100.797 12.7627 100.542 12.5176 100.262 12.3032C99.3345 11.5819 98.2554 11.0806 97.106 10.837C95.9566 10.5934 94.7669 10.6139 93.6266 10.8968L93.0947 11.0255Z" fill="#B3B3B3"/>
<path d="M92.1171 24.3843C92.1981 24.4148 92.2765 24.4516 92.3517 24.4943L99.2852 21.024L99.4002 19.144L102.26 18.9468L102.414 23.2325L93.1479 26.2966C93.0723 26.6211 92.8996 26.9149 92.6529 27.1389C92.4062 27.3629 92.0972 27.5065 91.7669 27.5506C91.4366 27.5946 91.1008 27.5371 90.804 27.3856C90.5072 27.2342 90.2635 26.996 90.1054 26.7026C89.9473 26.4093 89.8823 26.0748 89.9189 25.7437C89.9555 25.4125 90.0921 25.1003 90.3105 24.8486C90.5289 24.5969 90.8187 24.4177 91.1414 24.3348C91.4641 24.2518 91.8045 24.2691 92.1171 24.3843H92.1171Z" fill="#FFB8B8"/>
<path d="M100.972 13.0826C102.678 13.6847 102.979 20.2076 102.979 20.2076C100.972 19.1038 98.5632 20.9101 98.5632 20.9101C98.5632 20.9101 98.0615 19.2042 97.4594 16.9965C97.2776 16.3756 97.2559 15.7187 97.3962 15.0871C97.5366 14.4555 97.8345 13.8696 98.2621 13.3841C98.2621 13.3841 99.2662 12.4801 100.972 13.0826Z" fill="#B3B3B3"/>
<path d="M98.9748 6.69128C98.4964 6.3085 97.8436 7.00423 97.8436 7.00423L97.4609 3.5595C97.4609 3.5595 95.0687 3.84606 93.5377 3.46388C92.0068 3.0817 91.7676 4.85143 91.7676 4.85143C91.6886 4.13656 91.6726 3.41614 91.7197 2.69847C91.8154 1.83729 93.0593 0.97611 95.2601 0.401938C97.4609 -0.172234 98.6091 2.3157 98.6091 2.3157C100.14 3.0811 99.4532 7.07406 98.9748 6.69128Z" fill="#5777DE"/>
<path d="M84.4732 31.9906C84.4979 31.5768 84.5119 31.16 84.5119 30.7399C84.5119 25.2667 82.3377 20.0176 78.4675 16.1474C74.5973 12.2772 69.3483 10.103 63.875 10.103V31.9906H84.4732Z" fill="#93ADFF"/>
<path d="M62.3116 33.8668V11.9791C58.2833 11.979 54.3429 13.1578 50.9765 15.3703C47.6101 17.5827 44.9648 20.7321 43.3669 24.4299C41.769 28.1278 41.2882 32.2125 41.984 36.1803C42.6797 40.1482 44.5215 43.8256 47.2823 46.7592C50.043 49.6928 53.602 51.7542 57.5203 52.6893C61.4387 53.6244 65.545 53.3923 69.333 52.0216C73.1209 50.6508 76.4249 48.2014 78.8375 44.9754C81.25 41.7493 82.6657 37.8878 82.9098 33.8668H62.3116Z" fill="#A13F30"/>
</svg>
