<svg width="118" height="71" viewBox="0 0 118 71" fill="none" xmlns="http://www.w3.org/2000/svg">
<path d="M9.40905 70.8306C9.40905 70.8306 -3.93605 54.2168 8.12441 41.2361C22.7795 25.4621 7.10676 16.4631 18.5476 5.93654C27.9073 -2.67519 39.0841 -1.11829 60.6013 6.3515C77.2391 12.127 83.8201 -3.48591 100.635 4.48409C111.626 9.69395 103.597 25.6786 109.894 36.2015C117.225 48.454 117.225 64.3706 107.791 70.8306H9.40905Z" fill="#1B957A"/>
<path d="M94.9944 42.5812C94.9944 42.5812 93.6589 41.0228 94.9122 40.033C94.9122 40.033 95.8276 39.4787 96.5744 39.5237C96.5744 39.5237 95.5162 41.2973 95.8589 41.4736C96.201 41.6503 96.8949 39.4124 96.8949 39.4124C96.8949 39.4124 98.9785 39.2102 99.6487 39.5326C99.6487 39.5326 97.8674 40.9898 98.2429 41.0765C98.6177 41.1633 100.541 39.7329 100.541 39.7329C100.541 39.7329 102.481 40.0631 102.377 41.2458C102.274 42.4285 101.606 42.7941 101.312 42.7625C101.018 42.731 99.3004 42.0751 99.2635 42.3159C99.2259 42.5566 100.26 43.3427 100.984 43.3798C100.984 43.3798 99.6167 44.8872 98.7082 44.4522C97.7991 44.0171 97.7218 43.3274 97.1554 43.0686C96.589 42.8098 96.1063 42.8107 96.3396 43.0747C96.5737 43.3381 97.5985 43.5946 97.9224 44.1679C98.2457 44.7406 98.5369 45.127 97.5964 44.9856C96.6573 44.8441 95.1289 44.1563 95.062 43.3687C94.9944 42.5812 94.9944 42.5812 94.9944 42.5812" fill="#C8DBF4"/>
<path d="M101.424 41.2778C101.424 41.2778 96.1578 41.0747 94.9949 42.5812C94.9949 42.5812 94.7374 43.3516 93.9458 44.0529L93.8223 44.3891C93.8223 44.3891 94.7347 43.4267 95.0618 43.3687C95.0618 43.3687 94.5511 41.5028 101.424 41.2778Z" fill="#C8DBF4"/>
<path d="M93.9455 44.0528C93.9455 44.0528 92.8148 44.8886 92.7363 46.3826L92.9419 46.4011C92.9419 46.4011 93.303 44.8566 93.9552 44.2523C94.6081 43.6484 93.9455 44.0528 93.9455 44.0528" fill="#C8DBF4"/>
<path d="M90.3247 40.6212C90.3247 40.6212 92.4491 39.4315 91.4577 37.8165C91.4577 37.8165 90.6644 36.8249 89.814 36.5698C89.814 36.5698 90.2675 38.9779 89.814 39.035C89.3612 39.0916 89.5022 36.3152 89.5022 36.3152C89.5022 36.3152 87.2647 35.2384 86.3864 35.3234C86.3864 35.3234 87.7741 37.6746 87.3212 37.6181C86.8678 37.5615 85.3099 35.1817 85.3099 35.1817C85.3099 35.1817 83.0146 34.7567 82.6462 36.1167C82.2779 37.4766 82.873 38.1565 83.2134 38.2414C83.5532 38.3263 85.7348 38.2979 85.6776 38.5814C85.6211 38.8648 84.1476 39.3179 83.3264 39.0632C83.3264 39.0632 84.2334 41.3012 85.4229 41.188C86.6131 41.0744 86.9815 40.3378 87.7176 40.2812C88.4543 40.2247 88.9929 40.4231 88.6245 40.6212C88.2561 40.8197 87.0094 40.6861 86.4143 41.1921C85.8192 41.6977 85.3378 42.0094 86.4429 42.2362C87.5473 42.463 89.5308 42.3211 89.9277 41.4714C90.3247 40.6212 90.3247 40.6212 90.3247 40.6212" fill="#C8DBF4"/>
<path d="M83.6946 36.5414C83.6946 36.5414 89.6443 38.4681 90.3242 40.6212C90.3242 40.6212 90.296 41.5845 90.8905 42.6893V43.1146C90.8905 43.1146 90.2677 41.6693 89.9281 41.4713C89.9281 41.4713 91.259 39.6012 83.6946 36.5414" fill="#C8DBF4"/>
<path d="M90.8903 42.6893C90.8903 42.6893 91.808 44.0826 91.2854 45.7788L91.0493 45.7152C91.0493 45.7152 91.2784 43.8474 90.7981 42.9078C90.3184 41.9681 90.8903 42.6893 90.8903 42.6893" fill="#C8DBF4"/>
<path d="M93.7041 38.9804C93.7041 38.9804 90.903 37.4118 92.2105 35.2832C92.2105 35.2832 93.256 33.9761 94.3766 33.64C94.3766 33.64 93.7791 36.8144 94.3766 36.8891C94.974 36.9638 94.7871 33.3039 94.7871 33.3039C94.7871 33.3039 97.7376 31.8848 98.8949 31.9968C98.8949 31.9968 97.0658 35.0965 97.6625 35.0218C98.26 34.947 100.314 31.81 100.314 31.81C100.314 31.81 103.34 31.2499 103.825 33.0424C104.31 34.835 103.527 35.7314 103.078 35.8431C102.63 35.9554 99.7543 35.9178 99.8286 36.2917C99.9036 36.665 101.845 37.2624 102.928 36.9262C102.928 36.9262 101.734 39.8765 100.165 39.7271C98.5962 39.5778 98.1106 38.607 97.1401 38.5323C96.1689 38.4577 95.4596 38.7188 95.9452 38.9804C96.4308 39.242 98.0738 39.0662 98.8581 39.7327C99.6424 40.3996 100.277 40.8101 98.8206 41.1093C97.3638 41.4079 94.7503 41.2211 94.2272 40.101C93.7041 38.9804 93.7041 38.9804 93.7041 38.9804" fill="#D4E4F8"/>
<path d="M102.444 33.6023C102.444 33.6023 94.6011 36.142 93.7048 38.9801C93.7048 38.9801 93.7424 40.2501 92.9583 41.7064V42.2667C92.9583 42.2667 93.7793 40.3618 94.2278 40.1007C94.2278 40.1007 92.4721 37.6355 102.444 33.6023Z" fill="#D4E4F8"/>
<path d="M92.9577 41.7065C92.9577 41.7065 91.7485 43.5432 92.4376 45.7788L92.7488 45.6953C92.7488 45.6953 92.4466 43.2329 93.0798 41.9941C93.7124 40.7557 92.9577 41.7065 92.9577 41.7065" fill="#D4E4F8"/>
<path d="M93.6104 50.6271C96.6404 50.6271 99.0966 48.1707 99.0966 45.1406H88.1235C88.1235 48.1707 90.5797 50.6271 93.6104 50.6271Z" fill="#D4E4F8"/>
<path d="M99.1723 50.9062H88.0476C88.0476 50.5324 88.3506 50.2291 88.7246 50.2291H98.4959C98.8692 50.2291 99.1723 50.5324 99.1723 50.9062Z" fill="#D4E4F8"/>
<path d="M99.2213 45.3085H87.9429V45.1402H99.2213V45.3085Z" fill="#9FC1F4"/>
<path d="M14.0436 70.6859H33.3136L30.2903 46.0626H11.0203L14.0436 70.6859" fill="#A4C4E0"/>
<path d="M14.878 70.6859H34.1481L31.1248 46.0626H11.8547L14.878 70.6859" fill="#C8DBF4"/>
<path d="M15.8521 69.4113H32.8615L30.1381 47.2305H13.1287L15.8521 69.4113" fill="#D4E4F8"/>
<path d="M14.2617 58.997H31.8783L31.7258 57.7549H14.1091L14.2617 58.997Z" fill="#C8DBF4"/>
<path d="M31.5755 49.7319L31.125 46.0627H27.4558L31.5755 49.7319Z" fill="#B7CFEA"/>
<path d="M12.3053 49.7319L11.8547 46.0627H15.5239L12.3053 49.7319Z" fill="#B7CFEA"/>
<path d="M30.4797 70.6892H34.1489L33.6984 67.02L30.4797 70.6892Z" fill="#B7CFEA"/>
<path d="M18.5477 70.6892H14.8785L14.428 67.02L18.5477 70.6892Z" fill="#B7CFEA"/>
<path d="M23.0323 70.6869H36.7778L34.6211 53.1233H20.8757L23.0323 70.6869Z" fill="#A4C4E0"/>
<path d="M23.6277 70.6869H37.3729L35.2165 53.1233H21.4712L23.6277 70.6869" fill="#C8DBF4"/>
<path d="M24.3223 69.7778H36.455L34.5125 53.9562H22.3796L24.3223 69.7778Z" fill="#D4E4F8"/>
<path d="M23.1879 62.3493H35.7536L35.6451 61.463H23.0791L23.1879 62.3493Z" fill="#C8DBF4"/>
<path d="M35.5379 55.7405L35.2164 53.1232H32.5991L35.5379 55.7405Z" fill="#B7CFEA"/>
<path d="M21.7925 55.7405L21.4712 53.1232H24.0884L21.7925 55.7405Z" fill="#B7CFEA"/>
<path d="M34.7559 70.6892H37.3731L37.0517 68.0719L34.7559 70.6892Z" fill="#B7CFEA"/>
<path d="M26.2453 70.6892H23.628L23.3066 68.0719L26.2453 70.6892Z" fill="#B7CFEA"/>
<path d="M31.7864 17.5188H23.7195C23.3492 17.5188 23.0461 17.2159 23.0461 16.8458V9.05978C23.0461 8.68919 23.3492 8.38632 23.7195 8.38632H31.7864C32.1567 8.38632 32.4598 8.68919 32.4598 9.05978V16.8458C32.4598 17.2159 32.1567 17.5188 31.7864 17.5188Z" fill="#C0D8FB"/>
<path d="M31.4369 17.1232H24.0689C23.7306 17.1232 23.4539 16.8468 23.4539 16.5082V9.39702C23.4539 9.0589 23.7306 8.782 24.0689 8.782H31.4369C31.7751 8.782 32.0518 9.0589 32.0518 9.39702V16.5082C32.0518 16.8468 31.7751 17.1232 31.4369 17.1232" fill="#DFEBFD"/>
<path d="M27.5581 9.61596C27.5581 9.50862 27.6452 9.42164 27.7526 9.42164C27.86 9.42164 27.9471 9.50862 27.9471 9.61596C27.9471 9.72329 27.86 9.81027 27.7526 9.81027C27.6452 9.81027 27.5581 9.72329 27.5581 9.61596Z" fill="#B7D3F3"/>
<path d="M29.1312 9.89162C29.1834 9.7977 29.3018 9.76393 29.3957 9.81621C29.4896 9.86849 29.5234 9.98693 29.4712 10.0808C29.4191 10.1748 29.3007 10.2085 29.2067 10.1563C29.1129 10.104 29.079 9.98554 29.1312 9.89162Z" fill="#B7D3F3"/>
<path d="M30.479 10.9627C30.5693 10.9049 30.6896 10.9308 30.7479 11.021C30.8061 11.1113 30.7801 11.2315 30.6899 11.2898C30.5996 11.3481 30.4792 11.3222 30.421 11.2315C30.3627 11.1413 30.3887 11.021 30.479 10.9627Z" fill="#B7D3F3"/>
<path d="M31.1467 12.6205C31.2541 12.6205 31.3412 12.7075 31.3412 12.8153C31.3412 12.9226 31.2541 13.0096 31.1467 13.0096C31.0393 13.0096 30.9521 12.9226 30.9521 12.8153C30.9521 12.7075 31.0393 12.6205 31.1467 12.6205Z" fill="#B7D3F3"/>
<path d="M30.8054 14.5442C30.8814 14.6201 30.8814 14.7432 30.8054 14.8191C30.7295 14.8954 30.6063 14.8954 30.5303 14.8191C30.4544 14.7432 30.4544 14.6201 30.5303 14.5442C30.6063 14.4684 30.7295 14.4684 30.8054 14.5442Z" fill="#B7D3F3"/>
<path d="M29.5808 15.7719C29.6568 15.8478 29.6568 15.9709 29.5808 16.0467C29.5048 16.1226 29.3817 16.1226 29.3058 16.0467C29.2298 15.9709 29.2298 15.8478 29.3058 15.7719C29.3817 15.6961 29.5048 15.6961 29.5808 15.7719Z" fill="#B7D3F3"/>
<path d="M27.5581 16.4042C27.5581 16.2969 27.6452 16.2099 27.7526 16.2099C27.86 16.2099 27.9471 16.2969 27.9471 16.4042C27.9471 16.5116 27.86 16.599 27.7526 16.599C27.6452 16.599 27.5581 16.5116 27.5581 16.4042Z" fill="#B7D3F3"/>
<path d="M26.3675 9.89162C26.3153 9.7977 26.1969 9.76393 26.103 9.81621C26.0091 9.86849 25.9753 9.98693 26.0275 10.0808C26.0796 10.1748 26.198 10.2085 26.292 10.1563C26.3859 10.104 26.4197 9.98554 26.3675 9.89162Z" fill="#B7D3F3"/>
<path d="M25.0194 10.9627C24.9292 10.9049 24.8088 10.9308 24.7505 11.021C24.6923 11.1113 24.7183 11.2315 24.8086 11.2898C24.8988 11.3481 25.0193 11.3222 25.0775 11.2315C25.1357 11.1413 25.1098 11.021 25.0194 10.9627Z" fill="#B7D3F3"/>
<path d="M24.352 12.6205C24.2445 12.6205 24.1575 12.7075 24.1575 12.8153C24.1575 12.9226 24.2445 13.0096 24.352 13.0096C24.4594 13.0096 24.5465 12.9226 24.5465 12.8153C24.5465 12.7075 24.4594 12.6205 24.352 12.6205Z" fill="#B7D3F3"/>
<path d="M24.6935 14.5442C24.6175 14.6201 24.6175 14.7432 24.6935 14.8191C24.7694 14.8954 24.8926 14.8954 24.9685 14.8191C25.0445 14.7432 25.0445 14.6201 24.9685 14.5442C24.8926 14.4684 24.7694 14.4684 24.6935 14.5442Z" fill="#B7D3F3"/>
<path d="M25.9178 15.7719C25.8418 15.8478 25.8418 15.9709 25.9178 16.0467C25.9938 16.1226 26.1169 16.1226 26.1929 16.0467C26.2688 15.9709 26.2688 15.8478 26.1929 15.7719C26.1169 15.6961 25.9938 15.6961 25.9178 15.7719Z" fill="#B7D3F3"/>
<path d="M27.7004 12.8153C27.7004 12.7075 27.7875 12.6205 27.8949 12.6205C28.0024 12.6205 28.0894 12.7075 28.0894 12.8153C28.0894 12.9226 28.0024 13.0096 27.8949 13.0096C27.7875 13.0096 27.7004 12.9226 27.7004 12.8153Z" fill="#B7D3F3"/>
<path d="M27.9219 12.8148H27.8687V10.3784H27.9219V12.8148Z" fill="#B7D3F3"/>
<path d="M27.9199 12.8742L27.8215 12.7488L29.1098 11.7374L29.2082 11.8628L27.9199 12.8742" fill="#B7D3F3"/>
<path d="M86.1045 51.2203V51.7138C86.1045 51.8867 86.1604 52.0277 86.2284 52.0277H104.244C104.312 52.0277 104.368 51.8867 104.368 51.7138V51.2203C104.368 51.0477 104.312 50.9062 104.244 50.9062H86.2284C86.1604 50.9062 86.1045 51.0477 86.1045 51.2203Z" fill="#9ABFE2"/>
<path d="M86.1047 51.2202V51.7136C86.1047 51.8867 86.1561 52.0277 86.2185 52.0277H100.521C100.584 52.0277 100.635 51.8867 100.635 51.7136V51.2202C100.635 51.0476 100.584 50.9062 100.521 50.9062H86.2185C86.1561 50.9062 86.1047 51.0476 86.1047 51.2202Z" fill="#BAD4F4"/>
<path d="M90.6646 70.6697H103.454V52.0277H90.6646V70.6697Z" fill="#C8DBF4"/>
<path d="M87.0803 70.6697H99.8701V52.0277H87.0803V70.6697Z" fill="#DFEBFD"/>
<path d="M99.0599 52.6778H87.8909V69.5175H99.0599V52.6778ZM87.7671 52.5545H99.183V69.6404H87.7671V52.5545Z" fill="#B7D3F3"/>
<path d="M87.8284 58.33H99.1209V58.2066H87.8284V58.33Z" fill="#B7D3F3"/>
<path d="M87.8284 64.0924H99.1209V63.969H87.8284V64.0924Z" fill="#B7D3F3"/>
<path d="M92.3177 53.6566H94.413C94.5148 53.6566 94.5978 53.5731 94.5978 53.4716C94.5978 53.37 94.5148 53.2865 94.413 53.2865H92.3177C92.216 53.2865 92.1323 53.37 92.1323 53.4716C92.1323 53.5731 92.216 53.6566 92.3177 53.6566Z" fill="#B7D3F3"/>
<path d="M92.3177 59.2915H94.413C94.5148 59.2915 94.5978 59.2085 94.5978 59.1064C94.5978 59.0048 94.5148 58.9219 94.413 58.9219H92.3177C92.216 58.9219 92.1323 59.0048 92.1323 59.1064C92.1323 59.2085 92.216 59.2915 92.3177 59.2915Z" fill="#B7D3F3"/>
<path d="M92.3177 65.1657H94.413C94.5148 65.1657 94.5978 65.0822 94.5978 64.9807C94.5978 64.8791 94.5148 64.796 94.413 64.796H92.3177C92.216 64.796 92.1323 64.8791 92.1323 64.9807C92.1323 65.0822 92.216 65.1657 92.3177 65.1657Z" fill="#B7D3F3"/>
<path d="M99.6523 48.9071L99.2264 48.9753L98.4187 43.948L98.8453 43.8798L99.6523 48.9071" fill="#9ABFE2"/>
<path d="M98.4886 43.0311L98.418 43.9481L98.8438 43.8801L98.4886 43.0311Z" fill="#B7CFEA"/>
<path d="M100.851 48.9685L100.426 48.8897L101.353 43.8833L101.778 43.9621L100.851 48.9685" fill="#9ABFE2"/>
<path d="M101.728 43.0438L101.353 43.8835L101.777 43.9622L101.728 43.0438" fill="#B7CFEA"/>
<path d="M102.349 48.2197L101.924 48.1409L102.852 43.1346L103.276 43.2134L102.349 48.2197" fill="#87A6D8"/>
<path d="M103.227 42.2945L102.852 43.1347L103.275 43.2134L103.227 42.2945" fill="#B7CFEA"/>
<path d="M103.42 50.9061H100.018V46.0022H103.42V50.9061Z" fill="#91B2E2"/>
<path d="M101.719 50.9063H98.3162V46.0024H101.719V50.9063Z" fill="#B7CFEA"/>
<path d="M53.1191 29.9888C53.1191 29.9888 54.2276 29.3432 54.8379 29.5649C55.4488 29.787 56.4752 30.5083 56.0313 30.8134C55.5875 31.1186 55.0453 30.8348 54.8658 30.8134C54.6863 30.7921 54.3463 31.5481 53.3018 31.3055C52.2578 31.063 53.1191 29.9888 53.1191 29.9888" fill="#FFB27D"/>
<path d="M44.7386 14.9098C44.7386 14.9098 42.811 13.4033 40.7299 13.9952C40.7299 13.9952 39.9214 12.7415 38.4827 13.4149C36.4665 14.3583 37.9094 16.4738 38.9456 16.0299C38.9456 16.0299 38.9173 16.5573 38.3997 17.63C37.8816 18.7028 38.9525 20.9764 41.113 20.2237C43.2734 19.4705 45.1356 18.6254 45.1356 18.6254C45.1356 18.6254 46.8526 16.1227 44.7386 14.9098" fill="#163560"/>
<path d="M44.593 30.5732C44.593 30.5732 44.9103 31.2022 45.4863 31.9243C46.1806 32.794 47.2507 33.7981 48.5943 33.9962C49.2362 34.0908 49.8642 33.953 50.4407 33.6965C50.4426 33.6961 50.4431 33.6961 50.4431 33.6961C52.0752 32.9716 53.302 31.3056 53.302 31.3056C53.59 30.5208 53.1193 29.9888 53.1193 29.9888C53.1193 29.9888 49.8239 30.73 49.5099 30.5732C49.1959 30.4165 47.3513 25.9681 46.9854 25.2645C46.2641 23.8772 45.0077 23.4723 45.0077 23.4723L44.593 30.5732" fill="#739AF0"/>
<path d="M45.4863 31.9243C46.0851 33.0746 47.2506 33.7981 48.5943 33.9962C49.2362 34.0908 49.8642 33.953 50.4407 33.6965C50.3772 33.7049 48.7473 33.9062 48.0975 32.7439C47.4348 31.5584 46.7182 29.6753 45.734 30.3028C45.3091 30.5737 45.3277 31.2472 45.4863 31.9243" fill="#5D81DB"/>
<path d="M32.2984 66.1457C32.2984 66.1457 31.2928 67.0631 31.489 67.7152C31.6852 68.3673 32.5927 68.8019 32.7153 69.5987C32.8379 70.3956 33.3284 70.8306 33.7699 70.8306C34.2113 70.8306 35.8748 70.8306 35.8748 70.8306C35.8748 70.8306 36.1994 70.2699 35.4147 70.1006C34.6299 69.9317 34.334 68.9953 34.383 68.1257C34.4321 67.2565 34.3094 66.097 34.3094 66.097L32.6417 65.7106L32.2984 66.1457" fill="#294A7F"/>
<path d="M40.8092 66.6285C40.8092 66.6285 40.4474 70.5162 40.889 70.7337L46.5387 70.7221C46.5387 70.7221 46.5387 70.07 45.6314 69.9253C44.7238 69.7801 43.1297 69.2491 42.8597 68.0654C42.5902 66.8822 40.8092 66.6285 40.8092 66.6285" fill="#294A7F"/>
<path d="M45.5522 35.3634L40.9146 35.0564L38.301 34.8825C38.301 34.8825 38.0069 33.0268 37.8757 32.1826C37.7273 31.229 37.5436 30.5616 37.4221 29.941C37.3618 29.6335 37.3163 29.3376 37.2973 29.0245C37.2129 27.6002 36.4634 27.9513 36.4634 27.9513L38.8293 23.2496C42.3338 22.4162 45.0077 23.4727 45.0077 23.4727C45.0077 23.4727 45.9265 25.1067 46.5281 27.4606C47.1301 29.8144 45.5522 35.3634 45.5522 35.3634" fill="#739AF0"/>
<path d="M41.6352 34.914L38.3008 34.8825C38.3008 34.8825 38.0068 33.0267 37.8755 32.1826C37.7271 31.229 37.5434 30.5616 37.4219 29.941L37.4182 29.8237C37.4182 29.8237 38.2837 28.5992 38.7637 28.749C39.2442 28.8988 38.3788 31.1465 39.1028 31.9512C39.6273 32.5337 41.4742 33.0332 41.6352 34.914" fill="#5D81DB"/>
<path d="M45.4228 34.6311C45.4228 34.6311 47.0512 39.701 47.156 41.4273C47.2609 43.1536 44.0425 65.949 43.9131 66.7444C43.7911 67.4939 42.8598 67.9721 42.8598 67.9721C42.8598 67.9721 42.4317 68.2244 41.8208 68.0519C40.9725 67.8126 40.7049 67.5259 40.7049 67.5259C40.7049 67.5259 39.4368 51.2684 40.2216 45.4606C41.0059 39.6532 41.0152 34.6311 41.0152 34.6311H45.4228" fill="#ED7D2B"/>
<path d="M38.5212 34.4799C38.5212 34.4799 36.0365 37.8138 35.8051 40.067C35.5736 42.3206 35.4419 50.2365 34.9482 52.4336C34.4547 54.6306 32.6416 58.8583 32.6416 65.7106C32.6416 65.7106 32.8301 66.1035 33.412 66.3126C33.5981 66.3794 33.8474 66.4444 34.0894 66.5C34.5693 66.6099 35.0617 66.3757 35.2807 65.9346C36.5064 63.4667 40.4112 55.5063 40.6115 53.8542C40.753 52.6849 41.9858 44.9458 44.675 40.4046C45.3206 39.3142 44.0349 36.6468 44.0349 36.6468L38.5212 34.4799" fill="#F99746"/>
<path d="M40.5182 22.982C40.7162 22.4722 40.9676 21.1374 40.9639 20.194L41.1128 20.2209L43.6169 20.6773C43.6169 20.6773 43.5599 21.4022 43.558 22.0854C43.558 22.091 43.558 22.0966 43.558 22.1026C43.5552 22.6958 43.5608 23.1726 43.4931 23.3345C43.2547 23.9036 40.354 23.405 40.5182 22.982Z" fill="#FFB27D"/>
<path d="M43.6174 20.6773C43.6174 20.6773 43.5603 21.4023 43.5585 22.0855C42.1573 22.0493 41.4166 20.8731 41.1133 20.221L43.6174 20.6773" fill="#E8945B"/>
<path d="M44.0851 21.4222C44.0851 21.4222 40.7698 21.4769 40.7675 19.412C40.7652 17.3467 40.3357 15.9627 42.4525 15.8407C44.5689 15.7182 44.9812 16.5058 45.1496 17.195C45.318 17.8842 44.9474 21.3549 44.0851 21.4222Z" fill="#FFB27D"/>
<path d="M43.9622 15.7901C43.9622 15.7901 43.0545 18.2131 41.6612 18.5711C40.2684 18.9292 39.6641 18.5563 39.6641 18.5563C39.6641 18.5563 40.7327 17.707 40.9544 16.2256C40.9544 16.2256 43.2776 14.6371 43.9622 15.7901Z" fill="#163560"/>
<path d="M43.7373 15.9868C43.7373 15.9868 44.4103 16.2387 44.6877 16.7294C44.9585 17.2094 45.189 17.8453 45.1357 18.6255C45.1357 18.6255 45.8193 16.9785 45.0508 16.0471C44.2359 15.0592 43.7373 15.9868 43.7373 15.9868Z" fill="#163560"/>
<path d="M43.4373 20.1969C43.4373 20.1969 43.4946 20.4398 44.0984 20.4023C44.0984 20.4023 44.6055 20.3708 44.5902 20.1044C44.5902 20.1044 44.0984 19.9142 43.4373 20.1969" fill="white"/>
<path d="M39.4186 34.7808C39.4186 34.7808 42.1593 33.8653 43.2595 35.5025C43.4928 35.8495 41.7734 36.022 40.8546 35.9C40.6357 35.8708 39.0842 35.5591 39.0842 35.5591L39.4186 34.7808" fill="#FFB27D"/>
<path d="M38.8291 23.2496C38.8291 23.2496 36.9497 23.5896 35.665 26.0413C34.5645 28.1419 32.9597 31.4827 32.9597 32.1019C32.9597 32.7216 33.9158 34.6311 39.0508 35.7289C39.0508 35.7289 39.5819 35.17 39.5494 34.7285C39.5494 34.7285 36.344 31.9753 36.3528 31.6534C36.3691 31.0449 36.8783 30.2411 39.6927 27.4262C40.4575 26.6609 38.8291 23.2496 38.8291 23.2496" fill="#739AF0"/>
<path d="M42.4864 35.3704C42.6102 35.6324 42.4451 35.9701 42.1177 36.125C41.7897 36.2799 41.4243 36.1927 41.3004 35.9307C41.1766 35.6686 41.3417 35.331 41.6692 35.176C41.9966 35.0211 42.3626 35.1083 42.4864 35.3704ZM48.7186 34.6737C46.9204 31.4915 40.0305 31.845 39.8325 32.6719C39.6344 33.4989 41.3978 34.3324 40.9623 35.0814C40.1966 36.3982 38.1474 35.484 37.5783 36.5939C37.0092 37.7043 41.0082 42.3902 44.7057 42.1151C48.4032 41.8406 50.5164 37.8559 48.7186 34.6737" fill="#FFE3CA"/>
<path d="M40.647 39.4506C40.5083 39.2897 40.3691 39.0976 40.3946 38.8866C40.4192 38.683 40.5992 38.5253 40.7954 38.4631C40.9911 38.4015 41.2021 38.4163 41.4071 38.4321C41.5319 38.4413 41.6571 38.4511 41.7824 38.4604C41.8626 38.4669 41.9461 38.4738 42.0152 38.5151C42.0801 38.5536 42.1251 38.618 42.1664 38.6816C42.2063 38.7424 42.2457 38.805 42.2661 38.8745C42.4832 39.6185 41.0213 39.8847 40.647 39.4506Z" fill="#233862"/>
<path d="M48.0139 37.9951C47.8117 38.0591 47.5802 38.111 47.3966 38.0044C47.2189 37.9009 47.1452 37.6732 47.166 37.4687C47.1864 37.2646 47.2834 37.0768 47.3785 36.8945C47.4369 36.7832 47.4949 36.6723 47.5533 36.561C47.5904 36.4896 47.6298 36.4158 47.6952 36.3685C47.7565 36.324 47.8335 36.3087 47.9077 36.2952C47.9796 36.2827 48.0524 36.2711 48.1247 36.2804C48.8937 36.375 48.5607 37.8226 48.0139 37.9951" fill="#B7CFEA"/>
<path d="M43.1385 39.8169C43.2989 39.694 43.51 39.6267 43.7076 39.6708C43.8101 39.6935 43.9042 39.7445 44.0044 39.7779C44.1718 39.8336 44.3625 39.8424 44.4993 39.9537C44.6616 40.0859 44.6946 40.3206 44.6797 40.5293C44.6704 40.6587 44.6463 40.7895 44.5879 40.9055C44.4116 41.2561 43.946 41.3911 43.5698 41.2788C43.2294 41.1777 42.9659 40.9069 42.8416 40.5789C42.7234 40.2659 42.8778 40.0163 43.1385 39.8169" fill="#F78248"/>
<path d="M46.3506 34.4968C46.4769 34.4005 46.6425 34.3473 46.798 34.382C46.879 34.4001 46.953 34.4403 47.0316 34.4662C47.163 34.5102 47.3129 34.5171 47.4207 34.6046C47.5484 34.7087 47.5743 34.8933 47.5628 35.0575C47.5554 35.1593 47.5364 35.262 47.4906 35.3531C47.3518 35.6293 46.9858 35.7348 46.6897 35.6469C46.4219 35.5673 46.2146 35.3545 46.117 35.0964C46.024 34.8502 46.1452 34.6536 46.3506 34.4968" fill="#739AF0"/>
<path d="M44.0659 33.4735C44.1922 33.3768 44.3579 33.3236 44.5133 33.3583C44.5943 33.3764 44.6683 33.4166 44.747 33.4425C44.8784 33.4865 45.0283 33.4934 45.1361 33.5809C45.2637 33.685 45.2901 33.8696 45.2781 34.0338C45.2707 34.1356 45.2517 34.2383 45.2059 34.3294C45.0671 34.6057 44.7012 34.7111 44.4051 34.6232C44.1376 34.5437 43.9299 34.3308 43.8323 34.0727C43.7393 33.8265 43.8605 33.6299 44.0659 33.4735" fill="#EBF3FA"/>
<path d="M45.8244 40.2381C45.688 40.0762 45.6843 39.8327 45.7655 39.637C45.8462 39.4413 45.9983 39.2845 46.1551 39.1416C46.2641 39.0419 46.3791 38.9454 46.515 38.887C46.6509 38.8286 46.8114 38.8133 46.945 38.8768C47.0781 38.9403 47.1718 39.0953 47.1365 39.2386C47.0887 39.4338 46.8726 39.5809 46.7803 39.7594C46.6917 39.9297 46.6931 40.1328 46.6096 40.2984C46.5345 40.4477 46.458 40.5433 46.2762 40.566C46.0044 40.5999 45.9775 40.4204 45.8244 40.2381" fill="#F99746"/>
<path d="M40.2305 34.5944C40.2305 34.5944 41.1878 34.3936 41.3687 34.4196C41.6623 34.4622 42.2838 34.5861 42.3543 34.6357C42.4243 34.6858 41.986 34.9622 41.6354 34.914C41.3965 34.881 40.896 35.2229 40.7226 35.336C40.5496 35.4492 40.2305 34.5944 40.2305 34.5944Z" fill="#FFB27D"/>
<path d="M56.7088 31.6659L56.2032 32.2151L49.2999 25.7394C49.2345 25.6777 49.2308 25.5747 49.2915 25.5084C49.3439 25.4518 49.4316 25.4467 49.49 25.4968L56.7088 31.6659Z" fill="#F99746"/>
<path d="M56.2015 32.2151L56.7058 31.6673L56.0651 31.1195L55.6177 31.6673L56.2015 32.2151Z" fill="#739AF0"/>
<path d="M56.7087 31.6659C56.7087 31.6659 57.1015 31.4326 57.7856 31.9052C58.4702 32.3779 58.9591 32.2151 58.9591 32.2151C58.9591 32.2151 58.3724 32.7689 57.672 32.8176C56.9712 32.8667 56.4457 32.8018 56.2031 32.2151L56.7087 31.6659Z" fill="#163560"/>
<path d="M53.8115 30.436C53.8115 30.436 53.8449 30.4322 53.9015 30.4248C54.2234 30.3854 55.305 30.2518 55.4854 30.2124C55.6983 30.166 55.3583 30.5338 54.9952 30.6377C54.6325 30.7416 54.8634 31.0357 54.4622 30.9986C54.0615 30.9614 53.8115 30.436 53.8115 30.436" fill="#FFB27D"/>
<path d="M78.7819 47.3401H55.5515L59.1957 17.6562H82.4267L78.7819 47.3401Z" fill="#916140"/>
<path d="M79.8266 47.34H56.5964L60.2408 17.6562H83.4715L79.8266 47.34" fill="#D8A27D"/>
<path d="M78.6526 45.8035H58.1472L61.4305 19.064H81.9359L78.6526 45.8035Z" fill="#E5BD9E"/>
<path d="M80.57 33.2485H59.3325L59.5167 31.7509H80.7542L80.57 33.2485Z" fill="#D8A27D"/>
<path d="M59.6975 22.0795L60.2407 17.656H64.6641L59.6975 22.0795Z" fill="#C6916D"/>
<path d="M82.9285 22.0795L83.4714 17.6562H79.0481L82.9285 22.0795Z" fill="#C6916D"/>
<path d="M61.0188 47.3437H56.5955L57.1386 42.9203L61.0188 47.3437Z" fill="#C6916D"/>
<path d="M75.4031 47.3437H79.8265L80.3696 42.9203L75.4031 47.3437Z" fill="#C6916D"/>
<path d="M59.4197 70.6696C59.2495 70.6696 59.1224 70.5129 59.1585 70.3464L68.39 27.5701C68.4385 27.347 68.6358 27.1877 68.8648 27.1877H69.1532C69.3827 27.1877 69.5534 27.4004 69.5034 27.625L59.7333 70.4192C59.7001 70.5658 59.5696 70.6696 59.4197 70.6696" fill="#163560"/>
<path d="M73.1043 70.7365C72.9421 70.7328 72.8127 70.6001 72.8132 70.4378L72.9645 27.6323C72.9666 27.4304 73.132 27.2682 73.3333 27.2708L73.5832 27.2734C73.7908 27.2755 73.9578 27.4466 73.9552 27.6547L73.349 70.4995C73.3474 70.6326 73.2373 70.7392 73.1043 70.7365" fill="#163560"/>
<path d="M73.1866 54.8505L62.9705 54.8463V54.0681L73.1866 54.0722V54.8505Z" fill="#163560"/>
<path d="M68.439 54.5074L67.6667 54.4114L72.6372 14.3282L73.4095 14.4241L68.439 54.5074Z" fill="#163560"/>
<path d="M73.4409 30.5562L67.8105 30.5539L68.2005 29.7756L73.4414 29.7782L73.4409 30.5562" fill="#163560"/>
<path d="M81.2918 70.4753L70.5648 34.1089C70.5477 34.0511 70.5505 33.9894 70.5722 33.9333L70.7883 33.3808C70.8829 33.139 71.2307 33.1557 71.302 33.4055L81.8135 70.3246C81.8625 70.4976 81.7319 70.6697 81.5523 70.6697C81.432 70.6697 81.3265 70.5908 81.2918 70.4753" fill="#163560"/>
<path d="M78.4126 47.9498H55.9376C55.825 47.9498 55.7339 47.8584 55.7339 47.7462C55.7339 47.4178 56 47.1516 56.3279 47.1516H78.6412C78.7946 47.1516 78.9194 47.2763 78.9194 47.4299V47.4428C78.9194 47.7225 78.6925 47.9498 78.4126 47.9498" fill="#163560"/>
<path d="M74.81 17.6559H70.626V17.0663H74.81V17.6559Z" fill="#163560"/>
<path d="M117.091 70.9911H0.407458C0.333391 70.9911 0.272705 70.9303 0.272705 70.8561V70.8046C0.272705 70.7304 0.333391 70.6697 0.407458 70.6697H117.091C117.165 70.6697 117.225 70.7304 117.225 70.8046V70.8561C117.225 70.9303 117.165 70.9911 117.091 70.9911Z" fill="#2E3552"/>
</svg>
