<svg width="103" height="83" viewBox="0 0 103 83" fill="none" xmlns="http://www.w3.org/2000/svg">
<circle cx="55.4242" cy="55.4242" r="55.1515" fill="#2A4DAB"/>
<path d="M22.7469 57.4743C25.1816 54.9939 25.1445 51.0091 22.6639 48.5743C20.1832 46.1394 16.1985 46.1767 13.7638 48.6573C11.3288 51.1379 11.3661 55.1227 13.8467 57.5573C16.3273 59.9921 20.312 59.9549 22.7469 57.4743ZM7.89154 59.2953C7.30468 58.3206 6.86809 57.2801 6.58048 56.2079L4.25997 55.7633L4.23596 53.1966L4.21213 50.6298L6.5239 50.1421C6.7915 49.0646 7.20863 48.0162 7.77711 47.0306L6.45168 45.077L8.24992 43.2451L10.0478 41.4133L12.0259 42.7021C13.0006 42.1153 14.041 41.6787 15.1132 41.3911L15.558 39.0706L18.1246 39.0465L20.6913 39.0227L21.1792 41.3345C22.2566 41.6021 23.3048 42.0192 24.2904 42.5877L26.2442 41.2623L28.0761 43.0603L29.9078 44.8584L28.6189 46.8365C29.206 47.8112 29.6426 48.8514 29.93 49.9238L32.2507 50.3686L32.2745 52.9352L32.2985 55.5018L29.9866 55.9896C29.7192 57.067 29.3018 58.1154 28.7334 59.101L30.0588 61.0546L28.2609 62.8865L26.4629 64.7186L24.4847 63.4297C23.5099 64.0164 22.4697 64.4532 21.3973 64.7408L20.9527 67.0613L18.3858 67.0851L15.8192 67.1091L15.3315 64.797C14.254 64.5297 13.2056 64.1126 12.2202 63.5439L10.2666 64.8696L8.43456 63.0715L6.60267 61.2735L7.89154 59.2953Z" fill="#96CBFF"/>
<path d="M80.0197 38.3527C82.0177 36.696 82.294 33.7331 80.6373 31.7353C78.9804 29.7374 76.0178 29.4609 74.02 31.1177C72.0218 32.7744 71.7455 35.7373 73.4022 37.7351C75.0591 39.7329 78.0217 40.0094 80.0197 38.3527ZM68.846 38.5715C68.4845 37.8028 68.2396 36.9965 68.1079 36.1781L66.4181 35.6707L66.5962 33.7624L66.7743 31.854L68.5287 31.668C68.8098 30.888 69.1996 30.1412 69.6971 29.4525L68.8616 27.9002L70.3371 26.6767L71.8124 25.4531L73.1834 26.5615C73.9523 26.1999 74.7584 25.955 75.5768 25.8233L76.0842 24.1335L77.9926 24.3116L79.9011 24.4897L80.0868 26.2442C80.8669 26.5251 81.6138 26.915 82.3024 27.4125L83.8547 26.5771L85.0784 28.0525L86.3018 29.5278L85.1936 30.8987C85.555 31.6677 85.7999 32.4737 85.9316 33.2924L87.6214 33.7997L87.4435 35.708L87.2652 37.6165L85.5108 37.8024C85.2298 38.5823 84.8399 39.3292 84.3424 40.0178L85.1779 41.5702L83.7024 42.7938L82.2271 44.0172L80.8562 42.9089C80.0872 43.2704 79.2811 43.5152 78.4627 43.6471L77.9552 45.3369L76.0469 45.1588L74.1384 44.9808L73.9527 43.2262C73.1726 42.9453 72.4259 42.5555 71.7371 42.0577L70.1849 42.8933L68.9613 41.418L67.7377 39.9424L68.846 38.5715Z" fill="#96CBFF"/>
<path d="M60.4588 22.9474C60.4588 22.9474 58.6429 30.1782 63.0027 32.1548C67.3624 34.1314 66.5273 30.5122 66.5273 30.5122C66.5273 30.5122 68.3155 30.0153 63.4489 27.2562C61.1551 25.9559 60.4588 22.9474 60.4588 22.9474Z" fill="#BBD070"/>
<path d="M49.0411 23.5785C49.0411 23.5785 48.1473 29.8813 56.3983 32.6058C64.6496 35.3302 65.8244 38.7862 65.8244 38.7862C65.8244 38.7862 66.0712 24.8166 49.0411 23.5785Z" fill="#1A9077"/>
<path d="M65.8613 36.2192C68.3079 35.2855 62.4924 30.2782 58.0231 30.4134C53.5538 30.5487 50.5251 32.2027 47.5315 31.5038C47.5315 31.5038 53.8134 40.8177 65.8613 36.2192Z" fill="#18605A"/>
<path d="M77.4893 48.4351C77.4634 46.6566 75.0951 43.3483 75.0951 43.3483C75.0951 43.3483 74.9856 43.3017 74.9839 43.3064C74.9825 43.3081 74.8619 43.2895 74.8619 43.2911C74.8593 43.2911 74.4939 42.9426 74.4915 42.9426C74.4045 43.2589 73.6199 47.727 73.4277 50.328C75.6519 49.891 77.5022 49.2834 77.4893 48.4351V48.4351ZM57.6413 40.4029C57.5005 38.502 57.4024 36.7242 57.3467 35.0664C57.8055 34.8234 58.3567 34.5394 58.7979 34.33C60.1635 33.6798 62.066 32.8043 63.2868 32.2442C64.0014 31.9158 64.7016 31.6759 64.7016 31.6759C64.7016 31.6759 69.5807 31.2083 69.9767 31.2333C70.1017 31.2405 70.7115 31.453 71.5115 31.7581C73.2417 32.4146 76.5775 33.7515 77.1085 34.133C77.8875 34.6906 80.6746 48.3524 80.7486 49.2801C80.8209 50.1813 76.9581 51.4146 73.3809 52.3592C73.3834 53.7442 73.4115 55.6845 73.4429 57.4558C73.4477 57.7585 73.4533 58.0554 73.4591 58.3435H57.8064C57.8274 58.0393 57.8457 57.739 57.861 57.4558C57.8626 57.4179 57.865 57.381 57.8666 57.3439C57.9263 56.1442 58.1595 53.9954 58.1 51.9028C58.1 51.9028 58.1379 49.6969 57.919 48.7475C57.8948 44.5545 57.6413 40.4029 57.6413 40.4029" fill="#DBD8E3"/>
<path d="M57.3516 57.4558C57.4546 56.7146 57.5519 55.9741 57.6398 55.2491C57.6398 55.2451 57.6412 55.2428 57.6412 55.2386C57.6696 54.9972 57.6985 54.7591 57.7258 54.5217C57.7274 54.5102 57.7282 54.4975 57.7298 54.4838C57.8442 53.4853 57.939 52.5273 58.0074 51.6503C58.0589 50.9781 58.0123 50.3216 57.9199 49.6794C57.6478 45.1943 57.5124 40.4656 57.5124 40.4656C57.3692 38.5302 57.2872 36.7211 57.2324 35.0351C57.2324 35.0351 63.3592 32.1396 63.9146 31.9737C63.9146 31.9737 62.7523 34.7028 61.8807 40.802C61.546 43.1447 60.9255 47.0881 60.4749 51.1128V51.1135C60.2311 53.2855 59.774 55.4978 59.4263 57.4558C59.3732 57.7585 59.3225 58.0546 59.2759 58.3435H57.2252C57.2688 58.0483 57.3105 57.7521 57.3516 57.4558Z" fill="#323657"/>
<path d="M74.9229 46.8198C74.9767 44.7789 74.9672 43.3548 74.9672 43.3548C74.7651 44.0541 74.4859 46.0523 74.2398 48.0384C75.0677 47.6216 74.9123 47.232 74.9229 46.8198V46.8198ZM67.552 50.2514C67.3106 47.9837 67.0932 45.7206 67.198 44.4807C68.043 34.5112 70.4339 31.8724 70.7808 31.486C71.0488 31.5882 72.0692 31.9713 72.3679 32.0896C74.0031 32.7343 77.3363 33.9156 77.7855 34.2383C78.5644 34.7961 81.6355 49.1186 81.7281 50.0447C81.7901 50.6709 77.7822 51.9792 73.6933 53.1471C73.7311 54.2681 73.6251 55.8495 73.9976 57.5007C74.0628 57.7936 74.1592 57.9786 74.1743 58.3659L68.4743 58.3435C68.4398 58.049 68.4036 57.7536 68.3672 57.4558C68.2588 56.5649 68.1452 55.6525 68.0326 54.6827C66.3232 55.1251 65.1611 55.4101 65.1611 55.4101C65.1611 55.4101 63.5555 52.6956 63.0896 51.5965C63.01 51.4089 65.0767 50.9123 67.552 50.2514" fill="#323657"/>
<path d="M70.2326 31.3896C70.2326 31.3896 69.6121 30.2169 69.7836 26.8877C69.8309 25.9654 64.9389 29.0751 64.9389 29.0751C64.9389 29.0751 64.9558 29.3929 64.9663 29.8218C64.9718 30.0005 64.9751 30.196 64.9751 30.3972C64.9751 30.4527 64.9744 30.5082 64.9744 30.5639C64.9734 30.6548 64.9727 30.7449 64.9711 30.8351C64.9687 30.947 64.9645 31.0563 64.9591 31.1618C64.9534 31.2817 64.9454 31.395 64.934 31.4989C64.914 31.7001 64.7957 32.055 64.753 32.1525C64.5285 32.6699 68.4011 32.6997 70.2326 31.3896Z" fill="#EEA987"/>
<path d="M66.1312 33.507L65.2296 34.7184C65.2296 34.7184 65.7579 35.4257 66.696 34.9034L66.1312 33.507Z" fill="#A13F30"/>
<path d="M65.4709 34.7675C65.4709 34.7675 62.1677 42.8353 62.8724 53.0831L63.9142 54.9739L65.089 53.3636C65.089 53.3636 65.2786 39.7535 66.2162 34.7352L65.4709 34.7675Z" fill="#A13F30"/>
<path d="M65.166 32.3775L66.1313 33.507C66.1313 33.507 67.6806 33.2069 68.1354 32.3975C68.5904 31.5882 65.166 32.3775 65.166 32.3775Z" fill="#EEA987"/>
<path d="M64.9446 31.3892C64.9446 31.3892 65.0567 32.2502 66.1312 33.507L64.9582 35.083L64.3234 31.8136L64.9446 31.3892Z" fill="#C4C1CC"/>
<path d="M69.9381 30.3537C69.9381 30.3537 67.698 32.8876 66.1313 33.507L66.8599 35.3089L70.4352 31.365L69.9381 30.3537Z" fill="#C4C1CC"/>
<path d="M46.9081 53.2781C46.9081 53.2781 49.8817 50.3942 51.832 49.9147C52.7335 49.6927 53.9211 48.4481 55.0495 46.9849C55.4213 46.5032 55.7863 45.9975 56.1334 45.4971C56.1343 45.4961 56.1343 45.495 56.1343 45.495C57.5188 43.496 58.6036 41.5801 58.6036 41.5801C58.6036 41.5801 62.6959 36.7844 59.412 34.6465C59.412 34.6465 58.0047 34.6162 57.2327 35.0355C56.439 35.4664 54.7459 39 54.4588 39.6257C54.1718 40.2506 51.0619 46.0626 50.8538 46.1932C50.6453 46.3237 50.2984 46.8016 49.0541 47.4716C47.5308 48.2918 45.1377 50.6924 45.1377 50.6924L46.9081 53.2781Z" fill="#323657"/>
<path d="M61.1817 56.6157C61.1817 56.6157 61.5972 56.599 61.7751 56.5029C61.7751 56.5029 62.0859 56.3037 62.3153 56.1755C62.3882 56.1347 62.4528 56.1011 62.4966 56.0838C62.68 56.011 63.1042 55.9063 63.4953 55.6079C63.8865 55.3099 65.1611 54.1173 65.1611 54.1173L64.3372 52.8508L63.9569 51.5967C63.9569 51.5967 60.9849 51.8923 60.5885 52.1279C60.55 52.151 60.5127 52.1754 60.4794 52.2008C60.163 52.4328 60.0251 52.7386 59.8729 52.8792C59.8174 52.9312 59.2998 53.4853 59.3288 53.71C59.3686 54.022 59.5227 54.2221 59.7162 54.3169C59.7162 54.3169 59.821 54.9241 60.135 55.1957C60.135 55.1957 60.2138 55.7593 60.7004 55.9856C60.7004 55.9856 60.8443 56.5482 61.1817 56.6157Z" fill="#EFAA88"/>
<path d="M65.9138 18.2982C65.9138 18.2982 60.5422 17.0033 61.6736 23.8042C62.8053 30.6053 64.0936 31.1572 67.3659 29.8014C70.6382 28.4454 70.4108 24.0953 70.6056 21.9667C70.8006 19.8383 67.6322 18.3975 65.9138 18.2982Z" fill="#EEA886"/>
<path d="M68.7361 23.0082C68.8158 22.4108 70.0019 22.2088 70.0839 23.1073C70.166 24.006 69.5102 25.5714 69.0636 25.4098C68.617 25.2483 68.6259 23.8319 68.7361 23.0082Z" fill="#EEA886"/>
<path d="M70.2917 25.4435C70.2917 25.4435 70.1842 23.3043 69.4047 23.2261C68.6248 23.1479 68.4922 24.0069 68.4922 24.0069L67.7018 24.1442C67.7018 24.1442 67.9785 22.2747 67.2039 21.936C66.4291 21.5972 62.1389 22.893 61.5212 22.334C60.9036 21.7752 61.2538 17.9799 62.393 17.4765C63.532 16.9731 66.674 15.8538 68.9408 17.4372C68.9408 17.4372 70.7285 17.2598 70.9721 18.7041C71.2157 20.1481 70.7927 24.3796 70.2917 25.4435Z" fill="#16202E"/>
<path d="M62.9432 51.5966L65.1611 55.4099C65.1611 55.4099 71.0367 53.8959 72.4077 53.5091L69.2738 49.7791C69.2738 49.7791 64.6532 50.8348 62.9432 51.5966Z" fill="#323657"/>
<path d="M64.9592 31.1618H64.9599C67.8411 30.868 68.9579 28.6501 68.9579 28.6501C67.1458 30.4463 64.9752 30.3972 64.9752 30.3972C64.9752 30.4527 64.9745 30.5082 64.9745 30.5638C64.9736 30.6548 64.9729 30.7448 64.9712 30.8351C64.9689 30.9469 64.9647 31.0563 64.9592 31.1618Z" fill="#A77860"/>
<path d="M25.6479 66.1073L25.6483 66.1075C25.7076 66.1291 25.7709 66.1422 25.8368 66.1458C25.8515 66.1466 25.8662 66.1467 25.881 66.1467C25.9432 66.1458 26.0032 66.136 26.0602 66.1189C26.1389 66.0954 26.2115 66.0582 26.2748 66.009C26.2979 65.9914 26.3196 65.9716 26.3401 65.951C26.4591 65.8302 26.532 65.6639 26.5295 65.4811C26.5289 65.4335 26.5229 65.3873 26.5126 65.3425C26.5077 65.3209 26.5022 65.2996 26.4951 65.2788C26.4062 65.0161 26.1562 64.8286 25.864 64.8324C25.6541 64.835 25.4682 64.9361 25.3501 65.0907C25.2637 65.2039 25.2133 65.345 25.2152 65.498C25.2188 65.7791 25.3983 66.0167 25.6479 66.1073ZM25.172 64.9621C25.3298 64.7531 25.579 64.6165 25.8611 64.6132C26.2508 64.6079 26.5844 64.8581 26.7029 65.2084C26.7316 65.2932 26.7476 65.3838 26.7489 65.4782C26.7503 65.5883 26.7311 65.6936 26.6954 65.7911C26.6385 65.9472 26.5382 66.0825 26.4093 66.1826C26.2808 66.2821 26.1242 66.3469 25.9528 66.3623C25.9301 66.3641 25.907 66.3658 25.8837 66.366C25.8691 66.3661 25.8546 66.3656 25.8402 66.365C25.8353 66.3649 25.83 66.365 25.8249 66.3649C25.7371 66.3601 25.6525 66.3423 25.573 66.3136C25.2403 66.1928 25.0009 65.8759 24.9958 65.5008C24.9932 65.2988 25.0593 65.112 25.172 64.9621Z" fill="#4DA8F2"/>
<path d="M58.7739 48.4646C55.4345 51.9021 51.0225 56.2311 51.0225 56.2311L49.2978 52.957C49.2978 52.957 53.2166 48.3629 55.8733 45.2975C56.6875 45.6968 58.1825 46.6493 58.7739 48.4646Z" fill="#EEA886"/>
<path d="M60.8364 53.0867C60.8364 53.0867 59.9374 53.5212 59.7027 53.7145C59.4678 53.9083 58.5168 54.6203 58.2861 54.7878C58.0558 54.9554 58.6339 55.4318 60.3345 54.6952C62.0354 53.9585 60.8364 53.0867 60.8364 53.0867Z" fill="#EEA886"/>
<path d="M60.7579 43.2478L62.325 57.8163H41.7003L40.1333 43.2478H60.7579Z" fill="#FFC955"/>
<path d="M61.1301 56.9828H40.6674L39.1176 42.5753H59.5805L61.1301 56.9828ZM40.5229 57.144H61.3093L59.7251 42.4145H38.9386L40.5229 57.144Z" fill="#FFC955"/>
<path d="M63.9661 56.5056H60.5213V57.8163H63.9661V56.5056Z" fill="#FFC955"/>
<path d="M96.2427 57.7861V58.6737H97.105V57.7861H96.2427Z" fill="#96CBFF"/>
<path d="M95.3804 57.7861V58.6737H96.2427V57.7861H95.3804Z" fill="#95CAFF"/>
<path d="M94.5181 57.7861V58.6737H95.3804V57.7861H94.5181Z" fill="#94C9FF"/>
<path d="M93.6557 57.7861V58.6737H94.5181V57.7861H93.6557Z" fill="#93C9FF"/>
<path d="M92.7935 57.7861V58.6737H93.6558V57.7861H92.7935Z" fill="#92C8FF"/>
<path d="M91.9312 57.7861V58.6737H92.7935V57.7861H91.9312Z" fill="#91C7FF"/>
<path d="M91.0687 57.7861V58.6737H91.9312V57.7861H91.0687Z" fill="#90C6FF"/>
<path d="M90.2064 57.7861V58.6737H91.0687V57.7861H90.2064Z" fill="#8FC6FF"/>
<path d="M89.344 57.7861V58.6737H90.2065V57.7861H89.344Z" fill="#8EC5FF"/>
<path d="M88.4817 57.7861V58.6737H89.3439V57.7861H88.4817Z" fill="#8DC4FF"/>
<path d="M87.6192 57.7861V58.6737H88.4817V57.7861H87.6192Z" fill="#8CC3FF"/>
<path d="M86.7569 57.7861V58.6737H87.6192V57.7861H86.7569Z" fill="#8BC2FF"/>
<path d="M85.8946 57.7861V58.6737H86.7569V57.7861H85.8946Z" fill="#8AC2FF"/>
<path d="M85.0324 57.7861V58.6737H85.8947V57.7861H85.0324Z" fill="#89C1FF"/>
<path d="M84.1701 57.7861V58.6737H85.0324V57.7861H84.1701Z" fill="#88C0FF"/>
<path d="M83.3078 57.7861V58.6737H84.1702V57.7861H83.3078Z" fill="#87BFFF"/>
<path d="M82.4455 57.7861V58.6737H83.3077V57.7861H82.4455Z" fill="#86BFFF"/>
<path d="M81.5832 57.7861V58.6737H82.4454V57.7861H81.5832Z" fill="#85BEFF"/>
<path d="M80.7209 57.7861V58.6737H81.5831V57.7861H80.7209Z" fill="#84BDFF"/>
<path d="M79.8582 57.7861V58.6737H80.7209V57.7861H79.8582Z" fill="#83BCFF"/>
<path d="M78.9959 57.7861V58.6737H79.8582V57.7861H78.9959Z" fill="#82BBFF"/>
<path d="M78.1337 57.7861V58.6737H78.996V57.7861H78.1337Z" fill="#81BBFF"/>
<path d="M77.2714 57.7861V58.6737H78.1337V57.7861H77.2714Z" fill="#80BAFF"/>
<path d="M76.4089 57.7861V58.6737H77.2714V57.7861H76.4089Z" fill="#7FB9FF"/>
<path d="M75.5467 57.7861V58.6737H76.4089V57.7861H75.5467Z" fill="#7EB8FF"/>
<path d="M74.6844 57.7861V58.6737H75.5467V57.7861H74.6844Z" fill="#7DB7FF"/>
<path d="M73.8221 57.7861V58.6737H74.6844V57.7861H73.8221Z" fill="#7CB7FF"/>
<path d="M72.9599 57.7861V58.6737H73.8221V57.7861H72.9599Z" fill="#7BB6FF"/>
<path d="M72.0974 57.7861V58.6737H72.9599V57.7861H72.0974Z" fill="#7AB5FF"/>
<path d="M71.2351 57.7861V58.6737H72.0974V57.7861H71.2351Z" fill="#79B4FF"/>
<path d="M70.3727 57.7861V58.6737H71.2352V57.7861H70.3727Z" fill="#78B4FF"/>
<path d="M69.5103 57.7861V58.6737H70.3726V57.7861H69.5103Z" fill="#77B3FF"/>
<path d="M68.6479 57.7861V58.6737H69.5103V57.7861H68.6479Z" fill="#76B2FF"/>
<path d="M67.7856 57.7861V58.6737H68.6479V57.7861H67.7856Z" fill="#74B1FF"/>
<path d="M66.9233 57.7861V58.6737H67.7856V57.7861H66.9233Z" fill="#73B0FF"/>
<path d="M66.0611 57.7861V58.6737H66.9233V57.7861H66.0611Z" fill="#72B0FF"/>
<path d="M65.1986 57.7861V58.6737H66.061V57.7861H65.1986Z" fill="#71AFFF"/>
<path d="M64.3363 57.7861V58.6737H65.1985V57.7861H64.3363Z" fill="#70AEFF"/>
<path d="M63.4741 57.7861V58.6737H64.3364V57.7861H63.4741Z" fill="#6FADFF"/>
<path d="M62.6118 57.7861V58.6737H63.4741V57.7861H62.6118Z" fill="#6EADFF"/>
<path d="M61.7493 57.7861V58.6737H62.6118V57.7861H61.7493Z" fill="#6DACFF"/>
<path d="M60.8869 57.7861V58.6737H61.7493V57.7861H60.8869Z" fill="#6CABFF"/>
<path d="M60.0246 57.7861V58.6737H60.8868V57.7861H60.0246Z" fill="#6BAAFF"/>
<path d="M59.1624 57.7861V58.6737H60.0247V57.7861H59.1624Z" fill="#6AA9FF"/>
<path d="M58.3001 57.7861V58.6737H59.1624V57.7861H58.3001Z" fill="#69A9FF"/>
<path d="M57.4377 57.7861V58.6737H58.3001V57.7861H57.4377Z" fill="#68A8FF"/>
<path d="M56.5754 57.7861V58.6737H57.4377V57.7861H56.5754Z" fill="#67A7FF"/>
<path d="M55.713 57.7861V58.6737H56.5753V57.7861H55.713Z" fill="#66A6FF"/>
<path d="M54.8507 57.7861V58.6737H55.713V57.7861H54.8507Z" fill="#65A6FF"/>
<path d="M53.9882 57.7861V58.6737H54.8507V57.7861H53.9882Z" fill="#64A5FF"/>
<path d="M53.1259 57.7861V58.6737H53.9882V57.7861H53.1259Z" fill="#63A4FF"/>
<path d="M52.2635 57.7861V58.6737H53.126V57.7861H52.2635Z" fill="#62A3FF"/>
<path d="M51.4013 57.7861V58.6737H52.2635V57.7861H51.4013Z" fill="#61A2FF"/>
<path d="M50.5388 57.7861V58.6737H51.4012V57.7861H50.5388Z" fill="#60A2FF"/>
<path d="M49.6765 57.7861V58.6737H50.5388V57.7861H49.6765Z" fill="#5FA1FF"/>
<path d="M48.8143 57.7861V58.6737H49.6766V57.7861H48.8143Z" fill="#5EA0FF"/>
<path d="M47.952 57.7861V58.6737H48.8143V57.7861H47.952Z" fill="#5D9FFF"/>
<path d="M47.0897 57.7861V58.6737H47.952V57.7861H47.0897Z" fill="#5C9EFF"/>
<path d="M46.2271 57.7861V58.6737H47.0896V57.7861H46.2271Z" fill="#5B9EFF"/>
<path d="M45.365 57.7861V58.6737H46.2273V57.7861H45.365Z" fill="#5A9DFF"/>
<path d="M44.5027 57.7861V58.6737H45.3649V57.7861H44.5027Z" fill="#599CFF"/>
<path d="M43.6403 57.7861V58.6737H44.5026V57.7861H43.6403Z" fill="#589BFF"/>
<path d="M42.7777 57.7861V58.6737H43.6403V57.7861H42.7777Z" fill="#579BFF"/>
<path d="M41.9154 57.7861V58.6737H42.7777V57.7861H41.9154Z" fill="#569AFF"/>
<path d="M41.0532 57.7861V58.6737H41.9155V57.7861H41.0532Z" fill="#5599FF"/>
<path d="M6.80043 77.6139H55.3646V76.7262H6.80043V77.6139Z" fill="#FFC955"/>
<path d="M52.3743 50.2982C52.54 51.1091 52.1617 51.8715 51.5291 52.0007C50.8966 52.13 50.2496 51.5772 50.0838 50.766C49.9179 49.9549 50.2963 49.1925 50.9288 49.0633C51.5615 48.934 52.2084 49.4868 52.3743 50.2982Z" fill="#CFA345"/>
<path d="M33.7647 49.4368C33.7647 49.4368 38.0969 53.5592 35.9896 56.7689C33.8821 59.9788 32.8959 57.1673 32.8959 57.1673C32.8959 57.1673 31.4706 57.5975 33.5861 53.64C34.5832 51.7746 33.7647 49.4368 33.7647 49.4368Z" fill="#BBD070"/>
<path d="M41.7748 44.9673C41.7748 44.9673 45.0841 48.8563 40.6597 54.2419C36.2354 59.6275 36.9212 62.4743 36.9212 62.4743C36.9212 62.4743 30.7623 53.111 41.7748 44.9673Z" fill="#1A9077"/>
<path d="M35.9236 60.8485C33.8647 61.2647 35.5307 55.278 38.6181 53.4529C41.7056 51.6276 44.4678 51.4496 46.1973 49.692C46.1973 49.692 46.0625 58.7981 35.9236 60.8485Z" fill="#18605A"/>
<path d="M26.9914 50.6118C26.9914 50.6118 24.9075 44.5007 28.884 42.6062C32.8607 40.7116 36.2368 43.4503 36.8746 44.9322C37.5124 46.4141 37.3436 49.1086 36.7997 50.9876C36.2557 52.8664 36.3349 55.7268 37.5166 56.6835C38.6983 57.64 40.1634 59.2289 40.091 62.463C40.0459 64.4693 32.1958 57.3306 32.1958 57.3306L26.9914 50.6118Z" fill="#252E3B"/>
<path d="M32.5786 57.8811C32.5786 57.8811 35.8471 58.6055 37.1445 59.3637C38.4415 60.1217 41.3225 63.6092 41.3225 65.1087C41.3225 66.6083 28.7236 68.009 28.7236 68.009L26.3356 76.7273C26.3356 76.7273 19.9675 75.1733 19.2095 73.8845C18.4513 72.5956 21.628 63.3589 22.1718 61.4895C22.7264 59.5825 25.0089 58.2529 27.6623 57.8811C30.3157 57.5094 32.5786 57.8811 32.5786 57.8811Z" fill="#FFD255"/>
<path d="M27.8891 57.8511C27.8891 57.8511 27.9624 61.8236 31.113 61.9414C34.2636 62.0591 33.6076 58.1312 33.6076 58.1312C33.6076 58.1312 31.3033 57.1976 27.8891 57.8511Z" fill="#EEA886"/>
<path d="M26.5563 45.8636C26.5563 45.8636 25.4418 52.2529 28.6155 56.8682C31.9024 61.6482 26.5563 45.8636 26.5563 45.8636Z" fill="#252E3B"/>
<path d="M28.5651 55.0423C28.5651 55.0423 28.7843 56.9424 28.4185 58.1243C28.0526 59.3061 33.2356 59.3386 33.2328 58.367C33.2294 57.2632 32.7026 56.341 33.1988 54.4489C33.6953 52.5568 28.5651 55.0423 28.5651 55.0423Z" fill="#EEA886"/>
<path d="M32.5856 55.2846C32.5856 55.2846 30.9491 56.9896 28.8565 55.4626C28.8565 55.4626 29.0293 56.5522 30.5345 56.6928C32.0395 56.8337 32.5856 55.2846 32.5856 55.2846Z" fill="#A77860"/>
<path d="M30.5361 43.6482C30.5361 43.6482 26.4004 44.8721 26.9913 50.6117C27.5821 56.3512 30.283 56.0555 30.5361 56.0979C30.7895 56.14 33.9968 56.3512 35.0096 49.3878C36.0225 42.4245 30.5361 43.6482 30.5361 43.6482Z" fill="#EEA886"/>
<path d="M31.604 46.2076C31.604 46.2076 29.3566 49.7824 26.9914 50.6118C26.9914 50.6118 25.6998 44.6133 31.0341 43.3565C36.3682 42.0998 35.5327 49.4151 35.1346 51.3658C35.1346 51.3658 34.0235 48.4959 31.604 46.2076Z" fill="#252E3B"/>
<path d="M34.618 45.6692C34.618 45.6692 33.435 43.3783 31.4376 43.2759C29.44 43.1737 28.2521 44.9064 28.2521 44.9064C28.2521 44.9064 29.032 42.9554 31.4351 42.9554C33.8382 42.9554 34.618 45.6692 34.618 45.6692Z" fill="#88C0FF"/>
<path d="M26.486 63.6869L25.0834 76.7262H43.5432L44.9458 63.6869H26.486Z" fill="#5FA0FF"/>
<path d="M44.005 76.118H25.7071L27.0922 63.2394H45.3903L44.005 76.118ZM25.5277 76.2787H44.1494L45.5693 63.0784H26.9475L25.5277 76.2787Z" fill="#5FA0FF"/>
<path d="M33.8693 69.9957C33.7036 70.8069 34.082 71.5695 34.7145 71.6988C35.347 71.828 35.9941 71.2753 36.1598 70.4641C36.3257 69.6528 35.9473 68.8904 35.3148 68.7611C34.6821 68.6319 34.0352 69.1846 33.8693 69.9957Z" fill="#5189DB"/>
<path d="M26.8286 75.4155H23.3839V76.7262H26.8286V75.4155Z" fill="#5FA0FF"/>
</svg>
