<svg width="144" height="80" viewBox="0 0 144 80" fill="none" xmlns="http://www.w3.org/2000/svg">
<path d="M9.48774 79.0333C9.48774 79.0333 -8.00295 60.2538 6.52978 39.9225C19.4243 21.8832 34.4578 23.1163 45.488 30.4369C50.1853 33.5547 63.7295 30.8211 75.2579 12.4653C90.978 -12.5674 145.472 2.61528 135.537 41.128C130.728 59.7653 150.17 60.4429 140.264 79.0728L9.48774 79.0333" fill="#93ADFF"/>
<path d="M43.077 42.7283C43.077 42.7283 34.4242 30.4116 31.0427 32.0084C27.6612 33.6053 43.077 42.7283 43.077 42.7283Z" fill="#1B957A"/>
<path d="M42.5265 39.4189C42.5265 39.4189 41.2048 30.1581 39.1212 30.5212C37.0376 30.8848 42.5265 39.4189 42.5265 39.4189Z" fill="#1B957A"/>
<path d="M35.2113 68.2836C35.2113 68.2836 36.043 64.1628 32.813 63.645C32.813 63.645 30.6223 63.5682 29.3324 64.3943C29.3324 64.3943 32.9958 66.5095 32.5601 67.1667C32.1245 67.824 28.648 64.5157 28.648 64.5157C28.648 64.5157 24.7209 66.2356 23.8444 67.4818C23.8444 67.4818 28.485 68.3084 27.901 68.8381C27.317 69.3683 22.448 68.7319 22.448 68.7319C22.448 68.7319 19.3104 71.2593 20.677 73.2711C22.0435 75.283 23.6031 75.2683 24.0968 74.9188C24.5904 74.5692 27.007 71.6805 27.3142 72.0735C27.6215 72.4665 26.5581 74.9052 25.3002 75.6946C25.3002 75.6946 29.2507 77.0249 30.4406 75.3389C31.6306 73.6534 31.0802 72.3428 31.8345 71.3141C32.5888 70.2858 33.4539 69.8042 33.2994 70.5094C33.1448 71.2147 31.5682 72.6974 31.5613 74.0453C31.5545 75.3931 31.4209 76.3744 32.9605 75.1825C34.5 73.9905 36.5451 71.2339 35.8782 69.759C35.2113 68.2836 35.2113 68.2836 35.2113 68.2836" fill="#0F655F"/>
<path d="M22.4124 72.3761C22.4124 72.3761 31.6268 66.7523 35.2111 68.2836C35.2111 68.2836 36.4407 69.4038 38.5567 69.8674L39.1132 70.3457C39.1132 70.3457 36.5201 69.5365 35.878 69.759C35.878 69.759 34.9271 65.9121 22.4124 72.3761" fill="#0F655F"/>
<path d="M38.5566 69.8674C38.5566 69.8674 41.4131 70.2333 43.0458 72.8256L42.6973 73.0633C42.6973 73.0633 40.5087 70.6624 38.7384 70.2344C36.9682 69.8059 38.5566 69.8674 38.5566 69.8674" fill="#0F655F"/>
<path d="M38.0318 56.2595C38.0318 56.2595 44.7229 52.5125 41.6004 47.4273C41.6004 47.4273 39.1024 44.3048 36.426 43.5019C36.426 43.5019 37.8534 51.0851 36.426 51.2635C34.9985 51.4419 35.4446 42.6989 35.4446 42.6989C35.4446 42.6989 28.3966 39.3088 25.631 39.5764C25.631 39.5764 30.0026 46.9812 28.5751 46.8028C27.1476 46.6243 22.2409 39.1304 22.2409 39.1304C22.2409 39.1304 15.0145 37.7916 13.8547 42.0744C12.6949 46.3567 14.5684 48.4978 15.639 48.7655C16.7095 49.0331 23.5791 48.9439 23.4007 49.8361C23.2222 50.7282 18.583 52.1556 15.9958 51.3527C15.9958 51.3527 18.8507 58.4006 22.5977 58.0438C26.3447 57.6869 27.5045 55.3673 29.8241 55.1889C32.1436 55.0105 33.8387 55.635 32.6789 56.2595C31.5191 56.884 27.5937 56.4639 25.7202 58.0567C23.8467 59.6496 22.3301 60.631 25.8094 61.3447C29.2888 62.0584 35.5338 61.6123 36.7828 58.9359C38.0318 56.2595 38.0318 56.2595 38.0318 56.2595" fill="#1B957A"/>
<path d="M17.1555 43.4126C17.1555 43.4126 35.8906 49.4792 38.0317 56.2595C38.0317 56.2595 37.9425 59.2927 39.816 62.7721V64.1103C39.816 64.1103 37.8533 59.5604 36.7827 58.9359C36.7827 58.9359 40.9758 53.0477 17.1555 43.4126" fill="#0F655F"/>
<path d="M39.816 62.7721C39.816 62.7721 42.7053 67.1594 41.0581 72.5004L40.3148 72.3005C40.3148 72.3005 41.0363 66.418 39.5247 63.4593C38.0131 60.5005 39.816 62.7721 39.816 62.7721Z" fill="#0F655F"/>
<path d="M44.8325 24.9097L34.8211 76.6658C34.6175 77.7189 35.424 78.6963 36.4962 78.6963H41.7761L44.8325 24.9097" fill="#C97D4D"/>
<path d="M111.379 39.7255C111.379 39.7255 106.876 36.8527 109.25 33.4412C109.25 33.4412 111.112 31.3697 113.005 30.9182C113.005 30.9182 111.709 36.1343 112.695 36.3154C113.681 36.4964 113.719 30.399 113.719 30.399C113.719 30.399 118.756 28.323 120.668 28.6195C120.668 28.6195 117.333 33.594 118.332 33.5269C119.333 33.4598 123.043 28.4446 123.043 28.4446C123.043 28.4446 128.121 27.8025 128.758 30.8265C129.393 33.8506 128.005 35.2648 127.249 35.4081C126.495 35.5515 121.721 35.2152 121.809 35.8427C121.898 36.4702 125.067 37.648 126.898 37.1929C126.898 37.1929 124.632 41.9796 122.04 41.582C119.449 41.1846 118.735 39.525 117.129 39.3083C115.524 39.092 114.319 39.4584 115.102 39.9389C115.883 40.4195 118.629 40.2845 119.868 41.4669C121.108 42.6487 122.123 43.3918 119.675 43.7492C117.228 44.1066 112.902 43.5471 112.141 41.6363C111.379 39.7255 111.379 39.7255 111.379 39.7255" fill="#0F655F"/>
<path d="M126.409 31.6252C126.409 31.6252 113.139 35.0958 111.379 39.7254C111.379 39.7254 111.321 41.8377 109.879 44.1827L109.825 45.1132C109.825 45.1132 111.372 42.0274 112.141 41.6361C112.141 41.6361 109.46 37.3742 126.409 31.6252Z" fill="#1B957A"/>
<path d="M109.878 44.183C109.878 44.183 107.694 47.1185 108.625 50.8977L109.151 50.7887C109.151 50.7887 108.883 46.6696 110.053 44.6725C111.223 42.6753 109.878 44.183 109.878 44.183" fill="#C7DCFB"/>
<path d="M99.2546 27.2566C99.2546 27.2566 92.3352 25.7373 93.7338 20.4053C93.7338 20.4053 95.1041 16.9757 97.255 15.5488C97.255 15.5488 98.0251 22.6346 99.3351 22.4099C100.645 22.1851 97.9076 14.5762 97.9076 14.5762C97.9076 14.5762 103.23 9.69099 105.747 9.18647C105.747 9.18647 103.866 16.9032 105.08 16.3629C106.294 15.8228 108.623 7.8837 108.623 7.8837C108.623 7.8837 114.653 4.76399 116.825 8.23856C118.998 11.7131 117.916 14.1078 117.041 14.6317C116.166 15.1551 110.07 16.9169 110.467 17.6577C110.864 18.3986 115.347 18.4173 117.418 17.0142C117.418 17.0142 116.784 24.0095 113.376 24.6981C109.968 25.3867 108.321 23.647 106.223 24.1109C104.125 24.5747 102.794 25.5809 103.986 25.8222C105.179 26.0635 108.537 24.6404 110.619 25.5464C112.702 26.4523 114.306 26.9134 111.421 28.4766C108.537 30.0399 102.897 31.3191 101.076 29.2878C99.2546 27.2566 99.2546 27.2566 99.2546 27.2566" fill="#1B957A"/>
<path d="M114.266 10.306C114.266 10.306 99.3304 20.6891 99.2544 27.2565C99.2544 27.2565 100.146 29.914 99.4219 33.4916L99.7811 34.6745C99.7811 34.6745 100.297 30.1266 101.076 29.2877C101.076 29.2877 95.7919 25.2063 114.266 10.306Z" fill="#0F655F"/>
<path d="M99.4226 33.4916C99.4226 33.4916 98.0443 38.1443 100.931 42.4239L101.535 42.0484C101.535 42.0484 99.3207 37.0417 99.8641 34.0213C100.408 31.0009 99.4226 33.4916 99.4226 33.4916Z" fill="#DFEBFD"/>
<path d="M44.9528 24.7002L38.3171 75.5167C38.0971 77.2016 39.4089 78.6963 41.1082 78.6963H50.8427L45.3543 24.5167L44.9528 24.7002" fill="#78ACEA"/>
<path d="M44.9528 24.7002L41.9821 75.1926C41.8703 77.0932 43.3815 78.6963 45.2853 78.6963H59.8035L44.9528 24.7002" fill="#699DEE"/>
<path d="M44.8408 25.1124L46.2852 75.1926C46.1734 77.0932 47.6844 78.6963 49.5884 78.6963H64.1066L44.8408 25.1124" fill="#5288D8"/>
<path d="M114.35 78.6963H57.1066C55.6775 78.6963 54.4522 77.6748 54.1953 76.2688L45.4851 28.6341C45.0893 26.4715 46.7505 24.4791 48.9492 24.4791H105.519C106.948 24.4791 108.173 25.5004 108.43 26.9064L117.262 75.2039C117.594 77.0215 116.199 78.6963 114.35 78.6963" fill="#D7E9FF"/>
<path d="M46.6186 34.8204H109.918L108.295 25.8267C108.154 25.0465 107.475 24.479 106.681 24.479H45.369C45.0342 24.479 44.7812 24.7826 44.8411 25.1123L46.6186 34.8204" fill="#F99746"/>
<path d="M48.0983 21.7726C46.5844 21.7726 45.3535 23.0029 45.3535 24.5162H45.8809C45.8809 23.2937 46.8752 22.2994 48.0983 22.2994C49.3207 22.2994 50.3156 23.2937 50.3156 24.5162C50.3156 24.7618 50.2761 24.9978 50.2016 25.218C49.9842 25.8702 49.4715 26.3874 48.8233 26.6116C48.6335 26.6776 48.4331 26.7189 48.2242 26.7301V27.2575C48.4681 27.2468 48.7024 27.2039 48.9255 27.1333C49.8159 26.8515 50.511 26.1265 50.7515 25.218C50.8108 24.9939 50.8424 24.759 50.8424 24.5162C50.8424 23.0029 49.6115 21.7726 48.0983 21.7726" fill="#91362B"/>
<path d="M48.9469 26.9747C48.9469 27.0294 48.939 27.0831 48.9254 27.1333C48.856 27.3846 48.6262 27.5687 48.3529 27.5687C48.0248 27.5687 47.7583 27.3027 47.7583 26.9747C47.7583 26.6466 48.0248 26.3801 48.3529 26.3801C48.5443 26.3801 48.7143 26.4716 48.8232 26.6116C48.9011 26.7121 48.9469 26.838 48.9469 26.9747Z" fill="#0F655F"/>
<path d="M57.9373 21.7726C56.424 21.7726 55.1931 23.0029 55.1931 24.5162H55.7199C55.7199 23.2937 56.7148 22.2994 57.9373 22.2994C59.1603 22.2994 60.1547 23.2937 60.1547 24.5162C60.1547 24.7618 60.1146 24.9978 60.0406 25.218C59.8227 25.8702 59.3105 26.3874 58.6623 26.6116C58.4731 26.6776 58.2721 26.7189 58.0632 26.7301V27.2575C58.3066 27.2468 58.5415 27.2039 58.7645 27.1333C59.655 26.8515 60.3506 26.1265 60.5911 25.218C60.6504 24.9939 60.682 24.759 60.682 24.5162C60.682 23.0029 59.4505 21.7726 57.9373 21.7726" fill="#91362B"/>
<path d="M58.7854 26.9747C58.7854 27.0294 58.7781 27.0831 58.7645 27.1333C58.6951 27.3846 58.4653 27.5687 58.1914 27.5687C57.8634 27.5687 57.5974 27.3027 57.5974 26.9747C57.5974 26.6466 57.8634 26.3801 58.1914 26.3801C58.3834 26.3801 58.5539 26.4716 58.6623 26.6116C58.7397 26.7121 58.7854 26.838 58.7854 26.9747" fill="#0F655F"/>
<path d="M67.7769 21.7726C66.2636 21.7726 65.0327 23.0029 65.0327 24.5162H65.559C65.559 23.2937 66.5533 22.2994 67.7769 22.2994C68.9994 22.2994 69.9943 23.2937 69.9943 24.5162C69.9943 24.7618 69.9542 24.9978 69.8796 25.218C69.6623 25.8702 69.1496 26.3874 68.5019 26.6116C68.3122 26.6776 68.1112 26.7189 67.9022 26.7301V27.2575C68.1456 27.2468 68.3805 27.2039 68.6035 27.1333C69.4946 26.851 70.1891 26.1265 70.4296 25.218C70.4889 24.9939 70.5205 24.759 70.5205 24.5162C70.5205 23.0029 69.2896 21.7726 67.7769 21.7726" fill="#91362B"/>
<path d="M68.6249 26.9747C68.6249 27.0294 68.617 27.0831 68.6034 27.1333C68.534 27.3846 68.3041 27.5687 68.0309 27.5687C67.7028 27.5687 67.4363 27.3027 67.4363 26.9747C67.4363 26.6466 67.7028 26.3801 68.0309 26.3801C68.2223 26.3801 68.3922 26.4716 68.5018 26.6116C68.5791 26.7121 68.6249 26.838 68.6249 26.9747Z" fill="#0F655F"/>
<path d="M77.6153 21.7729C76.102 21.7729 74.8713 23.0035 74.8713 24.5168H75.3981C75.3981 23.2941 76.3926 22.2997 77.6153 22.2997C78.8379 22.2997 79.833 23.2941 79.833 24.5168C79.833 24.762 79.7927 24.9982 79.7189 25.2184C79.5009 25.87 78.9889 26.3877 78.3407 26.6119C78.1511 26.6778 77.9502 26.7186 77.7413 26.7306V27.2579C77.9842 27.2465 78.2198 27.2045 78.4429 27.1336C79.334 26.8509 80.0282 26.1266 80.2689 25.2184C80.3279 24.9942 80.3597 24.7586 80.3597 24.5168C80.3597 23.0035 79.1285 21.7729 77.6153 21.7729" fill="#91362B"/>
<path d="M78.4645 26.9747C78.4645 27.0294 78.4566 27.0831 78.443 27.1333C78.3735 27.3846 78.1432 27.5687 77.8699 27.5687C77.5418 27.5687 77.2759 27.3027 77.2759 26.9747C77.2759 26.6466 77.5418 26.3801 77.8699 26.3801C78.0613 26.3801 78.2318 26.4716 78.3408 26.6116C78.4187 26.7121 78.4645 26.838 78.4645 26.9747Z" fill="#0F655F"/>
<path d="M87.4543 21.7731C85.9414 21.7731 84.71 23.0033 84.71 24.5168H85.2362C85.2362 23.2941 86.2322 22.2994 87.4543 22.2994C88.677 22.2994 89.6717 23.2941 89.6717 24.5168C89.6717 24.7623 89.6315 24.9984 89.5574 25.2189C89.3395 25.8701 88.8271 26.3876 88.179 26.6118C87.9899 26.6777 87.7884 26.7191 87.5805 26.7304V27.2579C87.8235 27.2466 88.0584 27.2046 88.2813 27.1336C89.1718 26.8516 89.8676 26.1269 90.1075 25.2189C90.1672 24.9941 90.1986 24.7592 90.1986 24.5168C90.1986 23.0033 88.9677 21.7731 87.4543 21.7731Z" fill="#91362B"/>
<path d="M88.3026 26.975C88.3026 27.0299 88.2946 27.0829 88.281 27.1334C88.212 27.3849 87.9827 27.5692 87.7084 27.5692C87.3805 27.5692 87.1143 27.3029 87.1143 26.975C87.1143 26.6465 87.3805 26.3802 87.7084 26.3802C87.9007 26.3802 88.0708 26.4715 88.1787 26.612C88.257 26.7125 88.3026 26.8382 88.3026 26.975" fill="#0F655F"/>
<path d="M97.2945 21.7726C95.7808 21.7726 94.55 23.0027 94.55 24.5164H95.0766C95.0766 23.2932 96.0713 22.2992 97.2945 22.2992C98.517 22.2992 99.5117 23.2932 99.5117 24.5164C99.5117 24.7614 99.4711 24.9975 99.3974 25.2178C99.1792 25.8697 98.6671 26.3873 98.0194 26.6115C97.8301 26.6773 97.6291 26.7185 97.4198 26.7301V27.2573C97.6642 27.2464 97.8982 27.2039 98.1212 27.133C99.0113 26.8513 99.7072 26.1264 99.9474 25.2178C100.007 24.9941 100.038 24.7587 100.038 24.5164C100.038 23.0027 98.8075 21.7726 97.2945 21.7726" fill="#91362B"/>
<path d="M98.1422 26.9749C98.1422 27.0297 98.1341 27.0832 98.1205 27.1333C98.0515 27.3843 97.8207 27.5691 97.5473 27.5691C97.2198 27.5691 96.9539 27.3024 96.9539 26.9749C96.9539 26.6467 97.2198 26.3801 97.5473 26.3801C97.7389 26.3801 97.9094 26.4714 98.0183 26.6115C98.0962 26.7123 98.1422 26.8382 98.1422 26.9749" fill="#0F655F"/>
<path d="M107.133 21.7725C105.62 21.7725 104.389 23.0029 104.389 24.5162H104.916C104.916 23.2936 105.911 22.2991 107.133 22.2991C108.356 22.2991 109.351 23.2936 109.351 24.5162C109.351 24.7618 109.311 24.9977 109.237 25.2181C109.019 25.8697 108.507 26.3873 107.858 26.6116C107.669 26.6774 107.469 26.7185 107.26 26.7302V27.2574C107.503 27.2465 107.737 27.2039 107.961 27.133C108.851 26.8514 109.546 26.1262 109.787 25.2181C109.846 24.9939 109.877 24.7586 109.877 24.5162C109.877 23.0029 108.646 21.7725 107.133 21.7725Z" fill="#91362B"/>
<path d="M107.981 26.9748C107.981 27.0296 107.974 27.0831 107.961 27.1333C107.89 27.3847 107.661 27.569 107.387 27.569C107.059 27.569 106.793 27.3029 106.793 26.9748C106.793 26.6467 107.059 26.3805 107.387 26.3805C107.579 26.3805 107.748 26.4714 107.857 26.6119C107.935 26.7125 107.981 26.8381 107.981 26.9748Z" fill="#0F655F"/>
<path d="M83.2234 51.7156H80.0236C79.6537 51.7156 79.2927 51.4135 79.2214 51.0431L78.6042 47.8433C78.5329 47.4734 78.7767 47.1708 79.1472 47.1708H82.3471C82.7169 47.1708 83.078 47.4734 83.1486 47.8433L83.7665 51.0431C83.8377 51.4135 83.5933 51.7156 83.2234 51.7156Z" fill="#93ADFF"/>
<path d="M91.2978 51.7157H88.0976C87.7279 51.7157 87.3672 51.4136 87.2963 51.0432L86.6782 47.8433C86.6074 47.4734 86.8519 47.1708 87.2216 47.1708H90.4211C90.7915 47.1708 91.1522 47.4734 91.2237 47.8433L91.8412 51.0432C91.912 51.4136 91.6681 51.7157 91.2978 51.7157" fill="#93ADFF"/>
<path d="M99.3732 51.7157H96.1731C95.8029 51.7157 95.4424 51.4135 95.3708 51.0432L94.7537 47.8433C94.6821 47.4734 94.9264 47.1708 95.2965 47.1708H98.4959C98.8661 47.1708 99.2266 47.4734 99.2988 47.8433L99.916 51.0432C99.9869 51.4135 99.7426 51.7157 99.3732 51.7157Z" fill="#78ACEA"/>
<path d="M59 51.7157H55.8002C55.4303 51.7157 55.069 51.4136 54.9978 51.0432L54.3807 47.8434C54.3089 47.4735 54.5534 47.1709 54.9233 47.1709H58.1231C58.493 47.1709 58.8544 47.4735 58.9255 47.8434L59.5427 51.0432C59.6144 51.4136 59.3699 51.7157 59 51.7157" fill="#93ADFF"/>
<path d="M55.4928 42.1094H54.1173C53.9586 42.1094 53.8033 41.9796 53.7728 41.8203L53.5075 40.4454C53.477 40.2862 53.582 40.1563 53.7407 40.1563H55.1156C55.2748 40.1563 55.4301 40.2862 55.4606 40.4454L55.726 41.8203C55.7565 41.9796 55.6514 42.1094 55.4928 42.1094Z" fill="#F99746"/>
<path d="M67.0743 51.7157H63.8745C63.5046 51.7157 63.1433 51.4136 63.0721 51.0432L62.455 47.8434C62.3838 47.4735 62.6277 47.1709 62.9976 47.1709H66.1974C66.5673 47.1709 66.9287 47.4735 66.9998 47.8434L67.617 51.0432C67.6887 51.4136 67.4442 51.7157 67.0743 51.7157" fill="#93ADFF"/>
<path d="M75.1488 51.7157H71.9489C71.5791 51.7157 71.2183 51.4136 71.1466 51.0432L70.5294 47.8434C70.4583 47.4735 70.7022 47.1709 71.0721 47.1709H74.2719C74.6423 47.1709 75.0031 47.4735 75.0743 47.8434L75.6914 51.0432C75.7631 51.4136 75.5186 51.7157 75.1488 51.7157" fill="#93ADFF"/>
<path d="M107.447 51.7158H104.247C103.877 51.7158 103.516 51.4137 103.445 51.0434L102.827 47.8435C102.756 47.4737 103 47.171 103.37 47.171H106.57C106.94 47.171 107.302 47.4737 107.372 47.8435L107.99 51.0434C108.061 51.4137 107.817 51.7158 107.447 51.7158Z" fill="#78ACEA"/>
<path d="M81.8826 44.7662H78.6827C78.3128 44.7662 77.9516 44.4636 77.8807 44.0937L77.2634 40.8939C77.192 40.5241 77.4359 40.2214 77.8058 40.2214H81.0057C81.3756 40.2214 81.7368 40.5241 81.8083 40.8939L82.425 44.0937C82.497 44.4636 82.2525 44.7662 81.8826 44.7662" fill="#93ADFF"/>
<path d="M89.9568 44.7662H86.7569C86.3876 44.7662 86.0264 44.4636 85.9546 44.0937L85.3376 40.8939C85.2663 40.524 85.5103 40.2214 85.8802 40.2214H89.0801C89.4507 40.2214 89.8113 40.524 89.8825 40.8939L90.5001 44.0937C90.5714 44.4636 90.3268 44.7662 89.9568 44.7662" fill="#93ADFF"/>
<path d="M98.0312 44.7662H94.8313C94.4615 44.7662 94.1012 44.4635 94.0298 44.0937L93.4119 40.8938C93.3412 40.524 93.5852 40.2214 93.955 40.2214H97.1549C97.5247 40.2214 97.8857 40.524 97.9571 40.8938L98.5743 44.0937C98.6457 44.4635 98.401 44.7662 98.0312 44.7662Z" fill="#78ACEA"/>
<path d="M106.106 44.7662H102.906C102.536 44.7662 102.176 44.4636 102.104 44.0937L101.486 40.8939C101.416 40.5241 101.66 40.2214 102.03 40.2214H105.229C105.599 40.2214 105.96 40.5241 106.032 40.8939L106.649 44.0937C106.72 44.4636 106.477 44.7662 106.106 44.7662Z" fill="#78ACEA"/>
<path d="M84.6442 59.0822H81.4442C81.0742 59.0822 80.7132 58.7796 80.6421 58.4097L80.0247 55.2099C79.953 54.84 80.1974 54.5374 80.5674 54.5374H83.7674C84.1373 54.5374 84.4983 54.84 84.5694 55.2099L85.1868 58.4097C85.258 58.7796 85.0141 59.0822 84.6442 59.0822Z" fill="#93ADFF"/>
<path d="M92.7191 59.0821H89.5193C89.1491 59.0821 88.7879 58.7794 88.7167 58.4096L88.0999 55.2097C88.0281 54.8399 88.2727 54.5372 88.6423 54.5372H91.8422C92.2117 54.5372 92.5735 54.8399 92.6447 55.2097L93.2615 58.4096C93.3334 58.7794 93.0887 59.0821 92.7191 59.0821Z" fill="#93ADFF"/>
<path d="M100.793 59.0821H97.5937C97.2237 59.0821 96.8628 58.7795 96.791 58.4096L96.1737 55.2098C96.1026 54.8399 96.3465 54.5373 96.7165 54.5373H99.9167C100.287 54.5373 100.648 54.8399 100.719 55.2098L101.336 58.4096C101.408 58.7795 101.163 59.0821 100.793 59.0821" fill="#78ACEA"/>
<path d="M60.4205 59.0821H57.2207C56.8508 59.0821 56.49 58.7795 56.4183 58.4096L55.8012 55.2098C55.73 54.8399 55.9739 54.5373 56.3443 54.5373H59.5442C59.914 54.5373 60.2748 54.8399 60.346 55.2098L60.9637 58.4096C61.0349 58.7795 60.7904 59.0821 60.4205 59.0821Z" fill="#93ADFF"/>
<path d="M68.495 59.0821H65.2951C64.9253 59.0821 64.5645 58.7795 64.4928 58.4096L63.8756 55.2098C63.8045 54.8399 64.0489 54.5373 64.4188 54.5373H67.6186C67.9885 54.5373 68.3493 54.8399 68.421 55.2098L69.0382 58.4096C69.1093 58.7795 68.8654 59.0821 68.495 59.0821Z" fill="#93ADFF"/>
<path d="M76.5702 59.0821H73.3704C73 59.0821 72.6392 58.7795 72.568 58.4096L71.9503 55.2098C71.8792 54.8399 72.1237 54.5373 72.4935 54.5373H75.6933C76.0632 54.5373 76.424 54.8399 76.4957 55.2098L77.1129 58.4096C77.184 58.7795 76.9401 59.0821 76.5702 59.0821Z" fill="#93ADFF"/>
<path d="M108.868 59.0821H105.668C105.298 59.0821 104.937 58.7794 104.866 58.4096L104.248 55.2098C104.177 54.8399 104.421 54.5372 104.791 54.5372H107.992C108.361 54.5372 108.722 54.8399 108.793 55.2098L109.411 58.4096C109.482 58.7794 109.237 59.0821 108.868 59.0821Z" fill="#78ACEA"/>
<path d="M86.0647 66.4481H82.8647C82.4948 66.4481 82.134 66.1454 82.0625 65.7756L81.4451 62.5757C81.3742 62.2059 81.618 61.9032 81.9879 61.9032H85.1884C85.5583 61.9032 85.9191 62.2059 85.9901 62.5757L86.608 65.7756C86.6789 66.1454 86.4346 66.4481 86.0647 66.4481Z" fill="#93ADFF"/>
<path d="M94.1387 66.4481H90.939C90.5691 66.4481 90.2083 66.1454 90.1368 65.7755L89.5196 62.5757C89.4487 62.2059 89.6921 61.9032 90.0627 61.9032H93.2623C93.6323 61.9032 93.9931 62.2059 94.0645 62.5757L94.6824 65.7755C94.7533 66.1454 94.5086 66.4481 94.1387 66.4481Z" fill="#93ADFF"/>
<path d="M102.214 66.4481H99.0135C98.6439 66.4481 98.2834 66.1454 98.2121 65.7755L97.5941 62.5757C97.5229 62.2059 97.7677 61.9032 98.1373 61.9032H101.337C101.707 61.9032 102.068 62.2059 102.139 62.5757L102.757 65.7755C102.828 66.1454 102.584 66.4481 102.214 66.4481Z" fill="#78ACEA"/>
<path d="M61.8418 66.4479H58.642C58.2716 66.4479 57.9108 66.1453 57.8396 65.7754L57.2225 62.5756C57.1507 62.2057 57.3952 61.9031 57.7651 61.9031H60.9649C61.3348 61.9031 61.6956 62.2057 61.7673 62.5756L62.3844 65.7754C62.4556 66.1453 62.2117 66.4479 61.8418 66.4479Z" fill="#93ADFF"/>
<path d="M69.9163 66.4479H66.7164C66.3466 66.4479 65.9852 66.1453 65.9141 65.7754L65.2969 62.5756C65.2252 62.2057 65.4697 61.9031 65.8395 61.9031H69.0394C69.4092 61.9031 69.7706 62.2057 69.8418 62.5756L70.4589 65.7754C70.5306 66.1453 70.2861 66.4479 69.9163 66.4479Z" fill="#F99746"/>
<path d="M77.9906 66.4479H74.7907C74.4209 66.4479 74.0595 66.1453 73.9884 65.7754L73.3712 62.5756C73.3001 62.2057 73.544 61.9031 73.9138 61.9031H77.1137C77.4835 61.9031 77.8449 62.2057 77.9161 62.5756L78.5332 65.7754C78.6049 66.1453 78.3604 66.4479 77.9906 66.4479Z" fill="#93ADFF"/>
<path d="M110.29 66.4478H107.09C106.72 66.4478 106.358 66.1451 106.287 65.7753L105.67 62.5754C105.599 62.2056 105.843 61.9029 106.213 61.9029H109.413C109.782 61.9029 110.144 62.2056 110.215 62.5754L110.832 65.7753C110.903 66.1451 110.66 66.4478 110.29 66.4478Z" fill="#78ACEA"/>
<path d="M87.4054 73.3981H84.2057C83.8363 73.3981 83.4749 73.0955 83.4036 72.7257L82.7865 69.5258C82.7152 69.1554 82.9598 68.8527 83.3292 68.8527H86.5296C86.899 68.8527 87.2598 69.1554 87.3317 69.5258L87.9488 72.7257C88.02 73.0955 87.776 73.3981 87.4054 73.3981Z" fill="#93ADFF"/>
<path d="M95.4808 73.3981H92.2809C91.9103 73.3981 91.5497 73.0955 91.4786 72.7257L90.8609 69.5258C90.7899 69.1554 91.0343 68.8528 91.4042 68.8528H94.6041C94.9734 68.8528 95.3347 69.1554 95.4064 69.5258L96.0234 72.7257C96.0945 73.0955 95.8508 73.3981 95.4808 73.3981" fill="#93ADFF"/>
<path d="M103.555 73.3981H100.356C99.9853 73.3981 99.6242 73.0955 99.5528 72.7257L98.9362 69.5258C98.8641 69.1554 99.1089 68.8527 99.4786 68.8527H102.678C103.048 68.8527 103.41 69.1554 103.481 69.5258L104.098 72.7257C104.169 73.0955 103.925 73.3981 103.555 73.3981Z" fill="#78ACEA"/>
<path d="M63.1822 73.3981H59.9823C59.6125 73.3981 59.2511 73.0955 59.1799 72.7256L58.5628 69.5258C58.4911 69.1554 58.7356 68.8527 59.1054 68.8527H62.3053C62.6751 68.8527 63.0365 69.1554 63.1076 69.5258L63.7248 72.7256C63.7965 73.0955 63.552 73.3981 63.1822 73.3981Z" fill="#93ADFF"/>
<path d="M71.2567 73.3981H68.0569C67.687 73.3981 67.3256 73.0955 67.2545 72.7256L66.6373 69.5258C66.5662 69.1554 66.8101 68.8527 67.18 68.8527H70.3798C70.7502 68.8527 71.111 69.1554 71.1822 69.5258L71.7993 72.7256C71.871 73.0955 71.6266 73.3981 71.2567 73.3981Z" fill="#93ADFF"/>
<path d="M79.3314 73.3981H76.1313C75.7617 73.3981 75.4007 73.0955 75.3289 72.7257L74.7118 69.5258C74.6406 69.1554 74.8847 68.8527 75.2549 68.8527H78.4549C78.8251 68.8527 79.1856 69.1554 79.2568 69.5258L79.8744 72.7257C79.9456 73.0955 79.701 73.3981 79.3314 73.3981" fill="#93ADFF"/>
<path d="M65.1912 40.8463H56.7141C56.5888 40.8463 56.4866 40.7441 56.4866 40.6193C56.4866 40.4945 56.5888 40.3923 56.7141 40.3923H65.1912C65.316 40.3923 65.4182 40.4945 65.4182 40.6193C65.4182 40.7441 65.316 40.8463 65.1912 40.8463Z" fill="#93ADFF"/>
<path d="M65.4495 41.8734H56.9719C56.8471 41.8734 56.7449 41.7712 56.7449 41.6459C56.7449 41.5211 56.8471 41.4189 56.9719 41.4189H65.4495C65.5743 41.4189 65.6765 41.5211 65.6765 41.6459C65.6765 41.7712 65.5743 41.8734 65.4495 41.8734Z" fill="#93ADFF"/>
<path d="M56.0992 33.2015H53.1902C52.9519 33.2015 52.7571 33.0062 52.7571 32.7679C52.7571 32.5302 52.9519 32.3348 53.1902 32.3348H56.0992C56.3375 32.3348 56.5323 32.5302 56.5323 32.7679C56.5323 33.0062 56.3375 33.2015 56.0992 33.2015Z" fill="#0F655F"/>
<path d="M64.0817 33.2015H61.1727C60.9344 33.2015 60.739 33.0062 60.739 32.7679C60.739 32.5302 60.9344 32.3348 61.1727 32.3348H64.0817C64.32 32.3348 64.5148 32.5302 64.5148 32.7679C64.5148 33.0062 64.32 33.2015 64.0817 33.2015Z" fill="#0F655F"/>
<path d="M72.0641 33.2015H69.1551C68.9168 33.2015 68.7214 33.0062 68.7214 32.7679C68.7214 32.5302 68.9168 32.3348 69.1551 32.3348H72.0641C72.3024 32.3348 72.4972 32.5302 72.4972 32.7679C72.4972 33.0062 72.3024 33.2015 72.0641 33.2015Z" fill="#0F655F"/>
<path d="M80.0456 33.2014H77.1367C76.898 33.2014 76.7036 33.0065 76.7036 32.7683C76.7036 32.5302 76.898 32.3352 77.1367 32.3352H80.0456C80.2837 32.3352 80.4792 32.5302 80.4792 32.7683C80.4792 33.0065 80.2837 33.2014 80.0456 33.2014Z" fill="#0F655F"/>
<path d="M88.0284 33.2013H85.1195C84.8812 33.2013 84.6868 33.0062 84.6868 32.7679C84.6868 32.5296 84.8812 32.3346 85.1195 32.3346H88.0284C88.2667 32.3346 88.4618 32.5296 88.4618 32.7679C88.4618 33.0062 88.2667 33.2013 88.0284 33.2013Z" fill="#0F655F"/>
<path d="M96.0111 33.2012H93.102C92.8634 33.2012 92.6682 33.0063 92.6682 32.768C92.6682 32.5297 92.8634 32.3348 93.102 32.3348H96.0111C96.2496 32.3348 96.4442 32.5297 96.4442 32.768C96.4442 33.0063 96.2496 33.2012 96.0111 33.2012Z" fill="#0F655F"/>
<path d="M103.994 33.2013H101.084C100.846 33.2013 100.651 33.0063 100.651 32.768C100.651 32.5297 100.846 32.3348 101.084 32.3348H103.994C104.232 32.3348 104.427 32.5297 104.427 32.768C104.427 33.0063 104.232 33.2013 103.994 33.2013Z" fill="#0F655F"/>
<path d="M85.5943 44.8292C84.9528 44.8292 84.4842 44.6254 84.2298 44.2295C83.7408 43.4706 84.1176 42.4068 85.3514 41.068C86.2519 40.0901 87.3036 39.3154 87.3139 39.3075C87.3549 39.277 87.4132 39.286 87.444 39.3272C87.4741 39.3685 87.4651 39.4266 87.4241 39.4571C87.3825 39.4876 83.3293 42.4887 84.3855 44.129C84.7201 44.6485 85.4366 44.6829 85.9795 44.6203C86.9838 44.504 88.2932 43.963 89.4827 43.173C90.7133 42.3554 91.5811 41.4345 91.8618 40.6452C92.0464 40.1279 91.9893 39.7615 91.6919 39.5559C91.3087 39.2905 90.5075 39.29 89.5494 39.5554C88.6309 39.8089 87.7074 40.2657 87.1383 40.7473C87.0992 40.7806 87.0408 40.7756 87.0075 40.7366C86.9742 40.6976 86.9787 40.6389 87.0178 40.6056C87.6061 40.1076 88.5572 39.6367 89.4994 39.3763C90.5255 39.0923 91.3632 39.1025 91.7977 39.4029C92.0553 39.5814 92.3053 39.9523 92.0368 40.7078C91.7426 41.5339 90.8491 42.4887 89.5853 43.3278C88.3733 44.1329 87.0332 44.6852 86.0013 44.8044C85.859 44.8207 85.7231 44.8292 85.5943 44.8292" fill="#C65447"/>
<path d="M102.392 39.5542L102.061 38.9314C102.061 38.9314 102.225 37.8209 100.834 37.1186C100.834 37.1186 100.325 36.9117 100.039 37.3263C99.7744 37.7082 100.543 37.6393 100.501 38.2926C100.46 38.9461 100.77 39.3295 101.202 39.5423L101.559 39.9557L102.392 39.5542" fill="#FFB27D"/>
<path d="M115.537 38.065C115.537 38.065 114.343 43.9282 107.769 45.844C105.717 46.442 101.055 39.686 101.055 39.686C101.055 39.686 101.218 39.0632 102.246 39.2061C102.246 39.2061 106.785 42.2111 107.356 42.538C107.864 42.8277 111.198 38.8142 112.719 38.1667C114.238 37.5192 115.537 38.065 115.537 38.065" fill="#233862"/>
<path d="M103.471 36.6347L103.734 38.0572L96.5792 39.382L96.3154 37.9597L103.471 36.6347Z" fill="#C65447"/>
<path d="M94.7834 38.9791L96.5787 39.3823L96.3152 37.96L94.7834 38.9791Z" fill="#FFB27D"/>
<path d="M104.39 36.9528L104.473 37.4025C104.524 37.6792 104.341 37.945 104.065 37.9962L103.734 38.0575L103.47 36.6351L103.831 36.5683C104.091 36.5201 104.341 36.6922 104.39 36.9528Z" fill="#FFB27D"/>
<path d="M123.386 74.9232C123.386 74.9232 124.202 75.6674 124.043 76.1965C123.884 76.7256 123.148 77.078 123.048 77.7244C122.949 78.3704 122.55 78.7233 122.193 78.7233C121.835 78.7233 120.486 78.7233 120.486 78.7233C120.486 78.7233 120.222 78.2682 120.859 78.131C121.495 77.9943 121.736 77.2343 121.696 76.5297C121.656 75.8244 121.756 74.8843 121.756 74.8843L123.108 74.5709L123.386 74.9232" fill="#233862"/>
<path d="M113.381 76.8487C113.381 76.8487 113.527 78.5421 113.169 78.7183L108.587 78.7092C108.587 78.7092 108.587 78.1801 109.323 78.0627C110.059 77.9452 111.352 77.5144 111.571 76.5545C111.789 75.5952 113.381 76.8487 113.381 76.8487Z" fill="#233862"/>
<path d="M109.512 52.9224C109.512 52.9224 109.753 55.8913 110.038 59.4599C110.424 64.3085 110.888 70.2633 110.934 71.3915C111.013 73.3502 111.332 76.484 111.332 76.484C111.332 76.484 112.088 77.2282 113.599 76.9148C113.599 76.9148 114.947 72.4417 115.332 67.7088C115.338 67.6309 115.344 67.553 115.35 67.4745C115.707 62.6564 116.265 52.5108 116.265 52.5108L109.512 52.9224" fill="#F99746"/>
<path d="M109.512 52.9225C109.512 52.9225 109.753 55.8914 110.038 59.4599L115.332 67.7089C115.338 67.6309 115.344 67.553 115.35 67.4745C115.707 62.6564 116.265 52.5109 116.265 52.5109L109.512 52.9225" fill="#C97D4D"/>
<path d="M110.616 53.2747C110.616 53.2747 114.972 64.0273 117.836 69.0803C120.701 74.1339 121.596 75.5438 121.596 75.5438C121.596 75.5438 123.237 74.8973 123.386 74.4568C123.386 74.4568 122.291 64.7014 120.372 62.3231C119.289 60.9798 118.016 56.9471 117.956 55.5366C117.896 54.1267 117.568 51.3356 117.568 51.3356L110.616 53.2747Z" fill="#F99746"/>
<path d="M116.347 36.704C116.347 36.704 113.4 38.1262 111.701 37.5986C111.701 37.5986 112.119 37.0709 112.851 36.6783C112.792 36.3372 112.747 36.0412 112.721 35.7903C112.648 35.211 112.648 34.8829 112.648 34.8829L113.786 33.9884L114.864 33.1326C114.779 35.5393 116.347 36.704 116.347 36.704" fill="#FFB27D"/>
<path d="M109.327 53.1674C109.378 53.2126 109.437 53.2381 109.503 53.2381C110.144 53.2251 112.006 53.5786 113.581 53.4176C114.913 53.2888 116.09 52.9032 117.352 52.3504C117.522 52.2731 117.907 52.067 117.901 51.8868C117.894 51.6807 117.875 51.3916 117.848 51.0178C117.796 50.2827 117.721 49.2387 117.697 48.0009C117.681 47.0834 117.69 46.0597 117.756 44.975C117.76 44.9021 117.764 44.8288 117.768 44.7554C117.787 44.3578 117.796 43.9575 117.796 43.5662C117.803 42.3048 117.711 41.1015 117.528 40.027C117.207 38.1606 116.607 36.7002 115.718 36.05C115.6 35.9596 114.868 36.3134 114.189 36.642C113.567 36.9445 112.947 36.9767 112.359 36.861L111.771 37.3756C111.057 38.0251 110.273 38.9197 109.927 40.2715C109.64 41.4172 109.47 43.4888 109.378 45.6384C109.333 46.6164 109.3 47.5944 109.287 48.5272V48.5593C109.28 48.6559 109.28 48.753 109.28 48.8496C109.248 51.237 109.28 53.1353 109.327 53.1674" fill="#2B478B"/>
<path d="M114.884 34.0528C114.884 34.0528 114.139 35.4105 112.721 35.7902C112.648 35.211 112.648 34.8829 112.648 34.8829L113.786 33.9884L114.884 34.0528Z" fill="#ED985F"/>
<path d="M112.13 34.8436C112.13 34.8436 114.942 35.3035 115.206 33.575C115.47 31.8464 116.01 30.7416 114.227 30.3749C112.443 30.0081 111.992 30.6159 111.762 31.1718C111.531 31.7277 111.406 34.6794 112.13 34.8436" fill="#FFB27D"/>
<path d="M116.228 30.168C116.253 30.1387 116.313 30.1151 116.444 30.1079C116.444 30.1079 116.339 30.0425 116.198 30.039C116.171 29.8569 116.074 29.5344 115.761 29.456C115.761 29.456 115.929 29.5458 115.951 29.7395C115.588 29.3665 114.81 29.095 112.655 29.2651C109.815 29.4893 110.751 31.3075 111.119 31.5243C111.486 31.7411 112.412 31.1469 113.097 31.2012C113.782 31.2556 113.913 32.2454 114.145 32.3812C114.377 32.5171 114.285 32.2769 114.6 32.1348C114.914 31.9927 114.944 32.5136 114.853 32.8524C114.763 33.1912 115.194 33.6379 115.194 33.6379C115.194 33.6379 115.194 33.6379 115.631 33.1678C116.067 32.6977 116.479 30.7062 116.281 30.2816C116.264 30.2441 116.246 30.2062 116.228 30.168" fill="#2C3A64"/>
<path d="M102.055 38.9014C102.055 38.9014 102.152 38.5194 101.887 38.3476C101.622 38.1758 101.378 37.7087 101.266 37.772C101.035 37.9031 101.393 38.3107 101.327 38.8189C101.305 38.9974 101.719 39.4638 102.055 38.9014Z" fill="#FFB27D"/>
<path d="M117.698 48.0008C117.681 47.0833 117.69 46.0596 117.757 44.9749C117.761 44.9021 117.764 44.8287 117.768 44.7553C117.501 43.4312 117.096 42.2561 116.501 42.2177C116.501 42.2177 114.728 45.0043 117.698 48.0008Z" fill="#233862"/>
<path d="M120.042 52.8055C120.042 52.8055 119.895 54.2426 119.733 54.5141C119.57 54.7858 118.88 55.6542 118.587 55.8247C118.292 55.9953 118.766 54.6802 118.705 54.4244C118.646 54.1686 118.464 54.8914 118.333 54.9083C118.205 54.9253 118.238 54.2747 118.234 54.0382C118.228 53.8016 118.863 53.2172 119.088 52.7135C119.312 52.2093 120.042 52.8055 120.042 52.8055" fill="#FFB27D"/>
<path d="M115.716 36.0355C115.716 36.0355 117.496 36.8779 118.349 38.173C119.672 40.1821 121.206 47.5034 121.234 48.1815C121.262 48.8592 120.114 53.6456 120.114 53.6456C120.114 53.6456 118.95 53.5694 118.65 52.9816C118.65 52.9816 118.883 48.0635 118.735 47.7473C118.588 47.4311 113.883 41.1506 114.412 39.81C114.941 38.47 115.716 36.0355 115.716 36.0355" fill="#2B478B"/>
<path d="M95.703 38.3669L95.7971 39.2064L94.7837 38.9788L95.703 38.3669Z" fill="#C65447"/>
<path d="M134.2 78.6962H129.073C128.798 78.463 129.263 77.934 129.748 77.8983C129.96 77.882 130.227 77.9266 130.531 77.9909C130.602 77.0537 131.005 72.8414 132.523 73.0102C134.231 73.1999 132.523 74.8656 132.041 75.8515C131.683 76.5822 131.306 77.6295 131.133 78.1236C131.272 78.1541 131.415 78.1835 131.562 78.2101C131.788 77.5155 132.63 75.1785 133.701 75.3145C134.958 75.4738 134.453 76.4111 133.562 76.9673C132.908 77.3761 132.106 77.9576 131.724 78.2382C132.047 78.2914 132.385 78.3269 132.727 78.319C133.604 78.2982 134.034 78.5567 134.2 78.6962" fill="#0F655F"/>
<path d="M17.1654 78.4523C16.8937 78.0255 16.076 76.9176 14.9869 77.0644C13.8003 77.2242 16.2975 78.0068 17.062 78.4557C16.8922 78.458 16.7463 78.4444 16.639 78.406C16.1279 78.2242 15.2526 78.5737 14.9727 78.6963H19.8386C19.805 78.5799 19.7173 78.3897 19.4907 78.2513C19.4108 78.2022 19.2502 78.1954 19.0429 78.2112C19.3322 77.8702 19.5331 76.7804 18.7277 77.061C18.1392 77.266 18.1409 77.9317 18.1987 78.3253C18.0735 78.345 17.9465 78.3648 17.8211 78.3829C17.5788 77.148 16.7219 73.5297 14.9852 73.4332C13.2245 73.3355 16.4782 77.1858 17.5616 78.4173C17.4228 78.4343 17.2892 78.4467 17.1654 78.4523" fill="#0F655F"/>
</svg>
